<svg width="15" height="16" viewBox="0 0 15 16" fill="none" xmlns="http://www.w3.org/2000/svg">
<g clip-path="url(#clip0_1078_65)">
<path d="M3.07288 0.894043C3.4016 1.03196 3.76403 1.12931 4.05061 1.31589C4.80919 1.81887 5.06205 2.5571 5.0199 3.42514C5.01147 3.56305 5.11262 3.76587 5.22219 3.83077C6.91635 4.78804 8.62737 5.7372 10.33 6.67825C10.389 6.7107 10.448 6.73504 10.507 6.75938C11.7207 5.95624 12.9934 6.00491 13.811 6.88918C14.5443 7.6842 14.5274 9.0471 13.7857 9.85835C12.926 10.7913 11.6785 10.8643 10.4142 10.0368C8.64422 11.0428 6.86578 12.0487 5.10419 13.0709C4.99462 13.1358 4.93562 13.3548 4.94404 13.4927C5.01147 14.6772 4.3119 15.602 3.12345 15.8454C1.8423 16.1131 0.637001 15.2613 0.45157 13.9714C0.282997 12.7626 1.25229 11.6269 2.51659 11.5539C3.08131 11.5214 3.58703 11.6512 4.05904 11.9676C4.16861 12.0406 4.40461 12.0487 4.52261 11.9838C6.20834 11.0428 7.89407 10.0855 9.57138 9.112C9.68095 9.0471 9.74838 8.87674 9.77366 8.74694C9.94224 8.04115 9.55452 7.70854 8.9308 7.39215C7.43893 6.62958 6.01448 5.78588 4.56475 4.97463C4.3709 4.86105 4.23604 4.8286 4.01689 4.98274C3.19931 5.55061 2.30587 5.56684 1.45458 5.08009C0.561143 4.569 0.240854 3.74964 0.384141 2.76803C0.510571 1.89188 1.17643 1.20232 2.08673 0.975168C2.16259 0.958943 2.23845 0.91838 2.3143 0.894043C2.56716 0.894043 2.82002 0.894043 3.07288 0.894043Z" fill="white"/>
</g>
<defs>
<clipPath id="clip0_1078_65">
<rect width="14" height="15" fill="white" transform="translate(0.350586 0.894043)"/>
</clipPath>
</defs>
</svg>
