<svg width="38" height="76" viewBox="0 0 38 76" fill="none" xmlns="http://www.w3.org/2000/svg">
<g clip-path="url(#clip0_378_12428)">
<path d="M37.7291 0H0.157227V37.9867H37.7291V0Z" fill="#FFBC00"/>
<path d="M13.8142 21.8379C13.7652 20.9534 13.7973 20.0662 13.9103 19.1877C13.9912 17.6681 14.2136 16.1597 14.5744 14.6823C14.7463 13.9662 15.0814 13.3006 15.553 12.7388C16.0385 12.24 16.6638 11.9039 17.3442 11.7759C18.592 11.5077 19.8932 11.689 21.0228 12.2882C21.7492 12.7111 22.3521 13.3206 22.7703 14.0551C23.3653 15.0092 23.6523 16.1267 23.5916 17.253C23.5567 17.9357 23.5567 18.6198 23.5916 19.3025C23.6641 19.9535 23.6846 20.6094 23.6528 21.2637C23.6413 22.2192 23.5419 23.1715 23.3557 24.1083C23.0862 24.9977 22.5598 25.7852 21.8441 26.3698C21.4855 26.7498 21.0122 26.9984 20.4985 27.0766C20.1745 27.0905 19.8539 27.15 19.5461 27.2532C19.2054 27.3946 18.8908 27.5624 18.55 27.6861C17.9169 27.8099 17.2608 27.7036 16.6976 27.3858C15.765 27.0095 14.9669 26.3566 14.4084 25.5129C14.1255 25.0201 13.9498 24.472 13.8929 23.9051C13.8103 23.2194 13.784 22.528 13.8142 21.8379ZM21.6781 20.5923C21.7476 19.1513 21.5913 17.7082 21.215 16.3166C21.0304 15.338 20.6722 14.4012 20.1578 13.5515C19.9974 13.2698 19.7633 13.0383 19.4812 12.8824C19.199 12.7266 18.8799 12.6524 18.5588 12.6681C18.2225 12.7122 17.8842 12.7387 17.5452 12.7476C17.3484 12.733 17.1511 12.7681 16.9711 12.8498C16.7911 12.9316 16.6341 13.0574 16.5142 13.2158C16.1165 13.6885 15.8191 14.2388 15.6404 14.8325C15.2756 16.1901 15.0444 17.5809 14.9501 18.9845C14.774 20.7281 14.9798 22.4895 15.553 24.1436C15.7877 25.0717 16.3116 25.8987 17.0472 26.5023C17.3606 26.7993 17.7711 26.9691 18.2005 26.9794C18.6688 26.9056 19.1326 26.8053 19.5898 26.679C19.99 26.6116 20.3545 26.4054 20.6208 26.096C21.2116 25.2591 21.5541 24.2693 21.6082 23.2426C21.7218 22.3641 21.754 21.4768 21.7043 20.5923H21.6781ZM22.0713 17.4915C22.0407 17.7143 22.0407 17.9402 22.0713 18.1629C22.1829 18.6072 22.23 19.0654 22.2111 19.5234C22.2111 20.4598 22.2111 21.4051 22.2111 22.3415C22.2025 22.6736 22.1674 23.0045 22.1062 23.3309C22.1062 23.4546 22.0276 23.5871 22.1499 23.6224C22.2723 23.6578 22.316 23.4722 22.3422 23.3839C22.5338 22.8135 22.6456 22.2188 22.6742 21.6171C22.6815 20.7628 22.6231 19.9092 22.4994 19.064C22.5205 18.5114 22.3807 17.9647 22.0975 17.4915H22.0713ZM15.5181 25.6189C15.387 25.2832 15.2472 24.9564 15.1161 24.6207C14.8802 24.0023 14.8453 23.3397 14.653 22.7213C14.653 22.633 14.6094 22.4828 14.487 22.5005C14.3647 22.5182 14.3472 22.6507 14.3472 22.7743C14.3527 23.3568 14.447 23.9348 14.6268 24.4882C14.679 24.7334 14.7866 24.9631 14.9412 25.1593C15.0959 25.3554 15.2933 25.5128 15.5181 25.6189ZM22.8664 17.2618C23.0448 16.8577 23.0666 16.4006 22.9276 15.9809C22.8481 15.5092 22.6693 15.0603 22.4033 14.6646C22.3422 14.5763 22.281 14.5674 22.2198 14.5939C22.1587 14.6204 22.2198 14.6911 22.2198 14.753C22.4383 15.6099 22.648 16.4491 22.8664 17.2884V17.2618ZM21.5296 14.8766C21.5807 14.5965 21.5278 14.3071 21.381 14.0639C21.381 14.0639 21.381 13.9667 21.2674 13.9932C21.2446 14.003 21.2264 14.0214 21.2166 14.0444C21.2069 14.0675 21.2063 14.0934 21.215 14.1169C21.2394 14.405 21.349 14.6789 21.5296 14.9031V14.8766Z" fill="#211D0A"/>
<path d="M9.77748 28.1191C9.77748 26.9971 9.77748 25.8752 9.77748 24.7533C9.76745 24.6869 9.77167 24.6191 9.78985 24.5545C9.80803 24.4899 9.83975 24.43 9.88285 24.3788C9.92595 24.3277 9.97942 24.2866 10.0396 24.2582C10.0999 24.2298 10.1654 24.2149 10.2318 24.2144C10.5114 24.2144 10.7736 24.1614 10.8697 24.5589C10.9793 25.0139 11.0466 25.4782 11.0707 25.9459C11.1624 26.956 11.1887 27.9712 11.1493 28.9848C11.1493 29.4177 11.1056 29.8682 11.0794 30.2834C11.0794 30.5043 11.1493 30.5661 11.3677 30.5573C12.4075 30.5573 13.456 30.5573 14.5045 30.5573C14.573 30.5473 14.6427 30.552 14.7092 30.5713C14.7756 30.5905 14.8373 30.6237 14.8901 30.6688C14.943 30.7139 14.9858 30.7698 15.0157 30.8328C15.0456 30.8958 15.062 30.9645 15.0638 31.0343C15.0882 31.0961 15.0993 31.1625 15.0964 31.229C15.0935 31.2954 15.0765 31.3605 15.0468 31.4199C15.017 31.4792 14.9751 31.5315 14.9238 31.5732C14.8725 31.6148 14.8129 31.645 14.7492 31.6616C13.9019 31.9269 13.011 32.02 12.1279 31.9354C11.4114 31.9354 10.7124 31.8382 9.99593 31.8117C9.76875 31.8117 9.76001 31.7057 9.76001 31.529C9.77749 30.3894 9.77748 29.2498 9.77748 28.1191ZM10.328 29.0025C10.6425 28.1191 10.328 27.2357 10.328 26.3522V29.0025ZM12.5648 31.1668C13.0283 31.3042 13.5222 31.2949 13.9803 31.1403C13.5091 31.073 13.0298 31.0909 12.5648 31.1933V31.1668Z" fill="#211D0A"/>
<path d="M27.0866 7.99492C27.0866 8.72816 27.0866 9.46139 27.0866 10.2035C27.0866 10.4508 27.0866 10.6893 26.772 10.7158C26.4575 10.7423 26.1517 10.866 26.0119 10.4331C25.8891 10.0913 25.8099 9.73509 25.7759 9.37305C25.706 8.61331 25.7759 7.86241 25.7759 7.11151C25.7759 6.74048 25.6624 6.69631 25.3478 6.69631C24.3867 6.69631 23.4343 6.69631 22.4731 6.69631C22.2459 6.69631 22.0013 6.69631 21.9314 6.41361C21.8178 5.85706 21.8702 5.76872 22.2721 5.60088C23.0609 5.28729 23.9217 5.20761 24.7536 5.37119C24.877 5.40224 25.006 5.40224 25.1294 5.37119C25.5716 5.27598 26.0314 5.30656 26.4575 5.45953C26.5099 5.45953 26.5623 5.45953 26.606 5.45953C27.2177 5.30051 27.0604 5.75106 27.0691 6.06025L27.0866 7.99492ZM24.3954 6.06025C23.9061 5.82173 23.5216 6.06025 23.0585 6.06025C23.4945 6.19262 23.9594 6.19262 24.3954 6.06025ZM26.5274 8.24228C26.3482 8.75685 26.3482 9.31786 26.5274 9.83242V8.24228Z" fill="#211D0A"/>
<path d="M18.349 10.8836C18.1044 10.8836 17.7811 10.8836 17.6762 10.5921C17.5714 10.3006 17.8597 10.0532 18.0956 9.89422C18.7169 9.45887 19.3889 9.1028 20.0965 8.83412C20.3849 8.72811 20.4985 8.83412 20.4461 9.12565C20.2894 9.58483 20.011 9.99166 19.6411 10.3017C19.2713 10.6117 18.8243 10.813 18.349 10.8836Z" fill="#211D0A"/>
<path d="M37.5717 37.5715H0.436768V75.5583H37.5717V37.5715Z" stroke="#FFBC00" stroke-width="0.99" stroke-miterlimit="10"/>
<path fill-rule="evenodd" clip-rule="evenodd" d="M17.2392 45.9993C16.6448 45.9937 16.0607 46.1561 15.5527 46.4683C15.0448 46.7805 14.6333 47.23 14.3646 47.7661L13.9015 48.6495C13.7764 48.8924 13.5883 49.0963 13.3575 49.2394C13.1266 49.3826 12.8616 49.4596 12.5908 49.4623H11.1054C10.6743 49.4586 10.2468 49.5426 9.84838 49.7093C9.45 49.8761 9.08884 50.1221 8.78641 50.4328C8.48398 50.7436 8.24645 51.1126 8.08794 51.518C7.92944 51.9234 7.8532 52.3569 7.86376 52.7927V63.3937C7.86376 63.8206 7.94693 64.2433 8.10852 64.6378C8.27011 65.0322 8.50696 65.3906 8.80554 65.6925C9.10412 65.9943 9.45859 66.2338 9.84871 66.3972C10.2388 66.5606 10.657 66.6446 11.0792 66.6446H27.4798C28.3311 66.64 29.1463 66.296 29.7484 65.6873C30.3504 65.0787 30.6906 64.2545 30.6952 63.3937V52.7927C30.6952 51.9297 30.3567 51.1019 29.754 50.4908C29.1512 49.8798 28.3334 49.5353 27.4798 49.5329H25.9944C25.7216 49.5345 25.4539 49.4582 25.2221 49.3128C24.9903 49.1675 24.8037 48.9591 24.6837 48.7114L24.2119 47.7749C23.9408 47.2408 23.5287 46.793 23.0213 46.4811C22.5139 46.1692 21.931 46.0055 21.3372 46.0081H17.2043L17.2392 45.9993Z" fill="#FFBC00"/>
<path fill-rule="evenodd" clip-rule="evenodd" d="M19.3101 51.9181C18.2106 51.9181 17.1358 52.2479 16.2218 52.8656C15.3077 53.4834 14.5955 54.3614 14.1751 55.3886C13.7548 56.4157 13.6452 57.5459 13.8604 58.636C14.0755 59.7261 14.6056 60.7272 15.3837 61.5126C16.1617 62.298 17.1527 62.8325 18.2313 63.0482C19.3098 63.264 20.4275 63.1515 21.4428 62.7249C22.458 62.2983 23.3253 61.5768 23.9349 60.6517C24.5445 59.7266 24.8689 58.6394 24.8672 57.5278C24.8684 56.79 24.7253 56.0593 24.4464 55.3776C24.1674 54.6959 23.758 54.0767 23.2416 53.5554C22.7252 53.0342 22.1121 52.6212 21.4374 52.3402C20.7627 52.0592 20.0397 51.9158 19.3101 51.9181Z" fill="#211D0A"/>
</g>
<defs>
<clipPath id="clip0_378_12428">
<rect width="38" height="76" fill="white"/>
</clipPath>
</defs>
</svg>
