<svg width="115" height="30" viewBox="0 0 115 30" fill="none" xmlns="http://www.w3.org/2000/svg">
<rect x="1" y="1" width="113" height="28" rx="6.5" fill="#242424" stroke="#00CFFF"/>
<path d="M44.71 12.62C43.89 12.62 43.2667 12.4167 42.84 12.01C42.4133 11.5967 42.2 11.0033 42.2 10.23V8.22C42.2 7.44667 42.4133 6.85667 42.84 6.45C43.2733 6.03667 43.9 5.83 44.72 5.83C45.2533 5.83 45.7167 5.92 46.11 6.1C46.51 6.28 46.8067 6.53667 47 6.87C47.2 7.20333 47.2667 7.60333 47.2 8.07C47.1933 8.10333 47.1833 8.13667 47.17 8.17C47.1567 8.19667 47.13 8.21 47.09 8.21H46.34C46.2667 8.21 46.2333 8.17333 46.24 8.1C46.26 7.64667 46.14 7.29667 45.88 7.05C45.6267 6.79667 45.2433 6.67 44.73 6.67C44.2233 6.67 43.8333 6.80333 43.56 7.07C43.2867 7.33 43.15 7.71333 43.15 8.22V10.23C43.15 10.7367 43.2867 11.1233 43.56 11.39C43.8333 11.65 44.2233 11.78 44.73 11.78C45.2433 11.78 45.6367 11.6533 45.91 11.4C46.1833 11.1467 46.2933 10.7967 46.24 10.35C46.2333 10.2767 46.2667 10.24 46.34 10.24H47.08C47.1467 10.24 47.1867 10.2867 47.2 10.38C47.24 10.8333 47.16 11.2267 46.96 11.56C46.7667 11.8933 46.4767 12.1533 46.09 12.34C45.7033 12.5267 45.2433 12.62 44.71 12.62ZM49.8486 12.62C49.4219 12.62 49.0953 12.48 48.8686 12.2C48.6419 11.9133 48.5286 11.5 48.5286 10.96V7.71C48.5286 7.64333 48.5619 7.61 48.6286 7.61H49.3686C49.4419 7.61 49.4786 7.64333 49.4786 7.71V10.87C49.4786 11.1833 49.5319 11.4167 49.6386 11.57C49.7519 11.7167 49.9253 11.79 50.1586 11.79C50.3986 11.79 50.6386 11.7167 50.8786 11.57C51.1186 11.4167 51.4119 11.1633 51.7586 10.81V11.63C51.5519 11.8367 51.3419 12.0167 51.1286 12.17C50.9219 12.3167 50.7119 12.4267 50.4986 12.5C50.2919 12.58 50.0753 12.62 49.8486 12.62ZM51.8486 12.5C51.8086 12.5 51.7786 12.4933 51.7586 12.48C51.7386 12.46 51.7253 12.4333 51.7186 12.4C51.6986 12.2733 51.6819 12.1433 51.6686 12.01C51.6553 11.8767 51.6453 11.74 51.6386 11.6L51.5786 11.16V7.71C51.5786 7.64333 51.6119 7.61 51.6786 7.61H52.4186C52.4919 7.61 52.5286 7.64333 52.5286 7.71V11.27C52.5286 11.4567 52.5319 11.6467 52.5386 11.84C52.5519 12.0267 52.5686 12.21 52.5886 12.39C52.6019 12.4633 52.5653 12.5 52.4786 12.5H51.8486ZM54.0583 12.5C53.9916 12.5 53.9583 12.4633 53.9583 12.39V5.78C53.9583 5.70667 53.9916 5.67 54.0583 5.67H54.7983C54.8716 5.67 54.9083 5.70667 54.9083 5.78V12.39C54.9083 12.4633 54.8716 12.5 54.7983 12.5H54.0583ZM58.1211 12.62C57.7678 12.62 57.4844 12.5633 57.2711 12.45C57.0578 12.33 56.9044 12.15 56.8111 11.91C56.7178 11.67 56.6711 11.37 56.6711 11.01V8.42H55.9111C55.8378 8.42 55.8011 8.38333 55.8011 8.31V7.71C55.8011 7.64333 55.8378 7.61 55.9111 7.61H56.6911L56.8111 6.41C56.8178 6.33667 56.8578 6.3 56.9311 6.3H57.5111C57.5778 6.3 57.6111 6.33667 57.6111 6.41L57.6211 7.61H59.0711C59.1444 7.61 59.1811 7.64333 59.1811 7.71V8.31C59.1811 8.38333 59.1444 8.42 59.0711 8.42H57.6211V10.97C57.6211 11.27 57.6744 11.4833 57.7811 11.61C57.8878 11.7367 58.0678 11.8 58.3211 11.8C58.4544 11.8 58.5844 11.7867 58.7111 11.76C58.8444 11.7267 58.9611 11.6867 59.0611 11.64C59.1011 11.6267 59.1311 11.6267 59.1511 11.64C59.1778 11.6533 59.1911 11.68 59.1911 11.72V12.33C59.1911 12.39 59.1611 12.43 59.1011 12.45C58.9811 12.4967 58.8378 12.5367 58.6711 12.57C58.5111 12.6033 58.3278 12.62 58.1211 12.62ZM61.538 12.62C61.1114 12.62 60.7847 12.48 60.558 12.2C60.3314 11.9133 60.218 11.5 60.218 10.96V7.71C60.218 7.64333 60.2514 7.61 60.318 7.61H61.058C61.1314 7.61 61.168 7.64333 61.168 7.71V10.87C61.168 11.1833 61.2214 11.4167 61.328 11.57C61.4414 11.7167 61.6147 11.79 61.848 11.79C62.088 11.79 62.328 11.7167 62.568 11.57C62.808 11.4167 63.1014 11.1633 63.448 10.81V11.63C63.2414 11.8367 63.0314 12.0167 62.818 12.17C62.6114 12.3167 62.4014 12.4267 62.188 12.5C61.9814 12.58 61.7647 12.62 61.538 12.62ZM63.538 12.5C63.498 12.5 63.468 12.4933 63.448 12.48C63.428 12.46 63.4147 12.4333 63.408 12.4C63.388 12.2733 63.3714 12.1433 63.358 12.01C63.3447 11.8767 63.3347 11.74 63.328 11.6L63.268 11.16V7.71C63.268 7.64333 63.3014 7.61 63.368 7.61H64.108C64.1814 7.61 64.218 7.64333 64.218 7.71V11.27C64.218 11.4567 64.2214 11.6467 64.228 11.84C64.2414 12.0267 64.258 12.21 64.278 12.39C64.2914 12.4633 64.2547 12.5 64.168 12.5H63.538ZM65.7477 12.5C65.6811 12.5 65.6477 12.4633 65.6477 12.39V8.81C65.6477 8.61667 65.6411 8.43333 65.6277 8.26C65.6211 8.08 65.6044 7.9 65.5777 7.72C65.5644 7.64667 65.5977 7.61 65.6777 7.61H66.3577C66.3911 7.61 66.4177 7.61667 66.4377 7.63C66.4577 7.64333 66.4711 7.66667 66.4777 7.7C66.5044 7.82667 66.5244 7.97 66.5377 8.13C66.5511 8.29 66.5577 8.42667 66.5577 8.54L66.5977 9.09V12.39C66.5977 12.4633 66.5611 12.5 66.4877 12.5H65.7477ZM66.4877 9.43L66.4477 8.55C66.5877 8.34333 66.7477 8.16333 66.9277 8.01C67.1144 7.85 67.3011 7.72333 67.4877 7.63C67.6744 7.53667 67.8477 7.49 68.0077 7.49C68.1277 7.49 68.2177 7.5 68.2777 7.52C68.3111 7.52667 68.3311 7.54 68.3377 7.56C68.3511 7.57333 68.3611 7.59667 68.3677 7.63C68.3811 7.77667 68.3844 7.93 68.3777 8.09C68.3777 8.24333 68.3677 8.39 68.3477 8.53C68.3411 8.57 68.3244 8.59667 68.2977 8.61C68.2777 8.62333 68.2477 8.62667 68.2077 8.62C68.1611 8.60667 68.1077 8.59667 68.0477 8.59C67.9877 8.58333 67.9244 8.58 67.8577 8.58C67.6977 8.58 67.5344 8.61667 67.3677 8.69C67.2077 8.75667 67.0511 8.85333 66.8977 8.98C66.7511 9.10667 66.6144 9.25667 66.4877 9.43ZM72.0036 12.5C71.9636 12.5 71.9336 12.4867 71.9136 12.46C71.9003 12.4333 71.8869 12.4 71.8736 12.36C71.8669 12.3067 71.8503 12.1933 71.8236 12.02C71.8036 11.8467 71.7903 11.69 71.7836 11.55L71.7436 11.16V9.17C71.7436 8.85 71.6803 8.62333 71.5536 8.49C71.4269 8.35667 71.2036 8.29 70.8836 8.29C70.3103 8.29 70.0269 8.49 70.0336 8.89C70.0336 8.96333 70.0003 9 69.9336 9H69.2036C69.1303 9 69.0903 8.93667 69.0836 8.81C69.0503 8.41 69.2003 8.09 69.5336 7.85C69.8669 7.61 70.3269 7.49 70.9136 7.49C71.5203 7.49 71.9669 7.62667 72.2536 7.9C72.5469 8.17333 72.6936 8.59333 72.6936 9.16V11.28C72.6936 11.5067 72.6969 11.7133 72.7036 11.9C72.7169 12.08 72.7336 12.24 72.7536 12.38C72.7669 12.46 72.7336 12.5 72.6536 12.5H72.0036ZM70.0836 12.62C69.6969 12.62 69.4003 12.5033 69.1936 12.27C68.9869 12.03 68.8836 11.6867 68.8836 11.24C68.8836 10.8933 68.9503 10.6133 69.0836 10.4C69.2236 10.18 69.4436 10.01 69.7436 9.89C70.0503 9.76333 70.4569 9.68 70.9636 9.64L71.8936 9.56V10.23L70.9736 10.31C70.5403 10.35 70.2403 10.4333 70.0736 10.56C69.9069 10.68 69.8236 10.8833 69.8236 11.17C69.8236 11.3833 69.8669 11.5467 69.9536 11.66C70.0469 11.7667 70.1836 11.82 70.3636 11.82C70.5769 11.82 70.7969 11.7467 71.0236 11.6C71.2569 11.4533 71.5569 11.19 71.9236 10.81L71.9436 11.57C71.7169 11.8167 71.5036 12.0167 71.3036 12.17C71.1036 12.3233 70.9036 12.4367 70.7036 12.51C70.5103 12.5833 70.3036 12.62 70.0836 12.62ZM78.1144 12.62C77.4477 12.62 76.941 12.4667 76.5944 12.16C76.2477 11.8533 76.0744 11.4033 76.0744 10.81V9.45C76.0744 8.81 76.2444 8.32333 76.5844 7.99C76.931 7.65667 77.4377 7.49 78.1044 7.49C78.771 7.49 79.2744 7.65333 79.6144 7.98C79.961 8.30667 80.1344 8.78 80.1344 9.4V10.18C80.1344 10.2467 80.101 10.28 80.0344 10.28H77.0144V10.6C77.0144 11.02 77.1044 11.3267 77.2844 11.52C77.4644 11.7133 77.7544 11.81 78.1544 11.81C78.4544 11.81 78.6844 11.7633 78.8444 11.67C79.011 11.57 79.0944 11.4233 79.0944 11.23C79.0944 11.1567 79.131 11.12 79.2044 11.12H79.9444C79.9977 11.12 80.031 11.15 80.0444 11.21C80.071 11.6567 79.911 12.0033 79.5644 12.25C79.2244 12.4967 78.741 12.62 78.1144 12.62ZM77.0144 9.53H79.1944V9.48C79.1944 9.07333 79.1044 8.77667 78.9244 8.59C78.7444 8.39667 78.4777 8.3 78.1244 8.3C77.751 8.3 77.471 8.4 77.2844 8.6C77.1044 8.79333 77.0144 9.09 77.0144 9.49V9.53ZM42.32 24.5C42.2533 24.5 42.22 24.4633 42.22 24.39V19.71C42.22 19.6433 42.2533 19.61 42.32 19.61H43.06C43.1333 19.61 43.17 19.6433 43.17 19.71V24.39C43.17 24.4633 43.1333 24.5 43.06 24.5H42.32ZM42.69 18.82C42.49 18.82 42.34 18.7667 42.24 18.66C42.1467 18.5533 42.1 18.4133 42.1 18.24V18.13C42.1 17.9567 42.1467 17.8167 42.24 17.71C42.34 17.6033 42.49 17.55 42.69 17.55C42.8967 17.55 43.0467 17.6033 43.14 17.71C43.2333 17.8167 43.28 17.9567 43.28 18.13V18.24C43.28 18.4133 43.2333 18.5533 43.14 18.66C43.0467 18.7667 42.8967 18.82 42.69 18.82ZM47.8928 24.5C47.8195 24.5 47.7828 24.4633 47.7828 24.39V21.24C47.7828 20.92 47.7161 20.6867 47.5828 20.54C47.4561 20.3933 47.2628 20.32 47.0028 20.32C46.7495 20.32 46.4995 20.3967 46.2528 20.55C46.0128 20.6967 45.7161 20.9433 45.3628 21.29V20.49C45.5761 20.2567 45.7828 20.0667 45.9828 19.92C46.1895 19.7733 46.3961 19.6667 46.6028 19.6C46.8095 19.5267 47.0295 19.49 47.2628 19.49C47.7428 19.49 48.1061 19.63 48.3528 19.91C48.6061 20.1833 48.7328 20.5967 48.7328 21.15V24.39C48.7328 24.4633 48.6995 24.5 48.6328 24.5H47.8928ZM44.7028 24.5C44.6361 24.5 44.6028 24.4633 44.6028 24.39V20.84C44.6028 20.66 44.5928 20.4633 44.5728 20.25C44.5595 20.0367 44.5461 19.8667 44.5328 19.74C44.5195 19.6533 44.5528 19.61 44.6328 19.61H45.3128C45.3461 19.61 45.3728 19.6167 45.3928 19.63C45.4128 19.6433 45.4261 19.67 45.4328 19.71C45.4461 19.7633 45.4595 19.8467 45.4728 19.96C45.4861 20.0667 45.4995 20.18 45.5128 20.3C45.5261 20.42 45.5328 20.5233 45.5328 20.61L45.5528 20.92V24.39C45.5528 24.4633 45.5161 24.5 45.4428 24.5H44.7028ZM52.1192 24.62C51.4392 24.62 50.9226 24.4533 50.5692 24.12C50.2159 23.78 50.0392 23.2933 50.0392 22.66V21.45C50.0392 20.8167 50.2192 20.3333 50.5792 20C50.9392 19.66 51.4592 19.49 52.1392 19.49C52.5459 19.49 52.8926 19.5533 53.1792 19.68C53.4726 19.8067 53.6959 19.98 53.8492 20.2C54.0026 20.42 54.0792 20.6767 54.0792 20.97C54.0792 21.1167 54.0426 21.19 53.9692 21.19H53.2392C53.2126 21.19 53.1892 21.1767 53.1692 21.15C53.1492 21.1233 53.1392 21.0867 53.1392 21.04C53.1392 20.8067 53.0492 20.63 52.8692 20.51C52.6892 20.3833 52.4459 20.32 52.1392 20.32C51.7526 20.32 51.4626 20.42 51.2692 20.62C51.0826 20.8133 50.9892 21.12 50.9892 21.54V22.57C50.9892 22.9833 51.0826 23.29 51.2692 23.49C51.4626 23.69 51.7492 23.79 52.1292 23.79C52.4426 23.79 52.6859 23.7233 52.8592 23.59C53.0392 23.45 53.1292 23.28 53.1292 23.08C53.1292 22.9733 53.1626 22.92 53.2292 22.92H53.9592C54.0326 22.92 54.0692 22.9533 54.0692 23.02C54.0692 23.5067 53.9026 23.8967 53.5692 24.19C53.2359 24.4767 52.7526 24.62 52.1192 24.62ZM55.4645 24.5C55.3979 24.5 55.3645 24.4633 55.3645 24.39V17.78C55.3645 17.7067 55.3979 17.67 55.4645 17.67H56.2045C56.2779 17.67 56.3145 17.7067 56.3145 17.78V24.39C56.3145 24.4633 56.2779 24.5 56.2045 24.5H55.4645ZM59.0673 24.62C58.6407 24.62 58.314 24.48 58.0873 24.2C57.8607 23.9133 57.7473 23.5 57.7473 22.96V19.71C57.7473 19.6433 57.7807 19.61 57.8473 19.61H58.5873C58.6607 19.61 58.6973 19.6433 58.6973 19.71V22.87C58.6973 23.1833 58.7507 23.4167 58.8573 23.57C58.9707 23.7167 59.144 23.79 59.3773 23.79C59.6173 23.79 59.8573 23.7167 60.0973 23.57C60.3373 23.4167 60.6307 23.1633 60.9773 22.81V23.63C60.7707 23.8367 60.5607 24.0167 60.3473 24.17C60.1407 24.3167 59.9307 24.4267 59.7173 24.5C59.5107 24.58 59.294 24.62 59.0673 24.62ZM61.0673 24.5C61.0273 24.5 60.9973 24.4933 60.9773 24.48C60.9573 24.46 60.944 24.4333 60.9373 24.4C60.9173 24.2733 60.9007 24.1433 60.8873 24.01C60.874 23.8767 60.864 23.74 60.8573 23.6L60.7973 23.16V19.71C60.7973 19.6433 60.8307 19.61 60.8973 19.61H61.6373C61.7107 19.61 61.7473 19.6433 61.7473 19.71V23.27C61.7473 23.4567 61.7507 23.6467 61.7573 23.84C61.7707 24.0267 61.7873 24.21 61.8073 24.39C61.8207 24.4633 61.784 24.5 61.6973 24.5H61.0673ZM64.797 24.62C64.177 24.62 63.7137 24.49 63.407 24.23C63.107 23.9633 62.9604 23.5633 62.967 23.03C62.967 22.97 63.0004 22.94 63.067 22.94H63.807C63.867 22.94 63.897 22.97 63.897 23.03C63.897 23.31 63.967 23.5133 64.107 23.64C64.2537 23.7667 64.4837 23.83 64.797 23.83C65.1104 23.83 65.3437 23.78 65.497 23.68C65.657 23.5733 65.737 23.4233 65.737 23.23C65.737 23.0833 65.6904 22.96 65.597 22.86C65.5104 22.76 65.367 22.6667 65.167 22.58L64.027 22.11C63.667 21.9567 63.4104 21.7833 63.257 21.59C63.1037 21.3967 63.027 21.1433 63.027 20.83C63.027 20.3833 63.1704 20.05 63.457 19.83C63.7437 19.6033 64.1704 19.49 64.737 19.49C65.3237 19.49 65.7737 19.61 66.087 19.85C66.407 20.0833 66.567 20.42 66.567 20.86C66.567 20.9267 66.5304 20.96 66.457 20.96H65.727C65.7004 20.96 65.677 20.95 65.657 20.93C65.637 20.9033 65.627 20.86 65.627 20.8C65.627 20.6333 65.5504 20.5033 65.397 20.41C65.2504 20.3167 65.0437 20.27 64.777 20.27C64.5104 20.27 64.3104 20.3167 64.177 20.41C64.0437 20.5033 63.977 20.6433 63.977 20.83C63.977 20.97 64.0137 21.0767 64.087 21.15C64.1604 21.2167 64.3104 21.3 64.537 21.4L65.677 21.88C66.0304 22.02 66.287 22.1933 66.447 22.4C66.607 22.6 66.687 22.86 66.687 23.18C66.687 23.6467 66.5237 24.0033 66.197 24.25C65.8704 24.4967 65.4037 24.62 64.797 24.62ZM67.9352 24.5C67.8686 24.5 67.8352 24.4633 67.8352 24.39V19.71C67.8352 19.6433 67.8686 19.61 67.9352 19.61H68.6752C68.7486 19.61 68.7852 19.6433 68.7852 19.71V24.39C68.7852 24.4633 68.7486 24.5 68.6752 24.5H67.9352ZM68.3052 18.82C68.1052 18.82 67.9552 18.7667 67.8552 18.66C67.7619 18.5533 67.7152 18.4133 67.7152 18.24V18.13C67.7152 17.9567 67.7619 17.8167 67.8552 17.71C67.9552 17.6033 68.1052 17.55 68.3052 17.55C68.5119 17.55 68.6619 17.6033 68.7552 17.71C68.8486 17.8167 68.8952 17.9567 68.8952 18.13V18.24C68.8952 18.4133 68.8486 18.5533 68.7552 18.66C68.6619 18.7667 68.5119 18.82 68.3052 18.82ZM72.188 24.62C71.508 24.62 70.988 24.4567 70.628 24.13C70.268 23.7967 70.088 23.2933 70.088 22.62V21.49C70.088 20.8167 70.2647 20.3167 70.618 19.99C70.978 19.6567 71.5014 19.49 72.188 19.49C72.8747 19.49 73.398 19.6567 73.758 19.99C74.118 20.3167 74.298 20.8167 74.298 21.49V22.62C74.298 23.2933 74.118 23.7967 73.758 24.13C73.4047 24.4567 72.8814 24.62 72.188 24.62ZM72.188 23.79C72.5947 23.79 72.888 23.6867 73.068 23.48C73.2547 23.2733 73.348 22.9567 73.348 22.53V21.57C73.348 21.15 73.2547 20.8367 73.068 20.63C72.888 20.4233 72.5947 20.32 72.188 20.32C71.7814 20.32 71.488 20.4233 71.308 20.63C71.128 20.8367 71.038 21.15 71.038 21.57V22.53C71.038 22.9567 71.128 23.2733 71.308 23.48C71.488 23.6867 71.7814 23.79 72.188 23.79ZM71.638 18.94C71.6047 18.94 71.5814 18.93 71.568 18.91C71.5614 18.8833 71.5647 18.8567 71.578 18.83L72.248 17.6C72.2747 17.5533 72.3147 17.53 72.368 17.53H73.128C73.168 17.53 73.1914 17.5433 73.198 17.57C73.2114 17.59 73.208 17.6133 73.188 17.64L72.338 18.87C72.3047 18.9167 72.2647 18.94 72.218 18.94H71.638ZM78.8889 24.5C78.8156 24.5 78.7789 24.4633 78.7789 24.39V21.24C78.7789 20.92 78.7122 20.6867 78.5789 20.54C78.4522 20.3933 78.2589 20.32 77.9989 20.32C77.7456 20.32 77.4956 20.3967 77.2489 20.55C77.0089 20.6967 76.7122 20.9433 76.3589 21.29V20.49C76.5722 20.2567 76.7789 20.0667 76.9789 19.92C77.1856 19.7733 77.3922 19.6667 77.5989 19.6C77.8056 19.5267 78.0256 19.49 78.2589 19.49C78.7389 19.49 79.1022 19.63 79.3489 19.91C79.6022 20.1833 79.7289 20.5967 79.7289 21.15V24.39C79.7289 24.4633 79.6956 24.5 79.6289 24.5H78.8889ZM75.6989 24.5C75.6322 24.5 75.5989 24.4633 75.5989 24.39V20.84C75.5989 20.66 75.5889 20.4633 75.5689 20.25C75.5556 20.0367 75.5422 19.8667 75.5289 19.74C75.5156 19.6533 75.5489 19.61 75.6289 19.61H76.3089C76.3422 19.61 76.3689 19.6167 76.3889 19.63C76.4089 19.6433 76.4222 19.67 76.4289 19.71C76.4422 19.7633 76.4556 19.8467 76.4689 19.96C76.4822 20.0667 76.4956 20.18 76.5089 20.3C76.5222 20.42 76.5289 20.5233 76.5289 20.61L76.5489 20.92V24.39C76.5489 24.4633 76.5122 24.5 76.4389 24.5H75.6989Z" fill="white"/>
<g clip-path="url(#clip0_1586_6)">
<path d="M22.8912 21.066C22.8912 20.1165 22.8912 19.1866 22.8912 18.2553C22.8927 18.1179 22.8786 17.9807 22.8492 17.8464C22.7737 17.5205 22.5867 17.2313 22.3205 17.0287C22.0542 16.8262 21.7256 16.7231 21.3914 16.7373C21.053 16.757 20.7318 16.8933 20.4826 17.1231C20.2334 17.3529 20.0716 17.662 20.0245 17.9977C20.011 18.0998 20.0045 18.2027 20.0049 18.3058C20.0049 19.1759 20.0049 20.046 20.0049 20.9162V21.066H16.0011C15.7504 21.066 15.6748 20.9932 15.6748 20.7467C15.6748 18.7861 15.6748 16.8255 15.6748 14.8649V14.7249C17.5822 15.1912 19.512 15.2822 21.4418 15.2822C23.3716 15.2822 25.3056 15.1898 27.2158 14.7305V20.7299C27.2158 20.996 27.1443 21.066 26.8783 21.066H22.8912ZM16.8694 19.1446C16.7797 19.1446 16.7027 19.1446 16.6271 19.1446C16.5963 19.1453 16.566 19.1522 16.5379 19.1647C16.5098 19.1772 16.4844 19.1952 16.4633 19.2176C16.4422 19.24 16.4258 19.2664 16.4149 19.2952C16.4041 19.3241 16.3991 19.3547 16.4002 19.3855C16.3988 19.4171 16.404 19.4487 16.4155 19.4782C16.427 19.5077 16.4445 19.5345 16.4669 19.5569C16.4893 19.5793 16.5161 19.5968 16.5456 19.6083C16.5751 19.6198 16.6067 19.625 16.6383 19.6236C17.5159 19.6236 18.394 19.6236 19.2725 19.6236C19.3038 19.6257 19.3352 19.6213 19.3648 19.6108C19.3944 19.6003 19.4215 19.5839 19.4445 19.5625C19.4674 19.5411 19.4858 19.5152 19.4983 19.4865C19.5109 19.4577 19.5175 19.4267 19.5176 19.3953C19.5196 19.3629 19.5147 19.3304 19.5034 19.3C19.4921 19.2696 19.4745 19.2419 19.4518 19.2186C19.4291 19.1954 19.4018 19.1772 19.3717 19.1652C19.3415 19.1532 19.3092 19.1476 19.2767 19.1488C19.2011 19.1488 19.1255 19.1488 19.0414 19.1488V18.9822C19.0414 18.4878 19.0414 17.9921 19.0414 17.4977C19.0468 17.3972 19.0311 17.2966 18.9953 17.2025C18.9595 17.1083 18.9045 17.0227 18.8336 16.9511C18.7628 16.8795 18.6778 16.8235 18.5841 16.7867C18.4904 16.7499 18.39 16.733 18.2894 16.7373C18.0695 16.7373 17.8511 16.7373 17.6312 16.7373C17.5295 16.7326 17.4279 16.7493 17.3331 16.7864C17.2383 16.8236 17.1524 16.8802 17.0809 16.9527C17.0095 17.0253 16.9541 17.112 16.9184 17.2074C16.8826 17.3027 16.8674 17.4045 16.8736 17.5061V19.1446H16.8694ZM26.0142 19.1446V18.9878C26.0142 18.4836 26.0142 17.9795 26.0142 17.4767C26.0206 17.2889 25.9525 17.1062 25.8248 16.9685C25.697 16.8307 25.5199 16.7491 25.3322 16.7415C25.0658 16.7275 24.7989 16.7275 24.5325 16.7415C24.3451 16.7488 24.1681 16.8298 24.0401 16.967C23.9121 17.1042 23.8434 17.2864 23.8491 17.4739C23.8491 17.8786 23.8491 18.2834 23.8491 18.6881V19.1432C23.7637 19.1432 23.6867 19.1432 23.6111 19.1432C23.5795 19.144 23.5484 19.1509 23.5196 19.1636C23.4907 19.1764 23.4647 19.1947 23.4429 19.2175C23.4211 19.2403 23.404 19.2672 23.3926 19.2967C23.3812 19.3261 23.3757 19.3575 23.3765 19.389C23.3772 19.4205 23.3842 19.4516 23.3969 19.4805C23.4097 19.5093 23.428 19.5354 23.4508 19.5572C23.4736 19.579 23.5005 19.596 23.5299 19.6074C23.5593 19.6188 23.5907 19.6243 23.6223 19.6236C24.4961 19.6236 25.37 19.6236 26.2439 19.6236C26.2766 19.6261 26.3094 19.6218 26.3404 19.611C26.3714 19.6002 26.3998 19.5832 26.4239 19.5609C26.4479 19.5386 26.4671 19.5116 26.4803 19.4815C26.4934 19.4514 26.5002 19.419 26.5002 19.3862C26.5002 19.3534 26.4934 19.3209 26.4803 19.2909C26.4671 19.2608 26.4479 19.2338 26.4239 19.2115C26.3998 19.1892 26.3714 19.1722 26.3404 19.1614C26.3094 19.1506 26.2766 19.1463 26.2439 19.1488C26.1738 19.1404 26.101 19.1432 26.0184 19.1432L26.0142 19.1446Z" fill="#00CFFF"/>
<path d="M18.8104 9.70998C18.6381 9.88644 18.4855 10.0349 18.3398 10.1903C17.4073 11.1777 16.7471 12.3904 16.424 13.7096C16.4044 13.7754 16.3991 13.8447 16.4086 13.9127C16.4181 13.9619 16.4443 14.0063 16.4829 14.0382C16.5215 14.0701 16.57 14.0877 16.6201 14.0877C16.6766 14.0916 16.7327 14.0753 16.7784 14.0417C16.824 14.0081 16.8562 13.9594 16.8694 13.9043C16.9576 13.6242 17.0332 13.3441 17.1341 13.064C17.6522 11.6636 18.4799 10.483 19.7178 9.61755C19.8579 9.52513 19.9895 9.4425 20.1268 9.35287C19.9349 9.68617 19.7305 10.0041 19.5666 10.3332C19.123 11.2562 18.8159 12.2389 18.6549 13.2503C18.6241 13.4239 18.5975 13.599 18.5709 13.7726C18.5606 13.8057 18.5575 13.8405 18.5616 13.8749C18.5658 13.9092 18.5772 13.9423 18.595 13.9719C18.6129 14.0016 18.6368 14.0271 18.6652 14.0468C18.6937 14.0665 18.7259 14.08 18.76 14.0863C18.9 14.1115 19.0176 14.0135 19.04 13.8399C19.1441 13.0983 19.3114 12.3669 19.54 11.6538C19.7801 10.874 20.1597 10.1442 20.6603 9.49992C20.6712 9.47817 20.6768 9.4542 20.6768 9.4299C20.6768 9.40559 20.6712 9.38162 20.6603 9.35987C20.4615 9.03217 20.25 8.71147 20.0413 8.38657C20.0146 8.35378 19.997 8.31443 19.9905 8.27259C19.984 8.23075 19.9888 8.18793 20.0043 8.14855C20.0199 8.10917 20.0457 8.07465 20.079 8.04854C20.1123 8.02244 20.152 8.0057 20.194 8.00005C20.241 7.98993 20.29 7.9949 20.334 8.01427C20.378 8.03363 20.4148 8.06639 20.4391 8.10789C20.6365 8.42018 20.834 8.72828 21.0217 9.03918C21.0405 9.08037 21.0454 9.12658 21.0357 9.17082C20.9096 9.88224 20.7654 10.5909 20.6575 11.3051C20.5385 12.1367 20.4795 12.9759 20.4811 13.8161C20.4768 13.8492 20.4794 13.8829 20.4888 13.915C20.4981 13.9471 20.514 13.9769 20.5355 14.0025C20.5569 14.0282 20.5834 14.0491 20.6134 14.064C20.6433 14.0789 20.676 14.0875 20.7094 14.0891C20.8494 14.0891 20.9488 13.9911 20.9586 13.8203C20.9908 13.2447 20.9922 12.6649 21.0595 12.0935C21.1617 11.2911 21.3017 10.4942 21.4236 9.69458C21.434 9.67515 21.4457 9.65643 21.4586 9.63856C21.509 9.90184 21.558 10.1385 21.5986 10.378C21.7915 11.4545 21.8987 12.5447 21.9193 13.6382C21.9193 13.7152 21.9193 13.7936 21.9305 13.8707C21.9367 13.9303 21.9652 13.9853 22.0103 14.0247C22.0554 14.0642 22.1138 14.085 22.1737 14.083C22.2336 14.0811 22.2905 14.0565 22.333 14.0142C22.3754 13.9719 22.4003 13.9151 22.4025 13.8553C22.4025 13.6452 22.4025 13.4351 22.3927 13.2223C22.3386 11.8631 22.161 10.5117 21.8619 9.18482C21.8511 9.12437 21.8614 9.06203 21.8913 9.00837C22.0664 8.72828 22.2498 8.43979 22.4305 8.1569C22.5285 8.00426 22.6602 7.96084 22.7862 8.03787C22.9122 8.11489 22.9346 8.25633 22.8324 8.41878C22.6279 8.73108 22.4221 9.04198 22.233 9.35707C22.2219 9.37872 22.216 9.40273 22.216 9.42709C22.216 9.45146 22.2219 9.47547 22.233 9.49712C22.8121 10.2428 23.2286 11.1015 23.4556 12.0179C23.6153 12.6103 23.7203 13.2181 23.8449 13.8189C23.8841 14.0051 23.985 14.0989 24.125 14.0793C24.2651 14.0597 24.3393 13.9393 24.3113 13.7404C24.1474 12.6383 23.8911 11.5586 23.4206 10.546C23.2427 10.1665 23.0005 9.81361 22.7974 9.4495C22.7806 9.42149 22.761 9.39629 22.7442 9.36968L22.7652 9.34447C22.9823 9.49432 23.2063 9.63716 23.4164 9.79821C24.5984 10.7071 25.363 11.8975 25.8363 13.2853C25.9008 13.4771 25.954 13.6718 26.0128 13.8651C26.0646 14.0373 26.1836 14.1199 26.3223 14.0807C26.4609 14.0415 26.5212 13.9113 26.4833 13.7418C26.2114 12.6179 25.6923 11.5687 24.9639 10.6707C24.7146 10.3654 24.4289 10.0881 24.1586 9.79961C24.1386 9.78007 24.1165 9.7627 24.0928 9.74779L24.1166 9.71558C24.3421 9.84722 24.5703 9.97186 24.7902 10.1105C26.2033 11.004 27.2648 12.1929 27.8838 13.7572C27.8945 13.7738 27.9016 13.7925 27.9045 13.8121C27.9075 13.8316 27.9063 13.8516 27.901 13.8706C27.8957 13.8897 27.8865 13.9074 27.8738 13.9226C27.8612 13.9378 27.8455 13.9502 27.8278 13.9589C27.6219 14.1241 27.3684 14.1704 27.1275 14.239C26.4161 14.4264 25.6906 14.5557 24.9583 14.6255C23.447 14.7956 21.9253 14.8546 20.4055 14.802C19.0252 14.7756 17.6497 14.6317 16.2938 14.372C15.9857 14.3118 15.686 14.2138 15.3835 14.1325C15.3667 14.1325 15.3513 14.1213 15.3345 14.1157C14.962 13.9757 14.934 13.9113 15.088 13.5556C15.6643 12.227 16.6146 11.0947 17.8231 10.2968C18.1032 10.1049 18.4028 9.94245 18.6941 9.7688C18.7221 9.752 18.7516 9.73939 18.8104 9.70998Z" fill="#00CFFF"/>
<path d="M22.3942 21.0618H20.4924C20.4924 21.0184 20.4924 20.9778 20.4924 20.9358C20.4924 20.0283 20.4924 19.1204 20.4924 18.2119C20.4874 18.0792 20.51 17.9468 20.5588 17.8233C20.6077 17.6997 20.6816 17.5877 20.776 17.4942C20.8704 17.4007 20.9832 17.3279 21.1072 17.2803C21.2312 17.2327 21.3638 17.2113 21.4965 17.2176C21.7315 17.226 21.955 17.3218 22.1231 17.4863C22.2913 17.6508 22.3919 17.8721 22.4054 18.1069C22.4166 19.0872 22.4054 20.0521 22.4054 21.0254C22.4029 21.0379 22.3992 21.0501 22.3942 21.0618ZM21.8004 19.6236C21.8438 19.6236 21.8872 19.6236 21.9292 19.6236C21.9605 19.6236 21.9914 19.6174 22.0203 19.6055C22.0492 19.5935 22.0755 19.576 22.0976 19.5538C22.1197 19.5317 22.1372 19.5055 22.1492 19.4766C22.1611 19.4477 22.1673 19.4168 22.1673 19.3855C22.1673 19.3249 22.1439 19.2667 22.1018 19.223C22.0597 19.1794 22.0024 19.1538 21.9418 19.1516C21.8486 19.1441 21.7549 19.1441 21.6617 19.1516C21.6022 19.1538 21.5458 19.1792 21.5048 19.2224C21.4637 19.2656 21.4411 19.3231 21.4419 19.3827C21.4407 19.4452 21.4644 19.5057 21.5077 19.5508C21.551 19.5959 21.6104 19.6221 21.6729 19.6236C21.722 19.6236 21.7584 19.6236 21.8004 19.6236Z" fill="#00CFFF"/>
<path d="M18.5459 19.1348H17.3667C17.3667 19.0928 17.3667 19.0564 17.3667 19.0186C17.3667 18.52 17.3667 18.0215 17.3667 17.5229C17.3667 17.2946 17.4465 17.2176 17.679 17.2162C17.8891 17.2162 18.0991 17.2162 18.3106 17.2162C18.3442 17.2133 18.378 17.2177 18.4098 17.2291C18.4415 17.2406 18.4703 17.2588 18.4943 17.2825C18.5183 17.3062 18.5369 17.3349 18.5487 17.3665C18.5605 17.3981 18.5652 17.4319 18.5627 17.4655C18.5627 18.0033 18.5627 18.5396 18.5627 19.0774C18.5588 19.097 18.5532 19.1162 18.5459 19.1348Z" fill="#00CFFF"/>
<path d="M25.5314 19.1348H24.3354V18.4836C24.3354 18.1601 24.3354 17.838 24.3354 17.5159C24.3354 17.3003 24.4181 17.2176 24.6295 17.2176C24.841 17.2176 25.0595 17.2176 25.2751 17.2176C25.3065 17.2137 25.3383 17.2164 25.3686 17.2255C25.3989 17.2346 25.4269 17.2499 25.4509 17.2705C25.4749 17.2911 25.4943 17.3164 25.5079 17.3449C25.5216 17.3735 25.5291 17.4045 25.53 17.4361C25.5342 17.9977 25.5314 18.5606 25.5314 19.1348Z" fill="#00CFFF"/>
</g>
<defs>
<clipPath id="clip0_1586_6">
<rect width="12.9092" height="13.066" fill="white" transform="translate(15 8)"/>
</clipPath>
</defs>
</svg>
