<svg width="26" height="40" viewBox="0 0 26 40" fill="none" xmlns="http://www.w3.org/2000/svg">
<path d="M6.00358 24.3075C5.85349 22.9567 6.00358 21.6809 6.15367 20.3301C6.3788 18.1538 6.52889 15.9024 7.12926 13.7261C7.42944 12.6755 7.87971 11.6248 8.55512 10.8744C9.23052 10.1239 10.2061 9.67364 11.1817 9.4485C13.0578 9.07328 14.934 9.29841 16.66 10.199C17.7857 10.7993 18.6112 11.6999 19.2866 12.8255C20.1871 14.2514 20.5624 15.8274 20.4873 17.5534C20.4873 18.529 20.4123 19.5796 20.4873 20.5552C20.5624 21.5308 20.6374 22.5064 20.5624 23.4069C20.4873 24.8328 20.4873 26.1836 20.1121 27.5344C19.7369 28.8852 18.9114 29.9359 17.8607 30.8364C17.2604 31.3617 16.66 31.812 15.9096 31.8871C15.4593 31.8871 14.934 31.9621 14.4837 32.1872C13.9584 32.4124 13.5081 32.6375 12.9828 32.7876C12.0072 33.1628 11.1067 32.7126 10.2061 32.3373C8.78025 31.812 7.65457 30.8364 6.82907 29.5606C6.30376 28.8852 6.22871 27.9847 6.07862 27.2342C5.92853 26.3337 6.07862 25.2831 6.00358 24.3075ZM17.7106 22.4313C17.7857 20.255 17.5606 18.1538 17.0352 16.2026C16.66 14.7767 16.3598 13.3509 15.4593 12.1501C14.8589 11.3246 14.1835 10.7243 13.0578 10.8744C12.5325 10.9494 12.0822 11.0245 11.5569 11.0245C10.8815 11.0245 10.4312 11.2496 10.056 11.6999C9.45566 12.3753 9.00539 13.2008 8.78025 14.1013C8.25494 16.1275 7.87971 18.1538 7.72962 20.18C7.57953 22.7315 7.65457 25.2831 8.63016 27.7596C9.15548 29.0353 9.53071 30.3861 10.8065 31.2116C11.3318 31.5869 11.8571 31.9621 12.5325 31.8871C13.2079 31.812 13.8833 31.5869 14.5587 31.4368C15.1591 31.2867 15.6844 31.0616 16.0596 30.6113C17.0352 29.4106 17.4105 27.9097 17.5606 26.4087C17.6356 25.0579 17.7857 23.7071 17.7106 22.4313ZM18.236 17.9286C18.236 18.2288 18.1609 18.604 18.236 18.9042C18.4611 19.5796 18.4611 20.255 18.4611 20.9304C18.4611 22.2813 18.4611 23.7071 18.4611 25.0579C18.4611 25.5082 18.3861 26.0335 18.311 26.4838C18.311 26.6339 18.1609 26.859 18.3861 26.9341C18.6112 27.0091 18.6112 26.7089 18.6862 26.5588C18.9864 25.7333 19.1365 24.9078 19.1365 24.0073C19.2116 22.7315 18.9864 21.5308 18.9114 20.255C18.8363 19.5046 18.8363 18.6791 18.236 17.9286ZM8.55512 29.8608C8.32998 29.4106 8.17989 28.8852 7.95475 28.435C7.57953 27.5344 7.57953 26.5588 7.27935 25.6583C7.2043 25.5082 7.2043 25.2831 7.05421 25.3581C6.75403 25.3581 6.75403 25.5082 6.75403 25.7333C6.75403 26.5588 6.90412 27.4594 7.12926 28.2849C7.42944 28.8852 7.72962 29.5606 8.55512 29.8608ZM19.4367 17.6284C19.7369 16.953 19.6618 16.3527 19.5117 15.7523C19.3616 15.0769 19.1365 14.4015 18.7613 13.8011C18.6862 13.651 18.6112 13.651 18.4611 13.7261C18.3861 13.8011 18.4611 13.8762 18.4611 13.9512C18.7613 15.1519 19.0615 16.4277 19.4367 17.6284ZM17.4105 14.1764C17.5606 13.7261 17.3354 13.3509 17.1853 12.9756C17.1853 12.9006 17.1103 12.8255 17.0352 12.9006C16.9602 12.9006 16.9602 12.9756 16.9602 13.0507C17.0352 13.4259 17.1103 13.8011 17.4105 14.1764Z" fill="#FFAA00"/>
<path d="M0 33.538C0 31.887 0 30.236 0 28.585C0 28.0597 0.225136 27.8346 0.675408 27.7595C1.05063 27.6845 1.50091 27.6845 1.651 28.2849C1.80109 28.9603 1.95118 29.6357 1.95118 30.3111C2.02622 31.812 2.17631 33.3129 2.10127 34.7388C2.02622 35.3391 2.02622 36.0145 2.02622 36.6149C2.02622 36.9151 2.10127 36.9901 2.4765 36.9901C4.05245 36.9901 5.55335 36.9901 7.1293 36.9901C7.65462 36.9901 7.87976 37.2903 7.9548 37.6655C8.02985 38.0408 8.02985 38.416 7.50453 38.5661C6.07867 39.1664 4.8029 39.0914 3.52713 39.0914C2.4765 39.0914 1.42586 38.9413 0.375227 38.9413C0 38.8663 0 38.7162 0 38.491C0 36.84 0 35.189 0 33.538ZM0.825498 34.8138C1.27577 33.538 0.750453 32.1872 0.825498 30.9114C0.825498 32.1872 0.825498 33.538 0.825498 34.8138ZM4.12749 37.9657C4.8029 38.1908 5.47831 38.0408 6.15372 37.8907C5.47831 37.8907 4.8029 37.8156 4.12749 37.9657Z" fill="#FFAA00"/>
<path d="M25.6657 4.04526C25.6657 5.0959 25.6657 6.22158 25.6657 7.27221C25.6657 7.64744 25.5906 8.02266 25.2154 8.02266C24.7651 8.02266 24.2398 8.2478 24.0147 7.57239C23.8646 7.04707 23.7145 6.52176 23.6395 5.99644C23.5644 4.87076 23.6395 3.82013 23.6395 2.69445C23.6395 2.16913 23.4894 2.09408 22.9641 2.09408C21.5382 2.09408 20.1123 2.09408 18.6865 2.09408C18.3112 2.09408 18.0111 2.09408 17.861 1.64381C17.7109 0.818314 17.7859 0.668223 18.3863 0.443087C19.587 -0.08223 20.7877 -0.0822301 22.0635 0.142906C22.2136 0.142906 22.4387 0.217951 22.6639 0.142906C23.3393 -0.0822301 24.0147 0.142906 24.615 0.292996C24.6901 0.292996 24.7651 0.368042 24.8402 0.368042C25.7407 0.142906 25.5156 0.818314 25.5156 1.26859C25.6657 2.16913 25.6657 3.06967 25.6657 4.04526ZM21.6883 1.19354C20.9378 0.818314 20.3375 1.26859 19.7371 1.19354C20.3375 1.34363 21.0129 1.41868 21.6883 1.19354ZM24.8402 4.42049C24.465 5.17094 24.615 5.99644 24.8402 6.74689C24.8402 5.92139 24.8402 5.17094 24.8402 4.42049Z" fill="#FFAA00"/>
<path d="M12.6826 8.24779C12.3074 8.24779 11.8571 8.24779 11.7071 7.79752C11.557 7.34725 12.0072 7.04707 12.3074 6.82193C13.283 6.22157 14.2586 5.62121 15.3092 5.24598C15.7595 5.09589 15.9096 5.24598 15.8346 5.69625C15.6845 6.82193 13.9584 8.24779 12.6826 8.24779Z" fill="#FFAA00"/>
</svg>
