<svg width="236" height="117" viewBox="0 0 236 117" fill="none" xmlns="http://www.w3.org/2000/svg">
<g clip-path="url(#clip0_191_64)">
<path d="M128.42 36.32C128.42 33.75 128.35 31.18 128.42 28.61C128.49 26.66 128.72 24.71 128.97 22.77C128.979 22.3186 129.156 21.8868 129.467 21.5593C129.778 21.2318 130.2 21.0323 130.65 21C131.815 20.9051 132.985 20.9051 134.15 21C134.307 21.0083 134.461 21.049 134.602 21.1197C134.742 21.1904 134.867 21.2894 134.968 21.4106C135.068 21.5318 135.142 21.6725 135.186 21.8239C135.229 21.9752 135.241 22.1339 135.22 22.29C135.133 25.3586 134.876 28.4199 134.45 31.46C134.24 32.6016 134.129 33.7593 134.12 34.92C134.254 38.8241 134.127 42.7328 133.74 46.62C133 54.53 133.52 62.43 133.3 70.32C133.3 71.92 133.63 73.32 135.2 74.14C135.67 74.421 136.025 74.8607 136.2 75.38C136.59 76.38 136.2 76.91 135.15 76.95C134.304 76.9426 133.46 77.0197 132.63 77.18C131.23 77.51 130.58 76.98 130.04 75.59C129.039 72.7684 128.322 69.854 127.9 66.89C127.83 66.44 127.71 65.89 127.32 65.76C126.93 65.63 126.68 66.14 126.42 66.4C124.91 67.92 123.63 69.62 122.27 71.27C119.866 74.0535 116.532 75.8693 112.89 76.38C110.048 77.0152 107.085 76.8526 104.33 75.91C103.312 75.5912 102.379 75.0484 101.599 74.3216C100.818 73.5948 100.21 72.7024 99.82 71.71C98.8509 69.325 98.3551 66.7743 98.36 64.2C98.44 60.62 97.59 57.06 97.87 53.49C98.28 48.21 98.23 42.92 98.43 37.64C98.61 32.94 99.26 28.26 99.74 23.58C99.9 22.03 100.58 21.58 102.52 21.75C103.83 21.84 104.06 22.75 104.06 23.83C104.06 28.15 104.32 32.5 104.01 36.83C103.38 45.72 103.51 54.61 103.57 63.5C103.57 66.22 103.91 69.01 105.94 71.19C107.39 72.8078 109.405 73.8096 111.57 73.99C111.883 74.0298 112.201 73.9901 112.494 73.8748C112.788 73.7595 113.048 73.5721 113.25 73.33C116.9 69.02 120.93 65.04 124.15 60.33C124.862 59.2674 125.387 58.0903 125.7 56.85C126.33 54.6 126.7 52.3 127.41 50.06C128.136 47.5426 128.473 44.9292 128.41 42.31C128.4 40.29 128.42 38.3 128.42 36.32ZM101.48 37.22C101 38.13 100.79 53.46 101.22 55.84C101.66 55 101.9 38.06 101.48 37.22ZM130.55 67.64C130.7 65.47 131.31 63.41 130.92 61.19C130.76 59.6216 130.74 58.042 130.86 56.47C130.86 56.1 130.86 55.65 130.43 55.63C130 55.61 130.06 56.05 130.04 56.39C129.907 57.5784 129.857 58.7746 129.89 59.97C130.11 62.22 129.89 64.45 130.04 66.68C130.07 67.05 130 67.41 130.55 67.64ZM131.27 50.64C131.72 45.97 131.65 41.64 132.16 37.27C131 39.05 130.4 48.36 131.27 50.66V50.64ZM131.64 29.38C131.592 29.903 131.632 30.4305 131.76 30.94C131.92 31.25 131.76 31.89 132.25 31.88C132.74 31.87 132.67 31.33 132.78 30.95C133.35 29.04 132.4 27.15 132.73 25.24C132.738 25.173 132.733 25.1049 132.713 25.0402C132.693 24.9756 132.66 24.9158 132.616 24.8648C132.571 24.8139 132.517 24.7728 132.456 24.7444C132.394 24.716 132.328 24.7009 132.26 24.7C131.82 24.7 131.65 25.04 131.68 25.43C131.886 26.7465 131.872 28.0879 131.64 29.4V29.38ZM126 62C126.293 61.9216 126.56 61.7662 126.773 61.5499C126.985 61.3336 127.136 61.0643 127.21 60.77C127.21 60.71 126.92 60.41 126.88 60.43C126.471 60.7179 126.163 61.1272 126 61.6C126 61.67 126 61.77 126 62Z" fill="#1A1A1A"/>
<path d="M21.73 63.78C21.73 67.37 21.28 70.67 21.41 73.99C21.4825 74.7338 21.2568 75.4761 20.7824 76.0536C20.308 76.6311 19.6238 76.9967 18.88 77.07C18.27 77.17 17.93 76.88 17.88 76.18C17.8001 73.7795 17.9339 71.3767 18.28 69C18.4482 67.3322 18.3808 65.649 18.08 64C17.69 61.68 18.19 59.47 18.33 57.22C18.495 54.626 18.495 52.024 18.33 49.43C18.33 49.17 18.18 48.91 18.18 48.65C18.18 43.65 17.66 38.59 17.92 33.56C18.08 30.5 18.43 27.44 18.72 24.39C18.86 23 20.06 22.64 21.04 22.63C26.04 22.58 30.84 20.96 35.84 21.47C36.941 21.5571 38.016 21.8487 39.01 22.33C40.42 23.03 40.47 24.1 40.01 26.28C39.7022 27.5311 39.0552 28.6731 38.14 29.58C35.84 32.03 33.75 34.66 31.29 36.96C31.0637 37.1107 30.8869 37.325 30.782 37.5759C30.677 37.8267 30.6485 38.103 30.7 38.37C30.94 39.03 31.62 38.74 32.12 38.82C33.0584 38.8391 33.9956 38.7417 34.91 38.53C36.5497 38.3821 38.2021 38.5887 39.755 39.1356C41.3078 39.6826 42.7249 40.5572 43.91 41.7C46.33 43.93 48.86 46.16 49.44 49.7C50.0108 52.4274 50.1793 55.2238 49.94 58C49.558 61.9758 48.0372 65.7569 45.56 68.89C42.14 73.02 38.09 75.95 32.56 76.65C30.06 76.97 27.66 76.49 25.21 76.58C25.0539 76.587 24.8987 76.5528 24.7601 76.4809C24.6214 76.4089 24.5041 76.3017 24.42 76.17C24.11 75.78 23.92 75.91 23.57 76.17C22.76 76.8 21.98 76.46 22 75.43C21.9087 73.2349 21.9722 71.0361 22.19 68.85C22.4668 67.1483 22.3085 65.4041 21.73 63.78ZM47.53 60.78C46.8155 61.6503 46.2265 62.6163 45.78 63.65C45.56 63.75 45.48 63.9 45.62 64.12L45.98 63.86C46.7998 63.067 47.3994 62.0746 47.72 60.98C48.05 60.79 48.03 60.53 47.85 60.25L47.53 60.78ZM24.12 75.19C26.12 74.59 28 73.73 29.99 73.29C31.1355 73.0067 32.2384 72.573 33.27 72C36.71 70.18 39.27 67.3 42.15 64.77C42.6734 64.2858 43.0656 63.6768 43.29 63C43.9422 61.0619 44.3225 59.0426 44.42 57C44.59 54.2126 44.59 51.4174 44.42 48.63C44.17 45.5 43.11 43.16 39.77 42.39C38.0707 42.053 36.3498 41.8358 34.62 41.74C30.89 41.41 27.56 42.74 24.33 44.37C23.8352 44.5688 23.417 44.9205 23.1363 45.3739C22.8556 45.8273 22.7273 46.3585 22.77 46.89C22.83 49.35 23.41 51.74 23.58 54.17C23.81 57.38 23.67 60.62 23.8 63.85C23.93 67.54 24.25 71.26 24.12 75.19ZM22.24 32.65C21.96 34.71 22.6 37.2 22.5 39.71C22.4838 39.9584 22.5493 40.2052 22.6865 40.4129C22.8237 40.6205 23.0251 40.7776 23.26 40.86C23.89 41.12 23.99 40.43 24.19 40.13C25.56 38.13 27.19 36.26 28.64 34.34C30.3897 32.2831 31.7945 29.9563 32.8 27.45C33.36 25.87 32.92 25.28 31.25 25.45C28.7443 25.6865 26.2604 26.1144 23.82 26.73C22.63 27.07 22.18 27.62 22.23 28.78C22.28 29.94 22.24 31.07 22.24 32.65ZM33.74 23.25C34.3144 24.1348 34.9851 24.9531 35.74 25.69C36.2765 26.5329 36.5992 27.4941 36.68 28.49C38.02 27.49 38.68 25.63 38.05 24.42C37.12 22.5 35.38 23.6 33.74 23.25ZM20.27 29.13C19.62 31.13 19.58 41.45 20.27 45.31C20.91 39.93 20.49 34.54 20.27 29.13ZM46.76 56.45C47.511 55.5862 47.9162 54.4753 47.8977 53.3308C47.8793 52.1864 47.4384 51.0891 46.66 50.25C46.63 52.33 45.86 54.4 46.76 56.45ZM31.81 33.16C32.0183 32.8481 32.2748 32.5714 32.57 32.34C33.5042 31.2209 34.2108 29.9301 34.65 28.54C34.74 28.27 34.82 27.89 34.5 27.69C34.4537 27.658 34.4011 27.6361 34.3457 27.6258C34.2903 27.6155 34.2334 27.617 34.1787 27.6302C34.1239 27.6434 34.0726 27.668 34.028 27.7025C33.9834 27.7369 33.9466 27.7804 33.92 27.83C33.13 29.58 32 31.2 31.81 33.16Z" fill="#1A1A1A"/>
<path d="M143.39 71C143.18 72.39 142.96 73.69 142.79 75C142.7 75.63 142.38 76 141.79 76C141.2 76 141.1 75.35 141.19 74.88C141.82 71.64 141.88 68.35 142.19 65.08C142.37 63.35 142.29 61.61 142.46 59.86C143.62 48.06 142.79 36.22 143.03 24.4C143.03 23.26 143.18 22.31 144.7 22.4C145.27 22.46 145.52 21.99 145.77 21.54C146.09 20.93 146.77 20.81 147.1 21.28C148.1 22.68 149.47 22.39 150.7 22.11C152.845 21.6507 155.074 21.782 157.15 22.49C159.709 23.1927 162.229 24.0306 164.7 25C168.052 26.4804 170.941 28.8405 173.06 31.83C177.164 37.6132 179.844 44.2845 180.88 51.3C181.343 54.0592 181.142 56.8889 180.293 59.5548C179.444 62.2208 177.973 64.6461 176 66.63C171.9 71 166.73 73.78 161.29 75.99C158.29 77.1508 155.036 77.4958 151.86 76.99C149.91 76.71 147.86 76.32 145.86 77.15C144.86 77.57 144.23 77.04 144.24 75.87C144.24 74.48 143.77 73.13 143.95 71.73C143.9 71.43 143.78 71.19 143.39 71ZM172.62 49.7C172.662 47.9038 172.456 46.1104 172.01 44.37C171.3 40.97 170.7 37.5 168.72 34.54C163.9 27.34 157.06 25.2 149.72 27.36C149.151 27.4856 148.643 27.8022 148.279 28.257C147.915 28.7118 147.718 29.2775 147.72 29.86C147.64 31.92 147.38 33.96 147.4 36.03C147.46 44.1 147.4 52.17 147.4 60.24C147.43 60.6461 147.43 61.0539 147.4 61.46C146.735 65.0867 146.47 68.7755 146.61 72.46C146.596 72.9837 146.773 73.4945 147.108 73.8974C147.443 74.3002 147.913 74.5677 148.43 74.65C151.36 74.84 154.32 75.07 157.15 73.85C159.86 72.5149 162.333 70.7448 164.47 68.61C169.77 63.78 172.66 57.77 172.62 49.7ZM172.93 36.65C173.65 38.21 173.36 39.94 173.85 41.53C175.16 45.79 176.36 50.06 175.85 54.62C175.66 56.38 175.43 58.13 175.12 59.87C174.86 61.3 174.49 62.7 174.21 64.13C174.14 64.46 174.09 64.88 174.48 65.13C174.87 65.38 174.88 65.01 175.01 64.86C177.555 61.7725 178.879 57.8585 178.73 53.86C178.69 51.117 178.262 48.3934 177.46 45.77C176.407 42.5238 174.88 39.4507 172.93 36.65ZM163.28 72.74C167.16 71.93 171.84 66.89 171.23 63.85C169 67.33 165.66 69.51 163.28 72.74ZM145.28 27.21C144.71 27.54 144.93 28.09 144.93 28.55C144.93 32.11 144.93 35.67 144.93 39.22C145.004 39.9307 144.915 40.6488 144.67 41.32C144.49 41.68 144.38 42.26 144.79 42.32C145.2 42.38 145.49 41.9 145.47 41.39C145.465 41.3001 145.465 41.2099 145.47 41.12C145.27 36.99 145.9 32.88 145.75 28.75C145.74 28.2 145.8 27.63 145.31 27.21H145.28ZM144.19 59.37V65.74C144.73 64.94 144.84 60.63 144.22 59.37H144.19Z" fill="#1A1A1A"/>
<path d="M91.56 74.37C91.81 75.65 91.56 76.53 90.01 76.45C89.89 76.45 89.78 76.56 89.65 76.61C87.42 77.4 86.85 77.19 86.76 74.84C86.61 70.84 85.09 67.27 83.96 63.57C83.01 60.43 82.96 60.57 79.58 60.35C76.01 60.13 72.49 60.91 68.92 60.69C67.67 60.62 66.92 61.59 66.66 62.78C65.66 66.87 64.72 71 63.42 75.02C63.2706 75.4813 63.0833 75.9295 62.86 76.36C62.67 76.71 62.62 77.36 61.98 77.12C61.34 76.88 61.52 76.42 61.51 75.98C61.6102 74.9202 61.891 73.8852 62.34 72.92C63.7629 68.2451 64.9082 63.4901 65.77 58.68C66.92 52.68 69.36 46.99 70.55 40.97C70.68 40.28 71.17 39.1 70.68 38.97C69.85 38.8 69.87 39.97 69.68 40.63C68.68 43.89 67.68 47.18 66.74 50.48C65.28 55.64 63.59 60.69 62 65.75C61 68.75 60.1 71.75 59.11 74.67C58.72 75.86 58.2 76.96 56.58 76.67C55.74 76.49 55.21 76.32 55.5 75.2C56.68 70.67 58.66 66.41 59.93 61.92C61.41 56.72 62.73 51.47 64.32 46.3C66.49 39.3 68.87 32.3 71.12 25.3C71.61 23.8 72.02 22.3 73.79 21.83C74.5629 21.6289 75.3531 21.5017 76.15 21.45C77.92 21.34 78.85 22.1 79.15 23.93C80.44 31.72 82.64 39.29 84.71 46.93C86.18 52.33 87.51 57.76 88.92 63.16C89.74 66.3133 90.5966 69.4533 91.49 72.58C91.5728 73.1729 91.5962 73.7725 91.56 74.37ZM68.56 54.31C68.56 56.31 69.7 57.31 71.31 56.82C73.4713 56.2944 75.7173 56.2161 77.91 56.59C81.17 56.97 81.46 55.37 80.77 53.18C80.24 51.5 79.67 49.84 79.1 48.18C77.7 44.1067 76.2933 40.0467 74.88 36C74.74 35.6 74.81 35 74.18 35C73.55 35 73.54 35.62 73.42 36.06C72.25 40.47 71.07 44.89 69.92 49.31C69.3712 50.9492 68.9171 52.6186 68.56 54.31ZM77.39 35C77.6037 33.1164 77.346 31.2093 76.64 29.45C76.56 29.18 76.51 28.63 76.02 28.75C75.53 28.87 75.58 29.26 75.6 29.64C75.6689 31.5616 76.2904 33.4226 77.39 35ZM78.24 38.38C78.37 37.47 78.42 36.66 77.56 36.04C77.44 37 77.39 37.79 78.24 38.42V38.38Z" fill="#1A1A1A"/>
<path d="M188.31 57.8C188.113 54.6606 188.217 51.5096 188.62 48.39C189.16 43.12 189.46 37.8 190.98 32.66C191.588 30.1596 192.769 27.835 194.43 25.87C196.153 24.1241 198.369 22.948 200.78 22.5C205.189 21.5522 209.791 22.1859 213.78 24.29C216.364 25.7763 218.51 27.9185 220 30.5C222.139 33.8533 223.187 37.7869 223 41.76C222.86 44.1513 222.86 46.5487 223 48.94C223.243 51.2148 223.306 53.5052 223.19 55.79C222.93 59.11 223.04 62.46 222.19 65.72C221.234 68.8384 219.359 71.5954 216.81 73.63C215.533 74.973 213.836 75.8407 212 76.09C210.851 76.1317 209.715 76.3475 208.63 76.73C207.44 77.2 206.3 77.8 205.1 78.23C202.72 79.07 200.59 77.99 198.44 77.23C195.143 75.9151 192.32 73.6357 190.34 70.69C189.17 69.07 188.93 67.01 188.52 65.07C188.05 62.65 188.41 60.22 188.31 57.8ZM216.16 53.43C216.412 48.3963 215.869 43.3544 214.55 38.49C213.62 35.16 212.89 31.73 210.8 28.82C209.4 26.87 207.8 25.49 205.16 25.71C203.966 25.8679 202.764 25.9613 201.56 25.99C200.869 25.9439 200.178 26.0685 199.546 26.3527C198.915 26.637 198.363 27.0722 197.94 27.62C196.516 29.2671 195.462 31.2006 194.85 33.29C193.546 38.021 192.728 42.8729 192.41 47.77C192.06 53.88 192.23 60 194.52 65.77C195.73 68.84 196.72 72.09 199.72 74.06C200.97 74.88 202.21 75.9 203.79 75.71C205.445 75.4766 207.085 75.1426 208.7 74.71C210.105 74.4739 211.388 73.7689 212.34 72.71C214.439 69.7801 215.654 66.3095 215.84 62.71C216.244 59.634 216.351 56.5264 216.16 53.43ZM217.56 42.59C217.454 43.3698 217.454 44.1602 217.56 44.94C217.952 46.4947 218.117 48.098 218.05 49.7C218.05 52.99 218.05 56.28 218.05 59.56C218.03 60.7183 217.91 61.8726 217.69 63.01C217.6 63.44 217.41 63.89 217.86 64.01C218.31 64.13 218.42 63.51 218.53 63.21C219.199 61.2441 219.589 59.1942 219.69 57.12C219.9 54.12 219.34 51.12 219.09 48.17C219 46.29 218.87 44.3 217.56 42.59ZM194.33 71.08C193.85 69.93 193.33 68.78 192.9 67.61C192.08 65.46 191.9 63.14 191.25 60.96C191.15 60.66 191.1 60.14 190.67 60.19C190.24 60.24 190.19 60.73 190.18 61.19C190.186 63.231 190.524 65.2574 191.18 67.19C191.374 68.0356 191.758 68.8258 192.304 69.5C192.85 70.1742 193.543 70.7146 194.33 71.08ZM220.27 41.89C220.893 40.4782 220.971 38.8861 220.49 37.42C220.219 35.768 219.591 34.1949 218.65 32.81C218.44 32.52 218.22 32.46 218 32.57C217.78 32.68 217.93 32.91 218 33.13C218.76 36 219.51 39 220.27 41.89ZM215.54 33.57C215.732 32.5896 215.55 31.573 215.03 30.72C214.98 30.6 214.87 30.38 214.64 30.48C214.599 30.4934 214.56 30.5151 214.528 30.5438C214.495 30.5725 214.468 30.6076 214.45 30.6469C214.431 30.6862 214.42 30.729 214.419 30.7725C214.417 30.816 214.424 30.8594 214.44 30.9C214.551 31.8751 214.932 32.7998 215.54 33.57Z" fill="#1A1A1A"/>
<path d="M2.23015e-05 102.74C2.23015e-05 98.82 0.0600223 94.9 2.23015e-05 91C-0.0357836 90.768 -0.0213597 90.531 0.0423191 90.305C0.105998 90.0791 0.217447 89.8694 0.369133 89.6902C0.520818 89.511 0.709205 89.3665 0.921557 89.2664C1.13391 89.1663 1.36528 89.113 1.60002 89.11C2.60002 88.98 3.51002 88.94 3.85002 90.32C4.25574 91.9043 4.49702 93.5262 4.57002 95.16C4.69002 98.7 5.18002 102.24 4.86002 105.78C4.72002 107.29 4.68002 108.78 4.61002 110.32C4.61002 111.11 4.86002 111.32 5.61002 111.32C9.31002 111.32 13.01 111.38 16.7 111.32C16.943 111.282 17.1913 111.295 17.4285 111.36C17.6657 111.425 17.8863 111.54 18.0756 111.697C18.2649 111.855 18.4185 112.05 18.5261 112.271C18.6338 112.493 18.6931 112.734 18.7 112.98C18.7841 113.197 18.822 113.43 18.8115 113.662C18.8009 113.895 18.742 114.123 18.6385 114.332C18.5351 114.541 18.3893 114.726 18.2105 114.875C18.0318 115.025 17.8239 115.135 17.6 115.2C14.6 116.37 11.52 116.2 8.40002 116.14C5.87002 116.14 3.40002 115.82 0.870022 115.7C0.0600223 115.7 0.0300223 115.34 0.0400223 114.7C2.23033e-05 110.67 2.23015e-05 106.7 2.23015e-05 102.74ZM2.00002 105.9C3.10002 102.79 1.87002 99.67 2.00002 96.56V105.9ZM9.90002 113.47C11.4895 113.903 13.1726 113.847 14.73 113.31C13.1167 113.075 11.4744 113.13 9.88002 113.47H9.90002Z" fill="#1A1A1A"/>
<path d="M235.15 9.42C235.15 11.99 235.15 14.55 235.15 17.12C235.15 18 235 18.84 234.02 18.93C233.04 19.02 231.84 19.44 231.34 17.93C230.92 16.7258 230.638 15.4778 230.5 14.21C230.26 11.56 230.57 8.94 230.58 6.3C230.58 5.04 230.18 4.85 229.06 4.88C225.68 4.94 222.3 4.88 218.92 4.88C218.11 4.88 217.23 4.88 217.01 3.88C216.59 1.96 216.78 1.62 218.2 1.04C221 -0.050809 224.054 -0.314596 227 0.28C227.441 0.381032 227.899 0.381032 228.34 0.28C229.96 -0.27 231.49 0.28 233.04 0.57C233.21 0.57 233.4 0.72 233.55 0.69C235.71 0.15 235.17 1.69 235.18 2.79C235.17 5 235.15 7.21 235.15 9.42ZM225.69 2.65C223.94 1.82 222.47 2.76 220.96 2.7C222.507 3.14833 224.152 3.13094 225.69 2.65ZM233.22 10.29C232.38 12.11 232.77 13.97 233.22 15.83V10.29Z" fill="#1A1A1A"/>
<path d="M159 94C159 92.15 159.05 90.31 159 88.47C159 87.61 159.27 87.39 160.09 87.47C161.88 87.47 163.69 87.47 165.49 87.47C165.781 87.4442 166.073 87.4822 166.348 87.5815C166.622 87.6808 166.871 87.8389 167.078 88.0447C167.285 88.2505 167.444 88.499 167.545 88.7729C167.645 89.0468 167.684 89.3393 167.66 89.63C167.6 91.06 168.17 92.63 167.09 93.91C167.063 93.9608 167.049 94.0174 167.049 94.075C167.049 94.1326 167.063 94.1892 167.09 94.24C168.09 95.36 167.65 96.72 167.69 97.98C167.74 98.3258 167.714 98.6784 167.612 99.0128C167.511 99.3472 167.337 99.6551 167.103 99.9147C166.869 100.174 166.581 100.379 166.259 100.515C165.937 100.651 165.589 100.714 165.24 100.7C163.44 100.79 161.64 100.7 159.84 100.7C159.13 100.7 159.03 100.38 159.04 99.8C159.05 97.87 159 95.94 159 94ZM163 93.4H164.07C166.21 93.4 166.65 92.95 166.64 90.8C166.64 89.09 166.14 88.59 164.42 88.53C163.83 88.53 163.25 88.53 162.66 88.53C160.41 88.53 160.41 88.53 160.41 90.79C160.39 93.4 160.39 93.4 163 93.4ZM163.17 99.35C163.75 99.35 164.33 99.35 164.92 99.35C166.15 99.35 166.64 98.65 166.64 97.04C166.64 95.43 166.15 94.78 164.9 94.75C164.05 94.75 163.19 94.75 162.34 94.75C160.1 94.75 160.43 94.44 160.41 96.66C160.37 99.35 160.39 99.35 163.15 99.35H163.17Z" fill="#1A1A1A"/>
<path d="M71.54 97.46C71.54 94.46 71.54 91.52 71.54 88.54C71.54 88.05 71.34 87.41 72.26 87.44C73.18 87.47 72.88 88.05 72.88 88.5C72.88 92.24 72.88 95.98 72.88 99.72C72.88 100.07 73.11 100.58 72.47 100.72C72.2562 100.777 72.0289 100.756 71.8291 100.661C71.6293 100.566 71.4701 100.402 71.38 100.2C69.92 97.66 68.38 95.14 66.93 92.61C66.48 91.85 66.04 91.09 65.59 90.31C65.1 90.58 65.32 90.98 65.32 91.31C65.32 94.14 65.32 96.98 65.32 99.82C65.32 100.18 65.5 100.7 64.84 100.74C64.18 100.78 64.25 100.21 64.25 99.8C64.25 96.02 64.25 92.23 64.25 88.45C64.25 88.09 64.05 87.59 64.7 87.45C64.9154 87.4108 65.1377 87.4434 65.3328 87.5427C65.5279 87.6421 65.685 87.8027 65.78 88C67.22 90.5 68.71 93 70.18 95.47C70.58 96.15 70.96 96.84 71.35 97.47L71.54 97.46Z" fill="#1A1A1A"/>
<path d="M34.16 94.07C34.16 95.29 34.16 96.5 34.16 97.72C34.1252 97.9438 34.144 98.1726 34.215 98.3877C34.2859 98.6028 34.4069 98.7979 34.568 98.9571C34.7291 99.1162 34.9258 99.2349 35.1417 99.3032C35.3576 99.3715 35.5867 99.3875 35.81 99.35C36.81 99.35 37.71 99.35 38.65 99.35C39.59 99.35 40.06 98.76 40.37 97.97C40.3803 97.8836 40.3803 97.7964 40.37 97.71C40.72 94.87 40.64 94.79 37.74 94.71C37.27 94.71 36.59 94.99 36.58 94.05C36.57 93.11 37.24 93.39 37.72 93.38C38.66 93.38 39.61 93.38 40.56 93.38C41.29 93.38 41.49 93.63 41.47 94.32C41.47 95.58 41.47 96.84 41.47 98.1C41.5238 98.6921 41.3452 99.282 40.972 99.7448C40.5987 100.208 40.0601 100.507 39.47 100.58C37.9989 100.81 36.5011 100.81 35.03 100.58C34.441 100.544 33.8877 100.286 33.4827 99.8566C33.0777 99.4274 32.8515 98.8601 32.85 98.27C32.79 95.27 32.5 92.17 33.03 89.14C33.0961 88.6684 33.3334 88.2375 33.6967 87.9296C34.06 87.6216 34.5239 87.458 35 87.47C36.89 87.38 38.78 87.47 40.68 87.47C41.03 87.47 41.42 87.41 41.45 87.96C41.48 88.51 41.03 88.54 40.63 88.54C39.14 88.54 37.63 88.54 36.16 88.54C34.69 88.54 34.16 89.12 34.16 90.54C34.15 91.73 34.16 92.9 34.16 94.07Z" fill="#1A1A1A"/>
<path d="M126.8 94.06C126.8 92.22 126.8 90.37 126.8 88.52C126.8 87.74 126.96 87.39 127.8 87.43C129.6 87.49 131.4 87.43 133.21 87.43C133.513 87.4032 133.818 87.4438 134.104 87.549C134.389 87.6542 134.648 87.8213 134.861 88.0383C135.074 88.2554 135.237 88.5169 135.337 88.8043C135.437 89.0916 135.472 89.3975 135.44 89.7C135.44 90.15 135.44 90.6 135.44 91.05C135.44 93.91 134.81 94.57 131.95 94.73C131.86 94.725 131.77 94.725 131.68 94.73C130.53 94.83 128.96 94.21 128.34 95.01C127.72 95.81 128.15 97.25 128.12 98.41C128.12 98.91 128.12 99.41 128.12 99.9C128.12 100.39 128.12 100.67 127.49 100.69C126.86 100.71 126.76 100.38 126.76 99.86C126.81 97.94 126.8 96 126.8 94.06ZM130.74 93.4H131.82C133.95 93.4 134.4 92.95 134.38 90.8C134.38 89.09 133.89 88.59 132.16 88.53C131.58 88.53 130.99 88.53 130.41 88.53C128.15 88.53 128.15 88.53 128.15 90.79C128.15 93.4 128.15 93.4 130.74 93.4Z" fill="#1A1A1A"/>
<path d="M204.3 19.52C203.43 19.61 202.3 19.57 201.92 18.52C201.54 17.47 202.56 16.62 203.39 16.06C205.63 14.4873 208.059 13.2038 210.62 12.24C211.62 11.89 212.02 12.24 211.84 13.24C211.37 16 207.27 19.52 204.3 19.52Z" fill="#1A1A1A"/>
<path d="M218.2 87.46C218.75 87.39 219.08 87.46 219.26 88.13C220.43 92.13 221.65 96.01 222.86 99.95C222.96 100.27 223.06 100.59 222.6 100.68C222.501 100.717 222.396 100.733 222.29 100.727C222.185 100.721 222.082 100.694 221.988 100.646C221.893 100.598 221.81 100.53 221.744 100.449C221.677 100.367 221.628 100.272 221.6 100.17C221.263 99.3991 221.008 98.5946 220.84 97.77C220.74 96.92 220.32 96.88 219.68 96.91C219.04 96.94 218.33 96.91 217.68 96.91C215.6 96.91 215.63 96.91 215.09 98.99C214.92 99.68 215.03 100.99 213.88 100.6C212.73 100.21 213.81 99.3 213.98 98.68C214.86 95.44 215.8 92.2 216.8 88.99C217 88.35 216.93 87.22 218.2 87.46ZM218.2 89.08C217.52 91.16 216.9 93.08 216.26 95.08C216.08 95.62 216.26 95.84 216.8 95.83C217.91 95.83 219.01 95.83 220.24 95.83L218.2 89.08Z" fill="#1A1A1A"/>
<path d="M21.58 87.46C21.6981 87.419 21.8238 87.4043 21.9483 87.4168C22.0727 87.4294 22.1929 87.469 22.3005 87.5327C22.4081 87.5965 22.5004 87.683 22.5712 87.7862C22.6419 87.8893 22.6893 88.0067 22.71 88.13C23.8633 92.0433 25.01 95.9533 26.15 99.86C26.24 100.17 26.45 100.49 26.03 100.65C25.9394 100.694 25.8405 100.719 25.7398 100.723C25.639 100.728 25.5385 100.711 25.4445 100.674C25.3506 100.637 25.2652 100.582 25.1939 100.51C25.1225 100.439 25.0667 100.354 25.03 100.26C24.7522 99.7513 24.5725 99.195 24.5 98.62C24.5 97 23.56 96.77 22.22 96.9C21.22 97 20.09 96.65 19.3 97.05C18.51 97.45 18.75 98.82 18.3 99.69C18.18 99.92 18.16 100.21 18.02 100.43C17.9262 100.56 17.7912 100.655 17.6368 100.698C17.4825 100.742 17.3179 100.732 17.17 100.67C16.72 100.55 16.86 100.23 16.96 99.92C17.6267 97.68 18.2933 95.4333 18.96 93.18C19.43 91.56 19.9 89.94 20.35 88.32C20.53 87.67 20.87 87.3 21.58 87.46ZM21.58 88.99L19.5 95.77H23.61L21.58 88.99Z" fill="#1A1A1A"/>
<path d="M108.15 96.92C105.65 96.92 105.65 96.92 104.91 99.24C104.79 99.62 104.7 100.01 104.56 100.38C104.35 100.92 103.86 100.72 103.56 100.65C103.26 100.58 103.42 100.25 103.49 100.02C104.69 96.02 105.9 91.96 107.06 87.91C107.24 87.29 107.64 87.47 108.01 87.45C108.38 87.43 109.01 87.35 109.22 88.01C110.367 91.9167 111.52 95.8233 112.68 99.73C112.77 100.06 112.93 100.47 112.47 100.65C112.01 100.83 111.7 100.6 111.54 100.16C111.44 99.87 111.33 99.58 111.24 99.28C110.48 96.92 110.48 96.92 108.15 96.92ZM108.07 89.09C107.59 90.62 107.24 91.76 106.86 92.89C105.86 95.95 105.86 95.95 109.04 95.83H109.58C109.648 95.8352 109.717 95.8222 109.779 95.7924C109.841 95.7626 109.894 95.7169 109.932 95.6601C109.971 95.6033 109.994 95.5373 109.999 95.4688C110.003 95.4003 109.99 95.3317 109.96 95.27C109.38 93.32 108.78 91.4 108.07 89.09Z" fill="#1A1A1A"/>
<path d="M49.05 94.08C49.05 92.23 49.1 90.38 49.05 88.54C49.05 87.62 49.36 87.4 50.21 87.43C51.92 87.43 53.64 87.43 55.35 87.43C55.79 87.43 56.58 87.02 56.62 87.91C56.66 88.8 55.85 88.45 55.41 88.47C53.97 88.47 52.53 88.47 51.08 88.47C50.39 88.47 50.17 88.67 50.14 89.39C49.96 93.39 49.94 93.39 53.96 93.39C54.63 93.39 55.31 93.39 55.96 93.39C56.61 93.39 56.64 93.65 56.63 94.14C56.62 94.63 56.39 94.75 55.96 94.75C54.38 94.75 52.8 94.75 51.23 94.75C50.47 94.75 50.12 94.86 50.1 95.75C50.03 99.35 49.99 99.35 53.62 99.35C54.34 99.35 55.06 99.35 55.78 99.35C56.29 99.35 56.65 99.35 56.64 100.06C56.63 100.77 56.18 100.7 55.73 100.7C53.83 100.7 51.94 100.7 50.05 100.7C49.16 100.7 49.05 100.36 49.05 99.59C49.08 97.77 49.05 95.92 49.05 94.08Z" fill="#1A1A1A"/>
<path d="M143.05 93.32C143.05 91.65 143.05 89.98 143.05 88.32C143.05 87.94 142.93 87.46 143.58 87.46C144.23 87.46 144.12 87.94 144.12 88.32C144.12 91.11 144.12 93.9 144.12 96.69C144.12 98.97 144.5 99.33 146.72 99.36C150.45 99.36 150.39 99.47 150.35 95.78C150.35 93.44 150.35 91.1067 150.35 88.78C150.35 88.3 149.94 87.51 150.98 87.47C152.02 87.43 151.67 88.21 151.68 88.7C151.68 91.72 151.68 94.72 151.68 97.7C151.724 98.1048 151.677 98.5144 151.542 98.8985C151.407 99.2827 151.187 99.6316 150.899 99.9195C150.612 100.207 150.263 100.427 149.878 100.562C149.494 100.697 149.085 100.744 148.68 100.7C147.384 100.81 146.08 100.749 144.8 100.52C144.271 100.414 143.798 100.12 143.471 99.6907C143.143 99.2618 142.983 98.7284 143.02 98.19C143 96.56 143.05 94.94 143.05 93.32Z" fill="#1A1A1A"/>
<path d="M200.48 94.17C200.48 95.43 200.48 96.7 200.48 97.96C200.48 98.96 200.9 99.36 201.86 99.35H206C206.43 99.35 206.92 99.23 207 99.96C207.08 100.69 206.57 100.71 206 100.71C204.6 100.71 203.2 100.71 201.8 100.71C201.43 100.742 201.058 100.691 200.709 100.562C200.361 100.432 200.046 100.227 199.787 99.9613C199.528 99.6954 199.331 99.3753 199.21 99.024C199.09 98.6727 199.049 98.2991 199.09 97.93C199.09 95.3567 199.09 92.79 199.09 90.23C199.09 88.36 200.09 87.46 201.94 87.46H206.13C206.55 87.46 206.97 87.46 206.93 88.07C206.89 88.68 206.48 88.54 206.13 88.54H202.62C200.95 88.54 200.44 89.05 200.44 90.67L200.48 94.17Z" fill="#1A1A1A"/>
<path d="M80.21 93.81C80.1162 92.2747 80.2069 90.7337 80.48 89.22C80.5544 88.738 80.7951 88.2971 81.1604 87.9739C81.5257 87.6506 81.9925 87.4653 82.48 87.45C84.06 87.45 85.64 87.45 87.21 87.45C87.56 87.45 87.96 87.37 88 87.93C88.04 88.49 87.61 88.52 87.19 88.53C85.93 88.53 84.67 88.53 83.41 88.53C82.15 88.53 81.53 89.14 81.52 90.44C81.52 92.87 81.52 95.31 81.52 97.74C81.52 98.85 82.08 99.36 83.18 99.35H87.1C87.54 99.35 88 99.26 88.03 99.98C88.06 100.7 87.57 100.71 87.03 100.7H83.59C81.24 100.7 80.29 99.77 80.21 97.41C80.18 96.28 80.21 95.16 80.21 93.81Z" fill="#1A1A1A"/>
<path d="M175.29 93.93C175.29 92.13 175.29 90.34 175.29 88.54C175.29 88.12 175.01 87.43 175.87 87.47C176.73 87.51 176.35 88.12 176.35 88.47C176.35 91.66 176.35 94.86 176.35 98.05C176.35 99.05 176.54 99.41 177.6 99.34C179.08 99.25 180.6 99.34 182.05 99.34C182.58 99.34 182.9 99.43 182.88 100.07C182.86 100.71 182.52 100.7 182.08 100.7C180.08 100.7 178.08 100.7 176.14 100.7C175.36 100.7 175.27 100.34 175.28 99.7C175.3 97.8 175.29 95.87 175.29 93.93Z" fill="#1A1A1A"/>
<path d="M96.73 94C96.73 95.93 96.73 97.86 96.73 99.79C96.73 100.16 96.86 100.65 96.21 100.66C95.56 100.67 95.66 100.2 95.66 99.82C95.66 95.95 95.66 92.09 95.66 88.23C95.66 87.82 95.66 87.39 96.25 87.43C96.84 87.47 96.73 87.86 96.74 88.2L96.73 94Z" fill="#1A1A1A"/>
<path d="M191.54 94.21C191.54 96.01 191.54 97.8 191.54 99.6C191.54 100.01 191.83 100.7 190.97 100.68C190.11 100.66 190.48 100.05 190.48 99.68C190.48 95.96 190.48 92.2333 190.48 88.5C190.48 88.12 190.23 87.5 190.98 87.5C191.73 87.5 191.53 88.17 191.54 88.58C191.56 90.44 191.54 92.32 191.54 94.21Z" fill="#1A1A1A"/>
<path d="M146.63 86.52C146.82 85.76 146.99 85.04 147.19 84.32C147.21 84.198 147.257 84.0819 147.328 83.9802C147.398 83.8784 147.49 83.7934 147.597 83.7313C147.704 83.6692 147.823 83.6315 147.947 83.6209C148.07 83.6103 148.194 83.6271 148.31 83.67C149.08 83.87 148.65 84.34 148.49 84.67C148.12 85.53 148.37 87 146.63 86.52Z" fill="#1A1A1A"/>
</g>
<defs>
<clipPath id="clip0_191_64">
<rect width="235.2" height="116.07" fill="white"/>
</clipPath>
</defs>
</svg>
