<svg width="82" height="64" viewBox="0 0 82 64" fill="none" xmlns="http://www.w3.org/2000/svg">
<g clip-path="url(#clip0_1250_18)">
<path d="M66.2731 22.1864C65.732 21.7628 65.0508 21.553 64.3617 21.5977C63.502 21.5735 62.6599 21.8418 61.9767 22.3576C61.6392 22.6194 61.3664 22.9535 61.1789 23.3347C60.9914 23.7159 60.894 24.1341 60.8941 24.5579C60.8559 24.8491 60.8889 25.1452 60.9904 25.4212C61.092 25.6973 61.2591 25.9453 61.4777 26.1444C62.0012 26.56 62.664 26.7657 63.3341 26.7206C64.2209 26.7381 65.0849 26.4419 65.7699 25.8855C66.093 25.6357 66.3574 25.3197 66.545 24.9594C66.7326 24.599 66.8389 24.2028 66.8567 23.798C66.8956 23.5017 66.863 23.2005 66.7616 22.9189C66.6602 22.6374 66.4928 22.3836 66.2731 22.1781" fill="#080409"/>
<path d="M63.2538 30.1066C62.6882 29.7949 62.0439 29.65 61.3973 29.6891C60.7578 29.6844 60.1223 29.7904 59.5198 30.0023C58.9035 30.2229 58.3465 30.5799 57.8917 31.046C57.3398 31.6462 56.9283 32.3589 56.6865 33.1336L53.2231 42.1685H53.8617L57.0544 33.9143C57.2967 33.1861 57.6535 32.4999 58.1116 31.8811C58.2431 31.7103 58.4116 31.5707 58.6047 31.4725C58.7979 31.3742 59.0108 31.3198 59.228 31.3132C59.8595 31.3132 59.9821 31.8699 59.5959 32.9833L56.2425 42.5401C55.9083 43.4482 55.7449 44.4089 55.7604 45.375C55.7588 45.7215 55.831 46.0645 55.9723 46.3817C56.1136 46.6989 56.321 46.9832 56.5808 47.2162C57.2207 47.679 58.005 47.9051 58.7967 47.855C59.3903 47.8549 59.9795 47.7546 60.5389 47.5585C61.147 47.3419 61.6968 46.9906 62.1458 46.5315C62.7081 45.9353 63.1273 45.2218 63.3722 44.4439L64.256 42.0057H63.6132L63.0085 43.5922C62.5856 44.6819 62.1881 45.3958 61.8371 45.7257C61.592 46.0076 61.2472 46.1868 60.873 46.2267C60.74 46.2387 60.6066 46.2072 60.4936 46.137C60.3805 46.0669 60.2939 45.9619 60.2471 45.8384C60.1608 45.4056 60.2156 44.9568 60.4036 44.5566L63.9811 34.3485C64.1606 33.8255 64.2756 33.283 64.3237 32.7328C64.3738 32.2262 64.3191 31.7148 64.163 31.2297C63.9974 30.7633 63.6751 30.367 63.2496 30.1066" fill="#080409"/>
<path d="M18.3149 23.5517C19.3157 23.5517 20.1445 23.5795 20.8014 23.6352L20.9367 22.9672C20.3629 22.9572 19.7935 22.8672 19.2452 22.7C19.0758 22.6435 18.929 22.5355 18.8256 22.3915C18.7223 22.2475 18.6679 22.0748 18.6701 21.8984C18.675 21.289 18.7661 20.6833 18.9407 20.0989L23.4021 3.54048C23.5562 2.90653 23.7921 2.29475 24.1041 1.72014C24.3258 1.34435 24.677 1.05983 25.0936 0.918521C25.6757 0.749409 26.2798 0.665019 26.8866 0.668015L27.0642 0C26.3411 0.0208755 25.4911 0.045926 24.5269 0.0668015C23.5628 0.087677 22.5479 0.100202 21.5372 0.100202C20.4293 0.100202 19.4228 0.100202 18.4587 0.0668015C17.4945 0.0334007 16.7671 0.0208755 16.2259 0L16.0567 0.668015C16.631 0.654692 17.2032 0.73944 17.7482 0.918521C17.914 0.982594 18.0578 1.09208 18.1626 1.23409C18.2675 1.3761 18.3291 1.54473 18.3403 1.72014C18.3551 2.33767 18.2636 2.95321 18.0696 3.54048L13.5617 20.0989C13.425 20.7271 13.1986 21.333 12.8894 21.8984C12.6671 22.277 12.3121 22.5621 11.8914 22.7C11.3238 22.8579 10.7386 22.9462 10.1491 22.963L9.97998 23.631C10.5678 23.5893 11.3247 23.5601 12.2635 23.5475C13.2023 23.535 14.2045 23.5475 15.2871 23.5475C16.302 23.5475 17.3127 23.5475 18.3149 23.5475" fill="#080409"/>
<path d="M25.6687 9.34805L24.7553 11.8865H25.398L26.0408 10.1831C26.2914 9.44701 26.6567 8.75398 27.1234 8.12892C27.2536 7.95553 27.4214 7.81307 27.6146 7.71194C27.8077 7.61081 28.0213 7.55357 28.2398 7.54441C28.3597 7.53217 28.4798 7.56551 28.5756 7.63766C28.6715 7.7098 28.7359 7.81531 28.7557 7.93269C28.7934 8.36709 28.7416 8.80453 28.6034 9.21862L24.4846 23.6352H29.2547L30.7136 18.0531C30.9222 17.3378 31.128 16.667 31.331 16.0407C31.8338 14.4395 32.4441 12.8732 33.1578 11.3521C33.6215 10.3404 34.1883 9.378 34.8493 8.47963C35.2707 7.89546 35.8126 7.40599 36.4393 7.0434C36.8827 6.78964 37.382 6.64634 37.894 6.62589C37.9742 6.62523 38.0541 6.63649 38.1308 6.65929L38.3338 6.72609C37.8144 6.83774 37.3281 7.06635 36.913 7.3941C36.4939 7.71439 36.148 8.11845 35.8981 8.57983C35.649 9.03634 35.521 9.54766 35.5259 10.0662C35.5085 10.3373 35.5475 10.6091 35.6406 10.8647C35.7337 11.1203 35.8789 11.3544 36.0672 11.5525C36.2734 11.7415 36.5158 11.888 36.7801 11.9834C37.0445 12.0787 37.3254 12.121 37.6065 12.1078C38.1905 12.1144 38.7627 11.9454 39.2472 11.6235C39.7273 11.3048 40.1208 10.8747 40.3932 10.3709C40.6774 9.84139 40.8228 9.25004 40.8161 8.65081C40.8499 7.9274 40.5948 7.21979 40.1057 6.68016C39.8436 6.41612 39.5271 6.21085 39.1776 6.0783C38.8281 5.94574 38.4538 5.88901 38.0801 5.91195C37.2769 5.89721 36.4857 6.10552 35.7966 6.51316C35.0157 7.03355 34.3674 7.72515 33.9021 8.53391C33.2967 9.53722 32.7871 10.5939 32.3797 11.6903L32.6673 10.5922C32.8022 10.0611 32.8871 9.51883 32.921 8.97229C32.9584 8.46085 32.9069 7.94686 32.7688 7.45256C32.6462 7.00289 32.3717 6.60808 31.9907 6.33363C31.4977 6.02637 30.9191 5.88029 30.3372 5.91612C29.7088 5.91707 29.0852 6.02439 28.4935 6.23343C27.8816 6.45466 27.3311 6.8151 26.8866 7.28555C26.3429 7.89369 25.9287 8.60363 25.6687 9.3731" fill="#080409"/>
<path d="M53.1978 24.3992C53.9849 23.7104 54.7107 22.9561 55.3671 22.1447C56.2138 21.153 56.9868 20.1024 57.6803 19.0008C58.4053 17.8553 59.0619 16.669 59.6466 15.4478C60.2024 14.2992 60.6634 13.1082 61.0252 11.8865C61.3379 10.8549 61.5058 9.78584 61.5242 8.70922C61.5666 7.98851 61.3977 7.27101 61.0379 6.64255C60.8655 6.39155 60.6285 6.1904 60.3513 6.05979C60.0741 5.92918 59.7666 5.87381 59.4606 5.89938C59.1823 5.88428 58.9037 5.92454 58.6415 6.01778C58.3792 6.11102 58.1386 6.25533 57.934 6.44214C57.7394 6.64875 57.5892 6.89215 57.4925 7.15766C57.3959 7.42317 57.3547 7.70528 57.3716 7.98693C57.3468 8.5452 57.477 9.09955 57.7479 9.59016C58.0276 10.0942 58.3923 10.5474 58.8263 10.9304C59.2616 11.324 59.7379 11.6711 60.2471 11.9658C59.7771 13.6192 59.1277 15.2178 58.3103 16.7337C57.7459 17.7982 57.1131 18.826 56.4159 19.8108L54.9739 9.21858C54.7878 7.9243 54.4326 7.04336 53.9124 6.5841C53.3395 6.10082 52.6015 5.85147 51.8488 5.88686C51.0711 5.88319 50.3099 6.1085 49.6625 6.534C48.9944 6.9515 48.4446 7.81157 48.0048 9.0641L47.2268 11.3187H47.8188L48.3812 9.80727C48.5887 9.15485 48.8726 8.52854 49.227 7.941C49.2914 7.82828 49.3814 7.73189 49.4901 7.65943C49.5987 7.58698 49.7229 7.54044 49.8528 7.52349C49.9579 7.51916 50.0618 7.54636 50.1509 7.60152C50.24 7.65667 50.31 7.73719 50.3518 7.83245C50.5047 8.19771 50.6099 8.58073 50.6647 8.97225L53.1047 23.7396C52.758 24.0652 52.4154 24.3616 52.0729 24.6288C51.135 25.3769 50.1185 26.0236 49.0409 26.5577C48.6356 25.9527 48.1227 25.425 47.527 25.0004C46.9852 24.6205 46.3351 24.4202 45.6706 24.4284C45.1028 24.4102 44.5498 24.6091 44.1271 24.9837C43.9326 25.1533 43.7775 25.3623 43.6724 25.5965C43.5673 25.8307 43.5147 26.0845 43.5181 26.3406C43.5041 26.584 43.549 26.8272 43.649 27.05C43.749 27.2729 43.9013 27.4691 44.0932 27.6224C44.5544 27.9397 45.1092 28.0968 45.6706 28.0691C45.9975 28.0627 46.3231 28.0263 46.6432 27.9606C47.0752 27.8769 47.4995 27.7582 47.9118 27.6057C48.8773 27.2778 49.8011 26.8406 50.6647 26.3031C51.5574 25.7395 52.4056 25.11 53.202 24.4201" fill="#080409"/>
<path d="M21.8077 30.8414C22.2044 30.6119 22.6313 30.4377 23.0764 30.3237L23.2582 29.6432C22.8988 29.6682 16.6106 29.6682 16.2934 29.6432L16.1243 30.3112C16.8553 30.3123 17.5771 30.4719 18.2387 30.7788C18.4697 30.8956 18.6614 31.0762 18.7906 31.2985C18.9197 31.5209 18.9806 31.7754 18.966 32.0313C18.966 32.6103 18.6221 33.4007 17.9342 34.4028L9.05379 47.905L7.36228 33.1001C7.25737 32.5102 7.29211 31.9044 7.46377 31.3299C7.54252 31.143 7.66225 30.9757 7.81434 30.84C7.96643 30.7043 8.1471 30.6035 8.34336 30.545C8.90384 30.3826 9.48457 30.2982 10.0687 30.2945L10.2378 29.6265C9.65004 29.6515 0.782322 29.6515 0.194523 29.6265L0 30.3237C0.390146 30.38 0.754878 30.5485 1.04873 30.808C1.42932 31.1086 1.66613 31.6653 1.75917 32.4781L4.42752 53.4788C4.72353 53.4537 5.01109 53.4454 5.27327 53.4454C5.53545 53.4454 5.84415 53.4454 6.11902 53.4788L19.0717 33.8642C19.5107 33.1765 20.0027 32.5232 20.5433 31.9102C20.9109 31.4945 21.3384 31.1344 21.812 30.8414" fill="#080409"/>
<path d="M33.8554 30.307C33.1051 29.8478 32.2344 29.6169 31.352 29.6431C29.9889 29.6405 28.6409 29.9252 27.3981 30.4781C26.15 31.0292 25.006 31.7859 24.0151 32.716C23.007 33.6513 22.1321 34.7173 21.4144 35.8849C20.7008 37.0191 20.1326 38.2364 19.7229 39.5089C19.3382 40.684 19.1385 41.9104 19.1309 43.1454C19.098 44.0569 19.3394 44.9576 19.8244 45.7339C20.2839 46.4354 20.9429 46.9873 21.7189 47.3205C22.5763 47.6879 23.5034 47.8701 24.438 47.8549C25.5768 47.8663 26.7057 47.6445 27.7533 47.2036C28.7403 46.7901 29.6507 46.2172 30.4471 45.5085C31.1589 44.8801 31.7832 44.1613 32.3035 43.3708L31.7622 43.1036C31.0452 44.0036 30.1335 44.734 29.0939 45.2413C28.3878 45.5923 27.6164 45.7969 26.8272 45.8425C26.1349 45.8695 25.4599 45.6248 24.9497 45.1619C24.4676 44.7069 24.2223 43.8551 24.2223 42.6068C24.2248 41.847 24.2913 41.0887 24.4211 40.3397C25.0554 40.1671 25.7151 39.9667 26.4001 39.7385C27.4521 39.3856 28.4803 38.9672 29.4787 38.486C30.4397 38.0211 31.3506 37.4615 32.1978 36.8159C32.9652 36.2381 33.6236 35.5315 34.143 34.7284C34.6196 34.0039 34.8723 33.1582 34.8704 32.2943C34.8945 31.904 34.8133 31.5144 34.635 31.1652C34.4567 30.816 34.1877 30.5199 33.8554 30.307ZM30.3583 34.7451C29.8322 35.7751 29.115 36.6985 28.2439 37.4672C27.6026 38.0407 26.8925 38.5343 26.1295 38.9369C25.622 39.2083 25.0934 39.4588 24.5522 39.6967C24.586 39.5464 24.6198 39.392 24.6579 39.2375C24.9361 38.0956 25.3095 36.9785 25.7743 35.8974C26.1966 34.9018 26.7119 33.9471 27.3135 33.0458C27.7879 32.3089 28.3564 31.6353 29.0051 31.0418C29.4313 30.6081 30.0021 30.3412 30.612 30.2903C30.696 30.2835 30.7803 30.3003 30.8551 30.3387C30.9299 30.3771 30.9922 30.4356 31.0349 30.5074C31.1471 30.7885 31.192 31.0914 31.166 31.3925C31.1739 32.552 30.9029 33.6967 30.3752 34.7326" fill="#080409"/>
<path d="M52.6862 43.5755C52.2634 44.6902 51.8997 45.4084 51.536 45.7298C51.2798 46.0041 50.9309 46.1764 50.555 46.2142C50.4278 46.2237 50.3008 46.1933 50.1922 46.1273C50.0836 46.0613 49.9989 45.9631 49.9502 45.8467C49.8361 45.6004 49.891 45.1704 50.1194 44.5441L53.4305 34.6951C53.702 33.8939 53.8446 33.0557 53.8534 32.2109C53.8689 31.8704 53.8139 31.5304 53.6918 31.2117C53.5696 30.893 53.3829 30.6022 53.143 30.3572C52.6721 29.8812 51.8997 29.6432 50.8256 29.6432C49.9738 29.6385 49.1317 29.821 48.3602 30.1776C47.4702 30.628 46.6952 31.2718 46.0936 32.0606C45.2078 33.2003 44.4586 34.4374 43.8608 35.7472C43.4746 36.5516 43.0729 37.4673 42.6556 38.4944L43.7424 34.3193C43.877 33.7895 43.9619 33.2487 43.9961 32.7036C44.035 32.191 43.9776 31.6758 43.827 31.1838C43.69 30.7228 43.3899 30.3257 42.9812 30.0649C42.4157 29.7531 41.7713 29.6082 41.1248 29.6474C40.2014 29.6255 39.2949 29.8946 38.5368 30.4156C37.8066 30.9277 37.2146 31.8184 36.7607 33.0877L35.8473 35.6219H36.4901L37.1328 33.9185C37.3709 33.1701 37.7308 32.4651 38.1985 31.831C38.3324 31.6707 38.5002 31.5413 38.6901 31.4519C38.8801 31.3624 39.0875 31.3151 39.298 31.3132C39.3944 31.3019 39.4922 31.3161 39.5814 31.3542C39.6705 31.3923 39.7478 31.4531 39.8054 31.5303C39.9018 31.7155 39.9316 31.9275 39.89 32.1316C39.8446 32.4163 39.7709 32.696 39.6701 32.9666L35.5767 47.3874H40.3467L40.7696 45.83C41.153 44.4968 41.5759 43.197 42.0382 41.9305C42.5795 40.4692 43.1433 39.0942 43.7297 37.8055C44.2512 36.6408 44.8443 35.5086 45.5058 34.4153C45.9828 33.6001 46.5501 32.8397 47.1973 32.1483C47.7386 31.6013 48.2207 31.3132 48.652 31.3132C48.9649 31.3132 49.1595 31.426 49.2271 31.6473C49.296 31.9204 49.3075 32.2046 49.2609 32.4823C49.2096 32.8362 49.1189 33.1834 48.9903 33.5177L45.9456 42.5275C45.6481 43.3329 45.4714 44.1768 45.4212 45.0326C45.3905 45.6184 45.5377 46.2 45.8441 46.7026C46.1037 47.076 46.4682 47.3663 46.8928 47.5377C47.4207 47.7404 47.9843 47.8369 48.5505 47.8216C49.1262 47.8178 49.6974 47.722 50.242 47.5377C50.8532 47.3239 51.4071 46.9755 51.8616 46.5189C52.438 45.9123 52.8611 45.1799 53.0964 44.3813L53.9422 41.9472H53.2825L52.6862 43.5755Z" fill="#080409"/>
<path d="M81.2895 30.4238C81.0271 30.159 80.7099 29.9533 80.3596 29.8207C80.0093 29.6881 79.6341 29.6318 79.2597 29.6556C78.4522 29.6383 77.6561 29.8467 76.9634 30.2568C76.1816 30.776 75.533 31.4679 75.069 32.2776C74.4637 33.278 73.9541 34.3319 73.5466 35.4256L73.8342 34.3275C73.9687 33.7978 74.0537 33.2569 74.0879 32.7118C74.1253 32.2003 74.0738 31.6863 73.9356 31.192C73.8157 30.7378 73.541 30.3382 73.1576 30.0606C72.6638 29.7514 72.0833 29.6052 71.4999 29.6431C70.8713 29.6423 70.2474 29.7496 69.6561 29.9604C69.0549 30.1894 68.5162 30.554 68.083 31.025C67.5385 31.6326 67.1242 32.3427 66.8652 33.1126L63.4314 42.5566H64.0742L67.2373 33.9267C67.487 33.1916 67.8523 32.4998 68.3198 31.8768C68.449 31.7032 68.616 31.5606 68.8085 31.4594C69.001 31.3583 69.2141 31.3011 69.432 31.2922C69.5528 31.2765 69.6751 31.3079 69.7729 31.3795C69.8708 31.4512 69.9366 31.5577 69.9564 31.6763C69.9922 32.1198 69.9301 32.5656 69.7745 32.9832L65.6515 47.4039H70.4173L71.8889 41.7968C72.0961 41.087 72.3118 40.4148 72.5063 39.7886C73.01 38.1863 73.6203 36.6186 74.3332 35.0957C74.7967 34.0854 75.3635 33.1243 76.0247 32.2275C76.4457 31.6445 76.9859 31.1552 77.6104 30.7912C78.0542 30.5384 78.5533 30.3952 79.0651 30.3737C79.1454 30.3727 79.2252 30.384 79.302 30.4071L79.5049 30.4739C78.9861 30.5873 78.5002 30.8157 78.0841 31.1419C77.6664 31.4626 77.322 31.8666 77.0734 32.3277C76.8248 32.7829 76.6968 33.2927 76.7013 33.8098C76.6822 34.0807 76.7201 34.3526 76.8125 34.6084C76.9049 34.8642 77.0499 35.0983 77.2383 35.2962C77.6567 35.6602 78.2039 35.8463 78.7607 35.8139C79.3449 35.8223 79.9177 35.6532 80.4014 35.3296C80.8845 35.0131 81.2799 34.5826 81.5517 34.077C81.8358 33.549 81.9812 32.959 81.9745 32.3611C81.9995 31.649 81.7449 30.955 81.2641 30.4238" fill="#080409"/>
<path d="M80.0253 52.7063H48.5168H48.2334H44.5502C44.2638 52.7092 43.9859 52.8029 43.7574 52.9735C43.529 53.1442 43.3622 53.3827 43.2815 53.6541C43.2039 53.913 43.0475 54.142 42.8335 54.3101C42.6194 54.4781 42.3582 54.5771 42.0853 54.5935C41.8123 54.6099 41.5408 54.543 41.3078 54.4018C41.0747 54.2606 40.8912 54.0521 40.7823 53.8044L40.647 53.4913C40.5439 53.2558 40.3732 53.0552 40.1561 52.9142C39.9389 52.7733 39.6848 52.6981 39.4249 52.698H12.3101V53.3493H38.9809C39.2406 53.35 39.4946 53.4253 39.7116 53.5662C39.9287 53.7071 40.0994 53.9074 40.203 54.1426L41.8945 58.0588H45.7807C46.067 58.0575 46.3451 57.965 46.5737 57.795C46.8023 57.6249 46.9692 57.3865 47.0494 57.1152L47.8951 54.2929C47.9753 54.0216 48.1422 53.7832 48.3708 53.6132C48.5994 53.4431 48.8775 53.3506 49.1638 53.3493H79.9999L80.0253 52.7063Z" fill="#080409"/>
<path d="M51.3752 63.5282C51.3638 63.5296 51.3522 63.5283 51.3413 63.5246C51.3305 63.5209 51.3206 63.5148 51.3124 63.5067C51.3043 63.4987 51.2981 63.4889 51.2943 63.4782C51.2906 63.4674 51.2893 63.456 51.2907 63.4447V58.9565C51.2907 58.8312 51.2907 58.6935 51.2907 58.539C51.2907 58.3845 51.2653 58.2509 51.2484 58.1215C51.2315 57.992 51.2738 58.0213 51.333 58.0213H51.8362C51.8479 58.0207 51.8595 58.0224 51.8705 58.0263C51.8815 58.0302 51.8916 58.0362 51.9002 58.044C51.9089 58.0517 51.9159 58.0611 51.9209 58.0715C51.9258 58.0819 51.9287 58.0932 51.9292 58.1048C51.9421 58.1585 51.952 58.2128 51.9588 58.2676C51.9712 58.3367 51.9797 58.4063 51.9842 58.4763C51.993 58.5233 51.993 58.5714 51.9842 58.6183L52.0096 59.0358V63.4614C52.0096 63.5157 51.9842 63.5449 51.9292 63.5449L51.3752 63.5282ZM53.1006 62.117C52.8809 62.1149 52.6623 62.0869 52.4494 62.0335C52.2555 61.9928 52.0707 61.9179 51.9038 61.8122L51.8785 61.2277C52.0454 61.3162 52.223 61.3836 52.4071 61.4281C52.5849 61.476 52.7682 61.5012 52.9526 61.5033C53.0832 61.5142 53.2146 61.495 53.3365 61.4472C53.4583 61.3994 53.5672 61.3242 53.6546 61.2277C53.8209 60.9816 53.8997 60.6879 53.8787 60.3927V59.4951C53.8974 59.2438 53.8369 58.9929 53.7053 58.777C53.6452 58.7006 53.5673 58.6399 53.4781 58.5999C53.389 58.5599 53.2914 58.5418 53.1936 58.5473C52.987 58.5514 52.7854 58.6105 52.6101 58.7185C52.3339 58.8903 52.0748 59.0874 51.8362 59.3072V58.6559C52.0011 58.505 52.1763 58.3655 52.3606 58.2384C52.51 58.1397 52.6722 58.0611 52.8426 58.0046C53.0046 57.957 53.1727 57.9331 53.3416 57.9336C53.5148 57.9223 53.6883 57.9503 53.8488 58.0155C54.0093 58.0806 54.1526 58.1811 54.2677 58.3093C54.5005 58.643 54.6109 59.0451 54.5807 59.4491V60.472C54.6098 60.9095 54.4743 61.3422 54.2001 61.687C54.0604 61.8345 53.8894 61.9495 53.6992 62.0239C53.5091 62.0983 53.3047 62.1301 53.1006 62.117Z" fill="#1F1813"/>
<path d="M57.3252 62.1171C56.8635 62.1456 56.4086 61.9959 56.0565 61.6996C55.9037 61.5377 55.7871 61.3459 55.7142 61.1366C55.6414 60.9272 55.6139 60.7051 55.6337 60.4847V59.5369C55.6144 59.3165 55.6421 59.0945 55.715 58.8853C55.7878 58.6761 55.9041 58.4842 56.0565 58.322C56.4272 58.062 56.8705 57.9224 57.3252 57.9224C57.7798 57.9224 58.2232 58.062 58.5938 58.322C58.7462 58.4842 58.8625 58.6761 58.9354 58.8853C59.0082 59.0945 59.0359 59.3165 59.0167 59.5369V60.4847C59.0356 60.7051 59.0078 60.927 58.935 61.1362C58.8622 61.3454 58.746 61.5373 58.5938 61.6996C58.2415 61.9955 57.7868 62.1451 57.3252 62.1171ZM57.3252 61.5034C57.4644 61.5162 57.6047 61.4993 57.7368 61.454C57.8688 61.4086 57.9895 61.3357 58.0906 61.2404C58.2631 61.0078 58.3456 60.722 58.3231 60.4346V59.5996C58.3457 59.3134 58.2631 59.0289 58.0906 58.7979C57.8739 58.6251 57.6037 58.5308 57.3252 58.5308C57.0466 58.5308 56.7764 58.6251 56.5598 58.7979C56.3857 59.0283 56.3016 59.3129 56.3229 59.5996V60.4346C56.3017 60.7225 56.3857 61.0084 56.5598 61.2404C56.6608 61.3357 56.7815 61.4086 56.9135 61.454C57.0456 61.4993 57.1859 61.5162 57.3252 61.5034Z" fill="#1F1813"/>
<path d="M61.2663 62.1171C61.0981 62.1263 60.9301 62.0963 60.7759 62.0296C60.6216 61.9629 60.4854 61.8613 60.3782 61.733C60.1485 61.3997 60.0397 60.9995 60.0695 60.5974V59.5786C60.0425 59.14 60.1845 58.7075 60.467 58.3679C60.6087 58.2238 60.7804 58.1118 60.9703 58.0398C61.1601 57.9677 61.3635 57.9372 61.5665 57.9504C61.7945 57.9526 62.0215 57.9806 62.2431 58.0339C62.4342 58.0728 62.6163 58.1464 62.7802 58.251L62.8224 58.848C62.6391 58.7535 62.4444 58.682 62.2431 58.6351C62.0621 58.5885 61.8762 58.5633 61.6891 58.5599C61.5602 58.5515 61.4311 58.5723 61.3116 58.6208C61.1921 58.6693 61.0855 58.7441 60.9999 58.8397C60.8293 59.084 60.7487 59.3787 60.7715 59.6747V60.6558C60.7539 60.8841 60.8134 61.1116 60.9406 61.303C61.0014 61.3767 61.0792 61.4348 61.1676 61.4726C61.2559 61.5104 61.3521 61.5267 61.4481 61.5201C61.5927 61.5223 61.7363 61.4968 61.871 61.4449C62.0222 61.3745 62.1642 61.2861 62.2939 61.1819C62.492 61.027 62.6799 60.8596 62.8563 60.6809V61.3155C62.6901 61.4823 62.512 61.6371 62.3235 61.7789C62.1684 61.8919 61.9974 61.9819 61.816 62.0461C61.6385 62.1019 61.4523 62.1259 61.2663 62.1171ZM62.8986 62.0169C62.8859 62.0187 62.873 62.0178 62.8607 62.0142C62.8484 62.0106 62.837 62.0044 62.8274 61.9961C62.8178 61.9878 62.8101 61.9775 62.8048 61.9659C62.7996 61.9544 62.7969 61.9419 62.7971 61.9292C62.7971 61.8457 62.7717 61.7413 62.7548 61.6161C62.7453 61.5133 62.7453 61.4099 62.7548 61.3071L62.7167 60.9397V56.5267C62.7167 56.4724 62.7421 56.4432 62.7971 56.4432H63.3341C63.3456 56.4418 63.3572 56.443 63.368 56.4468C63.3789 56.4505 63.3888 56.4566 63.3969 56.4646C63.4051 56.4727 63.4113 56.4824 63.415 56.4932C63.4188 56.5039 63.4201 56.5154 63.4187 56.5267V61.0942C63.4187 61.1735 63.4187 61.2612 63.4187 61.3698C63.4187 61.4783 63.4187 61.5785 63.4399 61.6745C63.461 61.7706 63.4399 61.8499 63.4652 61.9042C63.4906 61.9585 63.4652 62.0169 63.3849 62.0169H62.8986Z" fill="#1F1813"/>
<path d="M66.2267 62.117C65.7645 62.149 65.3083 61.9989 64.9581 61.6995C64.8089 61.5428 64.6942 61.3573 64.6214 61.1546C64.5486 60.952 64.5193 60.7366 64.5352 60.5221V59.5117C64.5188 59.2979 64.548 59.083 64.6208 58.8809C64.6937 58.6789 64.8085 58.4941 64.9581 58.3385C65.3088 58.0399 65.7646 57.8899 66.2267 57.921C66.5157 57.9135 66.8032 57.9632 67.0724 58.0672C67.2859 58.1566 67.4713 58.3008 67.6095 58.4847C67.7382 58.6605 67.805 58.8732 67.7998 59.0901C67.7998 59.2153 67.7702 59.2779 67.7152 59.2779H67.1697C67.119 59.2779 67.0936 59.2362 67.0936 59.1485C67.0969 59.0616 67.0777 58.9753 67.0377 58.8979C66.9978 58.8204 66.9384 58.7543 66.8652 58.7059C66.6774 58.5883 66.4572 58.5314 66.2351 58.5431C66.0988 58.5333 65.9618 58.5508 65.8325 58.5946C65.7031 58.6384 65.584 58.7075 65.4824 58.7978C65.3001 59.0178 65.2121 59.2995 65.2372 59.5827V60.4637C65.2143 60.7441 65.3022 61.0223 65.4824 61.2402C65.5811 61.3325 65.6984 61.4033 65.8266 61.4479C65.9549 61.4925 66.0912 61.5099 66.2267 61.4991C66.4499 61.5103 66.6708 61.4503 66.8568 61.3279C66.926 61.2816 66.983 61.2194 67.0227 61.1467C67.0625 61.0741 67.0839 60.993 67.0851 60.9104C67.0851 60.8269 67.1105 60.781 67.1612 60.781H67.7068C67.7617 60.781 67.7913 60.806 67.7913 60.8561C67.7964 61.0315 67.7609 61.2057 67.6876 61.3656C67.6144 61.5255 67.5052 61.6668 67.3684 61.7788C67.0392 62.019 66.6355 62.1385 66.2267 62.117Z" fill="#1F1813"/>
<path d="M69.6815 62.1171C69.5456 62.1257 69.4094 62.1043 69.2828 62.0545C69.1563 62.0046 69.0426 61.9276 68.9499 61.829C68.7683 61.589 68.6798 61.2928 68.7004 60.994C68.6893 60.7518 68.748 60.5115 68.8696 60.3009C68.9985 60.1049 69.1908 59.9578 69.4151 59.8834C69.7381 59.7716 70.0756 59.7056 70.4173 59.6872L71.1954 59.6204V60.1548L70.4004 60.2174C70.1263 60.2193 69.8572 60.2897 69.6181 60.422C69.542 60.4852 69.4826 60.5657 69.445 60.6566C69.4074 60.7475 69.3928 60.8461 69.4024 60.9439C69.3915 61.0918 69.4318 61.239 69.5166 61.3614C69.5598 61.409 69.6136 61.4462 69.6737 61.4701C69.7339 61.494 69.7987 61.504 69.8634 61.4991C70.0673 61.4916 70.265 61.428 70.4342 61.3154C70.7212 61.1181 70.985 60.8898 71.2208 60.6349V61.2445C71.0548 61.4273 70.8738 61.5963 70.6795 61.7496C70.5298 61.8636 70.3647 61.9564 70.189 62.0252C70.0267 62.0854 69.8549 62.1165 69.6815 62.1171ZM71.2631 62.0169C71.2497 62.0192 71.2358 62.0172 71.2237 62.0112C71.2115 62.0052 71.2016 61.9955 71.1954 61.9835C71.1819 61.958 71.1706 61.9315 71.1616 61.9041C71.1616 61.8582 71.1616 61.7663 71.1235 61.6202C71.0855 61.4741 71.0939 61.3488 71.0897 61.2361L71.0643 60.923V59.2863C71.0834 59.0808 71.0246 58.8755 70.8994 58.7102C70.8198 58.644 70.7274 58.5943 70.6278 58.5642C70.5283 58.5341 70.4236 58.5241 70.3201 58.5348C69.8253 58.5348 69.5758 58.706 69.5758 59.0442C69.5758 59.0985 69.5504 59.1235 69.4997 59.1235H68.9542C68.8992 59.1235 68.8696 59.0734 68.8654 58.969C68.8491 58.8217 68.8749 58.6728 68.9399 58.5393C69.005 58.4057 69.1066 58.2928 69.2333 58.2133C69.5644 58.0048 69.9533 57.9041 70.3454 57.9253C70.7324 57.8959 71.1158 58.0156 71.4153 58.2593C71.5406 58.3951 71.6364 58.5548 71.6968 58.7286C71.7572 58.9023 71.7808 59.0865 71.7663 59.2696V61.019C71.7663 61.2069 71.7663 61.3781 71.7663 61.5284C71.7663 61.6787 71.7917 61.8081 71.8086 61.9167C71.8255 62.0252 71.8086 62.0043 71.724 62.0043L71.2631 62.0169Z" fill="#1F1813"/>
<path d="M74.3121 62.1171C73.9122 62.1465 73.5151 62.0307 73.1957 61.7914C73.0653 61.6679 72.9642 61.5172 72.8999 61.3505C72.8355 61.1837 72.8095 61.0049 72.8235 60.827C72.8235 60.7769 72.8531 60.7518 72.9081 60.7518H73.4536C73.5001 60.7518 73.5255 60.7727 73.5255 60.8186C73.5168 60.915 73.5289 61.012 73.561 61.1034C73.5931 61.1948 73.6444 61.2785 73.7116 61.3489C73.8885 61.4728 74.1044 61.5306 74.3205 61.5117C74.5335 61.5244 74.7459 61.4781 74.9337 61.3781C74.9987 61.3362 75.0515 61.2785 75.0871 61.2104C75.1227 61.1424 75.1398 61.0663 75.1367 60.9898C75.1404 60.8749 75.0996 60.7629 75.0225 60.6767C74.92 60.5735 74.7959 60.4937 74.6588 60.4429L73.7158 60.0588C73.4704 59.9732 73.2498 59.8299 73.073 59.6413C72.9395 59.4662 72.8722 59.2506 72.8827 59.0317C72.8683 58.8752 72.8922 58.7176 72.9526 58.5723C73.013 58.4269 73.1079 58.2981 73.2295 58.1967C73.5334 57.9957 73.8964 57.9003 74.2613 57.9253C74.647 57.9019 75.03 58.003 75.3523 58.2134C75.4816 58.3104 75.5847 58.4373 75.6525 58.5829C75.7204 58.7285 75.7509 58.8884 75.7414 59.0484C75.7414 59.0943 75.716 59.1194 75.6568 59.1194H75.1113C75.0605 59.1194 75.0309 59.0776 75.0309 58.9899C75.0318 58.9222 75.0137 58.8556 74.9787 58.7974C74.9436 58.7392 74.8929 58.6917 74.8322 58.6601C74.665 58.5714 74.4763 58.5295 74.2867 58.539C74.1022 58.5266 73.9182 58.5688 73.7581 58.6601C73.7006 58.7014 73.6546 58.7563 73.6243 58.8198C73.594 58.8833 73.5804 58.9533 73.5847 59.0233C73.5806 59.0718 73.5867 59.1206 73.6028 59.1666C73.6188 59.2126 73.6443 59.2548 73.6777 59.2905C73.7931 59.3822 73.9232 59.4542 74.0626 59.5035L75.0056 59.8959C75.2492 59.9827 75.4681 60.1259 75.6441 60.3135C75.7815 60.4933 75.8517 60.7146 75.8429 60.9397C75.8516 61.1047 75.82 61.2693 75.7508 61.4197C75.6816 61.5701 75.5769 61.7019 75.4454 61.804C75.1136 62.0304 74.7146 62.1406 74.3121 62.1171Z" fill="#1F1813"/>
<path d="M78.2534 62.117C78.0203 62.1267 77.7885 62.0764 77.5811 61.9709C77.4139 61.8782 77.2852 61.7304 77.2174 61.5534C77.1366 61.3255 77.0994 61.0849 77.1074 60.8436V58.6392H76.4689C76.4575 58.6405 76.4459 58.6393 76.435 58.6356C76.4241 58.6318 76.4142 58.6257 76.4061 58.6177C76.3979 58.6096 76.3918 58.5999 76.388 58.5891C76.3842 58.5784 76.383 58.567 76.3843 58.5557V58.1382C76.383 58.1269 76.3842 58.1154 76.388 58.1047C76.3918 58.0939 76.3979 58.0842 76.4061 58.0761C76.4142 58.0681 76.4241 58.062 76.435 58.0583C76.4459 58.0545 76.4575 58.0533 76.4689 58.0547H77.1201L77.2132 57.0777C77.2125 57.0662 77.2143 57.0547 77.2186 57.0439C77.2229 57.0332 77.2295 57.0236 77.238 57.0156C77.2464 57.0077 77.2565 57.0016 77.2676 56.9979C77.2786 56.9942 77.2904 56.9929 77.302 56.9942H77.7248C77.7363 56.9928 77.7479 56.9941 77.7587 56.9978C77.7696 57.0015 77.7795 57.0076 77.7876 57.0157C77.7958 57.0237 77.802 57.0335 77.8058 57.0442C77.8095 57.0549 77.8108 57.0664 77.8094 57.0777V58.0547H79.04C79.0514 58.0533 79.063 58.0545 79.0739 58.0583C79.0848 58.062 79.0947 58.0681 79.1028 58.0761C79.1109 58.0842 79.1171 58.0939 79.1209 58.1047C79.1247 58.1154 79.1259 58.1269 79.1246 58.1382V58.5557C79.1259 58.567 79.1247 58.5784 79.1209 58.5891C79.1171 58.5999 79.1109 58.6096 79.1028 58.6177C79.0947 58.6257 79.0848 58.6318 79.0739 58.6356C79.063 58.6393 79.0514 58.6405 79.04 58.6392H77.8094V60.8269C77.791 61.0164 77.8388 61.2065 77.9447 61.3655C78.0064 61.4228 78.0799 61.4663 78.1602 61.493C78.2405 61.5196 78.3257 61.5288 78.4099 61.52C78.5223 61.5198 78.6344 61.5072 78.744 61.4824C78.8427 61.4612 78.939 61.4305 79.0315 61.3906C79.0992 61.3613 79.1288 61.3906 79.1288 61.4448V61.8957C79.1304 61.9154 79.1249 61.935 79.1133 61.951C79.1017 61.9671 79.0847 61.9786 79.0654 61.9834C78.9529 62.0265 78.8369 62.06 78.7186 62.0836C78.5649 62.1091 78.4092 62.1202 78.2534 62.117Z" fill="#1F1813"/>
</g>
<defs>
<clipPath id="clip0_1250_18">
<rect width="82" height="64" fill="white"/>
</clipPath>
</defs>
</svg>
