<svg width="24" height="24" viewBox="0 0 24 24" fill="none" xmlns="http://www.w3.org/2000/svg">
<path d="M12.1274 23.6595C18.6297 23.6595 23.9009 18.3632 23.9009 11.8298C23.9009 5.29636 18.6297 0 12.1274 0C5.62514 0 0.354004 5.29636 0.354004 11.8298C0.354004 18.3632 5.62514 23.6595 12.1274 23.6595Z" fill="#010201"/>
<path fill-rule="evenodd" clip-rule="evenodd" d="M17.7923 6.28441C16.5121 4.99478 14.8087 4.21701 12.9999 4.09614C11.1911 3.97527 9.4003 4.51954 7.96141 5.62747C6.52251 6.7354 5.53378 8.33135 5.17956 10.1177C4.82535 11.9041 5.12985 13.7589 6.03627 15.3364L4.97754 19.2235L8.9369 18.172C10.0301 18.7775 11.2572 19.0975 12.5056 19.1026C13.9826 19.1027 15.4265 18.6628 16.6547 17.8384C17.883 17.014 18.8403 15.8423 19.4058 14.4712C19.9713 13.1002 20.1195 11.5914 19.8317 10.1358C19.5438 8.68011 18.8329 7.34288 17.7888 6.29317L17.7923 6.28441ZM12.509 17.8267C11.3969 17.825 10.3058 17.5223 9.35027 16.9505L9.11829 16.8243L6.76884 17.4429L7.39501 15.1418L7.2485 14.907C6.51686 13.7357 6.19334 12.3533 6.32881 10.9772C6.46428 9.60105 7.05105 8.30915 7.99689 7.30459C8.94272 6.30004 10.194 5.63979 11.554 5.42764C12.914 5.21548 14.3056 5.46346 15.51 6.13259C16.7144 6.80171 17.6634 7.85404 18.2078 9.12414C18.7521 10.3942 18.861 11.8101 18.5172 13.1491C18.1734 14.4882 17.3965 15.6744 16.3086 16.5215C15.2208 17.3685 13.8836 17.8283 12.5073 17.8285L12.509 17.8267ZM15.9207 13.1562C15.7341 13.0633 14.8166 12.6094 14.6457 12.5463C14.4748 12.4832 14.3492 12.4534 14.2254 12.6409C14.1015 12.8285 13.7439 13.2508 13.6341 13.3753C13.5242 13.4997 13.416 13.5172 13.2294 13.4226C12.679 13.203 12.1713 12.888 11.7294 12.492C11.3198 12.1136 10.9688 11.6759 10.6881 11.1933C10.5782 11.0058 10.6759 10.9041 10.7701 10.8113C10.8643 10.7184 10.9567 10.5922 11.0491 10.4835C11.1253 10.3867 11.1869 10.2792 11.2323 10.1646C11.2565 10.1128 11.2677 10.0559 11.2649 9.99874C11.2622 9.94162 11.2456 9.88603 11.2166 9.83684C11.1695 9.7422 10.7962 8.82036 10.641 8.44531C10.4858 8.07026 10.3358 8.1281 10.2224 8.12284C10.109 8.11758 9.98866 8.12284 9.86482 8.12284C9.77004 8.12529 9.6768 8.14742 9.59095 8.18784C9.5051 8.22825 9.42851 8.28608 9.36597 8.35768C9.15524 8.55852 8.98841 8.80122 8.87611 9.07036C8.7638 9.33949 8.70847 9.62917 8.71364 9.92096C8.71364 10.8446 9.38167 11.7349 9.47586 11.861C9.57004 11.9872 10.791 13.88 12.6625 14.6914C13.0101 14.8414 13.3652 14.973 13.7265 15.0857C14.1072 15.2023 14.5097 15.2281 14.9021 15.1611C15.2614 15.1068 16.0062 14.7072 16.1614 14.2691C16.3167 13.8309 16.3184 13.4559 16.2713 13.377C16.2242 13.2981 16.0951 13.2508 15.9207 13.1562Z" fill="white"/>
</svg>
