<svg width="112" height="29" viewBox="0 0 112 29" fill="none" xmlns="http://www.w3.org/2000/svg">
<path d="M7 0.5H105C108.59 0.5 111.5 3.41015 111.5 7V22C111.5 25.5899 108.59 28.5 105 28.5H7C3.41015 28.5 0.5 25.5899 0.5 22V7C0.5 3.41015 3.41015 0.5 7 0.5Z" fill="#242424" stroke="#00FF6D"/>
<path d="M42.42 11.5C42.3533 11.5 42.32 11.4633 42.32 11.39V5.06C42.32 4.98667 42.3533 4.95 42.42 4.95H44.15C44.97 4.95 45.5833 5.12667 45.99 5.48C46.4033 5.82667 46.61 6.34 46.61 7.02C46.61 7.69333 46.4033 8.20667 45.99 8.56C45.5767 8.90667 44.9633 9.08 44.15 9.08H43.27V11.39C43.27 11.4633 43.2367 11.5 43.17 11.5H42.42ZM43.27 8.27H44.13C44.6567 8.27 45.04 8.17333 45.28 7.98C45.5267 7.78 45.65 7.47 45.65 7.05C45.65 6.59667 45.5233 6.27 45.27 6.07C45.0233 5.86333 44.6367 5.76 44.11 5.76H43.27V8.27ZM47.7985 11.5C47.7318 11.5 47.6985 11.4633 47.6985 11.39V7.81C47.6985 7.61667 47.6918 7.43333 47.6785 7.26C47.6718 7.08 47.6552 6.9 47.6285 6.72C47.6152 6.64667 47.6485 6.61 47.7285 6.61H48.4085C48.4418 6.61 48.4685 6.61667 48.4885 6.63C48.5085 6.64333 48.5218 6.66667 48.5285 6.7C48.5552 6.82667 48.5752 6.97 48.5885 7.13C48.6018 7.29 48.6085 7.42667 48.6085 7.54L48.6485 8.09V11.39C48.6485 11.4633 48.6118 11.5 48.5385 11.5H47.7985ZM48.5385 8.43L48.4985 7.55C48.6385 7.34333 48.7985 7.16333 48.9785 7.01C49.1652 6.85 49.3518 6.72333 49.5385 6.63C49.7252 6.53667 49.8985 6.49 50.0585 6.49C50.1785 6.49 50.2685 6.5 50.3285 6.52C50.3618 6.52667 50.3818 6.54 50.3885 6.56C50.4018 6.57333 50.4118 6.59667 50.4185 6.63C50.4318 6.77667 50.4352 6.93 50.4285 7.09C50.4285 7.24333 50.4185 7.39 50.3985 7.53C50.3918 7.57 50.3752 7.59667 50.3485 7.61C50.3285 7.62333 50.2985 7.62667 50.2585 7.62C50.2118 7.60667 50.1585 7.59667 50.0985 7.59C50.0385 7.58333 49.9752 7.58 49.9085 7.58C49.7485 7.58 49.5852 7.61667 49.4185 7.69C49.2585 7.75667 49.1018 7.85333 48.9485 7.98C48.8018 8.10667 48.6652 8.25667 48.5385 8.43ZM53.1744 11.62C52.4944 11.62 51.9744 11.4567 51.6144 11.13C51.2544 10.7967 51.0744 10.2933 51.0744 9.62V8.49C51.0744 7.81667 51.251 7.31667 51.6044 6.99C51.9644 6.65667 52.4877 6.49 53.1744 6.49C53.861 6.49 54.3844 6.65667 54.7444 6.99C55.1044 7.31667 55.2844 7.81667 55.2844 8.49V9.62C55.2844 10.2933 55.1044 10.7967 54.7444 11.13C54.391 11.4567 53.8677 11.62 53.1744 11.62ZM53.1744 10.79C53.581 10.79 53.8744 10.6867 54.0544 10.48C54.241 10.2733 54.3344 9.95667 54.3344 9.53V8.57C54.3344 8.15 54.241 7.83667 54.0544 7.63C53.8744 7.42333 53.581 7.32 53.1744 7.32C52.7677 7.32 52.4744 7.42333 52.2944 7.63C52.1144 7.83667 52.0244 8.15 52.0244 8.57V9.53C52.0244 9.95667 52.1144 10.2733 52.2944 10.48C52.4744 10.6867 52.7677 10.79 53.1744 10.79ZM57.2076 13.35C57.1276 13.35 57.1042 13.3067 57.1376 13.22L57.8376 11.45L55.9976 6.73C55.9642 6.65 55.9876 6.61 56.0676 6.61H56.8776C56.9309 6.61 56.9676 6.63667 56.9876 6.69L57.8376 9C57.9176 9.20667 57.9942 9.42333 58.0676 9.65C58.1409 9.87 58.2109 10.09 58.2776 10.31H58.2976C58.3642 10.09 58.4376 9.87 58.5176 9.65C58.5976 9.43 58.6742 9.21333 58.7476 9L59.5876 6.69C59.6076 6.63667 59.6509 6.61 59.7176 6.61H60.4876C60.5209 6.61 60.5442 6.62333 60.5576 6.65C60.5776 6.67 60.5809 6.69667 60.5676 6.73L58.0576 13.27C58.0376 13.3233 58.0009 13.35 57.9476 13.35H57.2076ZM63.3195 11.62C62.6528 11.62 62.1461 11.4667 61.7995 11.16C61.4528 10.8533 61.2795 10.4033 61.2795 9.81V8.45C61.2795 7.81 61.4495 7.32333 61.7895 6.99C62.1361 6.65667 62.6428 6.49 63.3095 6.49C63.9761 6.49 64.4795 6.65333 64.8195 6.98C65.1661 7.30667 65.3395 7.78 65.3395 8.4V9.18C65.3395 9.24667 65.3061 9.28 65.2395 9.28H62.2195V9.6C62.2195 10.02 62.3095 10.3267 62.4895 10.52C62.6695 10.7133 62.9595 10.81 63.3595 10.81C63.6595 10.81 63.8895 10.7633 64.0495 10.67C64.2161 10.57 64.2995 10.4233 64.2995 10.23C64.2995 10.1567 64.3361 10.12 64.4095 10.12H65.1495C65.2028 10.12 65.2361 10.15 65.2495 10.21C65.2761 10.6567 65.1161 11.0033 64.7695 11.25C64.4295 11.4967 63.9461 11.62 63.3195 11.62ZM62.2195 8.53H64.3995V8.48C64.3995 8.07333 64.3095 7.77667 64.1295 7.59C63.9495 7.39667 63.6828 7.3 63.3295 7.3C62.9561 7.3 62.6761 7.4 62.4895 7.6C62.3095 7.79333 62.2195 8.09 62.2195 8.49V8.53ZM68.5841 11.62C67.9041 11.62 67.3874 11.4533 67.0341 11.12C66.6807 10.78 66.5041 10.2933 66.5041 9.66V8.45C66.5041 7.81667 66.6841 7.33333 67.0441 7C67.4041 6.66 67.9241 6.49 68.6041 6.49C69.0107 6.49 69.3574 6.55333 69.6441 6.68C69.9374 6.80667 70.1607 6.98 70.3141 7.2C70.4674 7.42 70.5441 7.67667 70.5441 7.97C70.5441 8.11667 70.5074 8.19 70.4341 8.19H69.7041C69.6774 8.19 69.6541 8.17667 69.6341 8.15C69.6141 8.12333 69.6041 8.08667 69.6041 8.04C69.6041 7.80667 69.5141 7.63 69.3341 7.51C69.1541 7.38333 68.9107 7.32 68.6041 7.32C68.2174 7.32 67.9274 7.42 67.7341 7.62C67.5474 7.81333 67.4541 8.12 67.4541 8.54V9.57C67.4541 9.98333 67.5474 10.29 67.7341 10.49C67.9274 10.69 68.2141 10.79 68.5941 10.79C68.9074 10.79 69.1507 10.7233 69.3241 10.59C69.5041 10.45 69.5941 10.28 69.5941 10.08C69.5941 9.97333 69.6274 9.92 69.6941 9.92H70.4241C70.4974 9.92 70.5341 9.95333 70.5341 10.02C70.5341 10.5067 70.3674 10.8967 70.0341 11.19C69.7007 11.4767 69.2174 11.62 68.5841 11.62ZM73.5801 11.62C73.2267 11.62 72.9434 11.5633 72.7301 11.45C72.5167 11.33 72.3634 11.15 72.2701 10.91C72.1767 10.67 72.1301 10.37 72.1301 10.01V7.42H71.3701C71.2967 7.42 71.2601 7.38333 71.2601 7.31V6.71C71.2601 6.64333 71.2967 6.61 71.3701 6.61H72.1501L72.2701 5.41C72.2767 5.33667 72.3167 5.3 72.3901 5.3H72.9701C73.0367 5.3 73.0701 5.33667 73.0701 5.41L73.0801 6.61H74.5301C74.6034 6.61 74.6401 6.64333 74.6401 6.71V7.31C74.6401 7.38333 74.6034 7.42 74.5301 7.42H73.0801V9.97C73.0801 10.27 73.1334 10.4833 73.2401 10.61C73.3467 10.7367 73.5267 10.8 73.7801 10.8C73.9134 10.8 74.0434 10.7867 74.1701 10.76C74.3034 10.7267 74.4201 10.6867 74.5201 10.64C74.5601 10.6267 74.5901 10.6267 74.6101 10.64C74.6367 10.6533 74.6501 10.68 74.6501 10.72V11.33C74.6501 11.39 74.6201 11.43 74.5601 11.45C74.4401 11.4967 74.2967 11.5367 74.1301 11.57C73.9701 11.6033 73.7867 11.62 73.5801 11.62ZM77.5298 11.62C76.8498 11.62 76.3298 11.4567 75.9698 11.13C75.6098 10.7967 75.4298 10.2933 75.4298 9.62V8.49C75.4298 7.81667 75.6065 7.31667 75.9598 6.99C76.3198 6.65667 76.8432 6.49 77.5298 6.49C78.2165 6.49 78.7398 6.65667 79.0998 6.99C79.4598 7.31667 79.6398 7.81667 79.6398 8.49V9.62C79.6398 10.2933 79.4598 10.7967 79.0998 11.13C78.7465 11.4567 78.2232 11.62 77.5298 11.62ZM77.5298 10.79C77.9365 10.79 78.2298 10.6867 78.4098 10.48C78.5965 10.2733 78.6898 9.95667 78.6898 9.53V8.57C78.6898 8.15 78.5965 7.83667 78.4098 7.63C78.2298 7.42333 77.9365 7.32 77.5298 7.32C77.1232 7.32 76.8298 7.42333 76.6498 7.63C76.4698 7.83667 76.3798 8.15 76.3798 8.57V9.53C76.3798 9.95667 76.4698 10.2733 76.6498 10.48C76.8298 10.6867 77.1232 10.79 77.5298 10.79ZM82.5607 11.62C81.9407 11.62 81.4774 11.49 81.1707 11.23C80.8707 10.9633 80.724 10.5633 80.7307 10.03C80.7307 9.97 80.764 9.94 80.8307 9.94H81.5707C81.6307 9.94 81.6607 9.97 81.6607 10.03C81.6607 10.31 81.7307 10.5133 81.8707 10.64C82.0174 10.7667 82.2474 10.83 82.5607 10.83C82.874 10.83 83.1074 10.78 83.2607 10.68C83.4207 10.5733 83.5007 10.4233 83.5007 10.23C83.5007 10.0833 83.454 9.96 83.3607 9.86C83.274 9.76 83.1307 9.66667 82.9307 9.58L81.7907 9.11C81.4307 8.95667 81.174 8.78333 81.0207 8.59C80.8674 8.39667 80.7907 8.14333 80.7907 7.83C80.7907 7.38333 80.934 7.05 81.2207 6.83C81.5074 6.60333 81.934 6.49 82.5007 6.49C83.0874 6.49 83.5374 6.61 83.8507 6.85C84.1707 7.08333 84.3307 7.42 84.3307 7.86C84.3307 7.92667 84.294 7.96 84.2207 7.96H83.4907C83.464 7.96 83.4407 7.95 83.4207 7.93C83.4007 7.90333 83.3907 7.86 83.3907 7.8C83.3907 7.63333 83.314 7.50333 83.1607 7.41C83.014 7.31667 82.8074 7.27 82.5407 7.27C82.274 7.27 82.074 7.31667 81.9407 7.41C81.8074 7.50333 81.7407 7.64333 81.7407 7.83C81.7407 7.97 81.7774 8.07667 81.8507 8.15C81.924 8.21667 82.074 8.3 82.3007 8.4L83.4407 8.88C83.794 9.02 84.0507 9.19333 84.2107 9.4C84.3707 9.6 84.4507 9.86 84.4507 10.18C84.4507 10.6467 84.2874 11.0033 83.9607 11.25C83.634 11.4967 83.1674 11.62 82.5607 11.62ZM42.42 23.5C42.3533 23.5 42.32 23.4633 42.32 23.39V17.06C42.32 16.9867 42.3533 16.95 42.42 16.95H44.15C44.97 16.95 45.5833 17.1267 45.99 17.48C46.4033 17.8267 46.61 18.34 46.61 19.02C46.61 19.6933 46.4033 20.2067 45.99 20.56C45.5767 20.9067 44.9633 21.08 44.15 21.08H43.27V23.39C43.27 23.4633 43.2367 23.5 43.17 23.5H42.42ZM43.27 20.27H44.13C44.6567 20.27 45.04 20.1733 45.28 19.98C45.5267 19.78 45.65 19.47 45.65 19.05C45.65 18.5967 45.5233 18.27 45.27 18.07C45.0233 17.8633 44.6367 17.76 44.11 17.76H43.27V20.27ZM47.7985 23.5C47.7318 23.5 47.6985 23.4633 47.6985 23.39V19.81C47.6985 19.6167 47.6918 19.4333 47.6785 19.26C47.6718 19.08 47.6552 18.9 47.6285 18.72C47.6152 18.6467 47.6485 18.61 47.7285 18.61H48.4085C48.4418 18.61 48.4685 18.6167 48.4885 18.63C48.5085 18.6433 48.5218 18.6667 48.5285 18.7C48.5552 18.8267 48.5752 18.97 48.5885 19.13C48.6018 19.29 48.6085 19.4267 48.6085 19.54L48.6485 20.09V23.39C48.6485 23.4633 48.6118 23.5 48.5385 23.5H47.7985ZM48.5385 20.43L48.4985 19.55C48.6385 19.3433 48.7985 19.1633 48.9785 19.01C49.1652 18.85 49.3518 18.7233 49.5385 18.63C49.7252 18.5367 49.8985 18.49 50.0585 18.49C50.1785 18.49 50.2685 18.5 50.3285 18.52C50.3618 18.5267 50.3818 18.54 50.3885 18.56C50.4018 18.5733 50.4118 18.5967 50.4185 18.63C50.4318 18.7767 50.4352 18.93 50.4285 19.09C50.4285 19.2433 50.4185 19.39 50.3985 19.53C50.3918 19.57 50.3752 19.5967 50.3485 19.61C50.3285 19.6233 50.2985 19.6267 50.2585 19.62C50.2118 19.6067 50.1585 19.5967 50.0985 19.59C50.0385 19.5833 49.9752 19.58 49.9085 19.58C49.7485 19.58 49.5852 19.6167 49.4185 19.69C49.2585 19.7567 49.1018 19.8533 48.9485 19.98C48.8018 20.1067 48.6652 20.2567 48.5385 20.43ZM53.1744 23.62C52.4944 23.62 51.9744 23.4567 51.6144 23.13C51.2544 22.7967 51.0744 22.2933 51.0744 21.62V20.49C51.0744 19.8167 51.251 19.3167 51.6044 18.99C51.9644 18.6567 52.4877 18.49 53.1744 18.49C53.861 18.49 54.3844 18.6567 54.7444 18.99C55.1044 19.3167 55.2844 19.8167 55.2844 20.49V21.62C55.2844 22.2933 55.1044 22.7967 54.7444 23.13C54.391 23.4567 53.8677 23.62 53.1744 23.62ZM53.1744 22.79C53.581 22.79 53.8744 22.6867 54.0544 22.48C54.241 22.2733 54.3344 21.9567 54.3344 21.53V20.57C54.3344 20.15 54.241 19.8367 54.0544 19.63C53.8744 19.4233 53.581 19.32 53.1744 19.32C52.7677 19.32 52.4744 19.4233 52.2944 19.63C52.1144 19.8367 52.0244 20.15 52.0244 20.57V21.53C52.0244 21.9567 52.1144 22.2733 52.2944 22.48C52.4744 22.6867 52.7677 22.79 53.1744 22.79ZM57.9152 23.62C57.4486 23.62 57.0919 23.4667 56.8452 23.16C56.5986 22.8533 56.4752 22.3967 56.4752 21.79V20.5C56.4752 19.8533 56.6319 19.3567 56.9452 19.01C57.2652 18.6633 57.7086 18.49 58.2752 18.49C58.5286 18.49 58.7952 18.5233 59.0752 18.59C59.3619 18.6567 59.5819 18.7433 59.7352 18.85L59.7852 19.65C59.5786 19.5367 59.3552 19.4533 59.1152 19.4C58.8752 19.34 58.6619 19.31 58.4752 19.31C58.1219 19.31 57.8586 19.42 57.6852 19.64C57.5119 19.8533 57.4252 20.1733 57.4252 20.6V21.78C57.4252 22.1133 57.4886 22.3667 57.6152 22.54C57.7486 22.7067 57.9452 22.79 58.2052 22.79C58.3652 22.79 58.5219 22.76 58.6752 22.7C58.8352 22.6333 59.0052 22.53 59.1852 22.39C59.3719 22.2433 59.5852 22.05 59.8252 21.81V22.62C59.6052 22.84 59.3952 23.0267 59.1952 23.18C58.9952 23.3267 58.7919 23.4367 58.5852 23.51C58.3786 23.5833 58.1552 23.62 57.9152 23.62ZM59.8852 23.5C59.8519 23.5 59.8252 23.4933 59.8052 23.48C59.7852 23.46 59.7719 23.43 59.7652 23.39C59.7519 23.29 59.7352 23.1633 59.7152 23.01C59.6952 22.8567 59.6886 22.73 59.6952 22.63L59.6352 22.16V16.78C59.6352 16.7067 59.6686 16.67 59.7352 16.67H60.4752C60.5486 16.67 60.5852 16.7067 60.5852 16.78V22.35C60.5852 22.45 60.5852 22.5667 60.5852 22.7C60.5919 22.8267 60.5986 22.95 60.6052 23.07C60.6186 23.19 60.6319 23.2867 60.6452 23.36C60.6652 23.4533 60.6319 23.5 60.5452 23.5H59.8852ZM63.3447 23.62C62.918 23.62 62.5914 23.48 62.3647 23.2C62.138 22.9133 62.0247 22.5 62.0247 21.96V18.71C62.0247 18.6433 62.058 18.61 62.1247 18.61H62.8647C62.938 18.61 62.9747 18.6433 62.9747 18.71V21.87C62.9747 22.1833 63.028 22.4167 63.1347 22.57C63.248 22.7167 63.4214 22.79 63.6547 22.79C63.8947 22.79 64.1347 22.7167 64.3747 22.57C64.6147 22.4167 64.908 22.1633 65.2547 21.81V22.63C65.048 22.8367 64.838 23.0167 64.6247 23.17C64.418 23.3167 64.208 23.4267 63.9947 23.5C63.788 23.58 63.5714 23.62 63.3447 23.62ZM65.3447 23.5C65.3047 23.5 65.2747 23.4933 65.2547 23.48C65.2347 23.46 65.2214 23.4333 65.2147 23.4C65.1947 23.2733 65.178 23.1433 65.1647 23.01C65.1514 22.8767 65.1414 22.74 65.1347 22.6L65.0747 22.16V18.71C65.0747 18.6433 65.108 18.61 65.1747 18.61H65.9147C65.988 18.61 66.0247 18.6433 66.0247 18.71V22.27C66.0247 22.4567 66.028 22.6467 66.0347 22.84C66.048 23.0267 66.0647 23.21 66.0847 23.39C66.098 23.4633 66.0614 23.5 65.9747 23.5H65.3447ZM69.4044 23.62C68.7244 23.62 68.2077 23.4533 67.8544 23.12C67.501 22.78 67.3244 22.2933 67.3244 21.66V20.45C67.3244 19.8167 67.5044 19.3333 67.8644 19C68.2244 18.66 68.7444 18.49 69.4244 18.49C69.831 18.49 70.1777 18.5533 70.4644 18.68C70.7577 18.8067 70.981 18.98 71.1344 19.2C71.2877 19.42 71.3644 19.6767 71.3644 19.97C71.3644 20.1167 71.3277 20.19 71.2544 20.19H70.5244C70.4977 20.19 70.4744 20.1767 70.4544 20.15C70.4344 20.1233 70.4244 20.0867 70.4244 20.04C70.4244 19.8067 70.3344 19.63 70.1544 19.51C69.9744 19.3833 69.731 19.32 69.4244 19.32C69.0377 19.32 68.7477 19.42 68.5544 19.62C68.3677 19.8133 68.2744 20.12 68.2744 20.54V21.57C68.2744 21.9833 68.3677 22.29 68.5544 22.49C68.7477 22.69 69.0344 22.79 69.4144 22.79C69.7277 22.79 69.971 22.7233 70.1444 22.59C70.3244 22.45 70.4144 22.28 70.4144 22.08C70.4144 21.9733 70.4477 21.92 70.5144 21.92H71.2444C71.3177 21.92 71.3544 21.9533 71.3544 22.02C71.3544 22.5067 71.1877 22.8967 70.8544 23.19C70.521 23.4767 70.0377 23.62 69.4044 23.62ZM74.4004 23.62C74.0471 23.62 73.7637 23.5633 73.5504 23.45C73.3371 23.33 73.1837 23.15 73.0904 22.91C72.9971 22.67 72.9504 22.37 72.9504 22.01V19.42H72.1904C72.1171 19.42 72.0804 19.3833 72.0804 19.31V18.71C72.0804 18.6433 72.1171 18.61 72.1904 18.61H72.9704L73.0904 17.41C73.0971 17.3367 73.1371 17.3 73.2104 17.3H73.7904C73.8571 17.3 73.8904 17.3367 73.8904 17.41L73.9004 18.61H75.3504C75.4237 18.61 75.4604 18.6433 75.4604 18.71V19.31C75.4604 19.3833 75.4237 19.42 75.3504 19.42H73.9004V21.97C73.9004 22.27 73.9537 22.4833 74.0604 22.61C74.1671 22.7367 74.3471 22.8 74.6004 22.8C74.7337 22.8 74.8637 22.7867 74.9904 22.76C75.1237 22.7267 75.2404 22.6867 75.3404 22.64C75.3804 22.6267 75.4104 22.6267 75.4304 22.64C75.4571 22.6533 75.4704 22.68 75.4704 22.72V23.33C75.4704 23.39 75.4404 23.43 75.3804 23.45C75.2604 23.4967 75.1171 23.5367 74.9504 23.57C74.7904 23.6033 74.6071 23.62 74.4004 23.62ZM76.5973 23.5C76.5307 23.5 76.4973 23.4633 76.4973 23.39V18.71C76.4973 18.6433 76.5307 18.61 76.5973 18.61H77.3373C77.4107 18.61 77.4473 18.6433 77.4473 18.71V23.39C77.4473 23.4633 77.4107 23.5 77.3373 23.5H76.5973ZM76.9673 17.82C76.7673 17.82 76.6173 17.7667 76.5173 17.66C76.424 17.5533 76.3773 17.4133 76.3773 17.24V17.13C76.3773 16.9567 76.424 16.8167 76.5173 16.71C76.6173 16.6033 76.7673 16.55 76.9673 16.55C77.174 16.55 77.324 16.6033 77.4173 16.71C77.5107 16.8167 77.5573 16.9567 77.5573 17.13V17.24C77.5573 17.4133 77.5107 17.5533 77.4173 17.66C77.324 17.7667 77.174 17.82 76.9673 17.82ZM80.1502 23.5C80.0902 23.5 80.0468 23.4733 80.0202 23.42L78.4002 18.72C78.3802 18.6467 78.4102 18.61 78.4902 18.61H79.2802C79.3402 18.61 79.3802 18.6367 79.4002 18.69L80.2402 21.4C80.3135 21.62 80.3835 21.8467 80.4502 22.08C80.5235 22.3067 80.5902 22.5367 80.6502 22.77H80.6802C80.7402 22.5367 80.8035 22.3067 80.8702 22.08C80.9435 21.8533 81.0168 21.6267 81.0902 21.4L81.9302 18.69C81.9502 18.6367 81.9935 18.61 82.0602 18.61H82.8402C82.9202 18.61 82.9502 18.6467 82.9302 18.72L81.3002 23.42C81.2802 23.4733 81.2368 23.5 81.1702 23.5H80.1502ZM85.7623 23.62C85.0823 23.62 84.5623 23.4567 84.2023 23.13C83.8423 22.7967 83.6623 22.2933 83.6623 21.62V20.49C83.6623 19.8167 83.8389 19.3167 84.1923 18.99C84.5523 18.6567 85.0756 18.49 85.7623 18.49C86.4489 18.49 86.9723 18.6567 87.3323 18.99C87.6923 19.3167 87.8723 19.8167 87.8723 20.49V21.62C87.8723 22.2933 87.6923 22.7967 87.3323 23.13C86.9789 23.4567 86.4556 23.62 85.7623 23.62ZM85.7623 22.79C86.1689 22.79 86.4623 22.6867 86.6423 22.48C86.8289 22.2733 86.9223 21.9567 86.9223 21.53V20.57C86.9223 20.15 86.8289 19.8367 86.6423 19.63C86.4623 19.4233 86.1689 19.32 85.7623 19.32C85.3556 19.32 85.0623 19.4233 84.8823 19.63C84.7023 19.8367 84.6123 20.15 84.6123 20.57V21.53C84.6123 21.9567 84.7023 22.2733 84.8823 22.48C85.0623 22.6867 85.3556 22.79 85.7623 22.79ZM90.7931 23.62C90.1731 23.62 89.7098 23.49 89.4031 23.23C89.1031 22.9633 88.9565 22.5633 88.9631 22.03C88.9631 21.97 88.9965 21.94 89.0631 21.94H89.8031C89.8631 21.94 89.8931 21.97 89.8931 22.03C89.8931 22.31 89.9631 22.5133 90.1031 22.64C90.2498 22.7667 90.4798 22.83 90.7931 22.83C91.1065 22.83 91.3398 22.78 91.4931 22.68C91.6531 22.5733 91.7331 22.4233 91.7331 22.23C91.7331 22.0833 91.6865 21.96 91.5931 21.86C91.5065 21.76 91.3631 21.6667 91.1631 21.58L90.0231 21.11C89.6631 20.9567 89.4065 20.7833 89.2531 20.59C89.0998 20.3967 89.0231 20.1433 89.0231 19.83C89.0231 19.3833 89.1665 19.05 89.4531 18.83C89.7398 18.6033 90.1665 18.49 90.7331 18.49C91.3198 18.49 91.7698 18.61 92.0831 18.85C92.4031 19.0833 92.5631 19.42 92.5631 19.86C92.5631 19.9267 92.5265 19.96 92.4531 19.96H91.7231C91.6965 19.96 91.6731 19.95 91.6531 19.93C91.6331 19.9033 91.6231 19.86 91.6231 19.8C91.6231 19.6333 91.5465 19.5033 91.3931 19.41C91.2465 19.3167 91.0398 19.27 90.7731 19.27C90.5065 19.27 90.3065 19.3167 90.1731 19.41C90.0398 19.5033 89.9731 19.6433 89.9731 19.83C89.9731 19.97 90.0098 20.0767 90.0831 20.15C90.1565 20.2167 90.3065 20.3 90.5331 20.4L91.6731 20.88C92.0265 21.02 92.2831 21.1933 92.4431 21.4C92.6031 21.6 92.6831 21.86 92.6831 22.18C92.6831 22.6467 92.5198 23.0033 92.1931 23.25C91.8665 23.4967 91.3998 23.62 90.7931 23.62Z" fill="white"/>
<path d="M31.0029 14.5438V15.2491C30.9939 15.2876 30.9873 15.3265 30.983 15.3657C30.9569 15.8051 30.8826 16.2409 30.7614 16.6661C30.3847 17.9895 29.6024 19.0111 28.2727 19.6312C27.6759 19.9377 26.9896 20.0552 26.316 19.9662C25.9366 19.8992 25.5518 19.863 25.1658 19.858C24.6561 19.858 24.1464 19.9266 23.6367 19.9682C23.2749 20.022 22.9053 20.0092 22.5486 19.9308C21.8751 19.7581 21.2523 19.4434 20.7278 19.0108C20.2032 18.5781 19.7907 18.0388 19.5215 17.4339C19.2473 16.8219 19.0826 16.1716 19.034 15.5092C18.9686 14.9799 18.9978 14.444 19.1204 13.9237C19.2506 13.3771 19.5658 12.8847 20.0187 12.5202C20.4717 12.1556 21.0381 11.9385 21.6334 11.9012C22.2648 11.8571 22.8997 11.8913 23.5215 12.0032C23.9337 12.0656 24.3437 12.1426 24.7581 12.1863C25.2577 12.2078 25.758 12.1601 26.2428 12.0448C26.9307 11.9078 27.6352 11.8595 28.337 11.9012C28.9436 11.9313 29.5226 12.1488 29.9839 12.5198C30.4452 12.8909 30.763 13.3947 30.8877 13.9528C30.9387 14.1464 30.9697 14.3461 31.0029 14.5438Z" fill="#00FF6D"/>
<path d="M24.9685 11.8535C24.6117 11.7994 24.235 11.7369 23.8605 11.6849C23.4483 11.6287 23.0339 11.5809 22.6195 11.5351C22.522 11.5351 22.4533 11.506 22.42 11.4082C22.3799 11.3085 22.3333 11.2112 22.2804 11.1169C22.2433 11.0561 22.2277 10.9858 22.2361 10.9162C22.2445 10.8466 22.2763 10.7813 22.327 10.7299C22.3768 10.6772 22.443 10.6406 22.5162 10.6253C22.5894 10.61 22.6658 10.6167 22.7347 10.6445C23.1403 10.7694 23.5502 10.8901 23.9558 11.0191C23.9708 11.0263 23.9872 11.0306 24.0041 11.0315C24.0209 11.0325 24.0378 11.0301 24.0536 11.0247C24.0695 11.0192 24.0839 11.0107 24.096 10.9997C24.1082 10.9887 24.1178 10.9755 24.1242 10.9608C24.3081 10.7028 24.4965 10.4469 24.6849 10.1889C24.7144 10.1322 24.7603 10.0845 24.8173 10.0511C24.8743 10.0177 24.9401 10 25.0073 10C25.0745 10 25.1403 10.0177 25.1973 10.0511C25.2543 10.0845 25.3002 10.1322 25.3297 10.1889C25.5203 10.449 25.7109 10.7091 25.8971 10.9712C25.9041 10.9846 25.9139 10.9964 25.9259 11.0061C25.938 11.0158 25.952 11.0231 25.9671 11.0276C25.9822 11.032 25.9981 11.0336 26.0139 11.0321C26.0296 11.0307 26.0449 11.0262 26.0588 11.0191C26.4622 10.8942 26.8677 10.7756 27.2688 10.6487C27.3386 10.6187 27.4167 10.6102 27.4919 10.6244C27.5671 10.6386 27.6357 10.6748 27.6876 10.7278C27.7393 10.7814 27.7711 10.8493 27.7783 10.9213C27.7855 10.9933 27.7677 11.0656 27.7275 11.1273C27.6784 11.2147 27.6354 11.305 27.599 11.3978C27.5613 11.4997 27.4971 11.5268 27.3774 11.5393C26.8477 11.6017 26.3203 11.6766 25.7907 11.7473L24.9685 11.8535Z" fill="#00FF6D"/>
</svg>
