<svg width="24" height="123" viewBox="0 0 24 123" fill="none" xmlns="http://www.w3.org/2000/svg">
<path d="M23.1167 79.0814C22.8903 85.0613 17.8337 89.7123 11.7205 89.5646C5.60727 89.3432 0.852553 84.3969 1.0035 78.417C1.30538 72.4371 6.36198 67.7861 12.4752 68.0076C18.5884 68.1552 23.3431 73.1754 23.1167 79.0814Z" fill="#FFD21F" stroke="white" stroke-width="0.5" stroke-miterlimit="10"/>
<path d="M12.0979 82.3297C7.947 82.3297 6.81492 80.7055 6.66398 80.5578C6.51304 80.3364 6.58851 79.9672 6.81492 79.8196C7.04134 79.6719 7.41869 79.7458 7.56964 79.9672C7.56964 79.9672 8.55077 81.2223 12.0225 81.2223C15.5696 81.2223 16.5508 79.8934 16.5508 79.8934C16.7017 79.6719 17.0791 79.5981 17.3055 79.7458C17.5319 79.8934 17.6074 80.2625 17.4564 80.484C17.4564 80.7055 16.2489 82.3297 12.0979 82.3297Z" fill="#403408"/>
<path d="M15.8714 74.1352C16.3997 73.9137 16.928 74.1352 17.3053 74.5782C17.6827 74.1352 18.211 73.9137 18.7393 74.1352C19.4186 74.4305 19.5695 75.1688 19.2676 75.8332C19.0412 76.35 18.1355 77.2359 17.6072 77.6788C17.4563 77.8265 17.1544 77.8265 16.928 77.6788C16.3997 77.1621 15.494 76.2762 15.3431 75.7594C15.0412 75.1688 15.1921 74.4305 15.8714 74.1352Z" fill="#D1212D"/>
<path d="M5.53179 74.1352C6.06009 73.9137 6.58839 74.1352 6.96575 74.5782C7.3431 74.1352 7.87141 73.9137 8.39971 74.1352C9.07896 74.4305 9.2299 75.1688 8.92801 75.8332C8.7016 76.35 7.79594 77.2359 7.26763 77.6788C7.11669 77.8265 6.8148 77.8265 6.58839 77.6788C6.06009 77.1621 5.15443 76.2762 5.00348 75.7594C4.7016 75.1688 4.85254 74.4305 5.53179 74.1352Z" fill="#D1212D"/>
<path d="M23.0831 45.4201C23.0831 51.4 18.1775 56.1986 12.0643 56.1986C5.95107 56.1986 1.04541 51.4 1.04541 45.4201C1.04541 39.4403 5.95107 34.6416 12.0643 34.6416C18.102 34.6416 23.0831 39.4403 23.0831 45.4201Z" fill="#DBDBDB"/>
<path d="M7.00768 46.0846C6.55485 46.0846 6.17749 45.7155 6.17749 45.2726V43.3531C6.17749 42.9101 6.55485 42.541 7.00768 42.541C7.46051 42.541 7.83787 42.9101 7.83787 43.3531V45.2726C7.83787 45.7155 7.46051 46.0846 7.00768 46.0846Z" fill="#403408"/>
<path d="M17.0455 46.0846C16.5927 46.0846 16.2153 45.7155 16.2153 45.2726V43.3531C16.2153 42.9101 16.5927 42.541 17.0455 42.541C17.4983 42.541 17.8757 42.9101 17.8757 43.3531V45.2726C17.8757 45.7155 17.4983 46.0846 17.0455 46.0846Z" fill="#403408"/>
<path d="M18.3283 48.9638H5.72456C5.42267 48.9638 5.27173 48.7423 5.27173 48.5208C5.27173 48.2255 5.49814 48.0779 5.72456 48.0779H18.4038C18.7057 48.0779 18.8566 48.2994 18.8566 48.5208C18.8566 48.7423 18.6302 48.9638 18.3283 48.9638Z" fill="#403408"/>
<path d="M23.0831 10.7785C23.0831 16.7584 18.1775 21.557 12.0643 21.557C5.95106 21.557 1.04541 16.7584 1.04541 10.7785C1.04541 4.79866 5.95106 0 12.0643 0C18.102 0 23.0831 4.79866 23.0831 10.7785Z" fill="#DBDBDB"/>
<path d="M7.00767 10.8523C6.55484 10.8523 6.17749 10.4832 6.17749 10.0402V7.30866C6.17749 6.86571 6.55484 6.49658 7.00767 6.49658C7.4605 6.49658 7.83787 6.86571 7.83787 7.30866V10.0402C7.76239 10.4832 7.4605 10.8523 7.00767 10.8523Z" fill="#403408"/>
<path d="M17.0455 10.8523C16.5927 10.8523 16.2153 10.4832 16.2153 10.0402V7.30866C16.2153 6.86571 16.5927 6.49658 17.0455 6.49658C17.4984 6.49658 17.8757 6.86571 17.8757 7.30866V10.0402C17.8757 10.4832 17.4984 10.8523 17.0455 10.8523Z" fill="#403408"/>
<path d="M8.06439 15.5773C7.98892 15.5773 7.98891 15.5773 7.91344 15.5773C7.61155 15.5035 7.46061 15.2082 7.53608 14.9129C7.83797 13.8055 9.19646 11.6646 12.0644 11.6646C14.8568 11.6646 16.2153 13.8055 16.5172 14.9129C16.5927 15.2082 16.4417 15.5035 16.1399 15.5773C15.838 15.6511 15.5361 15.5035 15.4606 15.2082C15.4606 15.1343 14.7059 12.7719 12.0644 12.7719C9.42287 12.7719 8.66816 15.1343 8.59269 15.2082C8.51722 15.4297 8.2908 15.5773 8.06439 15.5773Z" fill="#403408"/>
<path fill-rule="evenodd" clip-rule="evenodd" d="M5.64151 102C4.20755 102 3 103.181 3 104.658V121.711C3 121.933 3.15094 122.154 3.30189 122.302C3.5283 122.376 3.75472 122.376 3.98113 122.302L11.4528 119.128L18.8491 122.302C19.0755 122.376 19.3019 122.376 19.5283 122.228C19.7547 122.081 19.8302 121.859 19.8302 121.638V104.584C19.8302 103.181 18.6226 102 17.1887 102H5.64151Z" fill="#FFAA00"/>
</svg>
