<svg width="75" height="37" viewBox="0 0 75 37" fill="none" xmlns="http://www.w3.org/2000/svg">
<g clip-path="url(#clip0_1754_486)">
<path d="M40.9503 11.5777C40.9503 10.7584 40.9279 9.9392 40.9503 9.11995C40.9726 8.49834 41.0459 7.87673 41.1256 7.25831C41.1285 7.11442 41.185 6.97676 41.2841 6.87238C41.3832 6.76799 41.5178 6.7044 41.6614 6.69409C42.0328 6.66382 42.406 6.66382 42.7774 6.69409C42.8276 6.69672 42.8766 6.70971 42.9215 6.73224C42.9664 6.75477 43.0061 6.78635 43.0381 6.82498C43.0702 6.86362 43.0939 6.90847 43.1077 6.95672C43.1216 7.00496 43.1253 7.05555 43.1186 7.1053C43.0909 8.08348 43.0089 9.05936 42.8731 10.0285C42.8061 10.3924 42.7709 10.7614 42.7679 11.1314C42.8106 12.3759 42.7701 13.6219 42.6467 14.8611C42.4107 17.3826 42.5765 19.9009 42.5064 22.416C42.5064 22.926 42.6116 23.3723 43.1122 23.6337C43.2622 23.7233 43.3753 23.8634 43.4311 24.029C43.5555 24.3477 43.4311 24.5167 43.0963 24.5294C42.8267 24.5271 42.5575 24.5517 42.2927 24.6028C41.8463 24.708 41.639 24.539 41.4668 24.0959C41.1477 23.1965 40.9191 22.2674 40.7844 21.3226C40.7621 21.1791 40.7239 21.0038 40.5995 20.9624C40.4751 20.9209 40.3954 21.0835 40.3125 21.1664C39.831 21.6509 39.4228 22.1928 38.9892 22.7188C38.2225 23.6061 37.1596 24.1849 35.9981 24.3477C35.0918 24.5502 34.1472 24.4984 33.2685 24.1979C32.944 24.0963 32.6464 23.9233 32.3975 23.6916C32.1486 23.4599 31.9548 23.1754 31.8304 22.8591C31.5214 22.0988 31.3632 21.2857 31.3648 20.4651C31.3903 19.3239 31.1193 18.189 31.2085 17.051C31.3393 15.3679 31.3233 13.6816 31.3871 11.9985C31.4445 10.5002 31.6518 9.00838 31.8048 7.51652C31.8559 7.02242 32.0727 6.87897 32.6913 6.93317C33.1091 6.96185 33.1824 7.25194 33.1824 7.59621C33.1824 8.97331 33.2653 10.36 33.1665 11.7403C32.9656 14.5742 33.007 17.4081 33.0262 20.2419C33.0262 21.109 33.1346 21.9984 33.7819 22.6933C34.2444 23.209 34.8867 23.5284 35.5772 23.5859C35.677 23.5985 35.7783 23.5859 35.8719 23.5492C35.9656 23.5124 36.0484 23.4527 36.1129 23.3755C37.2768 22.0016 38.5619 20.7329 39.5887 19.2314C39.8158 18.8927 39.983 18.5175 40.0829 18.1221C40.2838 17.4049 40.4018 16.6717 40.6282 15.9576C40.8596 15.1552 40.9672 14.3221 40.9471 13.4871C40.9439 12.8432 40.9503 12.2089 40.9503 11.5777ZM32.3597 11.8646C32.2066 12.1547 32.1397 17.0415 32.2768 17.8001C32.4171 17.5324 32.4936 12.1324 32.3597 11.8646ZM41.6295 21.5617C41.6773 20.8699 41.8718 20.2133 41.7475 19.5056C41.6963 19.0056 41.6899 18.5021 41.7283 18.001C41.7283 17.883 41.7283 17.7396 41.5912 17.7332C41.4541 17.7268 41.4732 17.8671 41.4668 17.9755C41.4244 18.3543 41.4085 18.7356 41.419 19.1167C41.4892 19.8339 41.419 20.5448 41.4668 21.2556C41.4764 21.3736 41.4541 21.4883 41.6295 21.5617ZM41.8591 16.1425C42.0026 14.6539 41.9802 13.2736 42.1429 11.8805C41.773 12.4479 41.5816 15.4157 41.8591 16.1489V16.1425ZM41.977 9.3654C41.9616 9.53214 41.9745 9.70028 42.0153 9.86269C42.0663 9.96151 42.0153 10.1655 42.1716 10.1623C42.3278 10.1591 42.3055 9.98701 42.3406 9.86588C42.5223 9.25702 42.2194 8.65454 42.3246 8.04568C42.3273 8.02431 42.3255 8.00261 42.3192 7.982C42.3129 7.96139 42.3024 7.94234 42.2882 7.92609C42.2741 7.90984 42.2566 7.89676 42.2371 7.88771C42.2175 7.87865 42.1963 7.87383 42.1747 7.87355C42.0344 7.87355 41.9802 7.98193 41.9898 8.10625C42.0553 8.52591 42.051 8.95352 41.977 9.37178V9.3654ZM40.1786 19.7638C40.272 19.7388 40.3571 19.6893 40.425 19.6203C40.4928 19.5514 40.541 19.4655 40.5644 19.3717C40.5644 19.3526 40.4719 19.2569 40.4592 19.2633C40.3288 19.3551 40.2306 19.4856 40.1786 19.6363C40.1786 19.6586 40.1786 19.6905 40.1786 19.7638Z" fill="white"/>
<path d="M6.9293 20.3314C6.9293 21.4758 6.7858 22.5278 6.82726 23.5861C6.85038 23.8232 6.7784 24.0598 6.62713 24.2439C6.47586 24.428 6.25767 24.5445 6.0205 24.5679C5.82598 24.5998 5.71756 24.5073 5.70162 24.2842C5.67613 23.519 5.71882 22.753 5.82917 21.9954C5.8828 21.4638 5.86133 20.9272 5.7654 20.4015C5.64103 19.662 5.80047 18.9575 5.84512 18.2403C5.89773 17.4134 5.89773 16.5839 5.84512 15.757C5.84512 15.6741 5.79728 15.5913 5.79728 15.5084C5.79728 13.9145 5.63147 12.3015 5.71438 10.6981C5.7654 9.72264 5.877 8.7472 5.96948 7.77494C6.01412 7.33184 6.39677 7.21709 6.70927 7.2139C8.30366 7.19796 9.83427 6.68155 11.4287 6.84412C11.7797 6.87187 12.1225 6.96484 12.4395 7.11827C12.8891 7.34141 12.9051 7.6825 12.7584 8.37742C12.6602 8.77625 12.4539 9.14026 12.1621 9.42937C11.4287 10.2104 10.7622 11.0487 9.97777 11.7819C9.9056 11.83 9.84924 11.8983 9.81577 11.9782C9.7823 12.0582 9.7732 12.1463 9.78963 12.2314C9.86616 12.4418 10.083 12.3493 10.2424 12.3748C10.5417 12.3809 10.8405 12.3499 11.1321 12.2824C11.655 12.2353 12.1819 12.3011 12.6771 12.4755C13.1722 12.6498 13.6241 12.9286 14.002 13.2929C14.7737 14.0038 15.5804 14.7146 15.7654 15.8431C15.9474 16.7125 16.0011 17.6039 15.9248 18.4889C15.803 19.7563 15.3181 20.9616 14.5282 21.9603C13.4376 23.2769 12.1461 24.2109 10.3827 24.434C9.58555 24.536 8.82024 24.383 8.03899 24.4117C7.98922 24.4139 7.93974 24.403 7.89552 24.3801C7.8513 24.3572 7.8139 24.323 7.78708 24.281C7.68823 24.1567 7.62764 24.1981 7.51603 24.281C7.25774 24.4818 7.00902 24.3735 7.0154 24.0451C6.98628 23.3454 7.00652 22.6445 7.07598 21.9476C7.16424 21.4051 7.11378 20.8491 6.9293 20.3314ZM15.1563 19.3751C14.9285 19.6525 14.7407 19.9605 14.5983 20.29C14.5282 20.3219 14.5026 20.3697 14.5473 20.4398L14.6621 20.3569C14.9235 20.1041 15.1147 19.7878 15.2169 19.4388C15.3222 19.3783 15.3158 19.2954 15.2584 19.2061L15.1563 19.3751ZM7.69142 23.9686C8.32917 23.7774 8.92866 23.5032 9.56323 23.3629C9.9285 23.2727 10.2802 23.1344 10.6091 22.9517C11.7061 22.3716 12.5224 21.4535 13.4408 20.647C13.6077 20.4926 13.7328 20.2985 13.8043 20.0828C14.0123 19.4649 14.1335 18.8213 14.1646 18.1701C14.2188 17.2816 14.2188 16.3906 14.1646 15.502C14.0849 14.5042 13.7469 13.7583 12.6819 13.5129C12.14 13.4054 11.5912 13.3362 11.0396 13.3057C9.85022 13.2005 8.78836 13.6244 7.75838 14.144C7.60061 14.2074 7.46723 14.3195 7.37774 14.464C7.28824 14.6086 7.24732 14.7779 7.26093 14.9473C7.28007 15.7315 7.46501 16.4934 7.51922 17.268C7.59257 18.2913 7.54792 19.3241 7.58938 20.3537C7.63083 21.53 7.73287 22.7158 7.69142 23.9686ZM7.09193 10.408C7.00264 11.0647 7.20672 11.8584 7.17484 12.6585C7.16966 12.7377 7.19055 12.8164 7.23431 12.8826C7.27807 12.9488 7.34229 12.9989 7.41718 13.0251C7.61808 13.108 7.64996 12.8881 7.71374 12.7924C8.1506 12.1549 8.67037 11.5588 9.13274 10.9467C9.69068 10.291 10.1387 9.54932 10.4593 8.75039C10.6378 8.24672 10.4975 8.05865 9.96501 8.11284C9.166 8.18823 8.37394 8.32464 7.59575 8.52087C7.21629 8.62925 7.07279 8.80458 7.08874 9.17435C7.10468 9.54413 7.09193 9.90434 7.09193 10.408ZM10.759 7.41154C10.9422 7.69359 11.1561 7.95446 11.3968 8.18934C11.5679 8.45805 11.6707 8.76444 11.6965 9.08191C12.1238 8.76314 12.3343 8.17022 12.1334 7.7845C11.8368 7.17246 11.282 7.52311 10.759 7.41154ZM6.46374 9.28592C6.25647 9.92347 6.24371 13.2132 6.46374 14.4437C6.66782 12.7287 6.53389 11.0105 6.46374 9.28592ZM14.9108 17.9948C15.1503 17.7195 15.2795 17.3653 15.2736 17.0005C15.2677 16.6357 15.1271 16.2859 14.8789 16.0184C14.8694 16.6815 14.6238 17.3413 14.9108 17.9948ZM10.1436 10.5706C10.21 10.4712 10.2918 10.3829 10.3859 10.3092C10.6838 9.95245 10.9092 9.54096 11.0492 9.09785C11.0779 9.01178 11.1034 8.89065 11.0014 8.82689C10.9866 8.81668 10.9698 8.8097 10.9522 8.80642C10.9345 8.80313 10.9164 8.80361 10.8989 8.80782C10.8814 8.81204 10.8651 8.81989 10.8509 8.83087C10.8366 8.84184 10.8249 8.8557 10.8164 8.87152C10.5645 9.42937 10.2042 9.94578 10.1436 10.5706Z" fill="white"/>
<path d="M45.7239 22.6329C45.6569 23.076 45.5868 23.4904 45.5326 23.908C45.5039 24.1089 45.4018 24.2268 45.2137 24.2268C45.0256 24.2268 44.9937 24.0196 45.0224 23.8698C45.2233 22.8369 45.2424 21.7882 45.3412 20.7458C45.3986 20.1943 45.3731 19.6397 45.4273 19.0818C45.7972 15.3203 45.5326 11.546 45.6091 7.7781C45.6091 7.4147 45.6569 7.11187 46.1416 7.14056C46.3234 7.15968 46.4031 7.00986 46.4828 6.86641C46.5849 6.67196 46.8017 6.63371 46.9069 6.78353C47.2258 7.22981 47.6627 7.13737 48.0549 7.04811C48.7388 6.9017 49.4497 6.94356 50.1117 7.16925C50.9277 7.39326 51.7314 7.66034 52.5192 7.96937C53.5881 8.44128 54.5092 9.19362 55.185 10.1466C56.4938 11.9901 57.3482 14.1167 57.6786 16.3531C57.8262 17.2327 57.762 18.1347 57.4914 18.9845C57.2208 19.8343 56.7515 20.6075 56.1225 21.2399C54.8151 22.6329 53.1665 23.5191 51.4318 24.2236C50.4753 24.5936 49.4377 24.7036 48.4248 24.5424C47.803 24.4531 47.1493 24.3288 46.5115 24.5934C46.1927 24.7273 45.9918 24.5583 45.9949 24.1854C45.9949 23.7423 45.8451 23.3119 45.9025 22.8656C45.8865 22.77 45.8483 22.6935 45.7239 22.6329ZM55.0447 15.8431C55.058 15.2705 54.9925 14.6988 54.8502 14.144C54.6238 13.0602 54.4324 11.954 53.8011 11.0105C52.2641 8.7153 50.083 8.03312 47.7424 8.72167C47.561 8.76172 47.3988 8.86263 47.2828 9.00762C47.1668 9.1526 47.1039 9.33293 47.1046 9.5186C47.0791 10.1753 46.9962 10.8256 47.0026 11.4854C47.0217 14.0579 47.0026 16.6304 47.0026 19.2029C47.0122 19.3324 47.0122 19.4624 47.0026 19.5918C46.7905 20.7479 46.706 21.9238 46.7507 23.0983C46.7463 23.2653 46.8027 23.4281 46.9095 23.5565C47.0163 23.685 47.1661 23.7702 47.331 23.7965C48.2654 23.857 49.2092 23.9303 50.1117 23.5414C50.9758 23.1159 51.7643 22.5516 52.4458 21.8711C54.1359 20.3314 55.0574 18.4156 55.0447 15.8431ZM55.1435 11.6831C55.3731 12.1804 55.2807 12.7318 55.4369 13.2387C55.8546 14.5967 56.2373 15.9578 56.0747 17.4114C56.0141 17.9725 55.9407 18.5303 55.8419 19.085C55.759 19.5408 55.641 19.9871 55.5517 20.443C55.5294 20.5482 55.5134 20.682 55.6378 20.7617C55.7622 20.8414 55.7654 20.7235 55.8068 20.6757C56.6183 19.6914 57.0404 18.4438 56.993 17.1692C56.9802 16.2948 56.8439 15.4265 56.5881 14.5903C56.2522 13.5555 55.7654 12.5759 55.1435 11.6831ZM52.0664 23.1876C53.3036 22.9294 54.796 21.3228 54.6015 20.3537C53.8904 21.463 52.8253 22.158 52.0664 23.1876ZM46.3266 8.67386C46.1448 8.77905 46.215 8.95438 46.215 9.10101C46.215 10.2358 46.215 11.3707 46.215 12.5023C46.2385 12.7289 46.2101 12.9578 46.1321 13.1717C46.0747 13.2865 46.0396 13.4714 46.1703 13.4905C46.3011 13.5096 46.3935 13.3566 46.3872 13.1941C46.3856 13.1654 46.3856 13.1367 46.3872 13.108C46.3234 11.7915 46.5243 10.4813 46.4765 9.16477C46.4733 8.98944 46.4924 8.80774 46.3361 8.67386H46.3266ZM45.979 18.9256V20.9562C46.1512 20.7012 46.1863 19.3273 45.9886 18.9256H45.979Z" fill="white"/>
<path d="M29.1964 23.7073C29.2761 24.1153 29.1964 24.3958 28.7021 24.3703C28.6638 24.3703 28.6288 24.4054 28.5873 24.4213C27.8762 24.6731 27.6944 24.6062 27.6657 23.8571C27.6179 22.582 27.1332 21.444 26.7729 20.2645C26.47 19.2636 26.454 19.3082 25.3762 19.2381C24.2378 19.1679 23.1154 19.4166 21.977 19.3464C21.5784 19.3241 21.3392 19.6333 21.2563 20.0127C20.9374 21.3165 20.6377 22.633 20.2231 23.9145C20.1755 24.0615 20.1158 24.2044 20.0446 24.3416C19.984 24.4532 19.968 24.6604 19.764 24.5839C19.5599 24.5074 19.6173 24.3607 19.6141 24.2205C19.6461 23.8826 19.7356 23.5527 19.8788 23.245C20.3325 21.7548 20.6977 20.239 20.9725 18.7057C21.3392 16.7931 22.1173 14.9792 22.4967 13.0602C22.5382 12.8403 22.6944 12.4641 22.5382 12.4227C22.2735 12.3685 22.2799 12.7415 22.2193 12.9519C21.9004 13.9911 21.5816 15.0398 21.2818 16.0918C20.8163 17.7366 20.2773 19.3464 19.7703 20.9594C19.4515 21.9158 19.1645 22.8721 18.8488 23.8029C18.7244 24.1822 18.5586 24.5329 18.042 24.4404C17.7742 24.3831 17.6052 24.3289 17.6976 23.9718C18.0739 22.5278 18.7053 21.1698 19.1103 19.7385C19.5822 18.0809 20.0031 16.4074 20.5101 14.7593C21.2021 12.5279 21.961 10.2965 22.6785 8.06506C22.8347 7.5869 22.9655 7.10874 23.5299 6.95892C23.7764 6.89483 24.0283 6.85427 24.2825 6.83778C24.8469 6.80272 25.1434 7.04498 25.2391 7.62834C25.6504 10.1116 26.352 12.5247 27.012 14.9601C27.4808 16.6815 27.9049 18.4124 28.3545 20.1338C28.616 21.139 28.8892 22.14 29.174 23.1367C29.2004 23.3256 29.2079 23.5168 29.1964 23.7073ZM21.8622 17.3127C21.8622 17.9502 22.2257 18.269 22.7391 18.1128C23.4283 17.9452 24.1445 17.9203 24.8437 18.0395C25.8832 18.1606 25.9757 17.6506 25.7557 16.9525C25.5867 16.4169 25.4049 15.8878 25.2231 15.3586C24.7767 14.0601 24.3282 12.7659 23.8775 11.4759C23.8328 11.3484 23.8552 11.1572 23.6543 11.1572C23.4534 11.1572 23.4502 11.3548 23.4119 11.4951C23.0388 12.9008 22.6626 14.3098 22.2958 15.7188C22.1208 16.2413 21.976 16.7735 21.8622 17.3127ZM24.6779 11.1572C24.746 10.5567 24.6638 9.94878 24.4387 9.38797C24.4132 9.3019 24.3972 9.12657 24.241 9.16483C24.0847 9.20308 24.1007 9.3274 24.1071 9.44853C24.1291 10.0611 24.3272 10.6543 24.6779 11.1572ZM24.9489 12.2346C24.9904 11.9445 25.0063 11.6863 24.7321 11.4887C24.6938 11.7947 24.6779 12.0465 24.9489 12.2474V12.2346Z" fill="white"/>
<path d="M60.0478 18.4251C59.9849 17.4244 60.018 16.4199 60.1466 15.4255C60.3188 13.7455 60.4145 12.0496 60.8992 10.4112C61.0929 9.6141 61.4695 8.87306 61.9993 8.24668C62.5486 7.69015 63.2553 7.31524 64.0242 7.17242C65.4301 6.87028 66.8976 7.07228 68.1696 7.74302C68.9935 8.21682 69.6777 8.8997 70.153 9.7226C70.8352 10.7915 71.1694 12.0455 71.1096 13.312C71.065 14.0743 71.065 14.8385 71.1096 15.6008C71.1871 16.3259 71.2073 17.056 71.1702 17.7844C71.0873 18.8427 71.1224 19.9106 70.8513 20.9498C70.5466 21.9439 69.9486 22.8227 69.1358 23.4713C68.7286 23.8994 68.1876 24.176 67.602 24.2555C67.2355 24.2688 66.8732 24.3375 66.5274 24.4595C66.1479 24.6093 65.7844 24.8006 65.4017 24.9376C64.6428 25.2054 63.9636 24.8611 63.278 24.6189C62.2267 24.1997 61.3265 23.4731 60.6951 22.5341C60.322 22.0177 60.2455 21.361 60.1147 20.7426C59.9649 19.9712 60.0797 19.1965 60.0478 18.4251ZM68.9285 17.0321C69.0089 15.4275 68.8356 13.8202 68.4151 12.2696C68.1186 11.2081 67.8858 10.1147 67.2193 9.18706C66.7729 8.56546 66.2627 8.12555 65.4209 8.19568C65.0401 8.246 64.6569 8.2758 64.2729 8.28494C64.0526 8.27024 63.8321 8.30995 63.6308 8.40056C63.4295 8.49118 63.2536 8.62991 63.1186 8.80454C62.6645 9.32957 62.3285 9.94594 62.1332 10.612C61.7174 12.1201 61.4567 13.6667 61.3552 15.2278C61.2436 17.1755 61.2978 19.1264 62.028 20.9657C62.4138 21.9444 62.7295 22.9804 63.6862 23.6084C64.0848 23.8698 64.4802 24.1949 64.984 24.1343C65.5119 24.0599 66.0347 23.9535 66.5497 23.8156C66.9975 23.7403 67.4067 23.5156 67.7104 23.178C68.3798 22.244 68.7671 21.1377 68.8265 19.9903C68.9551 19.0098 68.9893 18.0191 68.9285 17.0321ZM69.3749 13.5766C69.3413 13.8251 69.3413 14.0771 69.3749 14.3257C69.5 14.8213 69.5526 15.3324 69.5312 15.843C69.5312 16.8918 69.5312 17.9406 69.5312 18.9862C69.5249 19.3554 69.4864 19.7233 69.4164 20.0859C69.3877 20.223 69.3271 20.3664 69.4706 20.4047C69.6141 20.4429 69.6492 20.2453 69.6842 20.1497C69.8976 19.523 70.0221 18.8695 70.0541 18.2083C70.1211 17.252 69.9425 16.2957 69.8628 15.3553C69.8341 14.756 69.7927 14.1217 69.3749 13.5766ZM61.9674 22.6584C61.8143 22.2918 61.6485 21.9252 61.5114 21.5523C61.2499 20.8669 61.1925 20.1274 60.9853 19.4324C60.9534 19.3368 60.9374 19.171 60.8003 19.187C60.6632 19.2029 60.6473 19.3591 60.6441 19.5058C60.646 20.1564 60.7537 20.8023 60.9629 21.4184C61.0247 21.688 61.1474 21.9398 61.3215 22.1547C61.4955 22.3697 61.7165 22.542 61.9674 22.6584ZM70.2391 13.3534C70.4376 12.9034 70.4626 12.3959 70.3092 11.9285C70.2227 11.4019 70.0225 10.9004 69.7225 10.459C69.6555 10.3665 69.5854 10.3474 69.5152 10.3825C69.4451 10.4175 69.4929 10.4908 69.5152 10.561C69.7576 11.4759 69.9967 12.4322 70.2391 13.3534ZM68.7308 10.7012C68.792 10.3887 68.734 10.0646 68.5682 9.79273C68.5522 9.75448 68.5172 9.68435 68.4438 9.71623C68.4306 9.7205 68.4184 9.72742 68.408 9.73657C68.3975 9.74572 68.389 9.7569 68.3831 9.76943C68.3771 9.78197 68.3738 9.79559 68.3732 9.80946C68.3727 9.82333 68.375 9.83717 68.38 9.85011C68.4154 10.1609 68.5369 10.4557 68.7308 10.7012Z" fill="white"/>
<path d="M1.4897e-05 32.7507C1.4897e-05 31.5011 0.0191476 30.2515 1.4897e-05 29.0083C-0.0114028 28.9343 -0.00680334 28.8588 0.0135024 28.7867C0.0338081 28.7147 0.0693468 28.6479 0.117716 28.5908C0.166085 28.5336 0.226157 28.4876 0.293872 28.4557C0.361586 28.4238 0.435364 28.4067 0.510219 28.4058C0.829097 28.3644 1.11928 28.3516 1.22769 28.7915C1.35707 29.2965 1.43401 29.8136 1.45729 30.3344C1.49555 31.4628 1.6518 32.5913 1.54976 33.7197C1.50512 34.2011 1.49236 34.6761 1.47004 35.167C1.47004 35.4188 1.54976 35.4857 1.78892 35.4857C2.96877 35.4857 4.14861 35.5049 5.32527 35.4857C5.40274 35.4735 5.48194 35.4779 5.55758 35.4986C5.63321 35.5194 5.70356 35.556 5.76391 35.6061C5.82427 35.6562 5.87325 35.7185 5.90758 35.789C5.94192 35.8595 5.96082 35.9365 5.96303 36.0149C5.98983 36.0842 6.00193 36.1583 5.99856 36.2325C5.99518 36.3067 5.97641 36.3794 5.94342 36.4459C5.91043 36.5125 5.86395 36.5714 5.80694 36.6191C5.74993 36.6667 5.68363 36.7019 5.61226 36.7226C4.65563 37.0956 3.67348 37.0414 2.67859 37.0222C1.87183 37.0222 1.0842 36.9202 0.277438 36.882C0.0191475 36.882 0.00958122 36.7672 0.01277 36.5632C1.48974e-05 35.2785 1.4897e-05 34.013 1.4897e-05 32.7507ZM0.63777 33.758C0.988535 32.7666 0.596316 31.772 0.63777 30.7807V33.758ZM3.1569 36.1711C3.66376 36.3092 4.20047 36.2914 4.69708 36.1201C4.18261 36.0453 3.65894 36.0626 3.15053 36.1711H3.1569Z" fill="white"/>
<path d="M74.9841 3.00271C74.9841 3.82196 74.9841 4.63802 74.9841 5.45726C74.9841 5.73778 74.9363 6.00555 74.6238 6.03424C74.3113 6.06293 73.9286 6.19682 73.7692 5.71547C73.6353 5.33159 73.5454 4.93377 73.5013 4.52963C73.4248 3.68489 73.5236 2.8497 73.5268 2.00814C73.5268 1.60648 73.3993 1.54592 73.0421 1.55548C71.9643 1.57461 70.8865 1.55548 69.8087 1.55548C69.5504 1.55548 69.2698 1.55548 69.1996 1.23671C69.0657 0.624663 69.1263 0.51628 69.5791 0.331392C70.472 -0.0163288 71.4459 -0.100417 72.3852 0.0891242C72.5258 0.12133 72.6719 0.12133 72.8125 0.0891242C73.3291 -0.086201 73.817 0.0891242 74.3112 0.181568C74.3655 0.181568 74.426 0.229384 74.4739 0.219821C75.1627 0.0476837 74.9905 0.538594 74.9936 0.889245C74.9905 1.59373 74.9841 2.29822 74.9841 3.00271ZM71.9675 0.844617C71.4095 0.580035 70.9407 0.879682 70.4592 0.860555C70.9526 1.00347 71.4772 0.997927 71.9675 0.844617ZM74.3686 3.28004C74.1008 3.86021 74.2252 4.45313 74.3686 5.04605V3.28004Z" fill="white"/>
<path d="M50.7014 29.9649C50.7014 29.3751 50.7174 28.7886 50.7014 28.2021C50.7014 27.9279 50.7875 27.8578 51.049 27.8833C51.6198 27.8833 52.197 27.8833 52.7709 27.8833C52.8636 27.8751 52.9569 27.8872 53.0444 27.9188C53.1319 27.9505 53.2114 28.0009 53.2773 28.0665C53.3432 28.1321 53.394 28.2113 53.4261 28.2986C53.4581 28.3859 53.4707 28.4792 53.4629 28.5718C53.4438 29.0277 53.6255 29.5282 53.2811 29.9362C53.2725 29.9524 53.268 29.9704 53.268 29.9888C53.268 30.0071 53.2725 30.0252 53.2811 30.0414C53.6 30.3984 53.4597 30.8319 53.4725 31.2336C53.4885 31.3438 53.48 31.4562 53.4477 31.5628C53.4153 31.6694 53.3599 31.7676 53.2853 31.8503C53.2107 31.9331 53.1188 31.9984 53.0162 32.0417C52.9135 32.085 52.8025 32.1051 52.6912 32.1007C52.1172 32.1293 51.5433 32.1007 50.9693 32.1007C50.7429 32.1007 50.711 31.9986 50.7142 31.8138C50.7174 31.1985 50.7014 30.5833 50.7014 29.9649ZM51.9769 29.7736H52.3181C53.0005 29.7736 53.1408 29.6302 53.1376 28.9448C53.1376 28.3997 52.9782 28.2403 52.4297 28.2212C52.2416 28.2212 52.0566 28.2212 51.8685 28.2212C51.151 28.2212 51.151 28.2212 51.151 28.9416C51.1447 29.7736 51.1447 29.7736 51.9769 29.7736ZM52.0311 31.6703C52.2161 31.6703 52.401 31.6703 52.5892 31.6703C52.9814 31.6703 53.1376 31.4472 53.1376 30.9339C53.1376 30.4207 52.9814 30.2135 52.5828 30.204C52.3117 30.204 52.0375 30.204 51.7665 30.204C51.0522 30.204 51.1574 30.1051 51.151 30.8128C51.1383 31.6703 51.1447 31.6703 52.0248 31.6703H52.0311Z" fill="white"/>
<path d="M22.8124 31.0677C22.8124 30.1113 22.8124 29.1741 22.8124 28.2242C22.8124 28.068 22.7486 27.864 23.042 27.8735C23.3353 27.8831 23.2397 28.068 23.2397 28.2114C23.2397 29.4037 23.2397 30.5959 23.2397 31.7881C23.2397 31.8996 23.313 32.0622 23.1089 32.1069C23.0408 32.1251 22.9683 32.1184 22.9046 32.088C22.8409 32.0577 22.7901 32.0056 22.7614 31.9411C22.2958 31.1314 21.8047 30.3281 21.3424 29.5216C21.1989 29.2793 21.0586 29.0371 20.9151 28.7884C20.7588 28.8745 20.829 29.002 20.829 29.1072C20.829 30.0093 20.829 30.9146 20.829 31.82C20.829 31.9347 20.8864 32.1005 20.6759 32.1132C20.4654 32.126 20.4878 31.9443 20.4878 31.8136C20.4878 30.6086 20.4878 29.4005 20.4878 28.1955C20.4878 28.0807 20.424 27.9214 20.6313 27.8767C20.7 27.8642 20.7708 27.8746 20.8331 27.9063C20.8953 27.938 20.9454 27.9892 20.9757 28.0521C21.4348 28.849 21.91 29.6459 22.3787 30.4333C22.5063 30.6501 22.6274 30.87 22.7518 31.0708L22.8124 31.0677Z" fill="white"/>
<path d="M10.8928 29.9868C10.8928 30.3757 10.8928 30.7614 10.8928 31.1503C10.8817 31.2216 10.8877 31.2946 10.9103 31.3631C10.9329 31.4317 10.9715 31.4939 11.0229 31.5446C11.0743 31.5954 11.137 31.6332 11.2058 31.655C11.2747 31.6767 11.3477 31.6819 11.4189 31.6699C11.7378 31.6699 12.0248 31.6699 12.3245 31.6699C12.6243 31.6699 12.7742 31.4818 12.873 31.23C12.8763 31.2025 12.8763 31.1746 12.873 31.1471C12.9846 30.2418 12.9591 30.2163 12.0344 30.1908C11.8845 30.1908 11.6677 30.28 11.6645 29.9804C11.6613 29.6807 11.8749 29.77 12.028 29.7668C12.3277 29.7668 12.6307 29.7668 12.9336 29.7668C13.1664 29.7668 13.2302 29.8465 13.2238 30.0665C13.2238 30.4681 13.2238 30.8698 13.2238 31.2714C13.2409 31.4602 13.184 31.6482 13.065 31.7957C12.9459 31.9433 12.7742 32.0388 12.586 32.062C12.1169 32.1353 11.6393 32.1353 11.1702 32.062C10.9824 32.0506 10.806 31.9682 10.6768 31.8314C10.5477 31.6946 10.4755 31.5137 10.4751 31.3256C10.4559 30.3693 10.3634 29.3811 10.5325 28.4152C10.5535 28.2649 10.6292 28.1275 10.7451 28.0294C10.8609 27.9312 11.0088 27.879 11.1606 27.8829C11.7633 27.8542 12.366 27.8829 12.9719 27.8829C13.0835 27.8829 13.2078 27.8637 13.2174 28.0391C13.227 28.2144 13.0835 28.224 12.9559 28.224C12.4808 28.224 11.9993 28.224 11.5305 28.224C11.0618 28.224 10.8928 28.4088 10.8928 28.8615C10.8896 29.2408 10.8928 29.6138 10.8928 29.9868Z" fill="white"/>
<path d="M40.4337 29.9837C40.4337 29.3972 40.4337 28.8074 40.4337 28.2177C40.4337 27.9691 40.4847 27.8575 40.7525 27.8702C41.3265 27.8894 41.9005 27.8702 42.4777 27.8702C42.5743 27.8617 42.6716 27.8746 42.7627 27.9082C42.8537 27.9417 42.9362 27.995 43.0042 28.0642C43.0721 28.1333 43.124 28.2167 43.1559 28.3083C43.1878 28.3999 43.199 28.4974 43.1888 28.5938C43.1888 28.7373 43.1888 28.8807 43.1888 29.0242C43.1888 29.9359 42.9879 30.1463 42.0759 30.1973C42.0472 30.1957 42.0184 30.1957 41.9898 30.1973C41.6231 30.2292 41.1224 30.0315 40.9247 30.2865C40.727 30.5416 40.8641 31.0006 40.8546 31.3704C40.8546 31.5297 40.8546 31.6891 40.8546 31.8453C40.8546 32.0015 40.8546 32.0908 40.6537 32.0972C40.4528 32.1035 40.4209 31.9983 40.4209 31.8326C40.4368 31.2205 40.4337 30.6021 40.4337 29.9837ZM41.69 29.7733H42.0344C42.7136 29.7733 42.8571 29.6299 42.8507 28.9445C42.8507 28.3994 42.6945 28.24 42.1428 28.2209C41.9579 28.2209 41.7698 28.2209 41.5848 28.2209C40.8641 28.2209 40.8641 28.2209 40.8641 28.9413C40.8641 29.7733 40.8641 29.7733 41.69 29.7733Z" fill="white"/>
<path d="M65.1466 6.22262C64.8692 6.25131 64.5089 6.23856 64.3877 5.90385C64.2665 5.56914 64.5918 5.29818 64.8564 5.11967C65.5706 4.61832 66.3452 4.20918 67.1619 3.90195C67.4808 3.79038 67.6083 3.90195 67.5509 4.22073C67.4011 5.10054 66.0937 6.22262 65.1466 6.22262Z" fill="white"/>
<path d="M69.579 27.8801C69.7544 27.8578 69.8596 27.8801 69.917 28.0937C70.2901 29.3688 70.6791 30.6056 71.065 31.8616C71.0969 31.9636 71.1288 32.0656 70.9821 32.0943C70.9505 32.1061 70.9169 32.1113 70.8833 32.1094C70.8496 32.1075 70.8168 32.0986 70.7868 32.0833C70.7568 32.068 70.7303 32.0466 70.709 32.0205C70.6877 31.9944 70.6721 31.9642 70.6632 31.9317C70.5556 31.686 70.4744 31.4295 70.4208 31.1667C70.389 30.8957 70.255 30.883 70.0509 30.8925C69.8469 30.9021 69.6205 30.8925 69.4132 30.8925C68.7499 30.8925 68.7595 30.8925 68.5873 31.5556C68.5331 31.7755 68.5682 32.1931 68.2015 32.0688C67.8348 31.9445 68.1791 31.6544 68.2333 31.4568C68.514 30.4239 68.8137 29.3911 69.1326 28.3678C69.1964 28.1638 69.174 27.8036 69.579 27.8801ZM69.579 28.3965C69.3622 29.0596 69.1645 29.6716 68.9604 30.3092C68.903 30.4813 68.9604 30.5514 69.1326 30.5483C69.4865 30.5483 69.8373 30.5483 70.2295 30.5483L69.579 28.3965Z" fill="white"/>
<path d="M6.88126 27.8799C6.91894 27.8668 6.95902 27.8621 6.9987 27.8661C7.03838 27.8701 7.07671 27.8827 7.11101 27.9031C7.14532 27.9234 7.17477 27.951 7.19733 27.9839C7.21988 28.0167 7.23499 28.0542 7.24159 28.0935C7.60937 29.3409 7.97501 30.5873 8.33853 31.8327C8.36723 31.9315 8.4342 32.0335 8.30027 32.0845C8.27137 32.0986 8.23986 32.1066 8.20773 32.1079C8.1756 32.1092 8.14354 32.1039 8.11358 32.0922C8.08362 32.0805 8.05641 32.0627 8.03366 32.04C8.01091 32.0173 7.99311 31.9901 7.98139 31.9602C7.89282 31.798 7.83549 31.6207 7.81238 31.4374C7.81238 30.921 7.51264 30.8477 7.08534 30.8891C6.76647 30.921 6.40613 30.8094 6.15422 30.9369C5.90231 31.0644 5.97884 31.5012 5.83534 31.7785C5.79708 31.8518 5.7907 31.9442 5.74606 32.0144C5.71616 32.0559 5.6731 32.086 5.62388 32.0999C5.57467 32.1138 5.52219 32.1106 5.47501 32.0909C5.33152 32.0526 5.37616 31.9506 5.40805 31.8518C5.62063 31.1378 5.83322 30.4216 6.0458 29.7033C6.19568 29.1869 6.34555 28.6704 6.48904 28.154C6.54644 27.9468 6.65486 27.8289 6.88126 27.8799ZM6.88126 28.3676L6.218 30.5289H7.52858L6.88126 28.3676Z" fill="white"/>
<path d="M34.4867 30.8957C33.6895 30.8957 33.6895 30.8957 33.4536 31.6353C33.4153 31.7564 33.3866 31.8807 33.3419 31.9987C33.275 32.1708 33.1187 32.1071 33.0231 32.0847C32.9274 32.0624 32.9784 31.9572 33.0007 31.8839C33.3834 30.6088 33.7692 29.3146 34.1391 28.0236C34.1965 27.8259 34.3241 27.8833 34.4421 27.8769C34.5601 27.8706 34.7609 27.8451 34.8279 28.0555C35.1936 29.3008 35.5613 30.5461 35.9312 31.7915C35.9599 31.8967 36.0109 32.0274 35.8643 32.0847C35.7176 32.1421 35.6187 32.0688 35.5677 31.9286C35.5358 31.8361 35.5007 31.7437 35.472 31.648C35.2297 30.8957 35.2297 30.8957 34.4867 30.8957ZM34.4612 28.3997C34.3081 28.8875 34.1965 29.2509 34.0754 29.6111C33.7565 30.5865 33.7565 30.5865 34.7705 30.5483H34.9427C34.9645 30.5499 34.9864 30.5458 35.0062 30.5363C35.0259 30.5268 35.0427 30.5122 35.055 30.4941C35.0673 30.476 35.0746 30.455 35.0762 30.4331C35.0777 30.4113 35.0735 30.3894 35.0639 30.3697C34.8789 29.7481 34.6876 29.1361 34.4612 28.3997Z" fill="white"/>
<path d="M15.6409 29.9902C15.6409 29.4005 15.6568 28.8108 15.6409 28.2242C15.6409 27.931 15.7397 27.8608 16.0108 27.8704C16.556 27.8704 17.1045 27.8704 17.6498 27.8704C17.7901 27.8704 18.042 27.7397 18.0548 28.0234C18.0675 28.3071 17.8092 28.1955 17.6689 28.2019C17.2097 28.2019 16.7506 28.2019 16.2882 28.2019C16.0682 28.2019 15.998 28.2657 15.9884 28.4952C15.931 29.7703 15.9247 29.7703 17.2066 29.7703C17.4202 29.7703 17.637 29.7703 17.8443 29.7703C18.0516 29.7703 18.0612 29.8532 18.058 30.0094C18.0548 30.1656 17.9814 30.2038 17.8443 30.2038C17.3405 30.2038 16.8367 30.2038 16.336 30.2038C16.0937 30.2038 15.9821 30.2389 15.9757 30.5226C15.9534 31.6702 15.9406 31.6702 17.0981 31.6702C17.3277 31.6702 17.5573 31.6702 17.7869 31.6702C17.9495 31.6702 18.0643 31.6702 18.0612 31.8965C18.058 32.1228 17.9145 32.1005 17.771 32.1005C17.1651 32.1005 16.5624 32.1005 15.9597 32.1005C15.6759 32.1005 15.6409 31.9921 15.6409 31.7467C15.6504 31.1665 15.6409 30.5768 15.6409 29.9902Z" fill="white"/>
<path d="M45.6155 29.7479C45.6155 29.2155 45.6155 28.6832 45.6155 28.154C45.6155 28.0329 45.5772 27.8799 45.7845 27.8799C45.9918 27.8799 45.9567 28.0329 45.9567 28.154C45.9567 29.0434 45.9567 29.9328 45.9567 30.8222C45.9567 31.549 46.0779 31.6637 46.7858 31.6733C47.9752 31.6733 47.9561 31.7083 47.9433 30.5321C47.9433 29.7861 47.9433 29.0423 47.9433 28.3007C47.9433 28.1477 47.8126 27.8958 48.1442 27.8831C48.4758 27.8703 48.3642 28.119 48.3674 28.2752C48.3674 29.2379 48.3674 30.1942 48.3674 31.1441C48.3815 31.2732 48.3665 31.4037 48.3235 31.5262C48.2804 31.6486 48.2103 31.7599 48.1185 31.8516C48.0267 31.9434 47.9155 32.0134 47.793 32.0565C47.6705 32.0996 47.5399 32.1146 47.4108 32.1004C46.9976 32.1354 46.5817 32.1161 46.1735 32.0431C46.0048 32.0094 45.8541 31.9154 45.7496 31.7787C45.6451 31.642 45.5941 31.4719 45.6059 31.3003C45.5996 30.7807 45.6155 30.2643 45.6155 29.7479Z" fill="white"/>
<path d="M63.9287 30.0189C63.9287 30.4205 63.9287 30.8253 63.9287 31.227C63.9287 31.5458 64.0626 31.6733 64.3687 31.6701H65.6889C65.826 31.6701 65.9823 31.6318 66.0078 31.8645C66.0333 32.0973 65.8706 32.1036 65.6889 32.1036C65.2425 32.1036 64.796 32.1036 64.3496 32.1036C64.2316 32.1138 64.1128 32.0977 64.0018 32.0564C63.8908 32.0151 63.7904 31.9497 63.7077 31.865C63.6251 31.7802 63.5622 31.6782 63.5238 31.5662C63.4854 31.4542 63.4723 31.3351 63.4854 31.2174C63.4854 30.3971 63.4854 29.5789 63.4854 28.7629C63.4854 28.1668 63.8043 27.8799 64.3942 27.8799H65.7303C65.8643 27.8799 65.9982 27.8799 65.9854 28.0743C65.9727 28.2688 65.8419 28.2242 65.7303 28.2242H64.6111C64.0786 28.2242 63.9159 28.3867 63.9159 28.9031L63.9287 30.0189Z" fill="white"/>
<path d="M25.5771 29.9041C25.5472 29.4147 25.5761 28.9235 25.6632 28.441C25.6869 28.2873 25.7637 28.1468 25.8802 28.0437C25.9966 27.9407 26.1455 27.8816 26.3009 27.8767C26.8048 27.8767 27.3086 27.8767 27.8092 27.8767C27.9208 27.8767 28.0484 27.8512 28.0611 28.0298C28.0739 28.2083 27.9368 28.2178 27.8029 28.221C27.4011 28.221 26.9993 28.221 26.5975 28.221C26.1957 28.221 25.998 28.4155 25.9948 28.8299C25.9948 29.6045 25.9948 30.3823 25.9948 31.1569C25.9948 31.5108 26.1734 31.6733 26.5242 31.6701H27.7742C27.9145 31.6701 28.0611 31.6415 28.0707 31.871C28.0803 32.1005 27.924 32.1037 27.7518 32.1005H26.6549C25.9055 32.1005 25.6026 31.804 25.5771 31.0517C25.5675 30.6915 25.5771 30.3345 25.5771 29.9041Z" fill="white"/>
<path d="M55.896 29.9421C55.896 29.3683 55.896 28.7977 55.896 28.2239C55.896 28.0901 55.8067 27.8701 56.0809 27.8829C56.3552 27.8956 56.234 28.0901 56.234 28.2016C56.234 29.2185 56.234 30.2386 56.234 31.2555C56.234 31.5742 56.2946 31.689 56.6326 31.6667C57.1045 31.638 57.5892 31.6667 58.0516 31.6667C58.2206 31.6667 58.3226 31.6954 58.3163 31.8994C58.3099 32.1034 58.2015 32.1002 58.0611 32.1002C57.4234 32.1002 56.7856 32.1002 56.167 32.1002C55.9183 32.1002 55.8896 31.9855 55.8928 31.7814C55.8992 31.1758 55.896 30.5605 55.896 29.9421Z" fill="white"/>
<path d="M30.8449 29.9648C30.8449 30.58 30.8449 31.1953 30.8449 31.8105C30.8449 31.9284 30.8864 32.0846 30.6791 32.0878C30.4718 32.091 30.5037 31.9412 30.5037 31.8201C30.5037 30.5864 30.5037 29.3559 30.5037 28.1255C30.5037 27.9948 30.5037 27.8577 30.6919 27.8705C30.88 27.8832 30.8449 28.0075 30.8481 28.1159L30.8449 29.9648Z" fill="white"/>
<path d="M61.0778 30.0315C61.0778 30.6053 61.0778 31.1759 61.0778 31.7497C61.0778 31.8804 61.1703 32.1004 60.8961 32.094C60.6219 32.0876 60.7398 31.8932 60.7398 31.7752C60.7398 30.5894 60.7398 29.4014 60.7398 28.2114C60.7398 28.0902 60.6601 27.8926 60.8993 27.8926C61.1384 27.8926 61.0747 28.1062 61.0778 28.2369C61.0842 28.8298 61.0778 29.4291 61.0778 30.0315Z" fill="white"/>
<path d="M46.7571 27.5804C46.8177 27.3381 46.8719 27.1086 46.9357 26.8791C46.9421 26.8402 46.9571 26.8032 46.9795 26.7708C47.002 26.7383 47.0313 26.7112 47.0654 26.6915C47.0995 26.6717 47.1376 26.6596 47.1769 26.6563C47.2162 26.6529 47.2558 26.6582 47.2928 26.6719C47.5383 26.7357 47.4012 26.8855 47.3502 26.9907C47.2322 27.2648 47.3119 27.7334 46.7571 27.5804Z" fill="white"/>
</g>
<defs>
<clipPath id="clip0_1754_486">
<rect width="75" height="37" fill="white"/>
</clipPath>
</defs>
</svg>
