<svg width="318" height="63" viewBox="0 0 318 63" fill="none" xmlns="http://www.w3.org/2000/svg">
<g filter="url(#filter0_d_6_444)">
<rect x="4.5" y="0.5" width="309" height="54" rx="27" fill="white" stroke="black"/>
<path d="M85.5514 33.3586L91.3114 20.7586H92.6254L98.3854 33.3586H96.9814L91.6894 21.5326H92.2294L86.9374 33.3586H85.5514ZM87.8194 29.9926L88.2154 28.9126H95.5414L95.9374 29.9926H87.8194ZM104.036 33.4486C103.1 33.4486 102.26 33.2446 101.516 32.8366C100.784 32.4166 100.208 31.8466 99.7879 31.1266C99.3679 30.3946 99.1579 29.5606 99.1579 28.6246C99.1579 27.6766 99.3679 26.8426 99.7879 26.1226C100.208 25.4026 100.784 24.8386 101.516 24.4306C102.26 24.0226 103.1 23.8186 104.036 23.8186C104.84 23.8186 105.566 23.9746 106.214 24.2866C106.862 24.5986 107.372 25.0666 107.744 25.6906L106.79 26.3386C106.466 25.8586 106.064 25.5046 105.584 25.2766C105.104 25.0486 104.582 24.9346 104.018 24.9346C103.346 24.9346 102.74 25.0906 102.2 25.4026C101.66 25.7026 101.234 26.1286 100.922 26.6806C100.61 27.2326 100.454 27.8806 100.454 28.6246C100.454 29.3686 100.61 30.0166 100.922 30.5686C101.234 31.1206 101.66 31.5526 102.2 31.8646C102.74 32.1646 103.346 32.3146 104.018 32.3146C104.582 32.3146 105.104 32.2006 105.584 31.9726C106.064 31.7446 106.466 31.3966 106.79 30.9286L107.744 31.5766C107.372 32.1886 106.862 32.6566 106.214 32.9806C105.566 33.2926 104.84 33.4486 104.036 33.4486ZM114.02 33.4486C113.084 33.4486 112.244 33.2446 111.5 32.8366C110.768 32.4166 110.192 31.8466 109.772 31.1266C109.352 30.3946 109.142 29.5606 109.142 28.6246C109.142 27.6766 109.352 26.8426 109.772 26.1226C110.192 25.4026 110.768 24.8386 111.5 24.4306C112.244 24.0226 113.084 23.8186 114.02 23.8186C114.824 23.8186 115.55 23.9746 116.198 24.2866C116.846 24.5986 117.356 25.0666 117.728 25.6906L116.774 26.3386C116.45 25.8586 116.048 25.5046 115.568 25.2766C115.088 25.0486 114.566 24.9346 114.002 24.9346C113.33 24.9346 112.724 25.0906 112.184 25.4026C111.644 25.7026 111.218 26.1286 110.906 26.6806C110.594 27.2326 110.438 27.8806 110.438 28.6246C110.438 29.3686 110.594 30.0166 110.906 30.5686C111.218 31.1206 111.644 31.5526 112.184 31.8646C112.724 32.1646 113.33 32.3146 114.002 32.3146C114.566 32.3146 115.088 32.2006 115.568 31.9726C116.048 31.7446 116.45 31.3966 116.774 30.9286L117.728 31.5766C117.356 32.1886 116.846 32.6566 116.198 32.9806C115.55 33.2926 114.824 33.4486 114.02 33.4486ZM124.095 33.4486C123.111 33.4486 122.247 33.2446 121.503 32.8366C120.759 32.4166 120.177 31.8466 119.757 31.1266C119.337 30.3946 119.127 29.5606 119.127 28.6246C119.127 27.6886 119.325 26.8606 119.721 26.1406C120.129 25.4206 120.681 24.8566 121.377 24.4486C122.085 24.0286 122.877 23.8186 123.753 23.8186C124.641 23.8186 125.427 24.0226 126.111 24.4306C126.807 24.8266 127.353 25.3906 127.749 26.1226C128.145 26.8426 128.343 27.6766 128.343 28.6246C128.343 28.6846 128.337 28.7506 128.325 28.8226C128.325 28.8826 128.325 28.9486 128.325 29.0206H120.099V28.0666H127.641L127.137 28.4446C127.137 27.7606 126.987 27.1546 126.687 26.6266C126.399 26.0866 126.003 25.6666 125.499 25.3666C124.995 25.0666 124.413 24.9166 123.753 24.9166C123.105 24.9166 122.523 25.0666 122.007 25.3666C121.491 25.6666 121.089 26.0866 120.801 26.6266C120.513 27.1666 120.369 27.7846 120.369 28.4806V28.6786C120.369 29.3986 120.525 30.0346 120.837 30.5866C121.161 31.1266 121.605 31.5526 122.169 31.8646C122.745 32.1646 123.399 32.3146 124.131 32.3146C124.707 32.3146 125.241 32.2126 125.733 32.0086C126.237 31.8046 126.669 31.4926 127.029 31.0726L127.749 31.9006C127.329 32.4046 126.801 32.7886 126.165 33.0526C125.541 33.3166 124.851 33.4486 124.095 33.4486ZM134.706 33.4486C133.806 33.4486 132.996 33.2446 132.276 32.8366C131.568 32.4286 131.01 31.8646 130.602 31.1446C130.194 30.4126 129.99 29.5726 129.99 28.6246C129.99 27.6646 130.194 26.8246 130.602 26.1046C131.01 25.3846 131.568 24.8266 132.276 24.4306C132.996 24.0226 133.806 23.8186 134.706 23.8186C135.534 23.8186 136.272 24.0046 136.92 24.3766C137.58 24.7486 138.102 25.2946 138.486 26.0146C138.882 26.7226 139.08 27.5926 139.08 28.6246C139.08 29.6446 138.888 30.5146 138.504 31.2346C138.12 31.9546 137.598 32.5066 136.938 32.8906C136.29 33.2626 135.546 33.4486 134.706 33.4486ZM134.796 32.3146C135.468 32.3146 136.068 32.1646 136.596 31.8646C137.136 31.5526 137.556 31.1206 137.856 30.5686C138.168 30.0046 138.324 29.3566 138.324 28.6246C138.324 27.8806 138.168 27.2326 137.856 26.6806C137.556 26.1286 137.136 25.7026 136.596 25.4026C136.068 25.0906 135.468 24.9346 134.796 24.9346C134.136 24.9346 133.542 25.0906 133.014 25.4026C132.486 25.7026 132.066 26.1286 131.754 26.6806C131.442 27.2326 131.286 27.8806 131.286 28.6246C131.286 29.3566 131.442 30.0046 131.754 30.5686C132.066 31.1206 132.486 31.5526 133.014 31.8646C133.542 32.1646 134.136 32.3146 134.796 32.3146ZM138.36 33.3586V30.5146L138.486 28.6066L138.306 26.6986V20.0026H139.584V33.3586H138.36ZM147.157 33.4486C146.173 33.4486 145.309 33.2446 144.565 32.8366C143.821 32.4166 143.239 31.8466 142.819 31.1266C142.399 30.3946 142.189 29.5606 142.189 28.6246C142.189 27.6886 142.387 26.8606 142.783 26.1406C143.191 25.4206 143.743 24.8566 144.439 24.4486C145.147 24.0286 145.939 23.8186 146.815 23.8186C147.703 23.8186 148.489 24.0226 149.173 24.4306C149.869 24.8266 150.415 25.3906 150.811 26.1226C151.207 26.8426 151.405 27.6766 151.405 28.6246C151.405 28.6846 151.399 28.7506 151.387 28.8226C151.387 28.8826 151.387 28.9486 151.387 29.0206H143.161V28.0666H150.703L150.199 28.4446C150.199 27.7606 150.049 27.1546 149.749 26.6266C149.461 26.0866 149.065 25.6666 148.561 25.3666C148.057 25.0666 147.475 24.9166 146.815 24.9166C146.167 24.9166 145.585 25.0666 145.069 25.3666C144.553 25.6666 144.151 26.0866 143.863 26.6266C143.575 27.1666 143.431 27.7846 143.431 28.4806V28.6786C143.431 29.3986 143.587 30.0346 143.899 30.5866C144.223 31.1266 144.667 31.5526 145.231 31.8646C145.807 32.1646 146.461 32.3146 147.193 32.3146C147.769 32.3146 148.303 32.2126 148.795 32.0086C149.299 31.8046 149.731 31.4926 150.091 31.0726L150.811 31.9006C150.391 32.4046 149.863 32.7886 149.227 33.0526C148.603 33.3166 147.913 33.4486 147.157 33.4486ZM154.006 33.3586V23.9086H155.23V26.4826L155.104 26.0326C155.368 25.3126 155.812 24.7666 156.436 24.3946C157.06 24.0106 157.834 23.8186 158.758 23.8186V25.0606C158.71 25.0606 158.662 25.0606 158.614 25.0606C158.566 25.0486 158.518 25.0426 158.47 25.0426C157.474 25.0426 156.694 25.3486 156.13 25.9606C155.566 26.5606 155.284 27.4186 155.284 28.5346V33.3586H154.006ZM169.866 33.4486C168.93 33.4486 168.09 33.2446 167.346 32.8366C166.614 32.4166 166.038 31.8466 165.618 31.1266C165.198 30.3946 164.988 29.5606 164.988 28.6246C164.988 27.6766 165.198 26.8426 165.618 26.1226C166.038 25.4026 166.614 24.8386 167.346 24.4306C168.09 24.0226 168.93 23.8186 169.866 23.8186C170.67 23.8186 171.396 23.9746 172.044 24.2866C172.692 24.5986 173.202 25.0666 173.574 25.6906L172.62 26.3386C172.296 25.8586 171.894 25.5046 171.414 25.2766C170.934 25.0486 170.412 24.9346 169.848 24.9346C169.176 24.9346 168.57 25.0906 168.03 25.4026C167.49 25.7026 167.064 26.1286 166.752 26.6806C166.44 27.2326 166.284 27.8806 166.284 28.6246C166.284 29.3686 166.44 30.0166 166.752 30.5686C167.064 31.1206 167.49 31.5526 168.03 31.8646C168.57 32.1646 169.176 32.3146 169.848 32.3146C170.412 32.3146 170.934 32.2006 171.414 31.9726C171.894 31.7446 172.296 31.3966 172.62 30.9286L173.574 31.5766C173.202 32.1886 172.692 32.6566 172.044 32.9806C171.396 33.2926 170.67 33.4486 169.866 33.4486ZM179.778 33.4486C178.866 33.4486 178.044 33.2446 177.312 32.8366C176.592 32.4166 176.022 31.8466 175.602 31.1266C175.182 30.3946 174.972 29.5606 174.972 28.6246C174.972 27.6766 175.182 26.8426 175.602 26.1226C176.022 25.4026 176.592 24.8386 177.312 24.4306C178.032 24.0226 178.854 23.8186 179.778 23.8186C180.714 23.8186 181.542 24.0226 182.262 24.4306C182.994 24.8386 183.564 25.4026 183.972 26.1226C184.392 26.8426 184.602 27.6766 184.602 28.6246C184.602 29.5606 184.392 30.3946 183.972 31.1266C183.564 31.8466 182.994 32.4166 182.262 32.8366C181.53 33.2446 180.702 33.4486 179.778 33.4486ZM179.778 32.3146C180.462 32.3146 181.068 32.1646 181.596 31.8646C182.124 31.5526 182.538 31.1206 182.838 30.5686C183.15 30.0046 183.306 29.3566 183.306 28.6246C183.306 27.8806 183.15 27.2326 182.838 26.6806C182.538 26.1286 182.124 25.7026 181.596 25.4026C181.068 25.0906 180.468 24.9346 179.796 24.9346C179.124 24.9346 178.524 25.0906 177.996 25.4026C177.468 25.7026 177.048 26.1286 176.736 26.6806C176.424 27.2326 176.268 27.8806 176.268 28.6246C176.268 29.3566 176.424 30.0046 176.736 30.5686C177.048 31.1206 177.468 31.5526 177.996 31.8646C178.524 32.1646 179.118 32.3146 179.778 32.3146ZM192.035 23.8186C192.803 23.8186 193.475 23.9686 194.051 24.2686C194.639 24.5566 195.095 25.0006 195.419 25.6006C195.755 26.2006 195.923 26.9566 195.923 27.8686V33.3586H194.645V27.9946C194.645 26.9986 194.393 26.2486 193.889 25.7446C193.397 25.2286 192.701 24.9706 191.801 24.9706C191.129 24.9706 190.541 25.1086 190.037 25.3846C189.545 25.6486 189.161 26.0386 188.885 26.5546C188.621 27.0586 188.489 27.6706 188.489 28.3906V33.3586H187.211V23.9086H188.435V26.5006L188.237 26.0146C188.537 25.3306 189.017 24.7966 189.677 24.4126C190.337 24.0166 191.123 23.8186 192.035 23.8186ZM205.544 26.8606H212.204V28.0126H205.544V26.8606ZM205.688 33.3586H204.356V20.7586H212.996V21.9106H205.688V33.3586ZM221.012 33.3586V31.2706L220.958 30.9286V27.4366C220.958 26.6326 220.73 26.0146 220.274 25.5826C219.83 25.1506 219.164 24.9346 218.276 24.9346C217.664 24.9346 217.082 25.0366 216.53 25.2406C215.978 25.4446 215.51 25.7146 215.126 26.0506L214.55 25.0966C215.03 24.6886 215.606 24.3766 216.278 24.1606C216.95 23.9326 217.658 23.8186 218.402 23.8186C219.626 23.8186 220.568 24.1246 221.228 24.7366C221.9 25.3366 222.236 26.2546 222.236 27.4906V33.3586H221.012ZM217.754 33.4486C217.046 33.4486 216.428 33.3346 215.9 33.1066C215.384 32.8666 214.988 32.5426 214.712 32.1346C214.436 31.7146 214.298 31.2346 214.298 30.6946C214.298 30.2026 214.412 29.7586 214.64 29.3626C214.88 28.9546 215.264 28.6306 215.792 28.3906C216.332 28.1386 217.052 28.0126 217.952 28.0126H221.21V28.9666H217.988C217.076 28.9666 216.44 29.1286 216.08 29.4526C215.732 29.7766 215.558 30.1786 215.558 30.6586C215.558 31.1986 215.768 31.6306 216.188 31.9546C216.608 32.2786 217.196 32.4406 217.952 32.4406C218.672 32.4406 219.29 32.2786 219.806 31.9546C220.334 31.6186 220.718 31.1386 220.958 30.5146L221.246 31.3966C221.006 32.0206 220.586 32.5186 219.986 32.8906C219.398 33.2626 218.654 33.4486 217.754 33.4486ZM229.632 33.4486C228.696 33.4486 227.856 33.2446 227.112 32.8366C226.38 32.4166 225.804 31.8466 225.384 31.1266C224.964 30.3946 224.754 29.5606 224.754 28.6246C224.754 27.6766 224.964 26.8426 225.384 26.1226C225.804 25.4026 226.38 24.8386 227.112 24.4306C227.856 24.0226 228.696 23.8186 229.632 23.8186C230.436 23.8186 231.162 23.9746 231.81 24.2866C232.458 24.5986 232.968 25.0666 233.34 25.6906L232.386 26.3386C232.062 25.8586 231.66 25.5046 231.18 25.2766C230.7 25.0486 230.178 24.9346 229.614 24.9346C228.942 24.9346 228.336 25.0906 227.796 25.4026C227.256 25.7026 226.83 26.1286 226.518 26.6806C226.206 27.2326 226.05 27.8806 226.05 28.6246C226.05 29.3686 226.206 30.0166 226.518 30.5686C226.83 31.1206 227.256 31.5526 227.796 31.8646C228.336 32.1646 228.942 32.3146 229.614 32.3146C230.178 32.3146 230.7 32.2006 231.18 31.9726C231.66 31.7446 232.062 31.3966 232.386 30.9286L233.34 31.5766C232.968 32.1886 232.458 32.6566 231.81 32.9806C231.162 33.2926 230.436 33.4486 229.632 33.4486ZM239.706 33.4486C238.722 33.4486 237.858 33.2446 237.114 32.8366C236.37 32.4166 235.788 31.8466 235.368 31.1266C234.948 30.3946 234.738 29.5606 234.738 28.6246C234.738 27.6886 234.936 26.8606 235.332 26.1406C235.74 25.4206 236.292 24.8566 236.988 24.4486C237.696 24.0286 238.488 23.8186 239.364 23.8186C240.252 23.8186 241.038 24.0226 241.722 24.4306C242.418 24.8266 242.964 25.3906 243.36 26.1226C243.756 26.8426 243.954 27.6766 243.954 28.6246C243.954 28.6846 243.948 28.7506 243.936 28.8226C243.936 28.8826 243.936 28.9486 243.936 29.0206H235.71V28.0666H243.252L242.748 28.4446C242.748 27.7606 242.598 27.1546 242.298 26.6266C242.01 26.0866 241.614 25.6666 241.11 25.3666C240.606 25.0666 240.024 24.9166 239.364 24.9166C238.716 24.9166 238.134 25.0666 237.618 25.3666C237.102 25.6666 236.7 26.0866 236.412 26.6266C236.124 27.1666 235.98 27.7846 235.98 28.4806V28.6786C235.98 29.3986 236.136 30.0346 236.448 30.5866C236.772 31.1266 237.216 31.5526 237.78 31.8646C238.356 32.1646 239.01 32.3146 239.742 32.3146C240.318 32.3146 240.852 32.2126 241.344 32.0086C241.848 31.8046 242.28 31.4926 242.64 31.0726L243.36 31.9006C242.94 32.4046 242.412 32.7886 241.776 33.0526C241.152 33.3166 240.462 33.4486 239.706 33.4486ZM251.433 33.4486C250.605 33.4486 249.861 33.2626 249.201 32.8906C248.541 32.5066 248.019 31.9546 247.635 31.2346C247.251 30.5146 247.059 29.6446 247.059 28.6246C247.059 27.5926 247.251 26.7226 247.635 26.0146C248.031 25.2946 248.559 24.7486 249.219 24.3766C249.879 24.0046 250.617 23.8186 251.433 23.8186C252.333 23.8186 253.137 24.0226 253.845 24.4306C254.565 24.8266 255.129 25.3846 255.537 26.1046C255.945 26.8246 256.149 27.6646 256.149 28.6246C256.149 29.5726 255.945 30.4126 255.537 31.1446C255.129 31.8646 254.565 32.4286 253.845 32.8366C253.137 33.2446 252.333 33.4486 251.433 33.4486ZM246.555 33.3586V20.0026H247.833V26.6986L247.653 28.6066L247.779 30.5146V33.3586H246.555ZM251.343 32.3146C252.015 32.3146 252.615 32.1646 253.143 31.8646C253.671 31.5526 254.091 31.1206 254.403 30.5686C254.715 30.0046 254.871 29.3566 254.871 28.6246C254.871 27.8806 254.715 27.2326 254.403 26.6806C254.091 26.1286 253.671 25.7026 253.143 25.4026C252.615 25.0906 252.015 24.9346 251.343 24.9346C250.671 24.9346 250.065 25.0906 249.525 25.4026C248.997 25.7026 248.577 26.1286 248.265 26.6806C247.965 27.2326 247.815 27.8806 247.815 28.6246C247.815 29.3566 247.965 30.0046 248.265 30.5686C248.577 31.1206 248.997 31.5526 249.525 31.8646C250.065 32.1646 250.671 32.3146 251.343 32.3146ZM262.606 33.4486C261.694 33.4486 260.872 33.2446 260.14 32.8366C259.42 32.4166 258.85 31.8466 258.43 31.1266C258.01 30.3946 257.8 29.5606 257.8 28.6246C257.8 27.6766 258.01 26.8426 258.43 26.1226C258.85 25.4026 259.42 24.8386 260.14 24.4306C260.86 24.0226 261.682 23.8186 262.606 23.8186C263.542 23.8186 264.37 24.0226 265.09 24.4306C265.822 24.8386 266.392 25.4026 266.8 26.1226C267.22 26.8426 267.43 27.6766 267.43 28.6246C267.43 29.5606 267.22 30.3946 266.8 31.1266C266.392 31.8466 265.822 32.4166 265.09 32.8366C264.358 33.2446 263.53 33.4486 262.606 33.4486ZM262.606 32.3146C263.29 32.3146 263.896 32.1646 264.424 31.8646C264.952 31.5526 265.366 31.1206 265.666 30.5686C265.978 30.0046 266.134 29.3566 266.134 28.6246C266.134 27.8806 265.978 27.2326 265.666 26.6806C265.366 26.1286 264.952 25.7026 264.424 25.4026C263.896 25.0906 263.296 24.9346 262.624 24.9346C261.952 24.9346 261.352 25.0906 260.824 25.4026C260.296 25.7026 259.876 26.1286 259.564 26.6806C259.252 27.2326 259.096 27.8806 259.096 28.6246C259.096 29.3566 259.252 30.0046 259.564 30.5686C259.876 31.1206 260.296 31.5526 260.824 31.8646C261.352 32.1646 261.946 32.3146 262.606 32.3146ZM273.892 33.4486C272.98 33.4486 272.158 33.2446 271.426 32.8366C270.706 32.4166 270.136 31.8466 269.716 31.1266C269.296 30.3946 269.086 29.5606 269.086 28.6246C269.086 27.6766 269.296 26.8426 269.716 26.1226C270.136 25.4026 270.706 24.8386 271.426 24.4306C272.146 24.0226 272.968 23.8186 273.892 23.8186C274.828 23.8186 275.656 24.0226 276.376 24.4306C277.108 24.8386 277.678 25.4026 278.086 26.1226C278.506 26.8426 278.716 27.6766 278.716 28.6246C278.716 29.5606 278.506 30.3946 278.086 31.1266C277.678 31.8466 277.108 32.4166 276.376 32.8366C275.644 33.2446 274.816 33.4486 273.892 33.4486ZM273.892 32.3146C274.576 32.3146 275.182 32.1646 275.71 31.8646C276.238 31.5526 276.652 31.1206 276.952 30.5686C277.264 30.0046 277.42 29.3566 277.42 28.6246C277.42 27.8806 277.264 27.2326 276.952 26.6806C276.652 26.1286 276.238 25.7026 275.71 25.4026C275.182 25.0906 274.582 24.9346 273.91 24.9346C273.238 24.9346 272.638 25.0906 272.11 25.4026C271.582 25.7026 271.162 26.1286 270.85 26.6806C270.538 27.2326 270.382 27.8806 270.382 28.6246C270.382 29.3566 270.538 30.0046 270.85 30.5686C271.162 31.1206 271.582 31.5526 272.11 31.8646C272.638 32.1646 273.232 32.3146 273.892 32.3146ZM282.333 30.9106L282.369 29.2726L288.255 23.9086H289.821L285.663 27.8866L284.943 28.4986L282.333 30.9106ZM281.325 33.3586V20.0026H282.603V33.3586H281.325ZM288.651 33.3586L284.709 28.4446L285.537 27.4546L290.217 33.3586H288.651Z" fill="black"/>
<g clip-path="url(#clip0_6_444)">
<path d="M60 25.9986C60 33.7016 54.1974 40.0441 46.7252 40.8999C45.2442 41.0699 43.7463 41.02 42.2799 40.7519C35.2936 39.4737 30 33.3544 30 25.9986C30 17.7158 36.7158 11 44.9986 11C53.2815 11 60 17.7158 60 25.9986Z" fill="#385196"/>
<path d="M50.0262 29.1623H46.7422C46.7512 33.0721 46.7605 36.9815 46.77 40.8904C46.7544 40.8934 46.7408 40.8968 46.7252 40.9012C45.2442 41.0712 43.7463 41.0214 42.2799 40.7533C42.2812 36.8896 42.2821 33.0264 42.2826 29.1636H40.0783V24.7183H42.2602C42.2602 24.1754 42.2398 23.6867 42.2646 23.2012C42.2985 22.5815 42.2938 21.9456 42.4312 21.3446C42.8846 19.3561 44.266 18.1997 46.4042 18.0684C47.6733 17.9913 48.9512 18.0531 50.2248 18.0548C50.2617 18.0548 50.2974 18.0792 50.3758 18.107C50.3758 19.2095 50.3758 20.3212 50.3758 21.4325C50.3758 21.5618 50.3635 21.6914 50.3544 21.8625C49.6034 21.8625 48.8773 21.8625 48.1511 21.8642C47.2121 21.8642 46.9098 22.1648 46.9067 23.1007C46.9067 23.6172 46.9067 24.1336 46.9067 24.6956H50.4348C50.296 26.2066 50.1633 27.6651 50.0262 29.1623Z" fill="white"/>
</g>
</g>
<defs>
<filter id="filter0_d_6_444" x="0" y="0" width="318" height="63" filterUnits="userSpaceOnUse" color-interpolation-filters="sRGB">
<feFlood flood-opacity="0" result="BackgroundImageFix"/>
<feColorMatrix in="SourceAlpha" type="matrix" values="0 0 0 0 0 0 0 0 0 0 0 0 0 0 0 0 0 0 127 0" result="hardAlpha"/>
<feOffset dy="4"/>
<feGaussianBlur stdDeviation="2"/>
<feComposite in2="hardAlpha" operator="out"/>
<feColorMatrix type="matrix" values="0 0 0 0 0 0 0 0 0 0 0 0 0 0 0 0 0 0 0.25 0"/>
<feBlend mode="normal" in2="BackgroundImageFix" result="effect1_dropShadow_6_444"/>
<feBlend mode="normal" in="SourceGraphic" in2="effect1_dropShadow_6_444" result="shape"/>
</filter>
<clipPath id="clip0_6_444">
<rect width="30" height="30" fill="white" transform="translate(30 11)"/>
</clipPath>
</defs>
</svg>
