<svg width="330" height="199" viewBox="0 0 330 199" fill="none" xmlns="http://www.w3.org/2000/svg">
<path d="M224.459 55.1084V124.404C222.557 124.404 219.297 124.404 217.667 124.404L210.061 59.2007V124.404H206.258V55.1084C208.16 55.1084 211.148 55.1084 213.049 55.1084L220.927 120.858V55.1084H224.459Z" fill="#FFAA00"/>
<path d="M244.284 58.9289H236.95V54.8366H255.694V58.9289H248.359V124.405H244.013V58.9289H244.284Z" fill="#FFAA00"/>
<path d="M282.594 92.2117H273.086V120.312H284.767V124.404H268.74V55.1084H284.767V59.2007H273.086V88.6651H282.594V92.2117Z" fill="#FFAA00"/>
<path d="M314.915 115.401C313.828 129.315 293.998 127.951 297.257 108.853H301.332V114.855C300.789 122.221 311.112 122.221 310.569 114.855C313.557 79.1161 294.541 102.579 297.529 64.1111C297.529 63.8383 297.529 63.5655 297.529 63.2927C296.986 50.743 316.273 51.5615 314.915 64.1111V72.8413H310.84V64.1111C311.655 57.0178 301.604 56.4722 301.876 63.5655C298.887 100.942 317.631 76.388 314.915 114.855C314.915 114.583 314.915 115.401 314.915 115.401Z" fill="#FFAA00"/>
<path d="M143.504 140.228C108.189 145.412 82.9251 169.147 111.449 167.51C139.972 165.873 187.24 170.784 170.397 179.241C162.248 183.333 121.5 196.156 141.874 196.156C162.248 196.156 236.137 179.241 230.976 194.519C225.815 209.797 348.874 179.241 326.87 177.604C304.866 175.967 261.13 194.519 252.708 179.241C244.559 163.963 209.244 187.698 200.823 180.878C192.401 174.058 254.61 165.6 246.189 160.689C237.767 155.506 251.078 148.14 269.822 144.32C288.295 140.228 143.504 140.228 143.504 140.228Z" fill="#FFAA00"/>
<path d="M208.66 54.6628C208.66 52.7531 208.66 47.8424 208.66 45.9327L205.671 42.9317C202.683 42.9317 198.88 43.2045 199.967 38.5666L201.597 37.2025C205.671 39.385 206.758 38.2937 203.498 35.2927C205.671 30.6548 200.782 23.5615 194.262 28.1994C188.829 24.6528 191.274 29.8364 193.175 30.9276C191.545 33.6558 193.99 37.2025 192.632 39.9306H188.286L185.297 41.2947C182.853 39.9306 177.963 39.6578 175.246 39.9306C174.431 38.8394 172.53 38.0209 171.171 37.7481L170.9 37.2025C167.912 36.384 162.75 31.4733 160.849 29.2907C159.219 29.8364 159.219 33.1102 162.207 34.2015L170.9 43.4773L168.183 38.5666C169.27 39.385 170.628 41.2947 170.9 42.9317C170.9 42.9317 182.309 47.2967 183.939 47.2967C185.297 47.2967 185.297 48.6608 185.297 48.6608C185.297 48.6608 185.841 68.8494 183.668 68.8494C183.939 68.8494 184.211 68.8494 184.482 68.8494L190.731 135.963L203.498 132.143C202.955 127.778 203.227 76.7611 203.227 71.032L201.868 69.6679C204.042 69.395 203.498 59.3008 205.4 61.4833C206.758 60.392 211.919 58.4823 208.66 54.6628ZM194.262 126.96C194.262 119.594 194.262 96.9497 194.262 89.8564C196.707 97.7682 196.707 118.775 196.435 127.233L194.262 126.96Z" fill="#DDD3D3"/>
<path d="M32.6697 55.1091V124.405C30.7682 124.405 27.5083 124.405 25.8784 124.405L18.0005 59.2013V124.405H14.1973V55.1091C16.0989 55.1091 19.0871 55.1091 20.9887 55.1091L28.8666 120.858V55.1091H32.6697Z" fill="#FFAA00"/>
<path d="M60.6494 109.127H50.8699L49.24 124.405H45.1652L52.7715 55.1091H59.0195L66.6258 124.405H62.2794L60.6494 109.127ZM60.3778 105.308L55.7597 60.0198L51.4132 105.308H60.3778Z" fill="#FFAA00"/>
<path d="M90.2607 119.222L96.5087 54.8365H100.583L93.2488 124.132H86.7292L79.3945 54.8365H83.741L90.2607 119.222Z" fill="#FFAA00"/>
<path d="M127.204 92.2124H117.696V120.313H129.377V124.405H113.35V55.1091H129.377V59.2013H117.696V88.6657H127.204V92.2124Z" fill="#FFAA00"/>
<path d="M159.806 82.6643H155.731V64.1127C156.546 56.4737 145.951 56.4737 146.495 64.1127V115.13C146.495 118.676 147.853 120.859 151.113 120.859C159.262 121.95 154.373 96.5781 155.731 92.213H151.656V88.3935H159.806C158.176 96.3053 165.51 126.042 151.113 124.951C145.136 124.951 142.42 121.132 142.42 115.13V64.1127C141.062 51.0174 161.164 51.0174 160.077 64.1127C159.806 64.1127 159.806 82.6643 159.806 82.6643Z" fill="#FFAA00"/>
<path d="M187.786 109.127H178.006L176.376 124.405H172.302L179.908 55.1091H186.156L193.762 124.405H189.416L187.786 109.127ZM187.514 105.308L182.896 60.0198L178.55 105.308H187.514Z" fill="#FFAA00"/>
<path d="M274.166 123.86H48.4225C17.7257 126.315 -1.29003 99.3059 0.0682387 111.037C9.84775 132.863 31.58 144.867 56.8437 144.867H265.473C290.465 144.867 312.198 133.135 321.977 111.856C323.064 109.4 320.076 107.218 318.174 109.127C306.765 120.313 291.28 123.86 274.166 123.86Z" fill="white"/>
<path d="M173.657 43.1053L142.146 1.09127L144.319 0L264.39 165.055L261.13 164.51L173.657 43.1053Z" fill="white"/>
</svg>
