<svg width="308" height="56" viewBox="0 0 308 56" fill="none" xmlns="http://www.w3.org/2000/svg">
<path d="M151.904 34.144C150.872 34.144 149.954 33.928 149.15 33.496C148.358 33.064 147.728 32.476 147.26 31.732C146.804 30.976 146.576 30.118 146.576 29.158C146.576 28.186 146.804 27.328 147.26 26.584C147.728 25.828 148.358 25.24 149.15 24.82C149.954 24.388 150.872 24.172 151.904 24.172C152.924 24.172 153.836 24.388 154.64 24.82C155.444 25.24 156.074 25.822 156.53 26.566C156.986 27.31 157.214 28.174 157.214 29.158C157.214 30.118 156.986 30.976 156.53 31.732C156.074 32.476 155.444 33.064 154.64 33.496C153.836 33.928 152.924 34.144 151.904 34.144ZM151.904 31.84C152.372 31.84 152.792 31.732 153.164 31.516C153.536 31.3 153.83 30.994 154.046 30.598C154.262 30.19 154.37 29.71 154.37 29.158C154.37 28.594 154.262 28.114 154.046 27.718C153.83 27.322 153.536 27.016 153.164 26.8C152.792 26.584 152.372 26.476 151.904 26.476C151.436 26.476 151.016 26.584 150.644 26.8C150.272 27.016 149.972 27.322 149.744 27.718C149.528 28.114 149.42 28.594 149.42 29.158C149.42 29.71 149.528 30.19 149.744 30.598C149.972 30.994 150.272 31.3 150.644 31.516C151.016 31.732 151.436 31.84 151.904 31.84Z" fill="black"/>
<line y1="31.5" x2="116" y2="31.5" stroke="black"/>
<line x1="192" y1="31.5" x2="308" y2="31.5" stroke="black"/>
</svg>
