<svg width="113" height="30" viewBox="0 0 113 30" fill="none" xmlns="http://www.w3.org/2000/svg">
<rect x="1" y="1" width="111" height="28" rx="6.5" fill="#242424" stroke="#FF7A00"/>
<path d="M35.82 12.5C35.7467 12.5 35.71 12.4633 35.71 12.39V6.81H33.93C33.8633 6.81 33.83 6.77333 33.83 6.7V6.06C33.83 5.98667 33.8633 5.95 33.93 5.95H38.45C38.5167 5.95 38.55 5.98667 38.55 6.06V6.7C38.55 6.77333 38.5167 6.81 38.45 6.81H36.67V12.39C36.67 12.4633 36.6333 12.5 36.56 12.5H35.82ZM40.081 12.62C39.6543 12.62 39.3277 12.48 39.101 12.2C38.8743 11.9133 38.761 11.5 38.761 10.96V7.71C38.761 7.64333 38.7943 7.61 38.861 7.61H39.601C39.6743 7.61 39.711 7.64333 39.711 7.71V10.87C39.711 11.1833 39.7643 11.4167 39.871 11.57C39.9843 11.7167 40.1577 11.79 40.391 11.79C40.631 11.79 40.871 11.7167 41.111 11.57C41.351 11.4167 41.6443 11.1633 41.991 10.81V11.63C41.7843 11.8367 41.5743 12.0167 41.361 12.17C41.1543 12.3167 40.9443 12.4267 40.731 12.5C40.5243 12.58 40.3077 12.62 40.081 12.62ZM42.081 12.5C42.041 12.5 42.011 12.4933 41.991 12.48C41.971 12.46 41.9577 12.4333 41.951 12.4C41.931 12.2733 41.9143 12.1433 41.901 12.01C41.8877 11.8767 41.8777 11.74 41.871 11.6L41.811 11.16V7.71C41.811 7.64333 41.8443 7.61 41.911 7.61H42.651C42.7243 7.61 42.761 7.64333 42.761 7.71V11.27C42.761 11.4567 42.7643 11.6467 42.771 11.84C42.7843 12.0267 42.801 12.21 42.821 12.39C42.8343 12.4633 42.7977 12.5 42.711 12.5H42.081ZM44.2907 12.5C44.224 12.5 44.1907 12.4633 44.1907 12.39V8.81C44.1907 8.61667 44.184 8.43333 44.1707 8.26C44.164 8.08 44.1474 7.9 44.1207 7.72C44.1074 7.64667 44.1407 7.61 44.2207 7.61H44.9007C44.934 7.61 44.9607 7.61667 44.9807 7.63C45.0007 7.64333 45.014 7.66667 45.0207 7.7C45.0474 7.82667 45.0674 7.97 45.0807 8.13C45.094 8.29 45.1007 8.42667 45.1007 8.54L45.1407 9.09V12.39C45.1407 12.4633 45.104 12.5 45.0307 12.5H44.2907ZM45.0307 9.43L44.9907 8.55C45.1307 8.34333 45.2907 8.16333 45.4707 8.01C45.6574 7.85 45.844 7.72333 46.0307 7.63C46.2174 7.53667 46.3907 7.49 46.5507 7.49C46.6707 7.49 46.7607 7.5 46.8207 7.52C46.854 7.52667 46.874 7.54 46.8807 7.56C46.894 7.57333 46.904 7.59667 46.9107 7.63C46.924 7.77667 46.9274 7.93 46.9207 8.09C46.9207 8.24333 46.9107 8.39 46.8907 8.53C46.884 8.57 46.8674 8.59667 46.8407 8.61C46.8207 8.62333 46.7907 8.62667 46.7507 8.62C46.704 8.60667 46.6507 8.59667 46.5907 8.59C46.5307 8.58333 46.4674 8.58 46.4007 8.58C46.2407 8.58 46.0774 8.61667 45.9107 8.69C45.7507 8.75667 45.594 8.85333 45.4407 8.98C45.294 9.10667 45.1574 9.25667 45.0307 9.43ZM47.8845 12.5C47.8178 12.5 47.7845 12.4633 47.7845 12.39V7.71C47.7845 7.64333 47.8178 7.61 47.8845 7.61H48.6245C48.6978 7.61 48.7345 7.64333 48.7345 7.71V12.39C48.7345 12.4633 48.6978 12.5 48.6245 12.5H47.8845ZM48.2545 6.82C48.0545 6.82 47.9045 6.76667 47.8045 6.66C47.7111 6.55333 47.6645 6.41333 47.6645 6.24V6.13C47.6645 5.95667 47.7111 5.81667 47.8045 5.71C47.9045 5.60333 48.0545 5.55 48.2545 5.55C48.4611 5.55 48.6111 5.60333 48.7045 5.71C48.7978 5.81667 48.8445 5.95667 48.8445 6.13V6.24C48.8445 6.41333 48.7978 6.55333 48.7045 6.66C48.6111 6.76667 48.4611 6.82 48.2545 6.82ZM51.7873 12.62C51.1673 12.62 50.7039 12.49 50.3973 12.23C50.0973 11.9633 49.9506 11.5633 49.9573 11.03C49.9573 10.97 49.9906 10.94 50.0573 10.94H50.7973C50.8573 10.94 50.8873 10.97 50.8873 11.03C50.8873 11.31 50.9573 11.5133 51.0973 11.64C51.2439 11.7667 51.4739 11.83 51.7873 11.83C52.1006 11.83 52.3339 11.78 52.4873 11.68C52.6473 11.5733 52.7273 11.4233 52.7273 11.23C52.7273 11.0833 52.6806 10.96 52.5873 10.86C52.5006 10.76 52.3573 10.6667 52.1573 10.58L51.0173 10.11C50.6573 9.95667 50.4006 9.78333 50.2473 9.59C50.0939 9.39667 50.0173 9.14333 50.0173 8.83C50.0173 8.38333 50.1606 8.05 50.4473 7.83C50.7339 7.60333 51.1606 7.49 51.7273 7.49C52.3139 7.49 52.7639 7.61 53.0773 7.85C53.3973 8.08333 53.5573 8.42 53.5573 8.86C53.5573 8.92667 53.5206 8.96 53.4473 8.96H52.7173C52.6906 8.96 52.6673 8.95 52.6473 8.93C52.6273 8.90333 52.6173 8.86 52.6173 8.8C52.6173 8.63333 52.5406 8.50333 52.3873 8.41C52.2406 8.31667 52.0339 8.27 51.7673 8.27C51.5006 8.27 51.3006 8.31667 51.1673 8.41C51.0339 8.50333 50.9673 8.64333 50.9673 8.83C50.9673 8.97 51.0039 9.07667 51.0773 9.15C51.1506 9.21667 51.3006 9.3 51.5273 9.4L52.6673 9.88C53.0206 10.02 53.2773 10.1933 53.4373 10.4C53.5973 10.6 53.6773 10.86 53.6773 11.18C53.6773 11.6467 53.5139 12.0033 53.1873 12.25C52.8606 12.4967 52.3939 12.62 51.7873 12.62ZM54.9255 12.5C54.8588 12.5 54.8255 12.4633 54.8255 12.39V8.84C54.8255 8.65333 54.8188 8.46333 54.8055 8.27C54.7988 8.07 54.7821 7.89 54.7555 7.73C54.7421 7.65 54.7788 7.61 54.8655 7.61H55.5355C55.5688 7.61 55.5921 7.61333 55.6055 7.62C55.6255 7.62667 55.6388 7.64667 55.6455 7.68C55.6588 7.78 55.6755 7.88667 55.6955 8C55.7155 8.11333 55.7288 8.22667 55.7355 8.34C56.0221 8.05333 56.2988 7.84 56.5655 7.7C56.8321 7.56 57.1221 7.49 57.4355 7.49C57.7755 7.49 58.0488 7.56667 58.2555 7.72C58.4621 7.87333 58.6088 8.1 58.6955 8.4C59.0021 8.08667 59.2921 7.85667 59.5655 7.71C59.8388 7.56333 60.1355 7.49 60.4555 7.49C60.9088 7.49 61.2488 7.63 61.4755 7.91C61.7088 8.18333 61.8255 8.59333 61.8255 9.14V12.39C61.8255 12.4633 61.7888 12.5 61.7155 12.5H60.9755C60.9088 12.5 60.8755 12.4633 60.8755 12.39V9.24C60.8755 8.93333 60.8188 8.70333 60.7055 8.55C60.5988 8.39667 60.4255 8.32 60.1855 8.32C59.9721 8.32 59.7588 8.38667 59.5455 8.52C59.3321 8.64667 59.0821 8.84333 58.7955 9.11V12.39C58.7955 12.4633 58.7621 12.5 58.6955 12.5H57.9555C57.8821 12.5 57.8455 12.4633 57.8455 12.39V9.24C57.8455 8.93333 57.7888 8.70333 57.6755 8.55C57.5688 8.39667 57.3955 8.32 57.1555 8.32C56.9488 8.32 56.7355 8.38667 56.5155 8.52C56.3021 8.64667 56.0555 8.84333 55.7755 9.11V12.39C55.7755 12.4633 55.7388 12.5 55.6655 12.5H54.9255ZM65.2232 12.62C64.5432 12.62 64.0232 12.4567 63.6632 12.13C63.3032 11.7967 63.1232 11.2933 63.1232 10.62V9.49C63.1232 8.81667 63.2999 8.31667 63.6532 7.99C64.0132 7.65667 64.5365 7.49 65.2232 7.49C65.9099 7.49 66.4332 7.65667 66.7932 7.99C67.1532 8.31667 67.3332 8.81667 67.3332 9.49V10.62C67.3332 11.2933 67.1532 11.7967 66.7932 12.13C66.4399 12.4567 65.9165 12.62 65.2232 12.62ZM65.2232 11.79C65.6299 11.79 65.9232 11.6867 66.1032 11.48C66.2899 11.2733 66.3832 10.9567 66.3832 10.53V9.57C66.3832 9.15 66.2899 8.83667 66.1032 8.63C65.9232 8.42333 65.6299 8.32 65.2232 8.32C64.8165 8.32 64.5232 8.42333 64.3432 8.63C64.1632 8.83667 64.0732 9.15 64.0732 9.57V10.53C64.0732 10.9567 64.1632 11.2733 64.3432 11.48C64.5232 11.6867 64.8165 11.79 65.2232 11.79ZM36.17 24.62C35.49 24.62 34.9733 24.4533 34.62 24.12C34.2667 23.78 34.09 23.2933 34.09 22.66V21.45C34.09 20.8167 34.27 20.3333 34.63 20C34.99 19.66 35.51 19.49 36.19 19.49C36.5967 19.49 36.9433 19.5533 37.23 19.68C37.5233 19.8067 37.7467 19.98 37.9 20.2C38.0533 20.42 38.13 20.6767 38.13 20.97C38.13 21.1167 38.0933 21.19 38.02 21.19H37.29C37.2633 21.19 37.24 21.1767 37.22 21.15C37.2 21.1233 37.19 21.0867 37.19 21.04C37.19 20.8067 37.1 20.63 36.92 20.51C36.74 20.3833 36.4967 20.32 36.19 20.32C35.8033 20.32 35.5133 20.42 35.32 20.62C35.1333 20.8133 35.04 21.12 35.04 21.54V22.57C35.04 22.9833 35.1333 23.29 35.32 23.49C35.5133 23.69 35.8 23.79 36.18 23.79C36.4933 23.79 36.7367 23.7233 36.91 23.59C37.09 23.45 37.18 23.28 37.18 23.08C37.18 22.9733 37.2133 22.92 37.28 22.92H38.01C38.0833 22.92 38.12 22.9533 38.12 23.02C38.12 23.5067 37.9533 23.8967 37.62 24.19C37.2867 24.4767 36.8033 24.62 36.17 24.62ZM41.3463 24.62C40.6663 24.62 40.1463 24.4567 39.7863 24.13C39.4263 23.7967 39.2463 23.2933 39.2463 22.62V21.49C39.2463 20.8167 39.4229 20.3167 39.7763 19.99C40.1363 19.6567 40.6596 19.49 41.3463 19.49C42.0329 19.49 42.5563 19.6567 42.9163 19.99C43.2763 20.3167 43.4563 20.8167 43.4563 21.49V22.62C43.4563 23.2933 43.2763 23.7967 42.9163 24.13C42.5629 24.4567 42.0396 24.62 41.3463 24.62ZM41.3463 23.79C41.7529 23.79 42.0463 23.6867 42.2263 23.48C42.4129 23.2733 42.5063 22.9567 42.5063 22.53V21.57C42.5063 21.15 42.4129 20.8367 42.2263 20.63C42.0463 20.4233 41.7529 20.32 41.3463 20.32C40.9396 20.32 40.6463 20.4233 40.4663 20.63C40.2863 20.8367 40.1963 21.15 40.1963 21.57V22.53C40.1963 22.9567 40.2863 23.2733 40.4663 23.48C40.6463 23.6867 40.9396 23.79 41.3463 23.79ZM44.8571 24.5C44.7904 24.5 44.7571 24.4633 44.7571 24.39V20.84C44.7571 20.6533 44.7504 20.4633 44.7371 20.27C44.7304 20.07 44.7138 19.89 44.6871 19.73C44.6738 19.65 44.7104 19.61 44.7971 19.61H45.4671C45.5004 19.61 45.5238 19.6133 45.5371 19.62C45.5571 19.6267 45.5704 19.6467 45.5771 19.68C45.5904 19.78 45.6071 19.8867 45.6271 20C45.6471 20.1133 45.6604 20.2267 45.6671 20.34C45.9538 20.0533 46.2304 19.84 46.4971 19.7C46.7638 19.56 47.0538 19.49 47.3671 19.49C47.7071 19.49 47.9804 19.5667 48.1871 19.72C48.3938 19.8733 48.5404 20.1 48.6271 20.4C48.9338 20.0867 49.2238 19.8567 49.4971 19.71C49.7704 19.5633 50.0671 19.49 50.3871 19.49C50.8404 19.49 51.1804 19.63 51.4071 19.91C51.6404 20.1833 51.7571 20.5933 51.7571 21.14V24.39C51.7571 24.4633 51.7204 24.5 51.6471 24.5H50.9071C50.8404 24.5 50.8071 24.4633 50.8071 24.39V21.24C50.8071 20.9333 50.7504 20.7033 50.6371 20.55C50.5304 20.3967 50.3571 20.32 50.1171 20.32C49.9038 20.32 49.6904 20.3867 49.4771 20.52C49.2638 20.6467 49.0138 20.8433 48.7271 21.11V24.39C48.7271 24.4633 48.6938 24.5 48.6271 24.5H47.8871C47.8138 24.5 47.7771 24.4633 47.7771 24.39V21.24C47.7771 20.9333 47.7204 20.7033 47.6071 20.55C47.5004 20.3967 47.3271 20.32 47.0871 20.32C46.8804 20.32 46.6671 20.3867 46.4471 20.52C46.2338 20.6467 45.9871 20.8433 45.7071 21.11V24.39C45.7071 24.4633 45.6704 24.5 45.5971 24.5H44.8571ZM54.5048 24.62C54.0782 24.62 53.7515 24.48 53.5248 24.2C53.2982 23.9133 53.1848 23.5 53.1848 22.96V19.71C53.1848 19.6433 53.2182 19.61 53.2848 19.61H54.0248C54.0982 19.61 54.1348 19.6433 54.1348 19.71V22.87C54.1348 23.1833 54.1882 23.4167 54.2948 23.57C54.4082 23.7167 54.5815 23.79 54.8148 23.79C55.0548 23.79 55.2948 23.7167 55.5348 23.57C55.7748 23.4167 56.0682 23.1633 56.4148 22.81V23.63C56.2082 23.8367 55.9982 24.0167 55.7848 24.17C55.5782 24.3167 55.3682 24.4267 55.1548 24.5C54.9482 24.58 54.7315 24.62 54.5048 24.62ZM56.5048 24.5C56.4648 24.5 56.4348 24.4933 56.4148 24.48C56.3948 24.46 56.3815 24.4333 56.3748 24.4C56.3548 24.2733 56.3382 24.1433 56.3248 24.01C56.3115 23.8767 56.3015 23.74 56.2948 23.6L56.2348 23.16V19.71C56.2348 19.6433 56.2682 19.61 56.3348 19.61H57.0748C57.1482 19.61 57.1848 19.6433 57.1848 19.71V23.27C57.1848 23.4567 57.1882 23.6467 57.1948 23.84C57.2082 24.0267 57.2248 24.21 57.2448 24.39C57.2582 24.4633 57.2215 24.5 57.1348 24.5H56.5048ZM61.9045 24.5C61.8312 24.5 61.7945 24.4633 61.7945 24.39V21.24C61.7945 20.92 61.7279 20.6867 61.5945 20.54C61.4679 20.3933 61.2745 20.32 61.0145 20.32C60.7612 20.32 60.5112 20.3967 60.2645 20.55C60.0245 20.6967 59.7279 20.9433 59.3745 21.29V20.49C59.5879 20.2567 59.7945 20.0667 59.9945 19.92C60.2012 19.7733 60.4079 19.6667 60.6145 19.6C60.8212 19.5267 61.0412 19.49 61.2745 19.49C61.7545 19.49 62.1179 19.63 62.3645 19.91C62.6179 20.1833 62.7445 20.5967 62.7445 21.15V24.39C62.7445 24.4633 62.7112 24.5 62.6445 24.5H61.9045ZM58.7145 24.5C58.6479 24.5 58.6145 24.4633 58.6145 24.39V20.84C58.6145 20.66 58.6045 20.4633 58.5845 20.25C58.5712 20.0367 58.5579 19.8667 58.5445 19.74C58.5312 19.6533 58.5645 19.61 58.6445 19.61H59.3245C59.3579 19.61 59.3845 19.6167 59.4045 19.63C59.4245 19.6433 59.4379 19.67 59.4445 19.71C59.4579 19.7633 59.4712 19.8467 59.4845 19.96C59.4979 20.0667 59.5112 20.18 59.5245 20.3C59.5379 20.42 59.5445 20.5233 59.5445 20.61L59.5645 20.92V24.39C59.5645 24.4633 59.5279 24.5 59.4545 24.5H58.7145ZM64.2809 24.5C64.2143 24.5 64.1809 24.4633 64.1809 24.39V19.71C64.1809 19.6433 64.2143 19.61 64.2809 19.61H65.0209C65.0943 19.61 65.1309 19.6433 65.1309 19.71V24.39C65.1309 24.4633 65.0943 24.5 65.0209 24.5H64.2809ZM64.6509 18.82C64.4509 18.82 64.3009 18.7667 64.2009 18.66C64.1076 18.5533 64.0609 18.4133 64.0609 18.24V18.13C64.0609 17.9567 64.1076 17.8167 64.2009 17.71C64.3009 17.6033 64.4509 17.55 64.6509 17.55C64.8576 17.55 65.0076 17.6033 65.1009 17.71C65.1943 17.8167 65.2409 17.9567 65.2409 18.13V18.24C65.2409 18.4133 65.1943 18.5533 65.1009 18.66C65.0076 18.7667 64.8576 18.82 64.6509 18.82ZM68.3438 24.62C67.9904 24.62 67.7071 24.5633 67.4938 24.45C67.2804 24.33 67.1271 24.15 67.0338 23.91C66.9404 23.67 66.8938 23.37 66.8938 23.01V20.42H66.1338C66.0604 20.42 66.0238 20.3833 66.0238 20.31V19.71C66.0238 19.6433 66.0604 19.61 66.1338 19.61H66.9138L67.0338 18.41C67.0404 18.3367 67.0804 18.3 67.1538 18.3H67.7338C67.8004 18.3 67.8338 18.3367 67.8338 18.41L67.8438 19.61H69.2938C69.3671 19.61 69.4038 19.6433 69.4038 19.71V20.31C69.4038 20.3833 69.3671 20.42 69.2938 20.42H67.8438V22.97C67.8438 23.27 67.8971 23.4833 68.0038 23.61C68.1104 23.7367 68.2904 23.8 68.5438 23.8C68.6771 23.8 68.8071 23.7867 68.9338 23.76C69.0671 23.7267 69.1838 23.6867 69.2838 23.64C69.3238 23.6267 69.3538 23.6267 69.3738 23.64C69.4004 23.6533 69.4138 23.68 69.4138 23.72V24.33C69.4138 24.39 69.3838 24.43 69.3238 24.45C69.2038 24.4967 69.0604 24.5367 68.8938 24.57C68.7338 24.6033 68.5504 24.62 68.3438 24.62ZM73.2614 24.5C73.2214 24.5 73.1914 24.4867 73.1714 24.46C73.1581 24.4333 73.1447 24.4 73.1314 24.36C73.1247 24.3067 73.1081 24.1933 73.0814 24.02C73.0614 23.8467 73.0481 23.69 73.0414 23.55L73.0014 23.16V21.17C73.0014 20.85 72.9381 20.6233 72.8114 20.49C72.6847 20.3567 72.4614 20.29 72.1414 20.29C71.5681 20.29 71.2847 20.49 71.2914 20.89C71.2914 20.9633 71.2581 21 71.1914 21H70.4614C70.3881 21 70.3481 20.9367 70.3414 20.81C70.3081 20.41 70.4581 20.09 70.7914 19.85C71.1247 19.61 71.5847 19.49 72.1714 19.49C72.7781 19.49 73.2247 19.6267 73.5114 19.9C73.8047 20.1733 73.9514 20.5933 73.9514 21.16V23.28C73.9514 23.5067 73.9547 23.7133 73.9614 23.9C73.9747 24.08 73.9914 24.24 74.0114 24.38C74.0247 24.46 73.9914 24.5 73.9114 24.5H73.2614ZM71.3414 24.62C70.9547 24.62 70.6581 24.5033 70.4514 24.27C70.2447 24.03 70.1414 23.6867 70.1414 23.24C70.1414 22.8933 70.2081 22.6133 70.3414 22.4C70.4814 22.18 70.7014 22.01 71.0014 21.89C71.3081 21.7633 71.7147 21.68 72.2214 21.64L73.1514 21.56V22.23L72.2314 22.31C71.7981 22.35 71.4981 22.4333 71.3314 22.56C71.1647 22.68 71.0814 22.8833 71.0814 23.17C71.0814 23.3833 71.1247 23.5467 71.2114 23.66C71.3047 23.7667 71.4414 23.82 71.6214 23.82C71.8347 23.82 72.0547 23.7467 72.2814 23.6C72.5147 23.4533 72.8147 23.19 73.1814 22.81L73.2014 23.57C72.9747 23.8167 72.7614 24.0167 72.5614 24.17C72.3614 24.3233 72.1614 24.4367 71.9614 24.51C71.7681 24.5833 71.5614 24.62 71.3414 24.62ZM75.4821 24.5C75.4154 24.5 75.3821 24.4633 75.3821 24.39V20.81C75.3821 20.6167 75.3754 20.4333 75.3621 20.26C75.3554 20.08 75.3388 19.9 75.3121 19.72C75.2988 19.6467 75.3321 19.61 75.4121 19.61H76.0921C76.1254 19.61 76.1521 19.6167 76.1721 19.63C76.1921 19.6433 76.2054 19.6667 76.2121 19.7C76.2388 19.8267 76.2588 19.97 76.2721 20.13C76.2854 20.29 76.2921 20.4267 76.2921 20.54L76.3321 21.09V24.39C76.3321 24.4633 76.2954 24.5 76.2221 24.5H75.4821ZM76.2221 21.43L76.1821 20.55C76.3221 20.3433 76.4821 20.1633 76.6621 20.01C76.8488 19.85 77.0354 19.7233 77.2221 19.63C77.4088 19.5367 77.5821 19.49 77.7421 19.49C77.8621 19.49 77.9521 19.5 78.0121 19.52C78.0454 19.5267 78.0654 19.54 78.0721 19.56C78.0854 19.5733 78.0954 19.5967 78.1021 19.63C78.1154 19.7767 78.1188 19.93 78.1121 20.09C78.1121 20.2433 78.1021 20.39 78.0821 20.53C78.0754 20.57 78.0588 20.5967 78.0321 20.61C78.0121 20.6233 77.9821 20.6267 77.9421 20.62C77.8954 20.6067 77.8421 20.5967 77.7821 20.59C77.7221 20.5833 77.6588 20.58 77.5921 20.58C77.4321 20.58 77.2688 20.6167 77.1021 20.69C76.9421 20.7567 76.7854 20.8533 76.6321 20.98C76.4854 21.1067 76.3488 21.2567 76.2221 21.43ZM79.0759 24.5C79.0092 24.5 78.9759 24.4633 78.9759 24.39V19.71C78.9759 19.6433 79.0092 19.61 79.0759 19.61H79.8159C79.8892 19.61 79.9259 19.6433 79.9259 19.71V24.39C79.9259 24.4633 79.8892 24.5 79.8159 24.5H79.0759ZM79.4459 18.82C79.2459 18.82 79.0959 18.7667 78.9959 18.66C78.9025 18.5533 78.8559 18.4133 78.8559 18.24V18.13C78.8559 17.9567 78.9025 17.8167 78.9959 17.71C79.0959 17.6033 79.2459 17.55 79.4459 17.55C79.6525 17.55 79.8025 17.6033 79.8959 17.71C79.9892 17.8167 80.0359 17.9567 80.0359 18.13V18.24C80.0359 18.4133 79.9892 18.5533 79.8959 18.66C79.8025 18.7667 79.6525 18.82 79.4459 18.82ZM83.3287 24.62C82.6487 24.62 82.1287 24.4567 81.7687 24.13C81.4087 23.7967 81.2287 23.2933 81.2287 22.62V21.49C81.2287 20.8167 81.4053 20.3167 81.7587 19.99C82.1187 19.6567 82.642 19.49 83.3287 19.49C84.0153 19.49 84.5387 19.6567 84.8987 19.99C85.2587 20.3167 85.4387 20.8167 85.4387 21.49V22.62C85.4387 23.2933 85.2587 23.7967 84.8987 24.13C84.5453 24.4567 84.022 24.62 83.3287 24.62ZM83.3287 23.79C83.7353 23.79 84.0287 23.6867 84.2087 23.48C84.3953 23.2733 84.4887 22.9567 84.4887 22.53V21.57C84.4887 21.15 84.3953 20.8367 84.2087 20.63C84.0287 20.4233 83.7353 20.32 83.3287 20.32C82.922 20.32 82.6287 20.4233 82.4487 20.63C82.2687 20.8367 82.1787 21.15 82.1787 21.57V22.53C82.1787 22.9567 82.2687 23.2733 82.4487 23.48C82.6287 23.6867 82.922 23.79 83.3287 23.79Z" fill="white"/>
<path d="M18.948 23.0365C18.8539 22.9509 18.7683 22.8548 18.6926 22.7499C18.3784 22.2054 18.0714 21.6543 17.7668 21.1006C17.6943 20.9664 17.5757 20.8689 17.437 20.8296C15.1395 20.0701 13.6753 18.43 13.1429 15.8857C12.4749 12.6874 14.2101 9.42005 17.0773 8.37914C17.8378 8.08421 18.6453 7.95921 19.4514 8.01165C20.2575 8.06409 21.0455 8.29288 21.7682 8.68431C22.4909 9.07573 23.1334 9.62172 23.6571 10.2895C24.1807 10.9573 24.5749 11.7332 24.8158 12.5705C25.0567 13.4078 25.1394 14.2894 25.059 15.1623C24.9786 16.0353 24.7368 16.8816 24.3479 17.6504C23.9591 18.4193 23.4312 19.0949 22.7961 19.6368C22.161 20.1786 21.4317 20.5755 20.652 20.8036C20.5744 20.8248 20.5017 20.8632 20.4383 20.9163C20.375 20.9695 20.3224 21.0362 20.2839 21.1123C19.9945 21.6578 19.6987 22.1988 19.3965 22.7356C19.32 22.8454 19.2332 22.9463 19.1375 23.0365H18.948ZM14.6226 14.5386C14.6248 15.4797 14.8837 16.3989 15.3666 17.1802C15.8496 17.9614 16.5349 18.5695 17.3359 18.9277C18.137 19.2859 19.0178 19.378 19.867 19.1924C20.7162 19.0068 21.4957 18.5519 22.107 17.8851C22.7183 17.2183 23.1338 16.3696 23.3012 15.4462C23.4685 14.5229 23.3801 13.5663 23.0471 12.6976C22.7141 11.8288 22.1516 11.0868 21.4305 10.5653C20.7094 10.0438 19.8622 9.76635 18.996 9.76789C17.8339 9.77134 16.7207 10.2757 15.9007 11.1702C15.0807 12.0647 14.621 13.2762 14.6226 14.5386Z" fill="#FF7A00"/>
<path d="M15.4736 14.0774C15.53 12.7265 16.686 10.7632 18.8457 10.6551C19.7464 10.608 20.6298 10.9358 21.3158 11.5717C22.0018 12.2076 22.4388 13.1037 22.5379 14.0774H15.4736Z" fill="#FF7A00"/>
<path d="M22.5467 14.9829C22.5094 15.3706 22.4138 15.7491 22.2637 16.1032C22.2481 16.141 22.1942 16.1605 22.1546 16.1814C22.1328 16.186 22.1104 16.186 22.0887 16.1814C20.0309 16.1814 17.9731 16.1814 15.9154 16.1814C15.8702 16.1892 15.8239 16.1784 15.7855 16.1512C15.7472 16.124 15.7195 16.0823 15.7079 16.0342C15.5801 15.6967 15.4961 15.3416 15.4585 14.9789L22.5467 14.9829Z" fill="#FF7A00"/>
<path d="M21.6806 17.0737C20.3279 18.8377 17.7125 18.8637 16.3203 17.0737H21.6806Z" fill="#FF7A00"/>
</svg>
