<svg width="310" height="55" viewBox="0 0 310 55" fill="none" xmlns="http://www.w3.org/2000/svg">
<rect x="0.5" y="0.5" width="309" height="54" rx="27" fill="white" stroke="black"/>
<path d="M81.5514 33.3585L87.3114 20.7585H88.6254L94.3854 33.3585H92.9814L87.6894 21.5325H88.2294L82.9374 33.3585H81.5514ZM83.8194 29.9925L84.2154 28.9125H91.5414L91.9374 29.9925H83.8194ZM100.036 33.4485C99.0999 33.4485 98.2599 33.2445 97.5159 32.8365C96.7839 32.4165 96.2079 31.8465 95.7879 31.1265C95.3679 30.3945 95.1579 29.5605 95.1579 28.6245C95.1579 27.6765 95.3679 26.8425 95.7879 26.1225C96.2079 25.4025 96.7839 24.8385 97.5159 24.4305C98.2599 24.0225 99.0999 23.8185 100.036 23.8185C100.84 23.8185 101.566 23.9745 102.214 24.2865C102.862 24.5985 103.372 25.0665 103.744 25.6905L102.79 26.3385C102.466 25.8585 102.064 25.5045 101.584 25.2765C101.104 25.0485 100.582 24.9345 100.018 24.9345C99.3459 24.9345 98.7399 25.0905 98.1999 25.4025C97.6599 25.7025 97.2339 26.1285 96.9219 26.6805C96.6099 27.2325 96.4539 27.8805 96.4539 28.6245C96.4539 29.3685 96.6099 30.0165 96.9219 30.5685C97.2339 31.1205 97.6599 31.5525 98.1999 31.8645C98.7399 32.1645 99.3459 32.3145 100.018 32.3145C100.582 32.3145 101.104 32.2005 101.584 31.9725C102.064 31.7445 102.466 31.3965 102.79 30.9285L103.744 31.5765C103.372 32.1885 102.862 32.6565 102.214 32.9805C101.566 33.2925 100.84 33.4485 100.036 33.4485ZM110.02 33.4485C109.084 33.4485 108.244 33.2445 107.5 32.8365C106.768 32.4165 106.192 31.8465 105.772 31.1265C105.352 30.3945 105.142 29.5605 105.142 28.6245C105.142 27.6765 105.352 26.8425 105.772 26.1225C106.192 25.4025 106.768 24.8385 107.5 24.4305C108.244 24.0225 109.084 23.8185 110.02 23.8185C110.824 23.8185 111.55 23.9745 112.198 24.2865C112.846 24.5985 113.356 25.0665 113.728 25.6905L112.774 26.3385C112.45 25.8585 112.048 25.5045 111.568 25.2765C111.088 25.0485 110.566 24.9345 110.002 24.9345C109.33 24.9345 108.724 25.0905 108.184 25.4025C107.644 25.7025 107.218 26.1285 106.906 26.6805C106.594 27.2325 106.438 27.8805 106.438 28.6245C106.438 29.3685 106.594 30.0165 106.906 30.5685C107.218 31.1205 107.644 31.5525 108.184 31.8645C108.724 32.1645 109.33 32.3145 110.002 32.3145C110.566 32.3145 111.088 32.2005 111.568 31.9725C112.048 31.7445 112.45 31.3965 112.774 30.9285L113.728 31.5765C113.356 32.1885 112.846 32.6565 112.198 32.9805C111.55 33.2925 110.824 33.4485 110.02 33.4485ZM120.095 33.4485C119.111 33.4485 118.247 33.2445 117.503 32.8365C116.759 32.4165 116.177 31.8465 115.757 31.1265C115.337 30.3945 115.127 29.5605 115.127 28.6245C115.127 27.6885 115.325 26.8605 115.721 26.1405C116.129 25.4205 116.681 24.8565 117.377 24.4485C118.085 24.0285 118.877 23.8185 119.753 23.8185C120.641 23.8185 121.427 24.0225 122.111 24.4305C122.807 24.8265 123.353 25.3905 123.749 26.1225C124.145 26.8425 124.343 27.6765 124.343 28.6245C124.343 28.6845 124.337 28.7505 124.325 28.8225C124.325 28.8825 124.325 28.9485 124.325 29.0205H116.099V28.0665H123.641L123.137 28.4445C123.137 27.7605 122.987 27.1545 122.687 26.6265C122.399 26.0865 122.003 25.6665 121.499 25.3665C120.995 25.0665 120.413 24.9165 119.753 24.9165C119.105 24.9165 118.523 25.0665 118.007 25.3665C117.491 25.6665 117.089 26.0865 116.801 26.6265C116.513 27.1665 116.369 27.7845 116.369 28.4805V28.6785C116.369 29.3985 116.525 30.0345 116.837 30.5865C117.161 31.1265 117.605 31.5525 118.169 31.8645C118.745 32.1645 119.399 32.3145 120.131 32.3145C120.707 32.3145 121.241 32.2125 121.733 32.0085C122.237 31.8045 122.669 31.4925 123.029 31.0725L123.749 31.9005C123.329 32.4045 122.801 32.7885 122.165 33.0525C121.541 33.3165 120.851 33.4485 120.095 33.4485ZM130.706 33.4485C129.806 33.4485 128.996 33.2445 128.276 32.8365C127.568 32.4285 127.01 31.8645 126.602 31.1445C126.194 30.4125 125.99 29.5725 125.99 28.6245C125.99 27.6645 126.194 26.8245 126.602 26.1045C127.01 25.3845 127.568 24.8265 128.276 24.4305C128.996 24.0225 129.806 23.8185 130.706 23.8185C131.534 23.8185 132.272 24.0045 132.92 24.3765C133.58 24.7485 134.102 25.2945 134.486 26.0145C134.882 26.7225 135.08 27.5925 135.08 28.6245C135.08 29.6445 134.888 30.5145 134.504 31.2345C134.12 31.9545 133.598 32.5065 132.938 32.8905C132.29 33.2625 131.546 33.4485 130.706 33.4485ZM130.796 32.3145C131.468 32.3145 132.068 32.1645 132.596 31.8645C133.136 31.5525 133.556 31.1205 133.856 30.5685C134.168 30.0045 134.324 29.3565 134.324 28.6245C134.324 27.8805 134.168 27.2325 133.856 26.6805C133.556 26.1285 133.136 25.7025 132.596 25.4025C132.068 25.0905 131.468 24.9345 130.796 24.9345C130.136 24.9345 129.542 25.0905 129.014 25.4025C128.486 25.7025 128.066 26.1285 127.754 26.6805C127.442 27.2325 127.286 27.8805 127.286 28.6245C127.286 29.3565 127.442 30.0045 127.754 30.5685C128.066 31.1205 128.486 31.5525 129.014 31.8645C129.542 32.1645 130.136 32.3145 130.796 32.3145ZM134.36 33.3585V30.5145L134.486 28.6065L134.306 26.6985V20.0025H135.584V33.3585H134.36ZM143.157 33.4485C142.173 33.4485 141.309 33.2445 140.565 32.8365C139.821 32.4165 139.239 31.8465 138.819 31.1265C138.399 30.3945 138.189 29.5605 138.189 28.6245C138.189 27.6885 138.387 26.8605 138.783 26.1405C139.191 25.4205 139.743 24.8565 140.439 24.4485C141.147 24.0285 141.939 23.8185 142.815 23.8185C143.703 23.8185 144.489 24.0225 145.173 24.4305C145.869 24.8265 146.415 25.3905 146.811 26.1225C147.207 26.8425 147.405 27.6765 147.405 28.6245C147.405 28.6845 147.399 28.7505 147.387 28.8225C147.387 28.8825 147.387 28.9485 147.387 29.0205H139.161V28.0665H146.703L146.199 28.4445C146.199 27.7605 146.049 27.1545 145.749 26.6265C145.461 26.0865 145.065 25.6665 144.561 25.3665C144.057 25.0665 143.475 24.9165 142.815 24.9165C142.167 24.9165 141.585 25.0665 141.069 25.3665C140.553 25.6665 140.151 26.0865 139.863 26.6265C139.575 27.1665 139.431 27.7845 139.431 28.4805V28.6785C139.431 29.3985 139.587 30.0345 139.899 30.5865C140.223 31.1265 140.667 31.5525 141.231 31.8645C141.807 32.1645 142.461 32.3145 143.193 32.3145C143.769 32.3145 144.303 32.2125 144.795 32.0085C145.299 31.8045 145.731 31.4925 146.091 31.0725L146.811 31.9005C146.391 32.4045 145.863 32.7885 145.227 33.0525C144.603 33.3165 143.913 33.4485 143.157 33.4485ZM150.006 33.3585V23.9085H151.23V26.4825L151.104 26.0325C151.368 25.3125 151.812 24.7665 152.436 24.3945C153.06 24.0105 153.834 23.8185 154.758 23.8185V25.0605C154.71 25.0605 154.662 25.0605 154.614 25.0605C154.566 25.0485 154.518 25.0425 154.47 25.0425C153.474 25.0425 152.694 25.3485 152.13 25.9605C151.566 26.5605 151.284 27.4185 151.284 28.5345V33.3585H150.006ZM165.866 33.4485C164.93 33.4485 164.09 33.2445 163.346 32.8365C162.614 32.4165 162.038 31.8465 161.618 31.1265C161.198 30.3945 160.988 29.5605 160.988 28.6245C160.988 27.6765 161.198 26.8425 161.618 26.1225C162.038 25.4025 162.614 24.8385 163.346 24.4305C164.09 24.0225 164.93 23.8185 165.866 23.8185C166.67 23.8185 167.396 23.9745 168.044 24.2865C168.692 24.5985 169.202 25.0665 169.574 25.6905L168.62 26.3385C168.296 25.8585 167.894 25.5045 167.414 25.2765C166.934 25.0485 166.412 24.9345 165.848 24.9345C165.176 24.9345 164.57 25.0905 164.03 25.4025C163.49 25.7025 163.064 26.1285 162.752 26.6805C162.44 27.2325 162.284 27.8805 162.284 28.6245C162.284 29.3685 162.44 30.0165 162.752 30.5685C163.064 31.1205 163.49 31.5525 164.03 31.8645C164.57 32.1645 165.176 32.3145 165.848 32.3145C166.412 32.3145 166.934 32.2005 167.414 31.9725C167.894 31.7445 168.296 31.3965 168.62 30.9285L169.574 31.5765C169.202 32.1885 168.692 32.6565 168.044 32.9805C167.396 33.2925 166.67 33.4485 165.866 33.4485ZM175.778 33.4485C174.866 33.4485 174.044 33.2445 173.312 32.8365C172.592 32.4165 172.022 31.8465 171.602 31.1265C171.182 30.3945 170.972 29.5605 170.972 28.6245C170.972 27.6765 171.182 26.8425 171.602 26.1225C172.022 25.4025 172.592 24.8385 173.312 24.4305C174.032 24.0225 174.854 23.8185 175.778 23.8185C176.714 23.8185 177.542 24.0225 178.262 24.4305C178.994 24.8385 179.564 25.4025 179.972 26.1225C180.392 26.8425 180.602 27.6765 180.602 28.6245C180.602 29.5605 180.392 30.3945 179.972 31.1265C179.564 31.8465 178.994 32.4165 178.262 32.8365C177.53 33.2445 176.702 33.4485 175.778 33.4485ZM175.778 32.3145C176.462 32.3145 177.068 32.1645 177.596 31.8645C178.124 31.5525 178.538 31.1205 178.838 30.5685C179.15 30.0045 179.306 29.3565 179.306 28.6245C179.306 27.8805 179.15 27.2325 178.838 26.6805C178.538 26.1285 178.124 25.7025 177.596 25.4025C177.068 25.0905 176.468 24.9345 175.796 24.9345C175.124 24.9345 174.524 25.0905 173.996 25.4025C173.468 25.7025 173.048 26.1285 172.736 26.6805C172.424 27.2325 172.268 27.8805 172.268 28.6245C172.268 29.3565 172.424 30.0045 172.736 30.5685C173.048 31.1205 173.468 31.5525 173.996 31.8645C174.524 32.1645 175.118 32.3145 175.778 32.3145ZM188.035 23.8185C188.803 23.8185 189.475 23.9685 190.051 24.2685C190.639 24.5565 191.095 25.0005 191.419 25.6005C191.755 26.2005 191.923 26.9565 191.923 27.8685V33.3585H190.645V27.9945C190.645 26.9985 190.393 26.2485 189.889 25.7445C189.397 25.2285 188.701 24.9705 187.801 24.9705C187.129 24.9705 186.541 25.1085 186.037 25.3845C185.545 25.6485 185.161 26.0385 184.885 26.5545C184.621 27.0585 184.489 27.6705 184.489 28.3905V33.3585H183.211V23.9085H184.435V26.5005L184.237 26.0145C184.537 25.3305 185.017 24.7965 185.677 24.4125C186.337 24.0165 187.123 23.8185 188.035 23.8185ZM198.34 33.3585L204.1 20.7585H205.414L211.174 33.3585H209.77L204.478 21.5325H205.018L199.726 33.3585H198.34ZM200.608 29.9925L201.004 28.9125H208.33L208.726 29.9925H200.608ZM217.867 33.4485C217.051 33.4485 216.313 33.2625 215.653 32.8905C214.993 32.5065 214.465 31.9605 214.069 31.2525C213.685 30.5325 213.493 29.6565 213.493 28.6245C213.493 27.5925 213.685 26.7225 214.069 26.0145C214.453 25.2945 214.975 24.7485 215.635 24.3765C216.295 24.0045 217.039 23.8185 217.867 23.8185C218.767 23.8185 219.571 24.0225 220.279 24.4305C220.999 24.8265 221.563 25.3905 221.971 26.1225C222.379 26.8425 222.583 27.6765 222.583 28.6245C222.583 29.5845 222.379 30.4245 221.971 31.1445C221.563 31.8645 220.999 32.4285 220.279 32.8365C219.571 33.2445 218.767 33.4485 217.867 33.4485ZM212.989 36.8505V23.9085H214.213V26.7525L214.087 28.6425L214.267 30.5505V36.8505H212.989ZM217.777 32.3145C218.449 32.3145 219.049 32.1645 219.577 31.8645C220.105 31.5525 220.525 31.1205 220.837 30.5685C221.149 30.0045 221.305 29.3565 221.305 28.6245C221.305 27.8925 221.149 27.2505 220.837 26.6985C220.525 26.1465 220.105 25.7145 219.577 25.4025C219.049 25.0905 218.449 24.9345 217.777 24.9345C217.105 24.9345 216.499 25.0905 215.959 25.4025C215.431 25.7145 215.011 26.1465 214.699 26.6985C214.399 27.2505 214.249 27.8925 214.249 28.6245C214.249 29.3565 214.399 30.0045 214.699 30.5685C215.011 31.1205 215.431 31.5525 215.959 31.8645C216.499 32.1645 217.105 32.3145 217.777 32.3145ZM230.066 33.4485C229.25 33.4485 228.512 33.2625 227.852 32.8905C227.192 32.5065 226.664 31.9605 226.268 31.2525C225.884 30.5325 225.692 29.6565 225.692 28.6245C225.692 27.5925 225.884 26.7225 226.268 26.0145C226.652 25.2945 227.174 24.7485 227.834 24.3765C228.494 24.0045 229.238 23.8185 230.066 23.8185C230.966 23.8185 231.77 24.0225 232.478 24.4305C233.198 24.8265 233.762 25.3905 234.17 26.1225C234.578 26.8425 234.782 27.6765 234.782 28.6245C234.782 29.5845 234.578 30.4245 234.17 31.1445C233.762 31.8645 233.198 32.4285 232.478 32.8365C231.77 33.2445 230.966 33.4485 230.066 33.4485ZM225.188 36.8505V23.9085H226.412V26.7525L226.286 28.6425L226.466 30.5505V36.8505H225.188ZM229.976 32.3145C230.648 32.3145 231.248 32.1645 231.776 31.8645C232.304 31.5525 232.724 31.1205 233.036 30.5685C233.348 30.0045 233.504 29.3565 233.504 28.6245C233.504 27.8925 233.348 27.2505 233.036 26.6985C232.724 26.1465 232.304 25.7145 231.776 25.4025C231.248 25.0905 230.648 24.9345 229.976 24.9345C229.304 24.9345 228.698 25.0905 228.158 25.4025C227.63 25.7145 227.21 26.1465 226.898 26.6985C226.598 27.2505 226.448 27.8925 226.448 28.6245C226.448 29.3565 226.598 30.0045 226.898 30.5685C227.21 31.1205 227.63 31.5525 228.158 31.8645C228.698 32.1645 229.304 32.3145 229.976 32.3145ZM237.387 33.3585V20.0025H238.665V33.3585H237.387ZM246.235 33.4485C245.251 33.4485 244.387 33.2445 243.643 32.8365C242.899 32.4165 242.317 31.8465 241.897 31.1265C241.477 30.3945 241.267 29.5605 241.267 28.6245C241.267 27.6885 241.465 26.8605 241.861 26.1405C242.269 25.4205 242.821 24.8565 243.517 24.4485C244.225 24.0285 245.017 23.8185 245.893 23.8185C246.781 23.8185 247.567 24.0225 248.251 24.4305C248.947 24.8265 249.493 25.3905 249.889 26.1225C250.285 26.8425 250.483 27.6765 250.483 28.6245C250.483 28.6845 250.477 28.7505 250.465 28.8225C250.465 28.8825 250.465 28.9485 250.465 29.0205H242.239V28.0665H249.781L249.277 28.4445C249.277 27.7605 249.127 27.1545 248.827 26.6265C248.539 26.0865 248.143 25.6665 247.639 25.3665C247.135 25.0665 246.553 24.9165 245.893 24.9165C245.245 24.9165 244.663 25.0665 244.147 25.3665C243.631 25.6665 243.229 26.0865 242.941 26.6265C242.653 27.1665 242.509 27.7845 242.509 28.4805V28.6785C242.509 29.3985 242.665 30.0345 242.977 30.5865C243.301 31.1265 243.745 31.5525 244.309 31.8645C244.885 32.1645 245.539 32.3145 246.271 32.3145C246.847 32.3145 247.381 32.2125 247.873 32.0085C248.377 31.8045 248.809 31.4925 249.169 31.0725L249.889 31.9005C249.469 32.4045 248.941 32.7885 248.305 33.0525C247.681 33.3165 246.991 33.4485 246.235 33.4485Z" fill="black"/>
</svg>
