<svg width="43" height="66" viewBox="0 0 43 66" fill="none" xmlns="http://www.w3.org/2000/svg">
<g clip-path="url(#clip0_6_430)">
<path d="M9.97887 40.9885C9.83997 38.7622 9.91308 36.5277 10.1972 34.3155C10.5775 30.5783 10.7887 26.8056 11.8591 23.1606C12.287 21.3875 13.1188 19.739 14.2887 18.3455C15.5018 17.1075 17.0624 16.2734 18.7606 15.9557C21.8656 15.2836 25.1064 15.733 27.9155 17.2251C29.7455 18.2751 31.2665 19.7946 32.3239 21.6289C33.8156 24.0117 34.5388 26.8008 34.3944 29.6138C34.2957 31.3096 34.2957 33.0097 34.3944 34.7055C34.5654 36.3187 34.6101 37.9429 34.5282 39.5631C34.3451 41.9175 34.4225 44.2931 33.8239 46.6049C33.1509 48.8163 31.8304 50.7714 30.0352 52.2142C29.1502 53.1549 27.9772 53.7692 26.7042 53.9587C25.8926 53.9882 25.0901 54.1413 24.3239 54.4126C23.4859 54.7459 22.6831 55.1714 21.838 55.4763C20.162 56.072 18.662 55.3061 17.1479 54.7672C14.827 53.8365 12.8407 52.2196 11.4507 50.1294C10.6197 48.9805 10.4507 47.5197 10.162 46.144C9.79577 44.4278 10.0493 42.7046 9.97887 40.9885ZM29.5775 37.8895C29.7549 34.3199 29.3723 30.7445 28.4437 27.2949C27.7887 24.9335 27.2746 22.5011 25.8028 20.4375C24.8239 19.0547 23.6901 18.0761 21.831 18.2321C20.9901 18.344 20.1438 18.4103 19.2958 18.4306C18.8093 18.3979 18.3223 18.4863 17.8777 18.6879C17.4331 18.8894 17.0446 19.1981 16.7465 19.5865C15.7462 20.7563 15.0044 22.1269 14.5704 23.6074C13.6521 26.9624 13.0763 30.403 12.8521 33.8758C12.6056 38.2087 12.7253 42.5486 14.338 46.6404C15.1901 48.8174 15.8873 51.1222 18 52.5192C18.8803 53.1007 19.7535 53.824 20.8662 53.6893C22.032 53.5237 23.1867 53.2869 24.3239 52.9801C25.3142 52.816 26.2187 52.3155 26.8873 51.5618C28.3685 49.4856 29.2242 47.0236 29.3521 44.4704C29.6363 42.2891 29.7117 40.0854 29.5775 37.8895ZM30.5634 30.2024C30.489 30.7554 30.489 31.3159 30.5634 31.8689C30.8656 32.9676 31.0079 34.1046 30.9859 35.2444C30.9859 37.5775 30.9859 39.9106 30.9859 42.2366C30.9588 43.0573 30.8575 43.8738 30.6831 44.676C30.6197 44.981 30.493 45.3001 30.8028 45.3852C31.1127 45.4703 31.1972 45.0306 31.2746 44.8179C31.7457 43.4238 32.0207 41.9701 32.0915 40.4992C32.2394 38.3718 31.8451 36.2443 31.669 34.1523C31.5634 32.8263 31.5 31.4151 30.5775 30.2024H30.5634ZM14.2183 50.4059C13.8803 49.5904 13.5141 48.7749 13.2183 47.9452C12.6338 46.4205 12.5141 44.7753 12.0493 43.2294C11.9789 43.0166 11.9437 42.6479 11.6408 42.6833C11.338 42.7188 11.3028 43.0663 11.2958 43.3925C11.3034 44.8395 11.5412 46.276 12 47.6474C12.1364 48.247 12.4073 48.8073 12.7917 49.2855C13.1762 49.7636 13.6642 50.1468 14.2183 50.4059ZM32.4859 29.706C32.9234 28.705 32.981 27.5771 32.6479 26.5361C32.451 25.3651 32.0067 24.2503 31.3451 23.267C31.1972 23.0613 31.0422 23.0188 30.8873 23.0968C30.7324 23.1748 30.838 23.3379 30.8873 23.4939C31.4225 25.5292 31.9507 27.6566 32.4859 29.706ZM29.1549 23.8059C29.29 23.1107 29.1619 22.3898 28.7958 21.7849C28.7958 21.6998 28.6831 21.5438 28.5211 21.6147C28.4919 21.6242 28.465 21.6396 28.4419 21.6599C28.4189 21.6803 28.4002 21.7052 28.387 21.7331C28.3738 21.7609 28.3664 21.7912 28.3652 21.8221C28.3641 21.853 28.3692 21.8837 28.3803 21.9125C28.4616 22.6031 28.7296 23.2581 29.1549 23.8059Z" fill="#1A1A1A"/>
<path d="M5.53206e-07 56.5471C5.53206e-07 53.7673 0.0422541 50.9874 5.53206e-07 48.2218C-0.0252149 48.0572 -0.0150572 47.8892 0.029787 47.7289C0.0746312 47.5687 0.153117 47.42 0.259937 47.293C0.366758 47.1659 0.499425 47.0634 0.648969 46.9924C0.798513 46.9214 0.961448 46.8836 1.12676 46.8815C1.83099 46.7893 2.47183 46.7609 2.71127 47.7396C2.99699 48.863 3.1669 50.0132 3.21831 51.1718C3.30282 53.6822 3.64789 56.1925 3.42254 58.7029C3.32394 59.7737 3.29578 60.8303 3.24648 61.9224C3.24648 62.4827 3.42254 62.6316 3.9507 62.6316C6.55634 62.6316 9.16197 62.6741 11.7606 62.6316C11.9317 62.6043 12.1066 62.614 12.2736 62.6602C12.4406 62.7064 12.596 62.7879 12.7293 62.8993C12.8626 63.0107 12.9707 63.1494 13.0466 63.3062C13.1224 63.4631 13.1641 63.6344 13.169 63.8088C13.2282 63.9629 13.2549 64.1277 13.2475 64.2927C13.24 64.4578 13.1986 64.6195 13.1257 64.7676C13.0529 64.9156 12.9502 65.0468 12.8243 65.1527C12.6984 65.2587 12.552 65.3371 12.3944 65.383C10.2817 66.2127 8.11268 66.0922 5.91549 66.0496C4.1338 66.0496 2.39437 65.8227 0.612677 65.7376C0.0422541 65.7376 0.0211273 65.4823 0.0281696 65.0285C5.54137e-07 62.1706 5.53206e-07 59.3553 5.53206e-07 56.5471ZM1.40845 58.788C2.1831 56.5826 1.3169 54.37 1.40845 52.1646V58.788ZM6.97183 64.1562C8.09121 64.4633 9.2765 64.4238 10.3732 64.0428C9.23706 63.8764 8.08056 63.9148 6.95775 64.1562H6.97183Z" fill="#1A1A1A"/>
<path d="M42.9577 6.68012C42.9577 8.50262 42.9577 10.318 42.9577 12.1405C42.9577 12.7646 42.8521 13.3603 42.169 13.4241C41.4859 13.4879 40.6268 13.7857 40.2746 12.7149C39.978 11.8617 39.7818 10.9763 39.6901 10.0769C39.5211 8.19769 39.7324 6.33973 39.7394 4.46759C39.7394 3.57407 39.4577 3.43933 38.669 3.46061C36.2887 3.50316 33.9085 3.46061 31.5282 3.46061C30.9578 3.46061 30.338 3.46061 30.1831 2.75146C29.8873 1.38991 30.0211 1.1488 31.0211 0.737495C32.9887 -0.0333027 35.1344 -0.220331 37.2042 0.198546C37.5148 0.270192 37.8374 0.270192 38.1479 0.198546C39.2887 -0.191483 40.3662 0.198546 41.4577 0.404198C41.5775 0.404198 41.7113 0.510569 41.8169 0.489295C43.338 0.113449 42.9577 1.21262 42.9577 1.98559C42.9577 3.5457 42.9577 5.11291 42.9577 6.68012ZM36.3028 1.87922C35.0704 1.29063 34.0352 1.95722 32.9718 1.91467C34.0615 2.2326 35.2201 2.22027 36.3028 1.87922ZM41.6056 7.29707C41.0141 8.58772 41.2887 9.90672 41.6056 11.2257V7.29707Z" fill="#1A1A1A"/>
<path d="M21.2394 13.8425C20.6268 13.9063 19.831 13.8779 19.5634 13.1333C19.2958 12.3887 20.0141 11.786 20.5986 11.3888C22.1757 10.2735 23.8864 9.36336 25.6901 8.67991C26.3944 8.43171 26.6761 8.67991 26.5563 9.38905C26.2183 11.3463 23.338 13.8425 21.2394 13.8425Z" fill="#1A1A1A"/>
</g>
<defs>
<clipPath id="clip0_6_430">
<rect width="43" height="66" fill="white"/>
</clipPath>
</defs>
</svg>
