<svg width="17" height="26" viewBox="0 0 17 26" fill="none" xmlns="http://www.w3.org/2000/svg">
<path d="M3.88175 15.7166C3.78471 14.8432 3.88175 14.0183 3.97879 13.145C4.12436 11.7378 4.2214 10.2822 4.60957 8.87507C4.80366 8.19577 5.09478 7.51647 5.53148 7.03126C5.96817 6.54605 6.59895 6.25492 7.22972 6.10935C8.44276 5.86675 9.65579 6.01231 10.7718 6.59457C11.4996 6.98274 12.0333 7.56499 12.47 8.29282C13.0523 9.21472 13.2949 10.2337 13.2464 11.3497C13.2464 11.9804 13.1979 12.6597 13.2464 13.2905C13.2949 13.9213 13.3434 14.5521 13.2949 15.1343C13.2464 16.0562 13.2464 16.9296 13.0038 17.803C12.7612 18.6764 12.2274 19.3557 11.5481 19.9379C11.16 20.2776 10.7718 20.5687 10.2866 20.6172C9.99544 20.6172 9.65579 20.6658 9.36467 20.8113C9.02502 20.9569 8.73389 21.1025 8.39424 21.1995C7.76346 21.4421 7.1812 21.151 6.59895 20.9084C5.67704 20.5687 4.94922 19.9379 4.41548 19.1131C4.07583 18.6764 4.02731 18.0941 3.93027 17.6089C3.83323 17.0267 3.93027 16.3474 3.88175 15.7166ZM11.4511 14.5036C11.4996 13.0964 11.354 11.7378 11.0144 10.4763C10.7718 9.55437 10.5777 8.63247 9.99544 7.85612C9.60727 7.32239 9.17058 6.93422 8.44276 7.03126C8.10311 7.07978 7.81198 7.1283 7.47233 7.1283C7.03564 7.1283 6.74451 7.27387 6.5019 7.56499C6.11373 8.00169 5.8226 8.53542 5.67704 9.11768C5.33739 10.4278 5.09478 11.7378 4.99774 13.0479C4.9007 14.6976 4.94922 16.3474 5.58 17.9486C5.91965 18.7734 6.16225 19.6468 6.98712 20.1806C7.32677 20.4232 7.66642 20.6658 8.10311 20.6172C8.5398 20.5687 8.97649 20.4232 9.41319 20.3261C9.80136 20.2291 10.141 20.0835 10.3836 19.7924C11.0144 19.016 11.257 18.0456 11.354 17.0752C11.4026 16.2018 11.4996 15.3284 11.4511 14.5036ZM11.7907 11.5923C11.7907 11.7864 11.7422 12.029 11.7907 12.223C11.9363 12.6597 11.9363 13.0964 11.9363 13.5331C11.9363 14.4065 11.9363 15.3284 11.9363 16.2018C11.9363 16.4929 11.8878 16.8326 11.8393 17.1237C11.8393 17.2207 11.7422 17.3663 11.8878 17.4148C12.0333 17.4634 12.0333 17.2693 12.0819 17.1722C12.2759 16.6385 12.373 16.1048 12.373 15.5225C12.4215 14.6976 12.2759 13.9213 12.2274 13.0964C12.1789 12.6112 12.1789 12.0775 11.7907 11.5923ZM5.53148 19.3072C5.38591 19.016 5.28887 18.6764 5.14331 18.3853C4.9007 17.803 4.9007 17.1722 4.70661 16.59C4.65809 16.4929 4.65809 16.3474 4.56105 16.3959C4.36696 16.3959 4.36696 16.4929 4.36696 16.6385C4.36696 17.1722 4.46401 17.7545 4.60957 18.2882C4.80366 18.6764 4.99774 19.1131 5.53148 19.3072ZM12.5671 11.3982C12.7612 10.9615 12.7126 10.5733 12.6156 10.1851C12.5186 9.74846 12.373 9.31176 12.1304 8.92359C12.0819 8.82655 12.0333 8.82655 11.9363 8.87507C11.8878 8.92359 11.9363 8.97212 11.9363 9.02064C12.1304 9.79698 12.3245 10.6218 12.5671 11.3982ZM11.257 9.1662C11.354 8.87507 11.2085 8.63247 11.1114 8.38986C11.1114 8.34134 11.0629 8.29282 11.0144 8.34134C10.9659 8.34134 10.9659 8.38986 10.9659 8.43838C11.0144 8.68099 11.0629 8.92359 11.257 9.1662Z" fill="white"/>
<path d="M0 21.6845C0 20.617 0 19.5495 0 18.482C0 18.1424 0.145564 17.9968 0.436692 17.9483C0.679299 17.8998 0.970428 17.8998 1.06747 18.288C1.16451 18.7246 1.26156 19.1613 1.26156 19.598C1.31008 20.5685 1.40712 21.5389 1.3586 22.4608C1.31008 22.849 1.31008 23.2857 1.31008 23.6738C1.31008 23.8679 1.3586 23.9164 1.60121 23.9164C2.62015 23.9164 3.59058 23.9164 4.60953 23.9164C4.94918 23.9164 5.09475 24.1105 5.14327 24.3531C5.19179 24.5957 5.19179 24.8383 4.85214 24.9354C3.93023 25.3236 3.10537 25.275 2.2805 25.275C1.60121 25.275 0.921906 25.178 0.242607 25.178C0 25.1295 0 25.0324 0 24.8869C0 23.8194 0 22.7519 0 21.6845ZM0.533735 22.5093C0.824863 21.6845 0.485214 20.8111 0.533735 19.9862C0.533735 20.8111 0.533735 21.6845 0.533735 22.5093ZM2.66868 24.5472C3.10537 24.6928 3.54206 24.5957 3.97875 24.4987C3.54206 24.4987 3.10537 24.4502 2.66868 24.5472Z" fill="white"/>
<path d="M16.5946 2.61551C16.5946 3.29481 16.5946 4.02263 16.5946 4.70193C16.5946 4.94454 16.5461 5.18714 16.3035 5.18714C16.0124 5.18714 15.6727 5.33271 15.5271 4.89601C15.4301 4.55637 15.3331 4.21671 15.2845 3.87707C15.236 3.14924 15.2845 2.46995 15.2845 1.74212C15.2845 1.40247 15.1875 1.35395 14.8478 1.35395C13.9259 1.35395 13.004 1.35395 12.0821 1.35395C11.8395 1.35395 11.6454 1.35395 11.5484 1.06283C11.4513 0.52909 11.4999 0.432047 11.888 0.286483C12.6644 -0.0531667 13.4407 -0.0531668 14.2656 0.0923974C14.3626 0.0923974 14.5082 0.140919 14.6538 0.0923974C15.0905 -0.0531668 15.5271 0.0923974 15.9153 0.18944C15.9638 0.18944 16.0124 0.237962 16.0609 0.237962C16.6431 0.0923974 16.4976 0.52909 16.4976 0.820218C16.5946 1.40247 16.5946 1.98473 16.5946 2.61551ZM14.023 0.771697C13.5378 0.52909 13.1496 0.820218 12.7614 0.771697C13.1496 0.86874 13.5863 0.917261 14.023 0.771697ZM16.0609 2.85812C15.8183 3.34333 15.9153 3.87707 16.0609 4.36228C16.0609 3.82854 16.0609 3.34333 16.0609 2.85812Z" fill="white"/>
<path d="M8.20048 5.33311C7.95782 5.33311 7.66663 5.33311 7.56957 5.04193C7.47251 4.75074 7.7637 4.55661 7.95782 4.41102C8.58873 4.02277 9.21963 3.63452 9.89907 3.39187C10.1903 3.2948 10.2873 3.39187 10.2388 3.68305C10.1417 4.41102 9.02551 5.33311 8.20048 5.33311Z" fill="white"/>
</svg>
