<svg width="24" height="24" viewBox="0 0 24 24" fill="none" xmlns="http://www.w3.org/2000/svg">
<path d="M12.0273 23.6595C18.5296 23.6595 23.8008 18.3632 23.8008 11.8298C23.8008 5.29636 18.5296 0 12.0273 0C5.52505 0 0.253906 5.29636 0.253906 11.8298C0.253906 18.3632 5.52505 23.6595 12.0273 23.6595Z" fill="#010201"/>
<path d="M12.0279 5.72356C14.0075 5.72356 14.2413 5.72356 15.0227 5.76738C15.4932 5.77221 15.9594 5.85878 16.4006 6.02325C16.7198 6.14751 17.0097 6.33732 17.2518 6.58054C17.4939 6.82377 17.6828 7.11506 17.8064 7.43581C17.9701 7.87911 18.0563 8.34752 18.0611 8.82033C18.0977 9.60548 18.1047 9.84032 18.1047 11.8295C18.1047 13.8186 18.1047 14.0535 18.0611 14.8386C18.0563 15.3114 17.9701 15.7798 17.8064 16.2231C17.6828 16.5439 17.4939 16.8352 17.2518 17.0784C17.0097 17.3216 16.7198 17.5114 16.4006 17.6357C15.9594 17.8002 15.4932 17.8867 15.0227 17.8916C14.2413 17.9284 14.0075 17.9354 12.0279 17.9354C10.0482 17.9354 9.81445 17.9354 9.03305 17.8916C8.56303 17.887 8.09737 17.8004 7.65686 17.6357C7.3385 17.511 7.04952 17.321 6.80836 17.0778C6.5672 16.8346 6.37916 16.5435 6.25626 16.2231C6.09257 15.7798 6.00642 15.3114 6.0016 14.8386C5.96498 14.0535 5.958 13.8186 5.958 11.8295C5.958 9.84032 5.958 9.60548 6.0016 8.82033C6.00642 8.34752 6.09257 7.87911 6.25626 7.43581C6.37858 7.11597 6.56581 6.82521 6.80604 6.58202C7.04627 6.33884 7.33424 6.14854 7.65163 6.02325C8.09214 5.8585 8.5578 5.77192 9.02781 5.76738C9.80922 5.73057 10.0429 5.72356 12.0226 5.72356M12.0226 4.3811C10.0098 4.3811 9.75515 4.38987 8.96677 4.42667C8.35127 4.43969 7.74251 4.55823 7.16674 4.77718C6.67412 4.96824 6.22673 5.26076 5.85335 5.63593C5.47996 6.01111 5.18883 6.46063 4.99868 6.95561C4.78078 7.53414 4.6628 8.14581 4.64984 8.76425C4.61321 9.55816 4.60449 9.81578 4.60449 11.8347C4.60449 13.8537 4.60449 14.1131 4.64984 14.9052C4.6628 15.5236 4.78078 16.1353 4.99868 16.7138C5.18883 17.2088 5.47996 17.6583 5.85335 18.0335C6.22673 18.4087 6.67412 18.7012 7.16674 18.8923C7.74251 19.1112 8.35127 19.2298 8.96677 19.2428C9.75689 19.2796 10.0133 19.2884 12.0226 19.2884C14.032 19.2884 14.2901 19.2884 15.0785 19.2428C15.694 19.2298 16.3027 19.1112 16.8785 18.8923C17.3711 18.7012 17.8185 18.4087 18.1919 18.0335C18.5653 17.6583 18.8564 17.2088 19.0466 16.7138C19.2645 16.1353 19.3824 15.5236 19.3954 14.9052C19.432 14.1113 19.4408 13.8537 19.4408 11.8347C19.4408 9.81578 19.4407 9.5564 19.3954 8.76425C19.3824 8.14581 19.2645 7.53414 19.0466 6.95561C18.8564 6.46063 18.5653 6.01111 18.1919 5.63593C17.8185 5.26076 17.3711 4.96824 16.8785 4.77718C16.3027 4.55823 15.694 4.43969 15.0785 4.42667C14.2883 4.38987 14.032 4.3811 12.0226 4.3811Z" fill="white"/>
<path d="M12.0285 8.00537C11.2758 8.00537 10.54 8.22965 9.9141 8.64984C9.28823 9.07004 8.80042 9.66728 8.51236 10.366C8.2243 11.0648 8.14894 11.8337 8.29579 12.5755C8.44264 13.3173 8.80511 13.9987 9.33737 14.5335C9.86963 15.0683 10.5478 15.4325 11.286 15.58C12.0243 15.7276 12.7895 15.6519 13.485 15.3624C14.1804 15.073 14.7748 14.5829 15.193 13.954C15.6112 13.3251 15.8344 12.5858 15.8344 11.8294C15.8344 11.3273 15.736 10.83 15.5447 10.366C15.3534 9.90208 15.0731 9.48052 14.7197 9.12542C14.3663 8.77032 13.9467 8.48864 13.485 8.29646C13.0232 8.10428 12.5283 8.00537 12.0285 8.00537ZM12.0285 14.3146C11.5398 14.3146 11.062 14.169 10.6556 13.8962C10.2492 13.6234 9.9324 13.2356 9.74528 12.782C9.55816 12.3283 9.50912 11.829 9.60434 11.3474C9.69957 10.8657 9.93479 10.4232 10.2803 10.0758C10.6257 9.72844 11.066 9.49178 11.5453 9.39576C12.0246 9.29974 12.5215 9.34867 12.9731 9.53636C13.4248 9.72405 13.8109 10.0421 14.0827 10.4502C14.3545 10.8584 14.4997 11.3384 14.5001 11.8294C14.4996 12.4879 14.2391 13.1193 13.7757 13.5849C13.3123 14.0506 12.6839 14.3124 12.0285 14.3128V14.3146Z" fill="white"/>
<path d="M15.9857 8.74708C16.477 8.74708 16.8753 8.34691 16.8753 7.85328C16.8753 7.35964 16.477 6.95947 15.9857 6.95947C15.4945 6.95947 15.0962 7.35964 15.0962 7.85328C15.0962 8.34691 15.4945 8.74708 15.9857 8.74708Z" fill="white"/>
</svg>
