<svg width="310" height="55" viewBox="0 0 310 55" fill="none" xmlns="http://www.w3.org/2000/svg">
<rect x="0.5" y="0.5" width="309" height="54" rx="27" fill="black" stroke="black"/>
<g clip-path="url(#clip0_6_443)">
<path d="M48.1637 36.7727C46.0637 38.7852 43.0844 40 39.1833 40C34.1768 40 29.658 36.9769 27.4409 32.5694L31.8419 29.0642C32.8617 32.3061 35.7632 34.6447 39.1833 34.6447C41.0974 34.6447 42.6438 34.1598 43.8359 33.3258L48.1637 36.7727Z" fill="#34A853"/>
<path d="M31.4508 26.5C31.4497 27.3701 31.5817 28.2351 31.8419 29.0642L27.4402 32.5694C26.4931 30.6907 25.9992 28.6104 25.9992 26.5C25.9992 24.3896 26.4931 22.3093 27.4402 20.4306L31.8419 23.9362C31.5817 24.7651 31.4497 25.63 31.4508 26.5Z" fill="#FBBC05"/>
<path d="M48.135 16.6201L44.3973 20.3589C43.0697 19.1112 41.2795 18.3555 39.1833 18.3555C35.7631 18.3555 32.8617 20.6941 31.8419 23.9362L27.4411 20.4306C29.658 16.0231 34.1771 13 39.1833 13C42.8225 13 45.9051 14.3749 48.135 16.6201Z" fill="#EA4335"/>
<path d="M52 26.5C52.0019 27.4302 51.9342 28.3592 51.7975 29.279C51.3485 32.2551 50.1491 34.8703 48.1637 36.7727L43.8359 33.3256C45.204 32.3684 46.1057 30.9513 46.5621 29.279H39.3594V24.278H51.8426C51.9479 25.0138 52.0005 25.7565 52 26.5Z" fill="#4285F4"/>
</g>
<path d="M81.5514 33.3586L87.3114 20.7586H88.6254L94.3854 33.3586H92.9814L87.6894 21.5326H88.2294L82.9374 33.3586H81.5514ZM83.8194 29.9926L84.2154 28.9126H91.5414L91.9374 29.9926H83.8194ZM100.036 33.4486C99.0999 33.4486 98.2599 33.2446 97.5159 32.8366C96.7839 32.4166 96.2079 31.8466 95.7879 31.1266C95.3679 30.3946 95.1579 29.5606 95.1579 28.6246C95.1579 27.6766 95.3679 26.8426 95.7879 26.1226C96.2079 25.4026 96.7839 24.8386 97.5159 24.4306C98.2599 24.0226 99.0999 23.8186 100.036 23.8186C100.84 23.8186 101.566 23.9746 102.214 24.2866C102.862 24.5986 103.372 25.0666 103.744 25.6906L102.79 26.3386C102.466 25.8586 102.064 25.5046 101.584 25.2766C101.104 25.0486 100.582 24.9346 100.018 24.9346C99.3459 24.9346 98.7399 25.0906 98.1999 25.4026C97.6599 25.7026 97.2339 26.1286 96.9219 26.6806C96.6099 27.2326 96.4539 27.8806 96.4539 28.6246C96.4539 29.3686 96.6099 30.0166 96.9219 30.5686C97.2339 31.1206 97.6599 31.5526 98.1999 31.8646C98.7399 32.1646 99.3459 32.3146 100.018 32.3146C100.582 32.3146 101.104 32.2006 101.584 31.9726C102.064 31.7446 102.466 31.3966 102.79 30.9286L103.744 31.5766C103.372 32.1886 102.862 32.6566 102.214 32.9806C101.566 33.2926 100.84 33.4486 100.036 33.4486ZM110.02 33.4486C109.084 33.4486 108.244 33.2446 107.5 32.8366C106.768 32.4166 106.192 31.8466 105.772 31.1266C105.352 30.3946 105.142 29.5606 105.142 28.6246C105.142 27.6766 105.352 26.8426 105.772 26.1226C106.192 25.4026 106.768 24.8386 107.5 24.4306C108.244 24.0226 109.084 23.8186 110.02 23.8186C110.824 23.8186 111.55 23.9746 112.198 24.2866C112.846 24.5986 113.356 25.0666 113.728 25.6906L112.774 26.3386C112.45 25.8586 112.048 25.5046 111.568 25.2766C111.088 25.0486 110.566 24.9346 110.002 24.9346C109.33 24.9346 108.724 25.0906 108.184 25.4026C107.644 25.7026 107.218 26.1286 106.906 26.6806C106.594 27.2326 106.438 27.8806 106.438 28.6246C106.438 29.3686 106.594 30.0166 106.906 30.5686C107.218 31.1206 107.644 31.5526 108.184 31.8646C108.724 32.1646 109.33 32.3146 110.002 32.3146C110.566 32.3146 111.088 32.2006 111.568 31.9726C112.048 31.7446 112.45 31.3966 112.774 30.9286L113.728 31.5766C113.356 32.1886 112.846 32.6566 112.198 32.9806C111.55 33.2926 110.824 33.4486 110.02 33.4486ZM120.095 33.4486C119.111 33.4486 118.247 33.2446 117.503 32.8366C116.759 32.4166 116.177 31.8466 115.757 31.1266C115.337 30.3946 115.127 29.5606 115.127 28.6246C115.127 27.6886 115.325 26.8606 115.721 26.1406C116.129 25.4206 116.681 24.8566 117.377 24.4486C118.085 24.0286 118.877 23.8186 119.753 23.8186C120.641 23.8186 121.427 24.0226 122.111 24.4306C122.807 24.8266 123.353 25.3906 123.749 26.1226C124.145 26.8426 124.343 27.6766 124.343 28.6246C124.343 28.6846 124.337 28.7506 124.325 28.8226C124.325 28.8826 124.325 28.9486 124.325 29.0206H116.099V28.0666H123.641L123.137 28.4446C123.137 27.7606 122.987 27.1546 122.687 26.6266C122.399 26.0866 122.003 25.6666 121.499 25.3666C120.995 25.0666 120.413 24.9166 119.753 24.9166C119.105 24.9166 118.523 25.0666 118.007 25.3666C117.491 25.6666 117.089 26.0866 116.801 26.6266C116.513 27.1666 116.369 27.7846 116.369 28.4806V28.6786C116.369 29.3986 116.525 30.0346 116.837 30.5866C117.161 31.1266 117.605 31.5526 118.169 31.8646C118.745 32.1646 119.399 32.3146 120.131 32.3146C120.707 32.3146 121.241 32.2126 121.733 32.0086C122.237 31.8046 122.669 31.4926 123.029 31.0726L123.749 31.9006C123.329 32.4046 122.801 32.7886 122.165 33.0526C121.541 33.3166 120.851 33.4486 120.095 33.4486ZM130.706 33.4486C129.806 33.4486 128.996 33.2446 128.276 32.8366C127.568 32.4286 127.01 31.8646 126.602 31.1446C126.194 30.4126 125.99 29.5726 125.99 28.6246C125.99 27.6646 126.194 26.8246 126.602 26.1046C127.01 25.3846 127.568 24.8266 128.276 24.4306C128.996 24.0226 129.806 23.8186 130.706 23.8186C131.534 23.8186 132.272 24.0046 132.92 24.3766C133.58 24.7486 134.102 25.2946 134.486 26.0146C134.882 26.7226 135.08 27.5926 135.08 28.6246C135.08 29.6446 134.888 30.5146 134.504 31.2346C134.12 31.9546 133.598 32.5066 132.938 32.8906C132.29 33.2626 131.546 33.4486 130.706 33.4486ZM130.796 32.3146C131.468 32.3146 132.068 32.1646 132.596 31.8646C133.136 31.5526 133.556 31.1206 133.856 30.5686C134.168 30.0046 134.324 29.3566 134.324 28.6246C134.324 27.8806 134.168 27.2326 133.856 26.6806C133.556 26.1286 133.136 25.7026 132.596 25.4026C132.068 25.0906 131.468 24.9346 130.796 24.9346C130.136 24.9346 129.542 25.0906 129.014 25.4026C128.486 25.7026 128.066 26.1286 127.754 26.6806C127.442 27.2326 127.286 27.8806 127.286 28.6246C127.286 29.3566 127.442 30.0046 127.754 30.5686C128.066 31.1206 128.486 31.5526 129.014 31.8646C129.542 32.1646 130.136 32.3146 130.796 32.3146ZM134.36 33.3586V30.5146L134.486 28.6066L134.306 26.6986V20.0026H135.584V33.3586H134.36ZM143.157 33.4486C142.173 33.4486 141.309 33.2446 140.565 32.8366C139.821 32.4166 139.239 31.8466 138.819 31.1266C138.399 30.3946 138.189 29.5606 138.189 28.6246C138.189 27.6886 138.387 26.8606 138.783 26.1406C139.191 25.4206 139.743 24.8566 140.439 24.4486C141.147 24.0286 141.939 23.8186 142.815 23.8186C143.703 23.8186 144.489 24.0226 145.173 24.4306C145.869 24.8266 146.415 25.3906 146.811 26.1226C147.207 26.8426 147.405 27.6766 147.405 28.6246C147.405 28.6846 147.399 28.7506 147.387 28.8226C147.387 28.8826 147.387 28.9486 147.387 29.0206H139.161V28.0666H146.703L146.199 28.4446C146.199 27.7606 146.049 27.1546 145.749 26.6266C145.461 26.0866 145.065 25.6666 144.561 25.3666C144.057 25.0666 143.475 24.9166 142.815 24.9166C142.167 24.9166 141.585 25.0666 141.069 25.3666C140.553 25.6666 140.151 26.0866 139.863 26.6266C139.575 27.1666 139.431 27.7846 139.431 28.4806V28.6786C139.431 29.3986 139.587 30.0346 139.899 30.5866C140.223 31.1266 140.667 31.5526 141.231 31.8646C141.807 32.1646 142.461 32.3146 143.193 32.3146C143.769 32.3146 144.303 32.2126 144.795 32.0086C145.299 31.8046 145.731 31.4926 146.091 31.0726L146.811 31.9006C146.391 32.4046 145.863 32.7886 145.227 33.0526C144.603 33.3166 143.913 33.4486 143.157 33.4486ZM150.006 33.3586V23.9086H151.23V26.4826L151.104 26.0326C151.368 25.3126 151.812 24.7666 152.436 24.3946C153.06 24.0106 153.834 23.8186 154.758 23.8186V25.0606C154.71 25.0606 154.662 25.0606 154.614 25.0606C154.566 25.0486 154.518 25.0426 154.47 25.0426C153.474 25.0426 152.694 25.3486 152.13 25.9606C151.566 26.5606 151.284 27.4186 151.284 28.5346V33.3586H150.006ZM165.866 33.4486C164.93 33.4486 164.09 33.2446 163.346 32.8366C162.614 32.4166 162.038 31.8466 161.618 31.1266C161.198 30.3946 160.988 29.5606 160.988 28.6246C160.988 27.6766 161.198 26.8426 161.618 26.1226C162.038 25.4026 162.614 24.8386 163.346 24.4306C164.09 24.0226 164.93 23.8186 165.866 23.8186C166.67 23.8186 167.396 23.9746 168.044 24.2866C168.692 24.5986 169.202 25.0666 169.574 25.6906L168.62 26.3386C168.296 25.8586 167.894 25.5046 167.414 25.2766C166.934 25.0486 166.412 24.9346 165.848 24.9346C165.176 24.9346 164.57 25.0906 164.03 25.4026C163.49 25.7026 163.064 26.1286 162.752 26.6806C162.44 27.2326 162.284 27.8806 162.284 28.6246C162.284 29.3686 162.44 30.0166 162.752 30.5686C163.064 31.1206 163.49 31.5526 164.03 31.8646C164.57 32.1646 165.176 32.3146 165.848 32.3146C166.412 32.3146 166.934 32.2006 167.414 31.9726C167.894 31.7446 168.296 31.3966 168.62 30.9286L169.574 31.5766C169.202 32.1886 168.692 32.6566 168.044 32.9806C167.396 33.2926 166.67 33.4486 165.866 33.4486ZM175.778 33.4486C174.866 33.4486 174.044 33.2446 173.312 32.8366C172.592 32.4166 172.022 31.8466 171.602 31.1266C171.182 30.3946 170.972 29.5606 170.972 28.6246C170.972 27.6766 171.182 26.8426 171.602 26.1226C172.022 25.4026 172.592 24.8386 173.312 24.4306C174.032 24.0226 174.854 23.8186 175.778 23.8186C176.714 23.8186 177.542 24.0226 178.262 24.4306C178.994 24.8386 179.564 25.4026 179.972 26.1226C180.392 26.8426 180.602 27.6766 180.602 28.6246C180.602 29.5606 180.392 30.3946 179.972 31.1266C179.564 31.8466 178.994 32.4166 178.262 32.8366C177.53 33.2446 176.702 33.4486 175.778 33.4486ZM175.778 32.3146C176.462 32.3146 177.068 32.1646 177.596 31.8646C178.124 31.5526 178.538 31.1206 178.838 30.5686C179.15 30.0046 179.306 29.3566 179.306 28.6246C179.306 27.8806 179.15 27.2326 178.838 26.6806C178.538 26.1286 178.124 25.7026 177.596 25.4026C177.068 25.0906 176.468 24.9346 175.796 24.9346C175.124 24.9346 174.524 25.0906 173.996 25.4026C173.468 25.7026 173.048 26.1286 172.736 26.6806C172.424 27.2326 172.268 27.8806 172.268 28.6246C172.268 29.3566 172.424 30.0046 172.736 30.5686C173.048 31.1206 173.468 31.5526 173.996 31.8646C174.524 32.1646 175.118 32.3146 175.778 32.3146ZM188.035 23.8186C188.803 23.8186 189.475 23.9686 190.051 24.2686C190.639 24.5566 191.095 25.0006 191.419 25.6006C191.755 26.2006 191.923 26.9566 191.923 27.8686V33.3586H190.645V27.9946C190.645 26.9986 190.393 26.2486 189.889 25.7446C189.397 25.2286 188.701 24.9706 187.801 24.9706C187.129 24.9706 186.541 25.1086 186.037 25.3846C185.545 25.6486 185.161 26.0386 184.885 26.5546C184.621 27.0586 184.489 27.6706 184.489 28.3906V33.3586H183.211V23.9086H184.435V26.5006L184.237 26.0146C184.537 25.3306 185.017 24.7966 185.677 24.4126C186.337 24.0166 187.123 23.8186 188.035 23.8186ZM205.882 33.4666C204.922 33.4666 204.034 33.3106 203.218 32.9986C202.414 32.6746 201.712 32.2246 201.112 31.6486C200.524 31.0726 200.062 30.3946 199.726 29.6146C199.402 28.8346 199.24 27.9826 199.24 27.0586C199.24 26.1346 199.402 25.2826 199.726 24.5026C200.062 23.7226 200.53 23.0446 201.13 22.4686C201.73 21.8926 202.432 21.4486 203.236 21.1366C204.052 20.8126 204.94 20.6506 205.9 20.6506C206.86 20.6506 207.736 20.8006 208.528 21.1006C209.332 21.4006 210.016 21.8566 210.58 22.4686L209.752 23.3146C209.224 22.7866 208.642 22.4086 208.006 22.1806C207.37 21.9526 206.686 21.8386 205.954 21.8386C205.174 21.8386 204.454 21.9706 203.794 22.2346C203.146 22.4866 202.576 22.8526 202.084 23.3326C201.604 23.8006 201.226 24.3526 200.95 24.9886C200.686 25.6126 200.554 26.3026 200.554 27.0586C200.554 27.8026 200.686 28.4926 200.95 29.1286C201.226 29.7646 201.604 30.3226 202.084 30.8026C202.576 31.2706 203.146 31.6366 203.794 31.9006C204.454 32.1526 205.168 32.2786 205.936 32.2786C206.656 32.2786 207.334 32.1706 207.97 31.9546C208.618 31.7386 209.212 31.3726 209.752 30.8566L210.508 31.8646C209.908 32.3926 209.206 32.7946 208.402 33.0706C207.598 33.3346 206.758 33.4666 205.882 33.4666ZM209.23 31.7026V27.0586H210.508V31.8646L209.23 31.7026ZM217.86 33.4486C216.948 33.4486 216.126 33.2446 215.394 32.8366C214.674 32.4166 214.104 31.8466 213.684 31.1266C213.264 30.3946 213.054 29.5606 213.054 28.6246C213.054 27.6766 213.264 26.8426 213.684 26.1226C214.104 25.4026 214.674 24.8386 215.394 24.4306C216.114 24.0226 216.936 23.8186 217.86 23.8186C218.796 23.8186 219.624 24.0226 220.344 24.4306C221.076 24.8386 221.646 25.4026 222.054 26.1226C222.474 26.8426 222.684 27.6766 222.684 28.6246C222.684 29.5606 222.474 30.3946 222.054 31.1266C221.646 31.8466 221.076 32.4166 220.344 32.8366C219.612 33.2446 218.784 33.4486 217.86 33.4486ZM217.86 32.3146C218.544 32.3146 219.15 32.1646 219.678 31.8646C220.206 31.5526 220.62 31.1206 220.92 30.5686C221.232 30.0046 221.388 29.3566 221.388 28.6246C221.388 27.8806 221.232 27.2326 220.92 26.6806C220.62 26.1286 220.206 25.7026 219.678 25.4026C219.15 25.0906 218.55 24.9346 217.878 24.9346C217.206 24.9346 216.606 25.0906 216.078 25.4026C215.55 25.7026 215.13 26.1286 214.818 26.6806C214.506 27.2326 214.35 27.8806 214.35 28.6246C214.35 29.3566 214.506 30.0046 214.818 30.5686C215.13 31.1206 215.55 31.5526 216.078 31.8646C216.606 32.1646 217.2 32.3146 217.86 32.3146ZM229.145 33.4486C228.233 33.4486 227.411 33.2446 226.679 32.8366C225.959 32.4166 225.389 31.8466 224.969 31.1266C224.549 30.3946 224.339 29.5606 224.339 28.6246C224.339 27.6766 224.549 26.8426 224.969 26.1226C225.389 25.4026 225.959 24.8386 226.679 24.4306C227.399 24.0226 228.221 23.8186 229.145 23.8186C230.081 23.8186 230.909 24.0226 231.629 24.4306C232.361 24.8386 232.931 25.4026 233.339 26.1226C233.759 26.8426 233.969 27.6766 233.969 28.6246C233.969 29.5606 233.759 30.3946 233.339 31.1266C232.931 31.8466 232.361 32.4166 231.629 32.8366C230.897 33.2446 230.069 33.4486 229.145 33.4486ZM229.145 32.3146C229.829 32.3146 230.435 32.1646 230.963 31.8646C231.491 31.5526 231.905 31.1206 232.205 30.5686C232.517 30.0046 232.673 29.3566 232.673 28.6246C232.673 27.8806 232.517 27.2326 232.205 26.6806C231.905 26.1286 231.491 25.7026 230.963 25.4026C230.435 25.0906 229.835 24.9346 229.163 24.9346C228.491 24.9346 227.891 25.0906 227.363 25.4026C226.835 25.7026 226.415 26.1286 226.103 26.6806C225.791 27.2326 225.635 27.8806 225.635 28.6246C225.635 29.3566 225.791 30.0046 226.103 30.5686C226.415 31.1206 226.835 31.5526 227.363 31.8646C227.891 32.1646 228.485 32.3146 229.145 32.3146ZM240.611 36.9406C239.747 36.9406 238.919 36.8146 238.127 36.5626C237.335 36.3106 236.693 35.9506 236.201 35.4826L236.849 34.5106C237.293 34.9066 237.839 35.2186 238.487 35.4466C239.147 35.6866 239.843 35.8066 240.575 35.8066C241.775 35.8066 242.657 35.5246 243.221 34.9606C243.785 34.4086 244.067 33.5446 244.067 32.3686V30.0106L244.247 28.3906L244.121 26.7706V23.9086H245.345V32.2066C245.345 33.8386 244.943 35.0326 244.139 35.7886C243.347 36.5566 242.171 36.9406 240.611 36.9406ZM240.377 32.9986C239.477 32.9986 238.667 32.8066 237.947 32.4226C237.227 32.0266 236.657 31.4806 236.237 30.7846C235.829 30.0886 235.625 29.2906 235.625 28.3906C235.625 27.4906 235.829 26.6986 236.237 26.0146C236.657 25.3186 237.227 24.7786 237.947 24.3946C238.667 24.0106 239.477 23.8186 240.377 23.8186C241.217 23.8186 241.973 23.9926 242.645 24.3406C243.317 24.6886 243.851 25.2046 244.247 25.8886C244.643 26.5726 244.841 27.4066 244.841 28.3906C244.841 29.3746 244.643 30.2086 244.247 30.8926C243.851 31.5766 243.317 32.0986 242.645 32.4586C241.973 32.8186 241.217 32.9986 240.377 32.9986ZM240.503 31.8646C241.199 31.8646 241.817 31.7206 242.357 31.4326C242.897 31.1326 243.323 30.7246 243.635 30.2086C243.947 29.6806 244.103 29.0746 244.103 28.3906C244.103 27.7066 243.947 27.1066 243.635 26.5906C243.323 26.0746 242.897 25.6726 242.357 25.3846C241.817 25.0846 241.199 24.9346 240.503 24.9346C239.819 24.9346 239.201 25.0846 238.649 25.3846C238.109 25.6726 237.683 26.0746 237.371 26.5906C237.071 27.1066 236.921 27.7066 236.921 28.3906C236.921 29.0746 237.071 29.6806 237.371 30.2086C237.683 30.7246 238.109 31.1326 238.649 31.4326C239.201 31.7206 239.819 31.8646 240.503 31.8646ZM248.901 33.3586V20.0026H250.179V33.3586H248.901ZM257.749 33.4486C256.765 33.4486 255.901 33.2446 255.157 32.8366C254.413 32.4166 253.831 31.8466 253.411 31.1266C252.991 30.3946 252.781 29.5606 252.781 28.6246C252.781 27.6886 252.979 26.8606 253.375 26.1406C253.783 25.4206 254.335 24.8566 255.031 24.4486C255.739 24.0286 256.531 23.8186 257.407 23.8186C258.295 23.8186 259.081 24.0226 259.765 24.4306C260.461 24.8266 261.007 25.3906 261.403 26.1226C261.799 26.8426 261.997 27.6766 261.997 28.6246C261.997 28.6846 261.991 28.7506 261.979 28.8226C261.979 28.8826 261.979 28.9486 261.979 29.0206H253.753V28.0666H261.295L260.791 28.4446C260.791 27.7606 260.641 27.1546 260.341 26.6266C260.053 26.0866 259.657 25.6666 259.153 25.3666C258.649 25.0666 258.067 24.9166 257.407 24.9166C256.759 24.9166 256.177 25.0666 255.661 25.3666C255.145 25.6666 254.743 26.0866 254.455 26.6266C254.167 27.1666 254.023 27.7846 254.023 28.4806V28.6786C254.023 29.3986 254.179 30.0346 254.491 30.5866C254.815 31.1266 255.259 31.5526 255.823 31.8646C256.399 32.1646 257.053 32.3146 257.785 32.3146C258.361 32.3146 258.895 32.2126 259.387 32.0086C259.891 31.8046 260.323 31.4926 260.683 31.0726L261.403 31.9006C260.983 32.4046 260.455 32.7886 259.819 33.0526C259.195 33.3166 258.505 33.4486 257.749 33.4486Z" fill="#FFFCFC"/>
<defs>
<clipPath id="clip0_6_443">
<rect width="26" height="27" fill="white" transform="translate(26 13)"/>
</clipPath>
</defs>
</svg>
