<svg width="24" height="24" viewBox="0 0 24 24" fill="none" xmlns="http://www.w3.org/2000/svg">
<path d="M12.2265 23.6595C18.7288 23.6595 24 18.3632 24 11.8298C24 5.29636 18.7288 0 12.2265 0C5.72427 0 0.453125 5.29636 0.453125 11.8298C0.453125 18.3632 5.72427 23.6595 12.2265 23.6595Z" fill="#010201"/>
<path d="M9.84702 18.6435C15.6029 18.6435 18.7425 13.8555 18.7425 9.70547C18.7425 9.56877 18.7425 9.43382 18.7425 9.29887C19.3541 8.8539 19.8821 8.3032 20.3018 7.6725C19.7317 7.92697 19.1266 8.09359 18.507 8.16672C19.1594 7.77414 19.6478 7.157 19.8815 6.42994C19.2643 6.79335 18.5901 7.04876 17.8878 7.18529C17.4161 6.68289 16.7929 6.35045 16.1145 6.23927C15.436 6.12809 14.74 6.24435 14.1339 6.57011C13.5277 6.89586 13.0451 7.41301 12.7605 8.04174C12.476 8.67047 12.4052 9.37583 12.5593 10.049C11.3164 9.98668 10.1004 9.6624 8.9904 9.09718C7.88037 8.53196 6.90109 7.73845 6.11615 6.76818C5.7159 7.4597 5.59321 8.27858 5.77309 9.05785C5.95296 9.83713 6.42185 10.5181 7.08418 10.962C6.58738 10.947 6.10154 10.8117 5.66788 10.5677C5.66701 10.5811 5.66701 10.5946 5.66788 10.608C5.66809 11.3333 5.91795 12.0361 6.37511 12.5974C6.83226 13.1586 7.46856 13.5437 8.17606 13.6873C7.71591 13.8128 7.23335 13.8314 6.76499 13.7416C6.96461 14.366 7.35292 14.9123 7.87591 15.3046C8.3989 15.6969 9.03057 15.9157 9.68306 15.9305C8.57584 16.8041 7.20817 17.2776 5.80045 17.2748C5.55154 17.2752 5.30282 17.2606 5.05566 17.2309C6.48449 18.1547 8.14799 18.6451 9.84702 18.6435Z" fill="white"/>
</svg>
