<svg width="29" height="29" viewBox="0 0 29 29" fill="none" xmlns="http://www.w3.org/2000/svg">
<g clip-path="url(#clip0_791_14366)">
<path d="M7.87017 2.48956C9.90031 1.35996 12.1834 0.761577 14.5072 0.750043C16.5562 0.755604 18.5782 1.21805 20.4256 2.10373C22.2799 2.9927 23.9112 4.28546 25.1995 5.88691C26.4878 7.48837 27.4005 9.35782 27.8705 11.3578C28.3404 13.3579 28.3558 15.4377 27.9154 17.4444C27.475 19.4511 26.59 21.3338 25.3255 22.9541C24.0609 24.5743 22.4489 25.891 20.608 26.8072C18.767 27.7234 16.7439 28.2158 14.6873 28.2483C12.6307 28.2807 10.593 27.8524 8.72394 26.9948L8.50642 26.8949L8.27129 26.9396L2.32124 28.0689C2.32054 28.0691 2.31983 28.0692 2.31913 28.0693C2.14087 28.1016 1.95741 28.0899 1.78473 28.0351L1.55815 28.7501L1.78472 28.0351C1.61136 27.9802 1.45422 27.8836 1.32705 27.754C1.19989 27.6243 1.10658 27.4655 1.05524 27.2916L0.33748 27.5034L1.05524 27.2916C1.00393 27.1177 0.996087 26.934 1.03239 26.7564C1.03241 26.7563 1.03243 26.7562 1.03245 26.7561L2.22326 20.9717L2.27445 20.7231L2.16406 20.4944C1.15306 18.4005 0.689447 16.0849 0.816429 13.7637C0.943411 11.4424 1.65685 9.19111 2.89027 7.21967C4.12368 5.24823 5.8369 3.6209 7.87017 2.48956Z" stroke="white" stroke-width="1.5"/>
<path fill-rule="evenodd" clip-rule="evenodd" d="M14.5148 23.0661C14.2187 23.0661 13.9347 22.9486 13.7253 22.7394C13.5159 22.5302 13.3983 22.2465 13.3983 21.9507V12.6558H11.5374C11.2413 12.6558 10.9573 12.5383 10.7479 12.3291C10.5385 12.12 10.4209 11.8363 10.4209 11.5404C10.4209 11.2446 10.5385 10.9609 10.7479 10.7517C10.9573 10.5426 11.2413 10.425 11.5374 10.425H14.5148C14.811 10.425 15.095 10.5426 15.3043 10.7517C15.5137 10.9609 15.6314 11.2446 15.6314 11.5404V21.9507C15.6275 22.2453 15.5086 22.5268 15.3001 22.7351C15.0915 22.9435 14.8098 23.0622 14.5148 23.0661Z" fill="#F9F9F9"/>
<path fill-rule="evenodd" clip-rule="evenodd" d="M10.4211 21.9507C10.417 21.8024 10.443 21.6549 10.4975 21.5169C10.552 21.3789 10.6339 21.2534 10.7382 21.1478C10.8425 21.0422 10.967 20.9588 11.1044 20.9026C11.2418 20.8463 11.3891 20.8184 11.5376 20.8204H17.4924C17.7885 20.8204 18.0725 20.9379 18.2819 21.1471C18.4913 21.3563 18.6089 21.64 18.6089 21.9358C18.6089 22.2316 18.4913 22.5153 18.2819 22.7245C18.0725 22.9337 17.7885 23.0512 17.4924 23.0512H11.5376C11.244 23.0512 10.9623 22.9357 10.7533 22.7298C10.5443 22.5238 10.425 22.2439 10.4211 21.9507Z" fill="#F9F9F9"/>
<path fill-rule="evenodd" clip-rule="evenodd" d="M14.515 8.92299C14.2214 8.92301 13.9396 8.80754 13.7307 8.60157C13.5217 8.3956 13.4024 8.11571 13.3984 7.82247V5.5917C13.3984 5.29588 13.5161 5.01218 13.7255 4.80301C13.9349 4.59383 14.2188 4.47632 14.515 4.47632C14.8111 4.47632 15.0951 4.59383 15.3045 4.80301C15.5139 5.01218 15.6315 5.29588 15.6315 5.5917V7.82247C15.6238 8.11449 15.5033 8.39221 15.2951 8.59738C15.087 8.80255 14.8074 8.91924 14.515 8.92299Z" fill="#F9F9F9"/>
</g>
<defs>
<clipPath id="clip0_791_14366">
<rect width="29" height="29" fill="white"/>
</clipPath>
</defs>
</svg>
