<svg width="22" height="22" viewBox="0 0 22 22" fill="none" xmlns="http://www.w3.org/2000/svg">
<g clip-path="url(#clip0_345_310)">
<path fill-rule="evenodd" clip-rule="evenodd" d="M0 2.75C0 2.02065 0.289731 1.32118 0.805456 0.805456C1.32118 0.289731 2.02065 0 2.75 0L9.25 0C9.44891 0 9.63968 0.0790176 9.78033 0.21967C9.92098 0.360322 10 0.551088 10 0.75C10 0.948912 9.92098 1.13968 9.78033 1.28033C9.63968 1.42098 9.44891 1.5 9.25 1.5H2.75C2.58548 1.49867 2.42233 1.53009 2.27007 1.59244C2.11782 1.65478 1.97949 1.74681 1.86315 1.86315C1.74681 1.97949 1.65478 2.11782 1.59244 2.27007C1.53009 2.42233 1.49867 2.58548 1.5 2.75V9.25C1.5 9.44891 1.42098 9.63968 1.28033 9.78033C1.13968 9.92098 0.948912 10 0.75 10C0.551088 10 0.360322 9.92098 0.21967 9.78033C0.0790176 9.63968 0 9.44891 0 9.25L0 2.75Z" fill="#FFAA00"/>
<path fill-rule="evenodd" clip-rule="evenodd" d="M21.5 18.75C21.4974 19.4785 21.2068 20.1765 20.6916 20.6916C20.1765 21.2068 19.4785 21.4974 18.75 21.5H12.25C12.0511 21.5 11.8603 21.421 11.7197 21.2803C11.579 21.1397 11.5 20.9489 11.5 20.75C11.5 20.5511 11.579 20.3603 11.7197 20.2197C11.8603 20.079 12.0511 20 12.25 20H18.75C19.0815 20 19.3995 19.8683 19.6339 19.6339C19.8683 19.3995 20 19.0815 20 18.75V12.25C20 12.0511 20.079 11.8603 20.2197 11.7197C20.3603 11.579 20.5511 11.5 20.75 11.5C20.9489 11.5 21.1397 11.579 21.2803 11.7197C21.421 11.8603 21.5 12.0511 21.5 12.25V18.75Z" fill="#FFAA00"/>
<path fill-rule="evenodd" clip-rule="evenodd" d="M21.5001 2.74995C21.5001 2.0206 21.2103 1.32113 20.6946 0.805403C20.1789 0.289678 19.4794 -5.35652e-05 18.7501 -5.35652e-05H12.2501C12.1512 -0.00139884 12.0531 0.0170816 11.9615 0.0542963C11.8699 0.091511 11.7867 0.146705 11.7167 0.216619C11.6468 0.286533 11.5916 0.369748 11.5544 0.46135C11.5172 0.552952 11.4987 0.651083 11.5001 0.749946C11.5001 0.948859 11.5791 1.13962 11.7197 1.28028C11.8604 1.42093 12.0512 1.49995 12.2501 1.49995H18.7501C18.9146 1.49861 19.0777 1.53004 19.23 1.59238C19.3823 1.65473 19.5206 1.74675 19.6369 1.86309C19.7533 1.97943 19.8453 2.11776 19.9076 2.27002C19.97 2.42228 20.0014 2.58542 20.0001 2.74995V9.24995C20.0001 9.44886 20.0791 9.63962 20.2197 9.78028C20.3604 9.92093 20.5512 9.99995 20.7501 9.99995C20.949 9.99995 21.1397 9.92093 21.2804 9.78028C21.4211 9.63962 21.5001 9.44886 21.5001 9.24995V2.74995Z" fill="#FFAA00"/>
<path fill-rule="evenodd" clip-rule="evenodd" d="M6.85051e-05 18.7499C6.85051e-05 19.4793 0.2898 20.1788 0.805525 20.6945C1.32125 21.2102 2.02072 21.4999 2.75007 21.4999H9.25007C9.44898 21.4999 9.63975 21.4209 9.7804 21.2803C9.92105 21.1396 10.0001 20.9489 10.0001 20.7499C10.0001 20.551 9.92105 20.3603 9.7804 20.2196C9.63975 20.079 9.44898 19.9999 9.25007 19.9999H2.75007C2.58554 20.0013 2.4224 19.9699 2.27014 19.9075C2.11788 19.8452 1.97956 19.7531 1.86322 19.6368C1.74688 19.5205 1.65485 19.3821 1.59251 19.2299C1.53016 19.0776 1.49874 18.9145 1.50007 18.7499V12.2499C1.50007 12.051 1.42105 11.8603 1.2804 11.7196C1.13975 11.579 0.948981 11.4999 0.750068 11.4999C0.651205 11.4986 0.553074 11.5171 0.461472 11.5543C0.36987 11.5915 0.286655 11.6467 0.216741 11.7166C0.146827 11.7865 0.0916331 11.8697 0.0544184 11.9614C0.0172037 12.053 -0.00127677 12.1511 6.85051e-05 12.2499V18.7499Z" fill="#FFAA00"/>
<path fill-rule="evenodd" clip-rule="evenodd" d="M9.63308 5.84624C9.38827 5.84624 9.15348 5.74899 8.98037 5.57588C8.80726 5.40276 8.71001 5.16798 8.71001 4.92316C8.70835 4.80148 8.7311 4.68071 8.7769 4.56797C8.8227 4.45522 8.89063 4.35281 8.97668 4.26676C9.06273 4.18071 9.16515 4.11278 9.27789 4.06698C9.39063 4.02117 9.51141 3.99843 9.63308 4.00008H17.0177C17.2625 4.00008 17.4973 4.09734 17.6704 4.27045C17.8435 4.44356 17.9408 4.67835 17.9408 4.92316V12.1109C17.9408 12.3557 17.8435 12.5905 17.6704 12.7636C17.4973 12.9367 17.2625 13.0339 17.0177 13.0339C16.7729 13.0339 16.5381 12.9367 16.365 12.7636C16.1919 12.5905 16.0946 12.3557 16.0946 12.1109V7.18778L6.59308 16.677C6.41639 16.8477 6.18031 16.9431 5.93462 16.9431C5.68894 16.9431 5.45286 16.8477 5.27616 16.677C5.18871 16.5911 5.11925 16.4886 5.07184 16.3756C5.02442 16.2625 5 16.1411 5 16.0185C5 15.896 5.02442 15.7746 5.07184 15.6615C5.11925 15.5485 5.18871 15.446 5.27616 15.3601L14.7654 5.85855H9.60847L9.63308 5.84624Z" fill="#FFAA00"/>
</g>
<defs>
<clipPath id="clip0_345_310">
<rect width="21.5" height="21.5" fill="white"/>
</clipPath>
</defs>
</svg>
