<svg width="24" height="24" viewBox="0 0 24 24" fill="none" xmlns="http://www.w3.org/2000/svg">
<path d="M23.5468 11.83C23.5468 9.5689 22.9018 7.3552 21.6884 5.45106C20.4749 3.54691 18.7437 2.03207 16.6999 1.08595C14.6561 0.139823 12.3852 -0.197952 10.1562 0.112624C7.92728 0.423201 5.83358 1.36912 4.1231 2.83835C2.41263 4.30758 1.15704 6.23858 0.505029 8.40266C-0.146981 10.5667 -0.168096 12.8732 0.444185 15.049C1.05647 17.2248 2.27649 19.1786 3.95978 20.6792C5.64307 22.1798 7.71909 23.1643 9.942 23.516V15.2474H6.9437V11.83H9.942V9.22391C9.942 6.25858 11.6862 4.6217 14.381 4.6217C15.264 4.63411 16.1448 4.71143 17.0165 4.85303V7.76403H15.5322C14.0688 7.76403 13.6136 8.67536 13.6136 9.61123V11.83H16.8787L16.3555 15.2474H13.6136V23.5143C16.3825 23.0736 18.9042 21.6548 20.725 19.513C22.5459 17.3712 23.5465 14.6468 23.5468 11.83Z" fill="#010201"/>
<path d="M16.3556 15.2473L16.8789 11.8281H13.6137V9.61111C13.6137 8.67525 14.0689 7.76392 15.5323 7.76392H17.0167V4.85292C16.145 4.71131 15.2641 4.63399 14.3812 4.62158C11.6864 4.62158 9.94215 6.25847 9.94215 9.2238V11.8298H6.94385V15.2473H9.94215V23.5141C11.1615 23.7057 12.4031 23.7057 13.6224 23.5141V15.2473H16.3556Z" fill="white"/>
</svg>
