<svg width="441" height="943" viewBox="0 0 441 943" fill="none" xmlns="http://www.w3.org/2000/svg">
<rect x="6" y="1" width="434.614" height="942" fill="#C2C2C2"/>
<path d="M255.9 907.659C266.006 896.116 267.9 880.967 272.953 866.544C278.006 852.122 283.058 854.274 287.479 846.981C291.9 839.687 293.163 836.221 293.163 821.303C293.163 806.386 277.374 803.769 249.585 792.226C221.795 780.684 214.843 790.074 194.622 787.219C174.4 784.364 167.464 779.272 161.78 772.07C156.095 764.868 154.822 755.477 150.641 735.999C146.461 716.521 147.885 699.201 146.622 685.445C145.359 671.689 137.78 645.095 122.622 632.831C107.464 620.567 105.569 609.745 103.675 593.153C101.78 576.56 106.833 559.968 103.043 536.161C99.2537 512.354 90.4117 517.404 90.4117 489.984C90.4117 462.565 106.201 452.471 116.033 442.371C125.866 432.271 140.938 425.779 150.641 409.907C160.345 394.036 162.417 377.444 161.78 351.473C161.143 325.502 163.043 297.367 164.938 286.546C166.832 275.724 169.359 267.061 164.938 252.633C160.517 238.205 151.685 243.224 135.264 246.403C118.843 249.582 89.7694 274.972 80.9487 279.301C72.1281 283.629 56.9489 280.022 43.0489 279.301C29.1489 278.579 34.2068 284.351 23.47 288.679C15.8376 291.736 12.0321 293.014 5.80734 296.071V324.805C23.8822 317.921 40.3406 311.453 51.8909 308.157C74.633 301.665 77.1593 309.6 99.896 288.679C122.633 267.758 134.633 263.43 142.212 263.43C149.79 263.43 153.58 264.139 155.475 279.655C157.369 295.172 156.738 299.5 155.475 310.322C154.211 321.143 152.145 339.178 150.658 358.656C149.17 378.135 135.355 409.155 116.049 430.077C96.7435 450.998 90.4224 446.687 84.7382 472.64C79.054 498.593 85.3698 505.11 89.7908 526.031C94.2118 546.952 97.3697 552.723 95.475 568.594C93.5802 584.465 102.503 619.815 116.044 638.571C129.585 657.328 130.212 655.885 135.264 667.428C140.317 678.971 140.948 702.777 142.222 715.041C143.496 727.305 144.749 760.497 153.591 770.596C162.433 780.696 168.117 790.771 179.485 792.239C190.854 793.706 197.801 796.567 205.38 795.846C212.959 795.124 215.549 790.796 225.301 792.96C235.053 795.124 255.274 798.731 267.279 807.388C279.285 816.045 282.437 821.688 279.911 830.052C277.385 838.415 267.349 849.365 261.312 862.283C255.274 875.201 260.332 882.74 251.49 897.009C242.648 911.278 235.123 913.021 225.301 926.575C222.29 930.807 219.989 935.639 218.514 940.826H230.177C230.712 939.481 231.248 938.05 231.906 936.546C238.211 921.372 245.795 919.208 255.9 907.659Z" stroke="#595535" stroke-width="0.5" stroke-miterlimit="10"/>
<path d="M251.479 897.009C260.321 882.74 255.269 875.202 261.301 862.283C267.333 849.365 277.358 838.44 279.9 830.052C282.443 821.664 279.269 816.046 267.269 807.389C255.269 798.732 235.053 795.124 225.29 792.96C215.528 790.796 212.948 795.124 205.369 795.846C197.79 796.567 190.843 793.682 179.474 792.239C168.106 790.796 162.422 780.696 153.58 770.596C144.738 760.497 143.475 727.311 142.212 715.041C140.948 702.771 140.317 678.971 135.254 667.428C130.19 655.885 129.569 657.328 116.033 638.571C102.497 619.815 93.5535 584.465 95.4643 568.594C97.3751 552.723 94.2011 546.952 89.7801 526.031C85.3591 505.11 79.0433 498.617 84.7275 472.64C90.4117 446.663 96.7274 450.998 116.033 430.077C135.339 409.156 149.148 378.11 150.641 358.657C152.135 339.203 154.201 321.143 155.459 310.322C156.716 299.501 157.353 295.172 155.459 279.656C153.564 264.139 149.774 263.43 142.195 263.43C134.617 263.43 122.617 267.758 99.8799 288.679C77.1432 309.6 74.6169 301.665 51.8749 308.158C40.3245 311.453 23.8822 317.939 5.77522 324.805V348.153C8.0403 347.139 10.3655 346.31 12.7333 345.671C31.0489 340.621 37.0061 334.85 56.7669 331.243C76.5277 327.636 70.212 311.068 92.9487 305.993C115.685 300.919 123.896 287.958 130.212 291.565C136.527 295.172 137.791 288.251 139.054 302.533C140.317 316.814 140.317 335.547 142.212 340.621C144.106 345.696 146.633 361.542 138.422 373.806C130.212 386.07 117.58 407.713 99.8853 425.027C82.1905 442.341 83.4643 441.619 80.3065 449.555C80.3065 449.555 72.7276 466.636 73.3484 476.852C73.9693 487.068 78.401 502.946 80.9273 515.931C83.4536 528.916 87.2431 544.054 87.8854 552.002C88.5276 559.949 87.2538 565.709 85.9906 574.366C84.7275 583.023 87.2538 594.541 89.7801 601.779C92.3064 609.018 99.0503 626.307 106.099 637.85C113.148 649.393 124.517 673.199 128.938 689.816C133.359 706.433 127.675 730.222 132.727 744.65C137.78 759.078 140.938 769.178 153.569 783.606C166.201 798.035 178.19 802.363 189.569 803.084C200.948 803.806 211.043 802.363 220.516 803.084C229.99 803.806 235.326 797.313 248.305 811.741C261.285 826.17 256.521 841.442 252.095 859.428C247.669 877.415 243.649 881.706 239.03 892.179C234.411 902.652 221.148 912.03 217.358 922.852C215.469 928.25 212.482 934.657 210.042 940.862H218.493C219.968 935.676 222.269 930.844 225.28 926.611C235.112 913.021 242.632 911.272 251.479 897.009Z" stroke="#595535" stroke-width="0.5" stroke-miterlimit="10"/>
<path d="M239.046 892.142C243.665 881.67 247.695 877.366 252.111 859.391C256.527 841.417 261.306 826.145 248.322 811.705C235.337 797.264 230.006 803.757 220.532 803.048C211.059 802.339 200.953 803.769 189.585 803.048C178.217 802.326 166.217 797.998 153.585 783.57C140.954 769.141 137.796 759.041 132.743 744.613C127.691 730.185 133.375 706.372 128.954 689.78C124.533 673.187 113.164 649.38 106.115 637.813C99.0664 626.246 92.3224 608.957 89.7961 601.743C87.2698 594.528 84.7435 582.986 86.0067 574.329C87.2698 565.672 88.533 559.901 87.9014 551.965C87.2698 544.029 83.4804 528.88 80.9434 515.894C78.4064 502.909 73.9854 487.032 73.3645 476.816C72.7436 466.6 80.3225 449.518 80.3225 449.518C83.4804 441.57 82.2172 442.304 99.9013 424.99C117.585 407.676 130.217 386.034 138.438 373.769C146.659 361.505 144.122 345.647 142.228 340.584C140.333 335.522 140.333 316.778 139.07 302.496C137.807 288.215 136.543 295.16 130.228 291.528C123.912 287.897 115.701 300.907 92.9647 305.957C70.228 311.006 76.5438 327.599 56.783 331.206C37.0221 334.813 31.0918 340.584 12.7493 345.634C10.3815 346.273 8.05636 347.102 5.79128 348.116V361.255C11.727 358.125 17.0312 355.594 22.8385 352.848C33.5752 347.799 59.4752 341.306 70.8435 336.256C82.2119 331.206 95.4643 324.469 102.422 321.345C109.38 318.221 120.551 305.957 125.384 306.672C130.217 307.387 135.264 327.593 134.001 333.364C132.738 339.135 130.212 348.514 130.843 355.728C131.475 362.942 129.393 375.206 125.384 380.978C121.375 386.749 114.856 393.963 106.115 405.506C97.375 417.048 82.5651 429.312 76.0621 445.183C69.559 461.054 70.2173 471.154 68.9542 479.811C67.691 488.468 68.9542 516.61 71.4805 528.152C74.0068 539.695 78.4385 557.73 79.6909 572.88C80.9434 588.03 81.1949 613.279 86.1137 624.846C91.0325 636.413 98.4241 647.21 106.105 661.638C113.785 676.067 115.204 675.345 118.902 690.495C122.601 705.645 121.177 735.229 125.378 751.821C129.58 768.414 140.943 795.84 159.259 803.042C177.574 810.244 196.522 812.42 204.754 812.42H225.306C231.911 812.42 241.363 818.919 245.174 829.379C248.985 839.84 237.595 860.516 232.543 877.231C227.49 893.946 214.88 898.268 207.28 913.418C200.461 927.052 197.737 935.996 196.34 940.807H210.068C212.509 934.602 215.496 928.195 217.385 922.796C221.158 911.994 234.422 902.615 239.046 892.142Z" stroke="white" stroke-width="0.5" stroke-miterlimit="10"/>
<path d="M392.166 623.605C375.113 626.307 368.952 630.098 346.216 633.344C323.479 636.591 321.595 639.837 308.792 636.591C295.989 633.344 293.634 610.075 293.163 594.406C292.692 578.737 287.003 568.411 280.709 564.07C274.414 559.729 264.266 547.838 261.301 540.838C258.336 533.838 254.343 524.606 261.301 516.487C268.259 508.368 292.216 501.882 306.897 499.173C321.579 496.465 325.845 478.613 328.649 460.755C331.454 442.897 334.371 431 337.952 425.014C341.532 419.029 346.216 415.844 341.479 402.32C336.742 388.797 328.216 374.723 325.374 364.911C322.532 355.098 320.637 326.028 322.698 308.176C324.758 290.324 328.665 278.959 328.628 269.048C328.59 259.138 322.034 252.456 320.599 237.868C319.165 223.281 327.231 223.807 334.81 225.867C342.389 227.928 345.231 224.345 357.076 221.19C368.92 218.036 372.704 227.047 390.233 227.665C407.762 228.282 414.388 223.801 421.475 221.637C428.128 219.607 439.047 225.115 440.363 225.8V212.686C439.293 212.197 431.377 208.896 424.338 212.747C416.759 216.899 406.338 215.089 390.704 216.947C375.07 218.806 353.281 215.113 341.912 213.469C330.544 211.824 311.484 211.635 309.231 227.61C306.978 243.585 313.513 257.292 316.334 288.135C319.154 318.979 312.052 324.389 313.936 346.032C315.82 367.674 325.336 375.793 328.612 401.22C331.888 426.647 323.442 426.653 319.652 447.751C315.863 468.849 317.757 480.215 304.703 490.498C291.649 500.781 277.048 500.237 261.301 507.824C245.554 515.411 248.145 518.095 248.145 526.777C248.145 535.458 261.285 550.583 270.882 561.943C280.478 573.302 282.25 580.339 286.607 592.786C290.964 605.233 287.934 616.593 293.399 632.935C298.864 649.276 314.46 642.564 341.934 642.026C369.407 641.488 368.936 638.235 381.252 636.615C393.568 634.995 410.62 630.66 421.496 634.451C427.642 636.643 433.973 638.09 440.385 638.767V629.541C438.222 628.924 408.581 621.001 392.166 623.605Z" stroke="#595535" stroke-width="0.5" stroke-miterlimit="10"/>
<path d="M389.586 673.383C376.06 676.629 357.113 678.793 343.374 680.413C329.634 682.034 301.395 682.608 286.639 677.185C271.882 671.763 261.317 676.629 261.317 663.124C261.317 649.619 275.651 636.835 270.443 611.298C265.235 585.761 256.96 574.39 245.934 563.569C234.909 552.747 226.843 536.491 211.214 528.916C195.585 521.342 211.792 496.447 229.503 493.744C247.214 491.042 267.927 479.224 278.177 468.36C288.427 457.496 297.365 448.295 300.004 434.228C302.642 420.16 295.567 417.452 293.415 393.645C291.263 369.838 282.94 345.488 280.709 323.338C278.477 301.188 268.532 283.837 268.532 256.24C268.532 228.643 257.164 195.641 271.374 194.559C285.584 193.477 295.529 186.446 309.269 190.231C323.008 194.015 338.171 186.984 347.634 183.738C357.097 180.492 374.166 186.984 385.534 183.738C396.902 180.492 395.955 165.886 410.155 167.506C423.643 169.047 438.881 182.79 440.39 184.16V160.848C439.362 159.797 432.249 152.827 424.365 152.326C415.839 151.788 404.942 155.034 393.573 157.217C382.205 159.399 370.836 170.74 352.692 170.74C334.548 170.74 319.679 170.74 310.676 177.361C301.674 183.982 291.729 177.233 268.045 177.361C244.361 177.49 252.898 192.358 256.746 201.565C260.594 210.773 258.582 224.29 256.746 233.485C254.91 242.68 250.532 260 252.898 293.546C255.264 327.092 265.69 320.061 266.637 346.032C267.585 372.003 269.95 375.249 275.163 395.271C280.377 415.294 282.742 452.624 248.145 461.819C213.547 471.014 211.214 474.804 197.458 491.036C183.703 507.268 186.566 524.588 191.303 534.327C196.04 544.066 212.616 555.425 225.274 567.341C237.933 579.256 246.721 598.722 247.674 611.286C248.627 623.85 236.3 639.305 232.04 653.012C227.779 666.719 234.882 672.851 242.461 679.912C250.04 686.973 255.253 682.076 264.726 685.451C274.2 688.826 286.039 698.29 299.988 696.682C313.936 695.074 322.039 689.651 338.621 692.898C355.202 696.144 358.992 692.353 377.463 687.487C395.35 682.773 437.719 687.187 440.385 687.487V673.425C437.997 673.169 402.651 670.246 389.586 673.383Z" stroke="#595535" stroke-width="0.5" stroke-miterlimit="10"/>
<path d="M419.163 611.274C406.852 613.016 357.611 613.866 344.267 614.942C330.924 616.018 316.847 602.495 313.973 589.509C311.099 576.524 310.687 570.557 300.004 560.292C289.32 550.027 293.163 535.941 304.74 529.992C316.318 524.044 317.795 523.5 331.936 502.939C346.077 482.379 345.268 453.7 348.983 442.879C352.697 432.057 358.531 434.222 365.639 427.356C372.747 420.49 376.531 416.351 384.11 412.561C391.689 408.77 403.534 408.251 394.451 399.594C385.368 390.937 378.426 388.228 364.216 376.325C350.005 364.422 348.581 337.369 348.367 327.085C348.153 316.802 356.637 307.069 356.835 294.622C357.033 282.174 352.371 272.979 348.983 263.24C345.595 253.501 357.113 252.957 362.321 255.665C367.529 258.374 379.373 255.665 384.587 255.665C389.8 255.665 387.9 248.629 406.376 246.397C423.899 244.282 438.907 249.65 440.401 250.206V236.053C439.073 235.441 427.94 230.599 417.268 236.114C405.9 241.983 388.365 241.616 376.531 241.616C364.697 241.616 340.055 231.333 334.371 238.908C328.687 246.483 341.003 265.961 344.267 279.38C347.532 292.8 340.055 293.558 337.952 310.872C335.848 328.186 338.16 352.537 341.95 362.276C345.739 372.015 356.637 389.873 366.571 397.448C376.505 405.023 367.518 407.187 362.289 412.579C357.06 417.971 343.341 426.121 340.023 441.815C336.705 457.509 333.391 482.935 328.617 491.592C323.843 500.249 307.374 513.767 286.623 518.829C265.872 523.891 274.216 534.877 278.177 541.914C282.138 548.951 285.584 553.817 293.163 559.228C300.742 564.639 304.055 580.326 304.724 588.445C305.393 596.564 305.003 602.507 304.724 611.286C304.446 620.065 308.305 619.845 320.144 623.617C331.984 627.389 343.358 621.991 357.076 619.411C370.385 616.86 383.951 616.566 397.336 618.537C409.646 620.42 438.222 618.684 440.363 618.537V611.249C433.325 610.218 426.199 610.226 419.163 611.274V611.274Z" stroke="#595535" stroke-width="0.5" stroke-miterlimit="10"/>
<path d="M407.794 601.975C387.9 600.355 393.113 597.646 371.794 597.646C350.476 597.646 345.739 604.139 340.531 597.646C335.324 591.154 334.291 581.415 328.649 571.137C323.008 560.86 316.371 555.988 325.374 545.705C334.376 535.421 345.921 518.652 352.703 512.159C359.484 505.666 365.163 500.8 365.163 480.233C365.163 459.667 363.268 445.605 374.637 436.41C386.005 427.215 403.057 432.082 413.955 414.768C424.852 397.454 418.692 394.208 409.218 385.551C399.744 376.894 387.327 375.267 380.744 361.2C374.16 347.132 368.851 342.003 380.744 323.466C392.636 304.929 393.589 295.728 390.271 284.907C386.952 274.086 390.742 262.183 405.899 261.1C420.351 260.067 438.752 265.435 440.401 265.93V250.212C438.907 249.656 423.899 244.288 406.376 246.403C387.9 248.635 389.784 255.672 384.587 255.672C379.389 255.672 367.534 258.374 362.321 255.672C357.108 252.969 345.589 253.495 348.983 263.277C352.376 273.059 357.011 282.229 356.835 294.658C356.658 307.088 348.153 316.845 348.367 327.122C348.581 337.399 350.005 364.458 364.216 376.362C378.426 388.265 385.368 390.973 394.451 399.63C403.534 408.287 391.689 408.801 384.11 412.597C376.531 416.394 372.742 420.545 365.639 427.393C358.537 434.24 352.697 432.094 348.983 442.915C345.268 453.736 346.093 482.379 331.936 502.933C317.779 523.487 316.312 524.032 304.74 529.986C293.169 535.941 289.315 550.002 300.004 560.286C310.692 570.569 311.099 576.518 313.973 589.503C316.847 602.488 330.951 616.018 344.267 614.936C357.584 613.854 406.847 613.004 419.163 611.268C426.212 610.225 433.351 610.225 440.401 611.268V597.695C439.02 598.307 426.538 603.491 407.794 601.975Z" stroke="white" stroke-width="0.5" stroke-miterlimit="10"/>
<path d="M369.9 661.699C321.108 666.248 337.689 654.974 316.847 659.865C296.005 664.756 298.371 658.783 286.623 655.537C274.874 652.291 281.319 636.584 278.177 618.537C275.035 600.489 266.161 579.788 261.301 571.669C256.441 563.55 248.145 550.559 239.046 538.111C229.947 525.664 218.793 525.67 216.898 518.829C215.003 511.988 233.003 499.167 245.918 495.377C258.834 491.586 265.214 489.966 282.742 476.865C300.271 463.763 311.163 450.472 307.363 432.076C303.563 413.68 309.729 397.448 304.73 377.426C299.731 357.403 300.255 351.455 299.993 330.35C299.731 309.246 297.889 292.445 290.782 271.378C283.674 250.31 291.258 248.109 293.153 238.364C295.047 228.618 283.213 210.76 288.427 202.751C293.64 194.743 302.161 201.529 313.973 202.635C325.786 203.742 332.476 197.225 343.374 194.516C354.271 191.808 359.966 193.434 369.9 196.681C379.834 199.927 379.85 195.06 391.218 192.352C402.586 189.644 413.478 177.747 421.512 183.182C429.032 188.244 439.138 195.678 440.401 196.632V184.129C438.891 182.741 423.653 169.016 410.165 167.476C395.955 165.855 396.902 180.461 385.545 183.707C374.187 186.954 357.124 180.461 347.645 183.707C338.166 186.954 323.024 193.991 309.279 190.2C295.534 186.41 285.595 193.446 271.385 194.529C257.174 195.611 268.543 228.618 268.543 256.21C268.543 283.801 278.487 301.121 280.719 323.307C282.951 345.494 291.279 369.838 293.426 393.615C295.572 417.391 302.648 420.13 300.014 434.197C297.381 448.265 288.437 457.429 278.188 468.33C267.938 479.231 247.214 491.036 229.503 493.763C211.792 496.489 195.58 521.342 211.214 528.916C226.848 536.491 234.898 552.723 245.918 563.544C256.939 574.366 265.214 585.725 270.427 611.274C275.64 636.823 261.301 649.576 261.301 663.099C261.301 676.623 271.845 671.756 286.623 677.161C301.401 682.565 329.634 682.015 343.358 680.389C357.081 678.763 376.044 676.605 389.57 673.358C402.635 670.222 437.981 673.144 440.385 673.358V660.361C433.249 658.538 425.982 657.463 418.676 657.151C406.376 656.607 418.692 657.151 369.9 661.699Z" stroke="#595535" stroke-width="0.5" stroke-miterlimit="10"/>
<path d="M407.323 594.382C393.584 595.464 382.215 590.053 373.218 589.491C364.221 588.928 353.318 594.901 348.983 589.491C344.647 584.08 340.055 584.08 333.9 571.633C327.745 559.185 332.005 547.826 348.983 529.448C365.96 511.071 371.323 500.775 371.794 487.264C372.265 473.753 371.794 467.786 380.744 451.554C389.693 435.322 401.618 436.942 415.373 427.374C429.129 417.806 430.06 414.762 430.06 401.232C430.06 387.703 427.689 381.754 412.531 372.553C397.373 363.352 400.221 355.783 398.149 341.171C396.078 326.56 407.323 308.157 402.11 296.804C396.897 285.451 397.828 288.692 399.268 281.655C400.708 274.618 404.005 272.998 417.268 271.916C425.09 271.181 432.96 272.273 440.401 275.125V265.912C438.752 265.417 420.367 260.049 405.9 261.082C390.742 262.164 386.952 274.068 390.271 284.889C393.589 295.71 392.636 304.911 380.744 323.448C368.851 341.984 374.166 347.114 380.744 361.181C387.322 375.249 399.744 376.869 409.218 385.532C418.692 394.195 424.847 397.436 413.955 414.75C403.063 432.063 386.005 427.191 374.637 436.392C363.268 445.593 365.163 459.655 365.163 480.215C365.163 500.775 359.479 505.648 352.703 512.14C345.927 518.633 334.371 535.409 325.374 545.686C316.376 555.963 323.003 560.836 328.649 571.119C334.296 581.402 335.318 591.135 340.531 597.628C345.745 604.121 350.476 597.628 371.794 597.628C393.113 597.628 387.9 600.336 407.794 601.957C426.527 603.491 439.02 598.288 440.401 597.677V592.175C431.949 591.16 420.988 593.306 407.323 594.382Z" stroke="white" stroke-width="0.5" stroke-miterlimit="10"/>
<path d="M381.268 636.591C368.958 638.211 369.429 641.482 341.95 642.001C314.471 642.521 298.885 649.258 293.415 632.91C287.945 616.562 290.974 605.209 286.623 592.762C282.271 580.314 280.494 573.283 270.898 561.918C261.301 550.553 248.145 535.409 248.145 526.777C248.145 518.144 245.533 515.411 261.285 507.824C277.037 500.237 291.665 500.793 304.724 490.51C317.784 480.227 315.884 468.868 319.674 447.763C323.463 426.659 331.904 426.665 328.633 401.232C325.363 375.799 315.836 367.674 313.979 346.032C312.121 324.389 319.219 318.979 316.376 288.135C313.534 257.292 307.021 243.579 309.274 227.61C311.527 211.641 330.587 211.843 341.955 213.469C353.324 215.095 375.14 218.806 390.747 216.947C406.355 215.089 416.802 216.899 424.381 212.747C431.42 208.896 439.314 212.197 440.406 212.686V206.768C438.479 207.318 436.033 203.1 427.694 200.483C419.168 197.775 418.221 201.951 407.8 203.65C397.379 205.35 386.487 203.956 377.96 206.817C369.434 209.678 366.116 209.177 360.432 206.725C354.747 204.274 343.839 207.551 335.811 206.725C327.782 205.9 309.515 208.058 303.948 219.417C298.382 230.777 297.857 242.142 300.02 254.589C302.182 267.037 306.443 278.396 309.285 291.926C312.127 305.455 304.548 329.256 307.39 341.703C310.232 354.151 323.87 388.234 322.735 400.138C321.6 412.041 315.365 414.664 313.979 424.446C312.592 434.228 318.748 454.868 306.903 467.242C295.058 479.616 286.061 492.088 272.327 495.878C258.593 499.669 258.363 505.648 245.918 507.824C233.474 510.001 233.239 516.469 239.046 526.777C244.853 537.084 263.324 557.076 268.061 568.435C272.798 579.795 283.213 610.008 286.628 633.369C290.043 656.729 303.033 649.601 328.655 647.43C354.276 645.26 366.121 651.783 378.431 650.151C390.742 648.518 407.8 645.804 419.168 646.348C426.358 646.766 433.483 648.116 440.406 650.371V638.755C433.995 638.078 427.664 636.631 421.518 634.439C410.636 630.636 393.584 634.989 381.268 636.591Z" stroke="white" stroke-width="0.5" stroke-miterlimit="10"/>
<path d="M378.426 650.132C366.116 651.765 354.266 645.241 328.649 647.412C303.033 649.582 290.032 656.674 286.623 633.35C283.213 610.027 272.792 579.776 268.056 568.411C263.319 557.045 244.843 537.029 239.046 526.777C233.249 516.524 233.48 510.001 245.924 507.824C258.368 505.648 258.587 499.705 272.327 495.921C286.066 492.136 295.063 479.689 306.903 467.284C318.742 454.88 312.587 434.27 313.979 424.489C315.37 414.707 321.59 412.084 322.724 400.181C323.859 388.277 310.232 354.145 307.374 341.703C304.516 329.262 312.111 305.449 309.269 291.926C306.426 278.402 302.161 267.031 300.004 254.589C297.847 242.148 298.398 230.783 303.932 219.417C309.467 208.052 327.739 205.894 335.795 206.725C343.85 207.557 354.742 204.28 360.415 206.725C366.089 209.171 369.418 209.678 377.944 206.817C386.471 203.956 397.363 205.35 407.784 203.65C418.205 201.951 419.152 197.775 427.678 200.483C436.017 203.124 438.463 207.318 440.39 206.768V196.595C439.127 195.666 429.022 188.231 421.502 183.145C413.473 177.734 402.576 189.638 391.207 192.315C379.839 194.993 379.839 199.89 369.889 196.644C359.939 193.398 354.255 191.753 343.363 194.48C332.471 197.206 325.786 203.73 313.979 202.648C302.171 201.565 293.64 194.804 288.427 202.751C283.213 210.699 295.058 228.606 293.163 238.345C291.269 248.084 283.69 250.249 290.792 271.359C297.895 292.47 299.736 309.233 300.004 330.332C300.271 351.43 299.736 357.385 304.74 377.407C309.745 397.429 303.584 413.661 307.374 432.057C311.163 450.453 300.266 463.745 282.753 476.846C265.24 489.948 258.85 491.574 245.929 495.358C233.009 499.143 215.003 511.963 216.898 518.829C218.793 525.694 229.947 525.67 239.046 538.111C248.145 550.553 256.446 563.544 261.306 571.657C266.166 579.77 275.035 600.465 278.182 618.525C281.329 636.584 274.874 652.278 286.628 655.525C298.382 658.771 296.011 664.726 316.853 659.853C337.695 654.981 321.135 666.248 369.905 661.687C418.676 657.126 406.381 656.594 418.697 657.139C426.004 657.451 433.27 658.525 440.406 660.348V650.34C433.483 648.085 426.358 646.735 419.168 646.317C407.794 645.786 390.742 648.494 378.426 650.132Z" stroke="white" stroke-width="0.5" stroke-miterlimit="10"/>
<path d="M397.373 618.525C383.989 616.554 370.423 616.848 357.113 619.399C343.374 621.979 332.005 627.389 320.182 623.605C308.359 619.821 304.494 620.047 304.762 611.274C305.03 602.501 305.415 596.546 304.762 588.433C304.109 580.32 300.78 564.626 293.201 559.216C285.622 553.805 282.175 548.933 278.214 541.902C274.254 534.871 265.904 523.866 286.66 518.817C307.417 513.767 323.907 500.237 328.687 491.58C333.466 482.923 336.78 457.49 340.093 441.803C343.406 426.115 357.151 417.959 362.358 412.567C367.566 407.175 376.569 405.01 366.64 397.436C356.712 389.861 345.793 372.003 342.019 362.264C338.246 352.524 335.918 328.174 338.021 310.86C340.125 293.546 347.597 292.782 344.337 279.368C341.077 265.955 328.756 246.47 334.441 238.896C340.125 231.321 364.762 241.604 376.601 241.604C388.44 241.604 405.969 241.983 417.337 236.102C428.01 230.599 439.143 235.423 440.47 236.04V225.745C439.154 225.06 428.235 219.552 421.582 221.582C414.495 223.746 407.864 228.227 390.34 227.61C372.817 226.992 369.022 217.981 357.183 221.135C345.343 224.29 342.496 227.86 334.917 225.812C327.338 223.764 319.283 223.208 320.706 237.813C322.13 252.419 328.676 259.095 328.735 268.993C328.794 278.891 324.887 290.275 322.805 308.121C320.723 325.967 322.617 355.043 325.481 364.856C328.344 374.668 336.849 388.742 341.586 402.265C346.323 415.789 341.639 418.974 338.059 424.959C334.478 430.945 331.449 442.885 328.649 460.749C325.85 478.613 321.584 496.459 306.897 499.167C292.211 501.876 268.286 508.338 261.301 516.481C254.316 524.625 258.336 533.795 261.301 540.832C264.266 547.869 274.414 559.784 280.709 564.064C287.003 568.344 292.687 578.676 293.163 594.363C293.64 610.051 296.005 633.326 308.792 636.548C321.579 639.77 323.479 636.548 346.216 633.301C368.952 630.055 375.118 626.265 392.165 623.562C408.581 620.958 438.196 628.881 440.401 629.474V618.47C438.26 618.671 409.678 620.408 397.373 618.525Z" stroke="white" stroke-width="0.5" stroke-miterlimit="10"/>
<path d="M433.737 316.814C432.201 298.956 417.279 303.285 426.913 293.546C435.573 284.822 439.63 288.685 440.379 289.59V283.055C435.514 282.676 424.461 282.028 417.247 283.269C407.773 284.889 410.144 288.679 417.247 303.285C424.349 317.89 422.931 326.554 421.491 338.995C420.051 351.436 417.279 358.473 426.271 369.838C431.883 377.104 436.634 385.183 440.401 393.865V375.591C439.261 373.867 430.943 360.919 430.06 350.36C429.113 338.995 435.268 334.666 433.737 316.814Z" stroke="#595535" stroke-width="0.5" stroke-miterlimit="10"/>
<path d="M426.913 293.546C417.247 303.285 432.18 298.956 433.716 316.814C435.252 334.672 429.091 338.995 430.039 350.36C430.922 360.943 439.239 373.867 440.379 375.591V289.566C439.651 288.685 435.594 284.822 426.913 293.546Z" stroke="#595535" stroke-width="0.5" stroke-miterlimit="10"/>
<path d="M421.512 338.995C422.952 326.554 424.376 317.897 417.268 303.285C410.16 288.673 407.794 284.889 417.268 283.269C424.483 282.046 435.535 282.657 440.401 283.055V275.107C432.963 272.258 425.096 271.168 417.279 271.903C404.016 272.985 400.686 274.612 399.279 281.642C397.871 288.673 396.913 285.433 402.121 296.792C407.329 308.151 396.094 326.554 398.16 341.159C400.226 355.765 397.384 363.346 412.542 372.541C427.7 381.736 430.071 387.696 430.071 401.22C430.071 414.743 429.123 417.794 415.384 427.362C401.644 436.93 389.693 435.31 380.754 451.542C371.816 467.773 372.271 473.722 371.784 487.252C371.297 500.781 365.95 511.058 348.972 529.436C331.995 547.814 327.729 559.197 333.889 571.62C340.05 584.043 344.631 584.068 348.972 589.478C353.313 594.889 364.205 588.934 373.207 589.478C382.21 590.023 393.573 595.427 407.313 594.369C421.052 593.312 431.933 591.148 440.39 592.193V585.737C438.859 585.884 423.134 587.271 408.731 585.737C393.573 584.117 392.524 583.035 380.733 581.408C368.942 579.782 358.997 575.46 363.734 564.639C368.471 553.817 373.341 552.735 367.117 541.37C360.892 530.005 355.636 530.549 362.524 520.81C369.413 511.071 377.366 507.286 380.722 491.048C384.078 474.81 385.984 462.925 395.457 455.882C404.931 448.839 429.937 448.845 440.379 439.761V393.908C436.613 385.225 431.862 377.147 426.249 369.881C417.279 358.473 420.073 351.442 421.512 338.995Z" stroke="white" stroke-width="0.5" stroke-miterlimit="10"/>
<path d="M331.936 878.246C333.45 867.584 343.711 860.052 344.321 849.182C344.931 838.312 353.163 823.26 356.321 816.046C359.479 808.831 365.163 810.996 365.163 804.503C365.163 798.01 367.689 794.403 372.121 787.91C376.553 781.418 377.805 775.646 381.595 765.547C385.384 755.447 389.174 750.397 386.016 743.183C382.858 735.968 362.016 737.411 352.713 741.018C343.411 744.625 326.428 759.971 304.751 754.725C283.074 749.48 280.543 754.004 261.312 746.068C242.081 738.133 238.832 737.411 225.301 738.12C211.77 738.83 194.011 730.68 193.38 716.472C192.748 702.264 189.59 684.73 188.959 677.173C188.327 669.617 193.38 668.137 192.117 642.888C190.854 617.638 178.854 600.324 173.169 590.224C167.485 580.125 161.801 577.96 154.854 578.682C147.906 579.403 142.222 558.507 139.064 551.268C135.907 544.029 141.591 517.362 143.485 505.477C145.38 493.592 155.485 476.235 164.959 461.807C174.433 447.378 179.485 434.393 187.064 430.064C194.643 425.736 200.327 425.736 206.643 412.555C212.959 399.374 213.601 365.858 215.555 344.216C217.508 322.574 216.117 280.022 215.555 258.362C214.993 236.701 219.906 225.898 212.343 211.47C204.78 197.041 195.922 181.892 193.396 177.331C190.87 172.77 190.87 158.085 193.396 151.409C195.922 144.733 200.354 142.238 218.017 132.456C235.679 122.675 239.49 121.281 256.762 116.231C274.034 111.181 284.337 116.231 299.495 116.231C314.653 116.231 326.005 109.762 341.811 104.713C357.616 99.6626 358.863 96.7647 371.495 91.0056C384.126 85.2465 392.968 91.0056 403.705 91.0056C414.442 91.0056 416.968 88.8414 428.326 82.3487C439.684 75.8559 433.378 67.199 433.378 49.885C433.378 32.5711 427.063 34.7292 421.518 26.3534C416.522 18.7671 412.732 10.2373 410.321 1.15285H399.616C400.267 4.27899 401.218 7.31345 402.453 10.2011C410.636 29.6793 415.673 36.8934 419.478 48.4422C423.284 59.9909 422.781 70.0846 409.127 72.9703C395.473 75.8559 385.373 70.0846 363.9 82.3487C342.426 94.6127 326.637 98.9412 307.7 100.384C288.764 101.827 289.663 106.155 275.49 105.434C261.317 104.713 246.694 104.713 229.513 111.927C212.332 119.141 210.432 124.191 199.696 128.519C188.959 132.848 179.485 148.694 177.59 155.933C175.696 163.172 175.064 169.035 180.117 177.63C185.169 186.226 195.275 191.863 200.959 206.725C206.643 221.588 206.643 223.746 206.643 242.503C206.643 261.259 209.169 269.923 211.064 298.058C212.959 326.193 205.38 316.814 206.643 344.228C207.906 371.642 207.275 381.589 203.485 389.965C199.696 398.34 199.696 402.993 192.117 412.585C184.538 422.178 178.854 427.209 167.496 440.195C156.138 453.18 147.917 460.37 143.496 473.38C139.075 486.39 137.469 508.014 136.062 528.213C134.654 548.413 132.759 565.005 141.601 573.662C150.443 582.319 159.264 585.205 166.222 595.305C173.18 605.405 185.801 634.267 185.169 653.018C184.538 671.769 184.538 701.353 187.696 715.06C190.854 728.767 197.169 735.987 204.748 743.183C212.327 750.378 211.754 750.397 225.301 750.757C238.848 751.118 249.665 746.79 261.312 750.757C272.958 754.725 291.692 769.154 304.751 765.547C317.811 761.939 334.858 757.599 346.226 756.168C357.595 754.737 368.332 746.093 369.595 761.591C370.858 777.089 365.174 792.239 358.858 800.896C352.542 809.553 347.49 819.604 341.195 834.056C334.901 848.509 333.616 857.325 326.669 873.838C319.722 890.351 319.711 901.894 308.353 914.879C301.686 922.61 295.967 931.338 291.354 940.826H302.059C306.48 933.599 314.048 918.474 318.464 907.665C322.88 896.856 330.426 888.908 331.936 878.246Z" stroke="#595535" stroke-width="0.5" stroke-miterlimit="10"/>
<path d="M343.689 877.249C350.647 869.192 355.058 846.345 356.321 837.847C357.584 829.349 363.279 825.424 372.742 813.16C382.205 800.896 378.426 793.682 382.215 784.303C386.005 774.925 392.952 762.661 401.163 754.725C409.373 746.79 411.268 739.575 403.057 731.585C394.847 723.594 366.426 725.147 352.703 726.59C338.979 728.033 326.637 741.018 314.637 744.625C302.637 748.232 271.058 739.575 261.301 738.854C251.544 738.133 237.579 733.083 233.158 731.585C228.737 730.087 222.422 726.59 218.001 726.59C213.58 726.59 204.085 724.426 202.211 718.642C200.338 712.859 199.053 701.328 197.159 689.682C195.264 678.035 202.211 653 199.685 643.615C197.159 634.231 195.895 623.44 194.632 611.268C193.369 599.095 186.422 593.116 180.106 587.345C173.79 581.574 171.264 577.245 163.685 573.638C156.106 570.031 151.685 561.374 147.896 551.996C144.106 542.617 147.896 529.632 150.652 512.318C153.409 495.004 161.159 479.848 168.106 473.355C175.053 466.863 176.317 455.32 182.632 445.966C188.948 436.612 195.264 437.285 198.422 430.792C201.58 424.299 211.053 419.971 215.549 418.528C220.045 417.085 226.848 417.806 229.508 412.561C232.168 407.315 223.685 391.12 222.422 382.494C221.158 373.867 224.948 357.966 225.29 339.93C225.633 321.895 220.527 305.302 222.422 290.874C224.316 276.446 224.948 259.847 222.422 251.19C219.895 242.533 226.211 223.067 221.158 212.234C216.106 201.4 208.527 189.149 207.242 171.835C205.958 154.521 209.137 150.192 225.269 139.304C241.401 128.415 264.721 122.797 278.155 124.943C291.59 127.089 317.142 124.943 324.721 124.943C332.3 124.943 337.984 114.843 347.457 111.957C356.931 109.072 367.668 104.743 373.984 100.953C380.299 97.1621 390.405 98.9779 399.878 100.439C409.352 101.9 413.794 99.6993 421.491 100.439C428.722 101.112 439.095 85.3321 440.379 83.3207V1.15285H410.321C412.734 10.2377 416.525 18.7676 421.523 26.3534C427.068 34.7292 433.384 32.5649 433.384 49.885C433.384 67.2051 439.7 75.8559 428.331 82.3486C416.963 88.8414 414.415 91.0056 403.71 91.0056C393.006 91.0056 384.132 85.2343 371.5 91.0056C358.869 96.7769 357.584 99.6626 341.816 104.712C326.048 109.762 314.658 116.255 299.501 116.255C284.343 116.255 274.034 111.205 256.768 116.255C239.501 121.305 235.706 122.736 218.022 132.481C200.338 142.226 195.917 144.739 193.401 151.433C190.886 158.128 190.875 172.794 193.401 177.355C195.928 181.916 204.77 197.066 212.349 211.494C219.927 225.922 215.025 236.744 215.56 258.386C216.095 280.028 217.519 322.58 215.56 344.24C213.601 365.901 212.964 399.398 206.648 412.579C200.333 425.76 194.622 425.748 187.053 430.077C179.485 434.405 174.422 447.39 164.948 461.819C155.475 476.247 145.369 493.61 143.475 505.489C141.58 517.368 135.896 544.066 139.054 551.28C142.212 558.494 147.896 579.403 154.843 578.694C161.79 577.985 167.475 580.137 173.159 590.237C178.843 600.336 190.821 617.65 192.106 642.9C193.391 668.149 188.317 669.623 188.948 677.185C189.58 684.748 192.738 702.251 193.369 716.484C194.001 730.717 211.744 738.854 225.29 738.133C238.837 737.411 242.075 738.133 261.301 746.08C280.527 754.028 283.064 749.486 304.74 754.737C326.417 759.989 343.395 744.638 352.703 741.031C362.01 737.423 382.847 735.981 386.005 743.195C389.163 750.409 385.373 755.459 381.584 765.559C377.794 775.658 376.531 781.454 372.11 787.922C367.689 794.391 365.152 798.022 365.152 804.515C365.152 811.008 359.468 808.844 356.31 816.058C353.152 823.272 344.942 838.33 344.31 849.194C343.679 860.058 333.44 867.596 331.925 878.258C330.41 888.921 322.826 896.856 318.416 907.677C314.005 918.499 306.432 933.612 302.011 940.838H310.425C313.47 933.709 317.324 925.01 320.942 917.777C328.532 902.615 336.742 885.301 343.689 877.249Z" stroke="#595535" stroke-width="0.5" stroke-miterlimit="10"/>
<path d="M261.301 919.208C270.496 910.551 271.058 893.237 274.848 883.137C278.637 873.037 279.9 874.468 292.51 858.511C305.12 842.554 297.563 849.218 303.879 827.674C310.195 806.129 279.258 797.276 265.342 792.214C251.426 787.152 234.389 779.95 223.021 777.786C211.653 775.622 198.4 778.507 181.337 777.786C164.274 777.065 168.074 759.751 159.864 741.715C151.653 723.68 156.074 689.749 154.179 672.453C152.285 655.158 145.969 647.204 130.811 629.169C115.653 611.133 118.18 614.74 116.012 578.67C114.237 551.045 109.882 523.717 103.022 497.15C99.2323 482.715 104.916 467.566 112.495 458.909C120.074 450.252 132.074 446.645 151.032 422.116C169.99 397.588 171.874 364.403 170.611 345.647C169.348 326.89 166.822 322.561 172.506 291.54C178.19 260.52 168.085 241.757 161.137 232.378C154.19 223 152.295 225.886 137.769 227.585C123.243 229.285 114.401 238.15 96.7167 242.478C79.0326 246.807 55.0327 246.085 33.5592 259.792C19.6431 268.675 11.3042 267.563 5.77522 265.484V296.052C12.016 292.996 15.8216 291.736 23.4379 288.661C34.1747 284.332 29.1221 278.561 43.0168 279.283C56.9114 280.004 72.0746 283.611 80.9166 279.283C89.7587 274.954 118.811 249.564 135.232 246.385C151.653 243.206 160.495 238.156 164.916 252.584C169.337 267.012 166.811 275.675 164.916 286.497C163.021 297.318 161.127 325.453 161.758 351.424C162.39 377.395 160.324 393.987 150.62 409.859C140.916 425.73 125.844 432.222 116.012 442.322C106.18 452.422 90.3902 462.497 90.3902 489.936C90.3902 517.374 99.2323 512.306 103.022 536.112C106.811 559.919 101.759 576.511 103.653 593.104C105.548 609.696 107.443 620.518 122.601 632.782C137.758 645.046 145.38 671.671 146.633 685.414C147.885 699.158 146.461 716.484 150.652 735.968C154.843 755.453 156.106 764.825 161.79 772.039C167.475 779.253 174.422 784.303 194.632 787.189C214.843 790.074 221.79 780.696 249.585 792.239C277.379 803.781 293.163 806.386 293.163 821.315C293.163 836.245 291.9 839.73 287.479 846.993C283.058 854.256 278.006 852.116 272.953 866.557C267.9 880.997 265.995 896.129 255.9 907.671C245.806 919.214 238.211 921.378 231.895 936.528C231.258 938.056 230.691 939.487 230.166 940.807H240.523C247.289 931.643 255.301 924.863 261.301 919.208Z" stroke="#595535" stroke-width="0.5" stroke-miterlimit="10"/>
<path d="M326.637 873.838C333.595 857.331 334.847 848.509 341.163 834.056C347.479 819.604 352.531 809.553 358.826 800.896C365.12 792.239 370.826 777.089 369.563 761.591C368.299 746.093 357.563 754.725 346.194 756.168C334.826 757.611 317.773 761.939 304.719 765.547C291.665 769.154 272.932 754.725 261.28 750.757C249.628 746.79 238.8 751.118 225.269 750.757C211.738 750.397 212.295 750.397 204.716 743.183C197.137 735.968 190.8 728.754 187.664 715.06C184.527 701.365 184.506 671.775 185.137 653.018C185.769 634.261 173.137 605.405 166.19 595.305C159.243 585.205 150.401 582.319 141.569 573.662C132.738 565.005 134.611 548.413 136.03 528.213C137.448 508.014 139.043 486.365 143.464 473.38C147.885 460.394 156.095 453.205 167.464 440.195C178.832 427.185 184.516 422.159 192.085 412.585C199.653 403.011 199.663 398.353 203.453 389.965C207.242 381.577 207.874 371.624 206.611 344.228C205.348 316.833 212.927 326.193 211.032 298.058C209.137 269.923 206.611 261.259 206.611 242.503C206.611 223.746 206.611 221.582 200.927 206.725C195.242 191.869 185.137 186.232 180.085 177.63C175.032 169.028 175.664 163.147 177.558 155.933C179.453 148.719 188.927 132.848 199.663 128.519C210.4 124.191 212.295 119.141 229.481 111.927C246.668 104.713 261.28 104.713 275.458 105.434C289.636 106.155 288.721 101.827 307.668 100.384C326.615 98.9412 342.405 94.6127 363.868 82.3487C385.331 70.0846 395.446 75.8559 409.095 72.9703C422.743 70.0846 423.236 59.9848 419.446 48.4422C415.657 36.8995 410.604 29.6793 402.394 10.2011C401.18 7.31066 400.248 4.27628 399.616 1.15285H289.754C289.711 1.58081 289.663 2.00265 289.625 2.43061C289.24 6.56957 288.935 10.8125 287.388 14.5785C284.568 21.4564 277.915 25.5342 271.294 26.1945C264.673 26.8548 258.068 24.715 251.929 21.7865C242.204 17.1829 232.885 10.1705 226.013 1.15285H190.152C189.467 7.99406 189.21 13.6492 191.501 18.1367C195.895 26.7936 211.685 43.3923 220.527 49.9095C229.369 56.4266 230 62.8705 243.264 62.1368C256.527 61.4032 267.884 55.7541 274.216 62.1918C280.548 68.6296 281.174 75.1223 281.174 75.1223C281.174 75.1223 279.911 81.615 272.332 83.7793C264.753 85.9435 257.806 86.6649 248.327 83.7793C238.848 80.8936 236.327 87.3863 227.485 93.1576C218.643 98.929 206.011 111.193 192.748 117.686C179.485 124.178 168.128 129.228 161.801 142.214C155.475 155.199 156.117 163.856 158.643 173.235C161.17 182.613 168.117 186.22 175.064 196.32C182.011 206.42 189.59 208.376 192.117 227.598C194.643 246.819 198.432 286.503 199.075 309.588C199.717 332.673 197.79 386.07 187.664 400.499C177.537 414.927 140.927 450.276 133.348 472.64C125.769 495.004 133.348 517.374 130.19 531.802C127.032 546.23 121.295 559.216 129.858 574.366C138.422 589.515 153.569 588.794 158.622 598.894C163.674 608.993 173.148 624.871 176.284 653C179.421 681.129 180.074 721.534 185.758 733.089C191.442 744.644 198.39 756.174 210.379 759.781C222.368 763.388 237.537 756.896 247.647 759.781C257.758 762.667 278.594 771.324 288.7 774.21C298.805 777.095 309.542 772.045 322.173 769.881C334.805 767.717 344.91 760.503 350.594 766.274C356.278 772.045 349.962 788.638 334.805 816.052C319.647 843.465 324.068 866.679 309.542 885.375C295.015 904.07 284.578 930.714 272.937 940.832H291.279C295.892 931.345 301.611 922.616 308.278 914.885C319.69 901.894 319.69 890.351 326.637 873.838Z" stroke="#595535" stroke-width="0.5" stroke-miterlimit="10"/>
<path d="M272.953 914.879C278.637 904.058 283.058 893.958 295.69 880.514C308.321 867.07 305.795 856.445 310.848 847.005C315.9 837.566 320.953 819.653 324.764 805.224C328.574 790.796 334.869 786.467 330.448 782.524C326.027 778.581 322.237 780.69 313.395 782.139C304.553 783.588 293.185 780.696 283.711 778.532C274.238 776.368 267.922 774.925 248.969 769.154C230.017 763.382 218.654 769.154 214.864 769.154C211.075 769.154 207.906 764.825 204.127 762.661C200.349 760.497 193.391 761.218 189.601 758.332C185.812 755.447 182.022 733.083 176.338 712.156C170.654 691.229 166.864 648.671 160.115 629.193C153.366 609.715 132.128 596.729 125.405 582.301C118.683 567.873 117.602 524.588 119.518 515.21C121.434 505.831 118.865 503.667 119.518 489.954C120.171 476.241 128.338 461.097 135.286 454.605C142.233 448.112 144.759 443.062 156.128 426.482C167.496 409.901 171.917 401.954 173.79 394.018C175.664 386.082 181.369 380.311 185.79 373.097C190.211 365.883 187.053 355.062 187.053 349.29C187.053 343.519 188.317 308.17 187.685 272.82C187.053 237.471 170.632 216.575 163.685 210.773C156.738 204.971 147.264 184.08 143.475 180.473C139.685 176.866 140.317 165.324 143.475 151.433C146.633 137.543 161.137 127.089 172.179 119.153C183.221 111.217 194.001 104.725 199.053 96.4957C204.106 88.2667 200.948 75.1467 194.001 63.6041C187.053 52.0615 179.474 40.5066 174.422 18.1183C173.165 12.5684 172.431 6.88093 172.233 1.15285H122.745C122.89 5.53795 123.786 9.84805 125.384 13.8387C131.464 28.2365 146.633 48.4422 145.38 63.5919C144.128 78.7416 140.14 96.9665 125.395 108.772C110.649 120.578 95.6034 144.335 85.3698 151.397C75.1361 158.458 43.2362 189.632 29.7697 201.382C19.5307 210.345 10.967 220.744 5.79128 230.612V265.508C11.3202 267.587 19.6645 268.7 33.5752 259.817C55.0542 246.11 79.0701 246.831 96.7328 242.503C114.395 238.174 123.259 229.309 137.785 227.61C152.311 225.91 154.206 223.024 161.153 232.403C168.101 241.781 178.206 260.526 172.522 291.565C166.838 322.604 169.364 326.914 170.627 345.671C171.89 364.428 169.996 397.637 151.048 422.141C132.101 446.645 120.101 450.264 112.511 458.933C104.922 467.602 99.2484 482.74 103.038 497.174C109.898 523.741 114.253 551.07 116.028 578.694C118.196 614.765 115.669 611.158 130.827 629.193C145.985 647.228 152.338 655.164 154.211 672.478C156.085 689.792 151.685 723.698 159.896 741.74C168.106 759.781 164.317 777.089 181.369 777.811C198.422 778.532 211.685 775.646 223.053 777.811C234.422 779.975 251.479 787.189 265.374 792.239C279.269 797.289 310.216 806.141 303.911 827.698C297.606 849.255 305.174 842.579 292.543 858.536C279.911 874.492 278.626 873.068 274.88 883.162C271.133 893.255 270.528 910.563 261.333 919.232C255.333 924.887 247.321 931.667 240.555 940.85H253.936C260.873 934.804 267.713 924.851 272.953 914.879Z" stroke="#595535" stroke-width="0.5" stroke-miterlimit="10"/>
<path d="M309.584 885.369C324.111 866.697 319.69 843.465 334.853 816.046C350.016 788.626 356.326 772.027 350.642 766.268C344.958 760.509 334.853 767.711 322.221 769.875C309.59 772.039 298.853 777.089 288.748 774.203C278.643 771.318 257.801 762.661 247.695 759.775C237.59 756.889 222.427 763.382 210.427 759.775C198.427 756.168 191.48 744.625 185.806 733.083C180.133 721.54 179.491 681.117 176.333 652.994C173.175 624.871 163.701 608.975 158.67 598.888C153.639 588.8 138.422 589.515 129.858 574.366C121.295 559.216 127.043 546.243 130.201 531.802C133.359 517.362 125.78 495.01 133.359 472.64C140.938 450.27 177.569 414.927 187.674 400.499C197.779 386.07 199.674 332.686 199.043 309.6C198.411 286.515 194.622 246.831 192.106 227.61C189.59 208.388 182.001 206.42 175.053 196.332C168.106 186.245 161.137 182.625 158.633 173.247C156.128 163.868 155.475 155.212 161.79 142.226C168.106 129.241 179.453 124.191 192.738 117.698C206.022 111.205 218.632 98.9412 227.474 93.1699C236.316 87.3986 238.843 80.9058 248.316 83.7915C257.79 86.6771 264.743 85.9557 272.321 83.7915C279.9 81.6272 281.163 75.1345 281.163 75.1345C281.163 75.1345 280.532 68.6418 274.205 62.2041C267.879 55.7664 256.543 61.4276 243.253 62.149C229.963 62.8705 229.337 56.3777 220.516 49.885C211.696 43.3923 195.895 26.7936 191.464 18.1367C189.173 13.6492 189.43 7.99406 190.115 1.15285H172.233C172.431 6.88093 173.165 12.5684 174.422 18.1183C179.474 40.4883 187.053 52.0309 194.001 63.5735C200.948 75.1162 204.106 88.2422 199.053 96.4651C194.001 104.688 183.194 111.187 172.179 119.122C161.164 127.058 146.633 137.506 143.475 151.403C140.317 165.299 139.685 176.836 143.475 180.443C147.264 184.05 156.738 204.971 163.685 210.742C170.632 216.513 187.053 237.453 187.664 272.808C188.274 308.164 187.032 343.507 187.032 349.278C187.032 355.049 190.19 365.871 185.769 373.085C181.348 380.299 175.664 386.07 173.769 394.006C171.874 401.941 167.453 409.901 156.106 426.469C144.759 443.038 142.19 448.112 135.264 454.592C128.338 461.073 120.155 476.235 119.496 489.942C118.838 503.649 121.418 505.837 119.496 515.197C117.575 524.557 118.656 567.861 125.384 582.289C132.112 596.717 153.339 609.703 160.094 629.181C166.848 648.659 170.632 691.222 176.317 712.143C182.001 733.064 185.79 755.434 189.58 758.32C193.369 761.206 200.316 760.484 204.106 762.649C207.895 764.813 211.064 769.141 214.843 769.141C218.621 769.141 230.001 763.37 248.948 769.141C267.895 774.913 274.216 776.355 283.69 778.52C293.163 780.684 304.532 783.57 313.374 782.127C322.216 780.684 326.005 778.575 330.426 782.512C334.847 786.449 328.532 790.784 324.742 805.212C320.953 819.64 315.9 837.553 310.826 846.993C305.752 856.432 308.3 867.064 295.668 880.502C283.037 893.94 278.616 904.046 272.932 914.867C267.692 924.838 260.851 934.792 253.883 940.813H272.98C284.621 930.708 295.069 904.046 309.584 885.369Z" stroke="#595535" stroke-width="0.5" stroke-miterlimit="10"/>
<path d="M411.268 706.384C401.163 711.434 384.11 707.827 371.479 709.27C358.847 710.713 352.531 715.041 341.163 715.787C329.795 716.533 321.584 717.206 312.742 715.787C303.9 714.369 292.532 712.156 280.709 715.041C268.885 717.927 255.269 711.434 245.918 712.156C236.568 712.877 236.948 709.27 229.503 704.941C222.058 700.613 216.737 705.663 212.316 701.83C207.895 697.996 205.358 686.185 204.737 681.856C204.117 677.528 202.843 668.871 208.329 663.099C213.815 657.328 211.053 647.95 216.106 641.457C221.158 634.964 219.895 627.75 221.158 618.525C222.422 609.299 219.895 603.24 216.106 595.293C212.316 587.345 204.737 585.193 194.001 576.536C183.264 567.879 183.264 562.847 175.053 554.166C166.843 545.484 164.317 539.016 161.137 528.195C157.958 517.374 159.243 504.388 164.927 496.447C170.611 488.505 173.769 482.74 176.295 476.883C178.822 471.026 181.348 461.849 185.769 462.571C190.19 463.292 192.727 461.849 195.874 457.521C199.021 453.192 202.832 452.471 212.927 446.003C223.021 439.534 221.137 448.142 235.663 439.485C250.189 430.828 255.879 435.157 256.725 421.719C257.57 408.281 252.716 388.265 249.563 378.165C246.411 368.065 238.821 351.473 235.032 343.537C231.242 335.602 231.874 324.059 234.4 315.726C236.926 307.393 235.663 293.038 236.295 279.399C236.926 265.759 234.422 263.43 233.158 250.438C231.895 237.447 234.422 233.124 239.046 222.315C243.67 211.506 240.116 207.166 233.158 200.673C226.2 194.18 222.422 189.13 221.158 181.195C219.895 173.259 230 163.159 242 155.945C254 148.731 254.032 150.174 283.058 151.397C312.084 152.619 313.374 147.973 331.936 142.226C350.498 136.479 351.9 132.848 372.742 135.733C393.584 138.619 395.479 129.241 411.279 126.355C426.18 123.634 439.009 120.241 440.411 119.899V83.2779C439.127 85.2771 428.754 101.056 421.523 100.396C413.805 99.6748 409.384 101.882 399.91 100.396C390.437 98.9106 380.331 97.1193 374.016 100.91C367.7 104.7 356.963 109.035 347.49 111.914C338.016 114.794 332.332 124.9 324.753 124.9C317.174 124.9 291.622 127.064 278.188 124.9C264.753 122.736 241.438 128.379 225.301 139.261C209.164 150.143 206.033 154.478 207.275 171.792C208.516 189.106 216.117 201.37 221.191 212.191C226.265 223.012 219.927 242.49 222.454 251.147C224.98 259.804 224.348 276.403 222.454 290.831C220.559 305.26 225.665 321.852 225.323 339.887C224.98 357.923 221.191 373.794 222.454 382.451C223.717 391.108 232.19 407.309 229.535 412.555C226.88 417.8 220.061 417.079 215.576 418.522C211.091 419.964 201.58 424.305 198.422 430.792C195.264 437.278 188.948 436.612 182.632 445.966C176.317 455.32 175.053 466.862 168.106 473.355C161.159 479.848 153.409 494.985 150.652 512.324C147.896 529.662 144.106 542.623 147.896 552.002C151.685 561.38 156.106 570.037 163.685 573.644C171.264 577.251 173.79 581.592 180.106 587.351C186.422 593.11 193.369 599.126 194.632 611.274C195.895 623.422 197.159 634.243 199.685 643.621C202.211 653 195.264 678.035 197.159 689.688C199.053 701.34 200.316 712.877 202.211 718.648C204.106 724.42 213.58 726.596 218.001 726.596C222.422 726.596 228.737 730.099 233.158 731.591C237.579 733.083 251.549 738.139 261.301 738.86C271.053 739.582 302.637 748.239 314.637 744.631C326.637 741.024 338.974 728.039 352.703 726.596C366.431 725.153 394.847 723.607 403.057 731.591C411.268 739.575 409.373 746.796 401.163 754.731C392.952 762.667 386.005 774.906 382.215 784.309C378.426 793.712 382.215 800.902 372.742 813.166C363.268 825.43 357.584 829.355 356.321 837.853C355.058 846.351 350.637 869.198 343.689 877.256C336.742 885.313 328.532 902.621 320.953 917.771C317.335 925.003 313.459 933.703 310.435 940.832H342.978C345.504 931.606 348.935 920.009 352.703 909.835C360.448 888.914 371.479 876.65 385.352 857.001C399.225 837.352 394.826 830.48 400.51 809.559C406.194 788.638 413.141 782.866 421.491 770.602C429.3 759.133 439.154 745.139 440.379 743.372V709.227C438.774 708.561 420.908 701.573 411.268 706.384Z" stroke="#FFAA00" stroke-width="0.5" stroke-miterlimit="10"/>
<path d="M377.479 687.45C359.008 692.341 355.218 696.107 338.637 692.861C322.055 689.614 313.947 695.025 300.004 696.645C286.061 698.265 274.216 688.789 264.737 685.414C255.258 682.04 250.05 686.906 242.471 679.875C234.893 672.845 227.785 666.713 232.05 652.975C236.316 639.238 248.643 623.813 247.685 611.249C246.727 598.686 237.975 579.232 225.29 567.329C212.605 555.425 196.056 544.066 191.319 534.315C186.582 524.563 183.74 507.262 197.474 491.024C211.208 474.786 213.58 471.008 248.161 461.806C282.742 452.605 280.371 415.275 275.163 395.259C269.956 375.243 267.585 371.99 266.637 346.019C265.69 320.049 255.269 327.067 252.898 293.534C250.527 260 254.91 242.674 256.746 233.473C258.582 224.272 260.594 210.748 256.746 201.553C252.898 192.358 244.398 177.471 268.056 177.343C291.713 177.215 301.69 183.964 310.687 177.343C319.684 170.722 334.553 170.722 352.703 170.722C370.852 170.722 382.215 159.363 393.584 157.198C404.952 155.034 415.85 151.788 424.376 152.307C432.26 152.809 439.362 159.778 440.401 160.83V132.707C434.961 131.457 429.366 131.372 423.899 132.456C414.426 134.29 407.479 131.973 399.9 139.249C392.321 146.524 387.268 145.809 375.9 145.809C364.531 145.809 360.742 151.922 348.742 151.397C336.742 150.871 343.058 147.973 327.9 154.453C312.742 160.934 309.135 165.275 286.623 164.553C264.111 163.832 256.784 160.384 245.918 164.633C235.053 168.882 233.79 176.817 235.053 185.474C236.316 194.131 247.31 200.483 245.918 206.689C244.527 212.894 244.784 219.894 245.918 227.573C247.053 235.252 240.502 236.731 239.046 242.49C237.59 248.249 241.374 268.467 243.269 275.682C245.164 282.896 246.427 292.996 242.637 302.374C238.848 311.752 233.795 324.738 243.269 344.937C252.743 365.137 261.306 384.615 261.306 392.551C261.306 400.486 266.712 422.129 261.306 430.786C255.9 439.443 253.133 446.687 239.046 451.719C224.959 456.75 224.456 453.883 215.549 456.769C206.643 459.654 203.48 461.189 199.059 468.385C194.638 475.581 193.375 470.268 185.796 476.877C178.217 483.486 171.88 498.678 168.743 505.513C165.607 512.348 168.743 517.398 168.743 525.334C168.743 533.269 172.533 541.926 179.48 549.14C186.427 556.355 185.164 553.041 201.585 565.519C218.006 577.997 228.373 596.032 229.508 604.689C230.643 613.346 231.959 624.168 225.296 636.432C218.632 648.696 220.532 659.664 216.111 667.886C211.69 676.109 211.69 683.831 219.269 689.712C226.848 695.594 234.191 698.736 239.046 701.854C243.901 704.972 253.449 699.458 261.306 701.854C269.164 704.251 290.011 710.737 308.327 708.579C326.642 706.421 332.947 710.896 338.642 709.019C344.337 707.142 346.853 703.071 357.589 701.86C368.326 700.65 387.273 697.036 402.431 698.479C417.589 699.922 421.785 694.2 440.433 699.17V687.469C437.735 687.151 395.366 682.737 377.479 687.45Z" stroke="#FFAA00" stroke-width="0.5" stroke-miterlimit="10"/>
<path d="M402.426 698.449C387.268 697.006 368.321 700.613 357.584 701.83C346.847 703.046 344.321 707.106 338.637 708.989C332.953 710.872 326.637 706.384 308.321 708.549C290.006 710.713 269.164 704.22 261.301 701.824C253.438 699.427 243.895 704.935 239.041 701.824C234.186 698.712 226.843 695.557 219.264 689.682C211.685 683.807 211.685 676.079 216.106 667.856C220.527 659.633 218.632 648.665 225.29 636.401C231.949 624.137 230.643 613.316 229.503 604.659C228.363 596.002 218.001 577.973 201.58 565.495C185.159 553.017 186.422 556.324 179.474 549.116C172.527 541.908 168.738 533.22 168.738 525.309C168.738 517.398 165.58 512.324 168.738 505.489C171.896 498.654 178.211 483.48 185.79 476.852C193.369 470.225 194.632 475.526 199.053 468.36C203.474 461.195 206.632 459.655 215.544 456.744C224.455 453.834 224.948 456.744 239.041 451.695C253.133 446.645 255.9 439.43 261.301 430.773C266.701 422.116 261.301 400.474 261.301 392.539C261.301 384.603 252.737 365.125 243.264 344.925C233.79 324.726 238.843 311.74 242.632 302.362C246.421 292.983 245.158 282.884 243.264 275.669C241.369 268.455 237.579 248.274 239.046 242.49C240.512 236.707 247.074 235.276 245.924 227.598C244.773 219.919 244.532 212.925 245.924 206.713C247.315 200.502 236.316 194.192 235.053 185.511C233.79 176.829 235.053 168.918 245.918 164.669C256.784 160.42 264.116 163.868 286.623 164.59C309.129 165.311 312.742 160.983 327.9 154.49C343.058 147.997 336.742 150.883 348.742 151.433C360.742 151.983 364.531 145.845 375.9 145.845C387.268 145.845 392.321 146.567 399.9 139.285C407.479 132.004 414.426 134.303 423.899 132.493C429.366 131.409 434.961 131.494 440.401 132.744V119.905C438.998 120.272 426.169 123.64 411.268 126.361C395.479 129.247 393.605 138.625 372.731 135.739C351.857 132.854 350.492 136.461 331.925 142.232C313.358 148.003 312.121 152.68 283.047 151.403C253.974 150.125 253.995 148.7 241.99 155.915C229.984 163.129 219.885 173.229 221.148 181.164C222.411 189.1 226.2 194.192 233.158 200.661C240.116 207.129 243.66 211.482 239.046 222.303C234.432 233.124 231.901 237.453 233.158 250.426C234.416 263.399 236.948 265.71 236.316 279.356C235.685 293.002 236.948 307.35 234.422 315.683C231.895 324.016 231.264 335.559 235.053 343.495C238.843 351.43 246.421 368.023 249.585 378.122C252.748 388.222 257.613 408.238 256.746 421.676C255.879 435.114 250.211 430.786 235.685 439.443C221.158 448.1 223.053 439.492 212.948 445.96C202.843 452.428 199.032 453.15 195.895 457.478C192.759 461.807 190.211 463.249 185.79 462.528C181.369 461.807 178.832 470.953 176.317 476.84C173.801 482.728 170.632 488.499 164.948 496.404C159.264 504.309 157.99 517.331 161.159 528.152C164.327 538.973 166.843 545.466 175.075 554.123C183.307 562.78 183.285 567.83 194.022 576.487C204.759 585.144 212.338 587.308 216.127 595.244C219.917 603.179 222.443 609.256 221.18 618.476C219.917 627.695 221.18 634.915 216.127 641.408C211.075 647.901 213.836 657.304 208.35 663.051C202.864 668.797 204.127 677.479 204.759 681.807C205.39 686.136 207.917 697.941 212.338 701.781C216.759 705.62 222.074 700.558 229.524 704.893C236.975 709.227 236.595 712.84 245.94 712.107C255.285 711.373 268.907 717.878 280.73 714.992C292.553 712.107 303.922 714.32 312.764 715.738C321.606 717.157 329.816 716.484 341.185 715.738C352.553 714.992 358.847 710.664 371.5 709.221C384.153 707.778 401.184 711.385 411.289 706.335C420.924 701.524 438.795 708.512 440.422 709.172V699.091C421.78 694.151 417.546 699.892 402.426 698.449Z" stroke="#595535" stroke-width="0.5" stroke-miterlimit="10"/>
<path d="M42.5511 738.854C43.9481 749.675 38.6278 753.282 37.5574 762.661C36.4869 772.039 36.7331 778.556 42.5511 787.189C48.3691 795.821 51.2594 800.896 63.741 800.896C76.2226 800.896 90.4224 795.846 99.9442 787.189C109.466 778.532 101.791 764.825 103.07 751.84C104.349 738.854 110.633 730.197 107.132 720.091C103.632 709.985 103.054 709.27 102.77 698.449C102.487 687.628 92.3171 664.542 82.4795 653C72.6419 641.457 72.7383 628.472 69.2646 601.779C65.7909 575.087 58.8436 545.533 56.7669 526.031C54.6902 506.528 51.8909 474.064 51.3503 461.097C50.8098 448.13 56.3173 431.519 62.0015 420.698C67.6857 409.877 70.212 401.941 68.9595 392.575C67.7071 383.209 64.5385 379.59 56.7776 380.311C49.0167 381.033 50.6438 379.577 44.312 378.856C37.9802 378.135 30.396 378.856 22.2069 381.02C18.6529 381.956 12.9527 384.799 5.79128 388.968V404.766C10.0357 401.318 15.099 397.539 19.049 396.861C25.3648 395.779 31.9963 395.418 35.1542 396.139C38.3121 396.861 41.7857 397.974 43.0489 402.253C44.312 406.533 45.5752 408.024 46.8437 412.714C48.1122 417.403 48.1015 417.042 46.8437 423.896C45.5859 430.749 42.7331 436.52 42.7331 446.981C42.7331 457.441 39.2594 470.066 40.8384 478.723C42.4173 487.38 43.6805 485.57 44.6278 494.411C45.5752 503.251 45.5752 511.914 47.7857 515.521C49.9962 519.128 50.312 540.771 53.4752 552.674C56.6384 564.577 59.791 571.431 62.0015 584.416C64.212 597.402 65.1594 613.273 66.1067 623.734C67.0541 634.194 67.0541 635.276 70.5278 643.909C74.0014 652.541 79.6856 656.533 82.2119 662.305C84.7382 668.076 85.3698 679.619 86.6329 688.276C87.8961 696.933 90.7382 704.171 91.6855 710.639C92.6329 717.108 93.5802 728.681 91.6855 733.731C89.7908 738.781 84.5027 745.634 80.5152 748.159C77.8636 749.895 74.8463 750.768 71.7909 750.684C70.212 750.684 66.5563 745.995 64.7526 741.666C62.9489 737.338 61.7553 730.845 61.0862 724.352C60.4172 717.86 61.3699 709.918 58.5278 705.59C55.6857 701.261 50.9436 695.202 43.3647 693.069C36.7656 691.094 30.0088 689.886 23.1971 689.462C18.2515 689.18 12.744 689.052 5.79128 687.334V705.73C20.644 708.591 28.544 710.01 33.5217 712.908C38.4994 715.806 41.1541 728.033 42.5511 738.854Z" stroke="#595535" stroke-width="0.5" stroke-miterlimit="10"/>
<path d="M232.527 877.249C237.579 860.535 248.948 839.852 245.158 829.398C241.369 818.943 231.895 812.438 225.29 812.438H204.737C196.527 812.438 177.58 810.274 159.243 803.06C140.906 795.846 129.559 768.432 125.362 751.84C121.166 735.247 122.611 705.663 118.886 690.513C115.161 675.363 113.769 676.085 106.089 661.657C98.408 647.228 91.0325 636.407 86.0977 624.865C81.1628 613.322 80.9273 588.072 79.6749 572.898C78.4224 557.724 73.9907 539.713 71.4644 528.171C68.9381 516.628 67.675 488.487 68.9381 479.83C70.2013 471.173 69.5697 461.073 76.046 445.202C82.5223 429.331 97.359 417.079 106.099 405.524C114.84 393.969 121.359 386.767 125.368 380.996C129.377 375.225 131.459 362.961 130.827 355.746C130.196 348.532 132.722 339.154 133.985 333.383C135.248 327.611 130.196 307.412 125.368 306.69C120.54 305.969 109.354 318.233 102.406 321.363C95.4589 324.493 82.1958 331.224 70.8275 336.274C59.4591 341.324 33.5592 347.817 22.8224 352.867C16.9884 355.612 11.711 358.143 5.77522 361.273V373.066C18.4067 368.738 25.3541 365.155 43.6644 361.897C61.9747 358.638 65.7749 352.115 72.7222 349.26C79.6695 346.405 91.6695 340.603 100.512 339.16C109.354 337.717 112.592 332.667 116.033 334.831C119.475 336.996 123.254 350.727 122.622 355.752C121.99 360.778 116.306 371.648 112.517 374.509C108.727 377.37 104.306 386.052 97.9906 391.823C91.6748 397.595 80.6276 408.416 76.046 417.794C71.4644 427.172 72.7276 432.222 68.9381 443.765C65.1486 455.308 60.7276 468.061 61.9801 476.834C63.2325 485.607 61.3485 502.206 62.6116 511.584C63.8748 520.962 67.6642 527.48 68.2958 538.998C68.9274 550.516 72.0853 562.682 73.3484 577.893C74.6116 593.104 76.8596 600.55 79.2092 611.255C81.5589 621.96 81.955 633.503 87.4411 643.603C92.9273 653.703 99.243 670.326 103.032 677.167C106.822 684.008 114.401 710.694 115.664 724.407C116.927 738.12 120.529 767.692 125.362 784.285C130.196 800.877 153.558 817.189 163.664 821.297C173.769 825.405 182.611 824.843 190.821 823.321C199.032 821.798 214.19 823.51 221.137 824.458C228.084 825.405 228.095 841.099 229.348 846.235C230.6 851.37 222.389 865.242 218.611 873.82C214.832 882.397 210.4 885.98 205.979 892.124C201.558 898.268 197.137 908.368 192.716 914.861C190.35 918.34 187.979 930.377 186.293 940.807H196.302C197.699 935.996 200.423 927.052 207.242 913.418C214.843 898.287 227.474 893.958 232.527 877.249Z" stroke="#595535" stroke-width="0.5" stroke-miterlimit="10"/>
<path d="M206.001 892.142C210.422 886.029 214.843 882.416 218.632 873.838C222.422 865.261 230.632 851.395 229.369 846.253C228.106 841.112 228.106 825.424 221.158 824.476C214.211 823.529 199.053 821.817 190.843 823.339C182.632 824.861 173.79 825.424 163.685 821.315C153.58 817.207 130.212 800.896 125.384 784.303C120.556 767.711 116.949 738.133 115.685 724.426C114.422 710.719 106.843 684.02 103.054 677.173C99.2644 670.326 92.9487 653.709 87.4625 643.609C81.9764 633.509 81.575 621.967 79.2306 611.262C76.8863 600.557 74.633 593.11 73.3698 577.899C72.1067 562.688 68.9488 550.559 68.3065 539.004C67.6642 527.449 63.8855 520.969 62.6224 511.59C61.3592 502.212 63.2539 485.613 61.9908 476.84C60.7276 468.067 65.1487 455.314 68.9488 443.771C72.749 432.228 71.4751 427.179 76.0567 417.8C80.6383 408.422 91.6855 397.625 98.0013 391.829C104.317 386.034 108.738 377.401 112.527 374.515C116.317 371.63 122.001 360.808 122.633 355.759C123.264 350.709 119.475 337.002 116.044 334.838C112.613 332.673 109.37 337.723 100.522 339.166C91.6748 340.609 79.6802 346.38 72.7329 349.266C65.7856 352.152 62.0015 358.65 43.6858 361.915C25.3701 365.18 18.4228 368.756 5.79128 373.085V388.98C12.9527 384.78 18.6369 381.937 22.2069 381.033C30.4174 378.868 37.9963 378.147 44.312 378.868C50.6278 379.59 49.006 381.033 56.7669 380.311C64.5278 379.59 67.6857 383.197 68.9488 392.575C70.212 401.954 67.6857 409.889 61.9908 420.698C56.2959 431.507 50.7937 448.112 51.3396 461.097C51.8856 474.083 54.6795 506.553 56.7562 526.031C58.8329 545.509 65.7856 575.087 69.2539 601.779C72.7222 628.472 72.6312 641.463 82.4688 653C92.3064 664.536 102.481 687.628 102.759 698.449C103.038 709.27 103.616 709.991 107.122 720.091C110.627 730.191 104.338 738.854 103.059 751.84C101.78 764.825 109.482 778.532 99.9335 787.189C90.3849 795.846 76.2066 800.896 63.7303 800.896C51.254 800.896 48.3584 795.846 42.5404 787.189C36.7224 778.532 36.4762 772.039 37.5467 762.661C38.6171 753.282 43.9374 749.675 42.5404 738.854C41.1434 728.033 38.5208 715.763 33.5164 712.877C28.5119 709.991 20.6708 708.561 5.79128 705.7V724.438C10.9884 726.596 16.2337 732.74 19.7073 736.665C24.1498 741.715 23.454 755.422 24.123 762.636C24.7921 769.85 27.2648 777.065 25.9321 787.164C24.5994 797.264 34.2122 809.528 37.5627 813.135C40.9133 816.742 48.7438 818.907 59.3039 821.291C69.8641 823.675 68.9381 823.235 79.236 821.291C89.5339 819.347 96.7435 816.021 102.786 821.291C108.829 826.561 111.28 825.399 125.801 834.032C140.322 842.664 135.896 869.406 133.369 886.194C130.843 902.982 127.685 907.641 125.384 926.544C124.801 931.338 124.005 936.094 122.997 940.795H186.315C188.001 930.365 190.372 918.327 192.738 914.849C197.159 908.387 201.58 898.287 206.001 892.142ZM190.843 880.899C186.106 885.515 183.74 888.187 180.898 897.009C178.056 905.831 177.58 907.665 176.616 917.404C175.653 927.143 174.053 936.711 171.409 935.8C166.672 934.18 161.459 924.979 158.145 910.373C154.832 895.768 153.403 878.448 153.864 863.151C154.324 847.855 155.282 839.491 160.971 834.056C166.661 828.621 175.653 832.461 182.284 831.898C188.916 831.336 200.761 835.163 205.021 839.076C209.282 842.988 208.34 846.528 207.863 852.434C207.387 858.34 205.498 862.216 201.232 866.991C196.966 871.766 195.58 876.284 190.843 880.899V880.899Z" stroke="#595535" stroke-width="0.5" stroke-miterlimit="10"/>
<path d="M1.47731 877.25C0.331909 884.341 1.47731 888.254 2.51031 895.04C3.00272 898.299 4.14277 899.43 5.79129 901.191V868.177C4.26587 871.044 2.0393 873.783 1.47731 877.25Z" stroke="#595535" stroke-width="0.5" stroke-miterlimit="10"/>
<path d="M118.233 889.929C118.843 880.282 115.685 867.786 112.527 861.048C109.37 854.311 107.475 851.413 101.357 852.024C95.2395 852.636 83.1593 855.632 75.393 854.941C67.6268 854.25 61.2575 858.169 54.8989 846.993C48.5404 835.817 43.9267 843.043 40.0141 837.822C36.1015 832.601 24.4923 823.957 21.4629 813.857C18.4335 803.757 14.4407 795.008 12.9581 777.737C11.6093 762.043 11.4969 761.805 5.79128 753.496V804.472C6.23284 805.884 6.7366 807.27 7.30064 808.623C12.2944 820.527 14.157 825.399 15.4522 829.373C16.7475 833.347 30.8402 838.189 33.3611 849.548C35.8821 860.908 34.5494 865.646 42.4601 872.322C50.3709 878.998 57.2486 876.791 68.4029 877.213C79.5571 877.635 87.5749 887.759 87.5749 887.759C90.888 895.389 93.5588 905.489 89.9139 916.322C86.4991 926.471 83.2502 933.44 78.5509 940.826H98.0709C102.353 934.584 106.501 927.241 108.54 919.929C113.801 901.172 117.623 899.546 118.233 889.929Z" stroke="#595535" stroke-width="0.5" stroke-miterlimit="10"/>
<path d="M5.79128 858.187V868.189C7.35416 865.273 8.18378 862.234 5.79128 858.187Z" stroke="#595535" stroke-width="0.5" stroke-miterlimit="10"/>
<path d="M21.4629 936.882C20.3122 929.668 18.2836 926.061 12.8242 912.715C9.98216 905.77 7.58431 903.11 5.79128 901.191V940.826H20.933C21.5222 939.628 21.7105 938.227 21.4629 936.882Z" stroke="#595535" stroke-width="0.5" stroke-miterlimit="10"/>
<path d="M59.2986 912.55C55.3699 906.595 50.9489 903.379 44.1568 901.185C37.3647 898.99 30.1176 896.856 25.9268 894.154C21.7359 891.452 16.7636 882.373 15.4522 877.262C14.1409 872.151 19.0918 863.145 19.702 857.007C20.3122 850.869 20.3443 846.424 15.1204 840.262C11.1008 835.518 9.00268 833.537 5.79128 828.689V858.199C8.18378 862.247 7.35416 865.285 5.79128 868.201V901.215C7.58431 903.135 9.98216 905.794 12.8242 912.739C18.2836 926.086 20.3175 929.693 21.4629 936.907C21.7089 938.252 21.5187 939.653 20.9277 940.85H55.7981C58.9614 935.647 61.3003 929.846 61.6001 926.599C62.0015 922.277 63.2272 918.486 59.2986 912.55Z" stroke="#595535" stroke-width="0.5" stroke-miterlimit="10"/>
<path d="M133.369 886.218C135.896 869.43 140.328 842.689 125.801 834.056C111.275 825.424 108.808 826.585 102.786 821.315C96.7649 816.045 89.5285 819.371 79.236 821.315C68.9435 823.26 69.8641 823.7 59.3039 821.315C48.7438 818.931 40.9133 816.767 37.5627 813.16C34.2122 809.553 24.5994 797.264 25.9321 787.189C27.2648 777.113 24.7653 769.875 24.123 762.661C23.4807 755.447 24.1498 741.74 19.7073 736.69C16.239 732.74 10.9938 726.596 5.79128 724.462V753.545C11.4969 761.854 11.6093 762.104 12.9581 777.786C14.4407 795.057 18.4174 803.806 21.4629 813.906C24.5084 824.005 36.1015 832.662 40.0141 837.871C43.9267 843.08 48.5457 835.848 54.8989 847.042C61.2522 858.236 67.6214 854.305 75.393 854.99C83.1646 855.674 95.2395 852.691 101.357 852.073C107.475 851.456 109.386 854.305 112.527 861.042C115.669 867.779 118.843 880.276 118.233 889.923C117.623 899.571 113.791 901.197 108.561 919.954C106.522 927.29 102.385 934.626 98.0923 940.85H122.997C124.005 936.149 124.801 931.393 125.384 926.599C127.685 907.659 130.843 903.013 133.369 886.218Z" stroke="white" stroke-width="0.5" stroke-miterlimit="10"/>
<path d="M87.5749 887.759C87.5749 887.759 79.5464 877.671 68.3975 877.25C57.2486 876.828 50.3762 879.035 42.4548 872.359C34.5333 865.682 35.8607 860.957 33.3558 849.585C30.8509 838.214 16.7636 833.366 15.4469 829.41C14.1302 825.454 12.289 820.563 7.29529 808.66C6.73125 807.306 6.22749 805.921 5.78593 804.509V828.689C8.99733 833.579 11.0954 835.518 15.1151 840.262C20.3389 846.424 20.3068 850.869 19.6966 857.007C19.0865 863.145 14.1409 872.145 15.4469 877.262C16.7529 882.379 21.7305 891.446 25.9214 894.154C30.1123 896.862 37.3593 899.045 44.1515 901.185C50.9436 903.324 55.3914 906.595 59.2932 912.55C63.1951 918.505 61.9694 922.289 61.6001 926.611C61.3003 929.87 58.9614 935.66 55.7981 940.862H78.567C83.2663 933.489 86.5152 926.507 89.93 916.359C93.5803 905.501 90.9094 895.389 87.5749 887.759Z" stroke="white" stroke-width="0.5" stroke-miterlimit="10"/>
<path d="M12.107 139.273C22.2765 135.519 20.3175 137.176 27.2648 132.481C34.2122 127.786 29.7323 120.626 17.1596 114.812C11.4755 112.177 8.09278 110.747 5.79663 108.803V144.494C7.01161 142.434 8.5852 140.575 12.107 139.273Z" stroke="#595535" stroke-width="0.5" stroke-miterlimit="10"/>
<path d="M71.4751 36.1781C64.5171 42.6709 55.0542 50.6064 55.0542 59.9848C55.0542 69.3632 58.8436 72.2488 66.4225 77.2987C74.0014 82.3486 75.8961 80.1844 83.475 83.0701C91.0539 85.9557 96.1065 81.6272 94.8434 88.12C93.5802 94.6127 93.3233 104.719 83.9782 111.566C74.633 118.413 60.8561 127.419 48.9204 139.273C38.9115 149.208 21.9553 163.312 5.79128 176.567V195.415C17.0312 183.976 27.4789 174.323 34.1961 168.937C51.2379 155.267 81.3609 126.098 91.6855 120.559C102.01 115.02 110.633 105.409 113.159 91.7026C115.685 77.9957 107.475 62.1368 106.843 53.4921C106.212 44.8473 104.317 39.0577 103.054 26.3534C102.17 17.8781 100.876 9.46503 99.1788 1.15285H74.4082C74.4082 2.69349 74.4885 4.27082 74.633 5.87261C75.8961 20.3009 78.4224 29.6793 71.4751 36.1781Z" stroke="#595535" stroke-width="0.5" stroke-miterlimit="10"/>
<path d="M106.843 53.4921C107.475 62.1368 115.685 78.0324 113.159 91.727C110.633 105.422 102.026 115.045 91.6855 120.584C81.3448 126.123 51.2379 155.291 34.1961 168.961C27.4789 174.347 17.0044 184.001 5.79128 195.415V230.587C10.967 220.72 19.5307 210.32 29.7858 201.358C43.2362 189.632 75.1575 158.501 85.3698 151.397C95.582 144.292 110.633 120.559 125.384 108.748C140.135 96.9359 144.117 78.7171 145.369 63.5674C146.622 48.4177 131.464 28.2365 125.384 13.8387C123.786 9.84805 122.89 5.53795 122.745 1.15285H99.1949C100.892 9.46503 102.186 17.8781 103.07 26.3534C104.317 39.0577 106.212 44.8351 106.843 53.4921Z" stroke="#595535" stroke-width="0.5" stroke-miterlimit="10"/>
<path d="M11.4701 54.189C9.43087 58.1752 7.48797 62.0145 5.79128 65.7378V108.803C8.08743 110.747 11.4701 112.177 17.1543 114.812C29.7269 120.626 34.2068 127.786 27.2595 132.481C20.3122 137.176 22.2765 135.501 12.107 139.273C8.59055 140.575 7.01697 142.434 5.79664 144.494V161.79C9.02641 159.33 12.4011 157.128 15.8965 155.199C31.6859 146.542 34.2122 136.442 46.849 124.178C59.4859 111.914 54.7865 108.76 51.8963 100.372C49.006 91.9838 36.7278 83.0701 30.4174 77.2987C24.107 71.5274 20.9437 65.7561 26.0231 53.4921C31.1025 41.228 36.1015 26.7936 45.5752 15.251C48.6528 11.5033 51.3932 6.37393 53.6947 1.15285H34.999C33.5592 4.05685 32.0177 6.89359 30.4174 9.47968C22.8385 21.7437 19.6806 38.3424 11.4701 54.189Z" stroke="#595535" stroke-width="0.5" stroke-miterlimit="10"/>
<path d="M57.6019 660.214C65.8123 655.885 65.1808 647.228 61.3913 641.457C57.6019 635.686 56.3387 633.509 56.3387 623.422C56.3387 613.334 55.7071 599.615 51.3717 586.214C47.0364 572.813 42.4387 544.066 40.544 531.802C38.6493 519.538 34.8384 514.488 34.8384 502.224C34.8384 489.96 36.1015 481.297 31.0489 467.272C25.9963 453.247 28.5226 443.062 26.6279 438.733C24.7332 434.405 29.7858 423.584 26.6279 418.558C23.5664 413.667 12.7761 423.694 5.79128 427.594V437.395C11.6253 437.395 17.2025 439.033 19.049 443.783C21.5753 450.276 20.3122 460.461 21.5753 467.272C22.8385 474.083 29.1542 490.706 31.0489 508.717C32.9437 526.728 30.4174 533.966 34.2068 550.559C37.9963 567.151 46.8437 569.316 46.2067 605.386C45.5698 641.457 40.5226 644.343 32.2907 647.228C24.0588 650.114 18.3746 653.006 9.55397 653C8.28486 653.013 7.01759 652.886 5.76987 652.621V664.848C20.9705 665.997 29.1756 666.101 37.536 667.434C46.5921 668.871 49.3646 664.542 57.6019 660.214Z" stroke="#595535" stroke-width="0.5" stroke-miterlimit="10"/>
<path d="M32.3121 647.216C40.5226 644.33 45.5752 641.445 46.2282 605.374C46.8811 569.303 37.9963 567.127 34.2068 550.559C30.4174 533.991 32.9437 526.752 31.0489 508.717C29.1542 490.681 22.8385 474.083 21.5753 467.272C20.3122 460.461 21.5753 450.276 19.049 443.783C17.2025 439.033 11.6253 437.37 5.79128 437.395V467.272C14.6333 469.766 17.7859 495.731 18.4174 512.324C19.049 528.916 22.3942 546.23 23.5664 557.773C24.7385 569.316 33.8107 575.075 34.3246 593.122C34.8384 611.17 27.7519 610.02 25.9268 618.525C24.1016 627.029 24.3211 629.914 7.46656 630.636L5.79128 630.709V652.639C7.039 652.904 8.30627 653.031 9.57538 653.018C18.4174 653.006 24.1016 650.114 32.3121 647.216Z" stroke="#595535" stroke-width="0.5" stroke-miterlimit="10"/>
<path d="M11.4701 54.189C19.6806 38.2935 22.8385 21.7193 30.4174 9.45523C32.0177 6.89359 33.5592 4.05685 34.999 1.15285H12.76C10.8546 4.25248 8.17842 8.01851 5.80198 11.8701V65.7378C7.48796 62.0145 9.43086 58.1752 11.4701 54.189Z" stroke="#595535" stroke-width="0.5" stroke-miterlimit="10"/>
<path d="M43.3647 693.069C50.9436 695.233 55.675 701.365 58.5278 705.694C61.3806 710.022 60.4225 717.957 61.0862 724.456C61.7499 730.955 62.9488 737.442 64.7526 741.77C66.5563 746.099 70.212 750.788 71.7909 750.788C74.8463 750.872 77.8636 749.999 80.5152 748.263C84.5027 745.738 89.7908 738.885 91.6855 733.835C93.5802 728.785 92.6329 717.236 91.6855 710.743C90.7382 704.251 87.8961 697.036 86.6329 688.38C85.3698 679.723 84.7382 668.204 82.2119 662.409C79.6856 656.613 74.0014 652.67 70.5277 644.013C67.0541 635.356 67.0541 634.273 66.1067 623.837C65.1594 613.401 64.212 597.506 62.0015 584.52C59.791 571.535 56.6491 564.681 53.4752 552.778C50.3013 540.875 49.9962 519.232 47.7857 515.625C45.5752 512.018 45.5752 503.361 44.6278 494.515C43.6804 485.668 42.4173 487.484 40.8384 478.827C39.2594 470.17 42.7331 457.545 42.7331 447.085C42.7331 436.624 45.5752 430.792 46.8437 423.944C48.1122 417.097 48.1015 417.452 46.8437 412.763C45.5859 408.073 44.312 406.649 43.0489 402.302C41.7857 397.955 38.3121 396.891 35.1542 396.188C31.9963 395.485 25.3648 395.828 19.049 396.91C15.099 397.588 10.0357 401.367 5.79128 404.815V427.588C12.7761 423.688 23.5664 413.655 26.6279 418.552C29.7858 423.602 24.7332 434.448 26.6279 438.727C28.5226 443.007 26.0231 453.247 31.0489 467.272C36.0748 481.297 34.8384 489.954 34.8384 502.224C34.8384 514.494 38.6278 519.538 40.5226 531.802C42.4173 544.066 47.0149 572.813 51.3503 586.214C55.6857 599.615 56.3173 613.322 56.3173 623.422C56.3173 633.521 57.5805 635.686 61.3699 641.457C65.1594 647.228 65.7909 655.885 57.5805 660.214C49.37 664.542 46.5921 668.871 37.5574 667.428C29.197 666.095 20.9919 665.991 5.79128 664.842V687.304C12.7493 689.021 18.2515 689.138 23.1971 689.431C30.0097 689.865 36.7665 691.084 43.3647 693.069V693.069Z" stroke="#595535" stroke-width="0.5" stroke-miterlimit="10"/>
<path d="M25.9268 618.525C27.7519 610.02 34.8384 611.158 34.3246 593.122C33.8107 575.087 24.7332 569.316 23.5664 557.773C22.3996 546.23 19.0651 528.916 18.4174 512.324C17.7698 495.731 14.6333 469.767 5.79128 467.272V630.709L7.46656 630.654C24.2996 629.914 24.1016 627.041 25.9268 618.525Z" stroke="#595535" stroke-width="0.5" stroke-miterlimit="10"/>
<path d="M26.0231 53.4921C20.9705 65.7561 24.1284 71.5274 30.4441 77.2988C36.7599 83.0701 49.0328 91.9716 51.9177 100.384C54.8026 108.796 59.5019 111.927 46.8704 124.191C34.2389 136.455 31.7073 146.555 15.9179 155.212C12.4136 157.135 9.02999 159.333 5.79128 161.79V176.524C21.9553 163.3 38.9115 149.196 48.9204 139.23C60.8561 127.376 74.6116 118.377 83.9782 111.523C93.3447 104.67 93.5802 94.5699 94.8434 88.0772C96.1065 81.5844 91.0539 85.9129 83.475 83.0273C75.8961 80.1416 74.0014 82.3059 66.4225 77.256C58.8436 72.2061 55.0542 69.3082 55.0542 59.942C55.0542 50.5759 64.5278 42.6281 71.4751 36.1353C78.4224 29.6426 75.8961 20.2398 74.633 5.82982C74.4885 4.22804 74.4242 2.65071 74.4082 1.11006H53.6947C51.3932 6.33115 48.6528 11.4605 45.5752 15.2082C36.1015 26.7936 31.0489 41.228 26.0231 53.4921Z" stroke="#595535" stroke-width="0.5" stroke-miterlimit="10"/>
<path d="M380.744 491.036C377.377 507.274 369.429 511.058 362.546 520.797C355.663 530.536 360.913 529.968 367.138 541.358C373.363 552.748 368.492 553.805 363.755 564.626C359.018 575.448 368.963 579.776 380.754 581.396C392.545 583.016 393.6 584.105 408.752 585.725C423.155 587.271 438.881 585.884 440.411 585.725V579.721C439.154 579.232 429.08 575.38 421.523 574.366C413.452 573.283 406.858 575.448 389.596 574.366C372.335 573.283 377.018 563.544 380.754 552.723C384.49 541.902 383.173 537.029 377.966 532.163C372.758 527.296 365.655 524.588 377.966 513.045C390.276 501.503 383.174 500.237 389.596 486.145C396.019 472.053 405.91 470.995 418.702 468.336C426.077 466.829 433.336 464.661 440.411 461.849V439.748C429.969 448.833 404.925 448.864 395.489 455.87C386.053 462.876 384.094 474.81 380.744 491.036Z" stroke="#595535" stroke-width="0.5" stroke-miterlimit="10"/>
<path d="M435.123 494.282C436.194 506.192 439.32 504.566 437.767 516.469C436.215 528.372 429.739 532.163 435.123 535.947C438.966 538.637 440.08 541.052 440.401 542.226V480.27C439.491 480.649 434.122 483.369 435.123 494.282Z" stroke="#595535" stroke-width="0.5" stroke-miterlimit="10"/>
<path d="M389.586 486.17C383.163 500.231 390.271 501.503 377.955 513.07C365.639 524.637 372.742 527.315 377.955 532.187C383.168 537.06 384.485 541.926 380.744 552.748C377.002 563.569 372.324 573.308 389.586 574.39C406.847 575.472 413.441 573.308 421.512 574.39C429.07 575.405 439.143 579.281 440.401 579.746V569.481C438.998 569.316 426.131 567.842 411.022 567.329C395.008 566.791 386.481 559.216 392.165 546.768C397.85 534.321 399.744 534.504 395.479 513.045C391.213 491.586 398.321 482.685 413.478 476.852C428.508 471.069 435.262 473.147 440.401 473.71V461.874C433.325 464.685 426.066 466.854 418.692 468.36C405.9 471.02 396.008 472.102 389.586 486.17Z" stroke="#595535" stroke-width="0.5" stroke-miterlimit="10"/>
<path d="M405.536 494.282C404.701 502.945 413.478 505.11 415.469 515.387C417.461 525.664 392.165 546.768 415.469 556.507C435.749 564.987 439.716 560.787 440.401 559.515V553.243C438.972 553.01 425.773 550.663 426.934 542.984C428.165 534.865 434.229 532.236 426.934 519.214C419.639 506.192 416.866 494.826 423.723 487.79C430.579 480.753 439.994 478.998 439.994 478.998C439.994 478.998 430.552 480.759 423.723 487.79C416.893 494.82 419.66 506.192 426.934 519.214C434.208 532.236 428.165 534.865 426.934 542.984C425.773 550.663 438.972 553.01 440.401 553.243V542.238C440.08 541.064 438.966 538.649 435.123 535.959C429.717 532.175 436.194 528.384 437.767 516.481C439.341 504.578 436.215 506.204 435.123 494.295C434.122 483.394 439.491 480.661 440.401 480.282V476.858C423.915 475.709 406.371 485.65 405.536 494.282Z" stroke="#595535" stroke-width="0.5" stroke-miterlimit="10"/>
<path d="M413.478 476.852C398.321 482.685 391.218 491.58 395.479 513.045C399.739 534.51 397.85 534.327 392.165 546.768C386.481 559.21 395.008 566.791 411.022 567.329C426.131 567.842 438.998 569.316 440.401 569.481V559.515C439.716 560.738 435.749 565.018 415.469 556.507C392.165 546.768 417.455 525.67 415.469 515.387C413.484 505.104 404.701 502.933 405.536 494.282C406.371 485.631 423.915 475.709 440.401 476.846V473.71C435.262 473.147 428.518 471.069 413.478 476.852Z" stroke="#595535" stroke-width="0.5" stroke-miterlimit="10"/>
<path d="M412.997 940.826H440.401V894.563C433.434 903.759 427.118 913.571 421.512 923.909C418.167 930.127 415.288 935.953 412.997 940.826Z" stroke="#595535" stroke-width="0.5" stroke-miterlimit="10"/>
<path d="M402.378 926.575C400.392 931.618 398.358 936.314 396.747 940.826H412.997C415.298 935.935 418.178 930.127 421.523 923.897C427.129 913.559 433.445 903.746 440.411 894.551V864.074C439.212 866.312 429.91 883.504 421.523 894.38C412.531 906.045 406.429 916.267 402.378 926.575Z" stroke="#595535" stroke-width="0.5" stroke-miterlimit="10"/>
<path d="M421.512 790.796C415.85 806.484 411.584 815.141 409.202 825.962C406.82 836.783 391.202 856.805 386.936 871.955C382.67 887.105 370.344 914.139 364.676 932.016C363.605 935.287 362.642 938.215 361.711 940.826H368.069C374.936 919.996 385.058 902.42 389.57 893.059C395.045 881.694 401.147 861.678 407.307 850.435C413.468 839.192 418.676 817.305 421.496 808.11C424.172 799.38 438.891 780.916 440.385 779.058V761.175C439.025 762.661 426.854 776.001 421.512 790.796Z" stroke="#595535" stroke-width="0.5" stroke-miterlimit="10"/>
<path d="M397.641 910.911C392.931 918.933 388.761 930.97 385.807 940.826H396.747C398.353 936.314 400.392 931.618 402.378 926.575C406.429 916.267 412.547 906.045 421.512 894.392C429.899 883.516 439.202 866.324 440.401 864.087V831.33C436.274 838.238 433.791 855.308 428.165 866.728C422.481 878.271 406.847 895.224 397.641 910.911Z" stroke="#595535" stroke-width="0.5" stroke-miterlimit="10"/>
<path d="M400.531 809.553C394.847 830.474 399.268 837.346 385.373 856.995C371.479 876.644 360.447 888.908 352.724 909.829C348.977 920.003 345.525 931.6 342.999 940.826H361.732C362.663 938.215 363.654 935.287 364.697 932.016C370.381 914.158 382.697 887.105 386.958 871.955C391.218 856.805 406.852 836.789 409.223 825.962C411.594 815.135 415.855 806.484 421.534 790.796C426.886 776.001 439.046 762.673 440.422 761.175V743.366C439.18 745.133 429.343 759.127 421.534 770.596C413.163 782.86 406.215 788.632 400.531 809.553Z" stroke="#595535" stroke-width="0.5" stroke-miterlimit="10"/>
<path d="M407.323 850.435C401.163 861.678 395.061 881.694 389.586 893.059C385.074 902.42 374.952 919.996 368.085 940.826H376.649C380.722 928.983 387.027 916.878 389.591 908.747C393.172 897.388 403.063 889.795 407.789 874.119C412.515 858.444 417.739 857.887 423.894 837.327C427.609 825.004 433.195 813.525 440.395 803.415V779.058C438.902 780.892 424.188 799.38 421.507 808.11C418.692 817.305 413.478 839.186 407.323 850.435Z" stroke="#595535" stroke-width="0.5" stroke-miterlimit="10"/>
<path d="M407.794 874.119C403.057 889.813 393.166 897.388 389.596 908.747C387.033 916.878 380.728 928.984 376.654 940.826H385.807C388.761 930.97 392.931 918.933 397.641 910.911C406.847 895.224 422.481 878.271 428.149 866.728C433.775 855.308 436.258 838.238 440.385 831.33V803.415C433.188 813.534 427.607 825.021 423.899 837.352C417.744 857.888 412.531 858.432 407.794 874.119Z" stroke="#595535" stroke-width="0.5" stroke-miterlimit="10"/>
<path d="M207.895 852.434C208.372 846.528 209.319 842.988 205.053 839.076C200.787 835.163 188.948 831.342 182.317 831.898C175.685 832.455 166.688 828.621 161.004 834.056C155.319 839.491 154.367 847.849 153.896 863.151C153.425 878.454 154.843 895.762 158.178 910.373C161.512 924.985 166.704 934.18 171.441 935.8C174.085 936.711 175.723 927.143 176.648 917.404C177.574 907.665 178.072 905.825 180.93 897.009C183.788 888.193 186.138 885.515 190.875 880.899C195.612 876.284 197.035 871.729 201.296 866.991C205.556 862.253 207.424 858.34 207.895 852.434Z" stroke="#595535" stroke-width="0.5" stroke-miterlimit="10"/>
</svg>
