<?xml version="1.0" encoding="UTF-8"?>
<svg id="Layer_1" data-name="Layer 1" xmlns="http://www.w3.org/2000/svg" viewBox="0 0 1024 1024">
  <defs>
    <style>
      .cls-1 {
        fill: #fcca2e;
      }

      .cls-2 {
        fill: #141414;
      }
    </style>
  </defs>
  <rect class="cls-1" width="1024" height="1024"/>
  <path class="cls-2" d="M333.16,656.37c-4.17-37.54,0-73,4.17-110.54,6.26-60.49,10.43-123.06,27.11-183.54,8.34-29.2,20.86-58.4,39.63-79.26,18.77-20.86,45.88-33.37,73-39.63,52.14-10.43,104.29-4.17,152.26,20.86,31.29,16.69,54.23,41.71,73,73,25.03,39.63,35.46,83.43,33.37,131.4,0,27.11-2.08,56.31,0,83.43,2.09,27.11,4.17,54.23,2.09,79.26-2.09,39.63-2.09,77.17-12.52,114.71-10.43,37.54-33.37,66.74-62.57,91.77-16.69,14.6-33.37,27.11-54.23,29.2-12.52,0-27.11,2.09-39.63,8.34-14.6,6.26-27.11,12.52-41.71,16.69-27.11,10.43-52.14-2.09-77.17-12.52-39.63-14.6-70.91-41.71-93.86-77.17-14.6-18.77-16.69-43.8-20.86-64.66-4.17-25.03,0-54.23-2.09-81.34Zm325.37-52.14c2.08-60.49-4.17-118.89-18.77-173.12-10.43-39.63-18.77-79.26-43.8-112.63-16.69-22.94-35.46-39.63-66.74-35.46-14.6,2.09-27.11,4.17-41.71,4.17-18.77,0-31.29,6.26-41.72,18.77-16.68,18.77-29.2,41.71-35.46,66.74-14.6,56.31-25.03,112.63-29.2,168.94-4.17,70.92-2.09,141.83,25.03,210.66,14.6,35.46,25.03,73,60.49,95.94,14.6,10.43,29.2,20.86,47.97,18.77,18.77-2.08,37.55-8.34,56.32-12.52,16.68-4.17,31.28-10.43,41.71-22.94,27.11-33.37,37.54-75.09,41.71-116.8,2.08-37.54,6.26-75.09,4.17-110.54Zm14.6-125.14c0,8.34-2.09,18.77,0,27.11,6.26,18.77,6.26,37.54,6.26,56.31v114.71c0,12.52-2.08,27.11-4.17,39.63,0,4.17-4.17,10.43,2.09,12.51,6.26,2.09,6.26-6.26,8.34-10.43,8.34-22.94,12.51-45.89,12.51-70.91,2.09-35.46-4.17-68.83-6.26-104.29-2.09-20.86-2.09-43.8-18.77-64.66Zm-269.06,331.63c-6.26-12.52-10.43-27.11-16.69-39.63-10.43-25.03-10.43-52.14-18.77-77.17-2.09-4.17-2.09-10.43-6.26-8.34-8.34,0-8.34,4.17-8.34,10.43,0,22.94,4.17,47.97,10.43,70.91,8.34,16.69,16.69,35.46,39.63,43.8Zm302.43-339.97c8.34-18.77,6.26-35.46,2.09-52.14-4.17-18.77-10.43-37.54-20.86-54.23-2.08-4.17-4.17-4.17-8.34-2.09-2.08,2.09,0,4.17,0,6.26,8.34,33.37,16.69,68.83,27.11,102.2Zm-56.31-95.94c4.17-12.52-2.09-22.94-6.26-33.37,0-2.09-2.08-4.17-4.17-2.09-2.09,0-2.09,2.09-2.09,4.17,2.09,10.43,4.17,20.86,12.52,31.29Z"/>
  <path class="cls-2" d="M68.3,820.42v-122.43c0-12.98,5.56-18.55,16.69-20.4,9.27-1.85,20.4-1.85,24.11,12.99,3.71,16.69,7.42,33.39,7.42,50.08,1.85,37.1,5.56,74.2,3.71,109.44-1.86,14.84-1.86,31.53-1.86,46.37,0,7.42,1.86,9.27,11.13,9.27h115.01c12.98,0,18.55,7.42,20.4,16.69,1.86,9.28,1.86,18.55-11.13,22.26-35.24,14.84-66.78,12.98-98.31,12.98-25.97,0-51.94-3.71-77.91-3.71-9.27-1.85-9.27-5.56-9.27-11.13v-122.43Zm20.4,31.54c11.13-31.54-1.85-64.92,0-96.46v96.46Zm81.62,77.91c16.69,5.56,33.39,1.86,50.08-1.85-16.69,0-33.39-1.86-50.08,1.85Z"/>
  <path class="cls-2" d="M957.95,157.5v79.76c0,9.27-1.86,18.55-11.13,18.55-11.13,0-24.11,5.57-29.68-11.13-3.71-12.98-7.42-25.97-9.28-38.95-1.85-27.82,0-53.79,0-81.62,0-12.98-3.71-14.84-16.69-14.84h-105.73c-9.27,0-16.69,0-20.4-11.13-3.71-20.4-1.85-24.11,12.99-29.68,29.68-12.98,59.36-12.98,90.89-7.42,3.71,0,9.27,1.85,14.84,0,16.7-5.56,33.39,0,48.23,3.71,1.86,0,3.71,1.85,5.57,1.85,22.26-5.56,16.69,11.13,16.69,22.26,3.71,22.26,3.71,44.52,3.71,68.63Zm-98.31-70.49c-18.55-9.27-33.39,1.86-48.23,0,14.84,3.71,31.53,5.57,48.23,0Zm77.91,79.76c-9.28,18.55-5.57,38.95,0,57.5v-57.5Z"/>
  <path class="cls-2" d="M508.29,204.57c-9.27,0-20.4,0-24.11-11.13-3.71-11.13,7.42-18.55,14.84-24.11,24.11-14.84,48.23-29.68,74.2-38.95,11.13-3.71,14.84,0,12.99,11.13-3.71,27.82-46.38,63.07-77.91,63.07Z"/>
</svg>