<svg width="151" height="26" viewBox="0 0 151 26" fill="none" xmlns="http://www.w3.org/2000/svg">
<g style="mix-blend-mode:multiply">
<rect x="0.727295" width="150.273" height="26" rx="10" fill="black" fill-opacity="0.33"/>
</g>
<g clip-path="url(#clip0_1071_43)">
<path d="M58.113 13.6356C57.9281 18.5282 53.7985 22.3336 48.8061 22.2128C43.8136 22.0316 39.9306 17.9846 40.0539 13.092C40.3004 8.19934 44.43 4.39397 49.4224 4.57518C54.4149 4.69599 58.2979 8.80337 58.113 13.6356Z" fill="#FFD21F" stroke="white" stroke-width="0.5" stroke-miterlimit="10"/>
<path d="M49.1142 16.2933C45.7242 16.2933 44.7997 14.9644 44.6764 14.8436C44.5532 14.6624 44.6148 14.3604 44.7997 14.2396C44.9846 14.1188 45.2928 14.1792 45.4161 14.3604C45.4161 14.3604 46.2173 15.3872 49.0525 15.3872C51.9494 15.3872 52.7507 14.3 52.7507 14.3C52.8739 14.1188 53.1821 14.0584 53.367 14.1792C53.5519 14.3 53.6135 14.602 53.4903 14.7832C53.4903 14.9644 52.5041 16.2933 49.1142 16.2933Z" fill="#403408"/>
<path d="M52.1961 9.58854C52.6275 9.40734 53.059 9.58854 53.3671 9.95096C53.6753 9.58854 54.1068 9.40734 54.5382 9.58854C55.0929 9.83016 55.2162 10.4342 54.9697 10.9778C54.7848 11.4006 54.0451 12.1255 53.6137 12.4879C53.4904 12.6087 53.2439 12.6087 53.059 12.4879C52.6275 12.0651 51.8879 11.3402 51.7646 10.9174C51.5181 10.4342 51.6414 9.83016 52.1961 9.58854Z" fill="#D1212D"/>
<path d="M43.752 9.58854C44.1834 9.40734 44.6149 9.58854 44.9231 9.95096C45.2312 9.58854 45.6627 9.40734 46.0941 9.58854C46.6488 9.83016 46.7721 10.4342 46.5256 10.9778C46.3407 11.4006 45.601 12.1255 45.1696 12.4879C45.0463 12.6087 44.7998 12.6087 44.6149 12.4879C44.1834 12.0651 43.4438 11.3402 43.3205 10.9174C43.074 10.4342 43.1973 9.83016 43.752 9.58854Z" fill="#D1212D"/>
<path d="M85.7873 13.394C85.7873 18.2866 81.781 22.2128 76.7885 22.2128C71.7961 22.2128 67.7898 18.2866 67.7898 13.394C67.7898 8.50137 71.7961 4.5752 76.7885 4.5752C81.7194 4.5752 85.7873 8.50137 85.7873 13.394Z" fill="#DBDBDB"/>
<path d="M72.6589 13.9377C72.2891 13.9377 71.981 13.6356 71.981 13.2732V11.7028C71.981 11.3403 72.2891 11.0383 72.6589 11.0383C73.0288 11.0383 73.3369 11.3403 73.3369 11.7028V13.2732C73.3369 13.6356 73.0288 13.9377 72.6589 13.9377Z" fill="#403408"/>
<path d="M80.8565 13.9377C80.4866 13.9377 80.1785 13.6356 80.1785 13.2732V11.7028C80.1785 11.3403 80.4866 11.0383 80.8565 11.0383C81.2263 11.0383 81.5344 11.3403 81.5344 11.7028V13.2732C81.5344 13.6356 81.2263 13.9377 80.8565 13.9377Z" fill="#403408"/>
<path d="M81.9044 16.2933H71.6113C71.3647 16.2933 71.2415 16.1121 71.2415 15.9309C71.2415 15.6893 71.4264 15.5685 71.6113 15.5685H81.966C82.2125 15.5685 82.3358 15.7497 82.3358 15.9309C82.3358 16.1121 82.1509 16.2933 81.9044 16.2933Z" fill="#403408"/>
<path d="M114.078 13.394C114.078 18.2866 110.072 22.2128 105.079 22.2128C100.087 22.2128 96.0803 18.2866 96.0803 13.394C96.0803 8.50137 100.087 4.5752 105.079 4.5752C110.01 4.5752 114.078 8.50137 114.078 13.394Z" fill="#DBDBDB"/>
<path d="M100.949 13.4544C100.58 13.4544 100.271 13.1524 100.271 12.79V10.5551C100.271 10.1926 100.58 9.89062 100.949 9.89062C101.319 9.89062 101.627 10.1926 101.627 10.5551V12.79C101.566 13.1524 101.319 13.4544 100.949 13.4544Z" fill="#403408"/>
<path d="M109.147 13.4544C108.777 13.4544 108.469 13.1524 108.469 12.79V10.5551C108.469 10.1926 108.777 9.89062 109.147 9.89062C109.517 9.89062 109.825 10.1926 109.825 10.5551V12.79C109.825 13.1524 109.517 13.4544 109.147 13.4544Z" fill="#403408"/>
<path d="M101.812 17.3201C101.751 17.3201 101.751 17.3201 101.689 17.3201C101.443 17.2597 101.319 17.0181 101.381 16.7765C101.627 15.8705 102.737 14.1188 105.079 14.1188C107.36 14.1188 108.469 15.8705 108.716 16.7765C108.777 17.0181 108.654 17.2597 108.407 17.3201C108.161 17.3805 107.914 17.2597 107.853 17.0181C107.853 16.9577 107.236 15.0248 105.079 15.0248C102.922 15.0248 102.305 16.9577 102.244 17.0181C102.182 17.1993 101.997 17.3201 101.812 17.3201Z" fill="#403408"/>
<path fill-rule="evenodd" clip-rule="evenodd" d="M18.2351 4.69592C17.064 4.69592 16.0779 5.66237 16.0779 6.87042V20.8234C16.0779 21.0047 16.2012 21.1859 16.3244 21.3067C16.5093 21.3671 16.6942 21.3671 16.8791 21.3067L22.981 18.7093L29.0213 21.3067C29.2062 21.3671 29.3911 21.3671 29.576 21.2463C29.7609 21.1255 29.8225 20.9442 29.8225 20.763V6.81002C29.8225 5.66237 28.8364 4.69592 27.6653 4.69592H18.2351Z" fill="#DBDBDB"/>
</g>
<g clip-path="url(#clip1_1071_43)">
<path d="M130.8 5.89392C131.129 6.03183 131.491 6.12918 131.778 6.31577C132.536 6.81875 132.789 7.55698 132.747 8.42502C132.739 8.56293 132.84 8.76574 132.949 8.83064C134.644 9.78792 136.355 10.7371 138.057 11.6781C138.116 11.7106 138.175 11.7349 138.234 11.7593C139.448 10.9561 140.721 11.0048 141.538 11.8891C142.272 12.6841 142.255 14.047 141.513 14.8582C140.653 15.7912 139.406 15.8642 138.142 15.0367C136.372 16.0426 134.593 17.0486 132.831 18.0708C132.722 18.1357 132.663 18.3547 132.671 18.4926C132.739 19.677 132.039 20.6019 130.851 20.8452C129.57 21.113 128.364 20.2611 128.179 18.9713C128.01 17.7625 128.98 16.6267 130.244 16.5537C130.809 16.5213 131.314 16.6511 131.786 16.9675C131.896 17.0405 132.132 17.0486 132.25 16.9837C133.936 16.0426 135.621 15.0854 137.299 14.1119C137.408 14.047 137.476 13.8766 137.501 13.7468C137.67 13.041 137.282 12.7084 136.658 12.392C135.166 11.6295 133.742 10.7858 132.292 9.9745C132.098 9.86093 131.963 9.82848 131.744 9.98262C130.927 10.5505 130.033 10.5667 129.182 10.08C128.288 9.56888 127.968 8.74952 128.111 7.76791C128.238 6.89176 128.904 6.2022 129.814 5.97505C129.89 5.95882 129.966 5.91826 130.042 5.89392C130.294 5.89392 130.547 5.89392 130.8 5.89392Z" fill="white"/>
</g>
<defs>
<clipPath id="clip0_1071_43">
<rect width="98" height="18" fill="white" transform="translate(16.0779 4.39392)"/>
</clipPath>
<clipPath id="clip1_1071_43">
<rect width="14" height="15" fill="white" transform="translate(128.078 5.89392)"/>
</clipPath>
</defs>
</svg>
